<?xml version="1.0" encoding="utf-8"?>
<svg xmlns="http://www.w3.org/2000/svg" xmlns:xlink="http://www.w3.org/1999/xlink" width="800" height="300" viewBox="0 0 3200 1200">
<defs>
  <clipPath id="clip360">
    <rect x="0" y="0" width="3200" height="1200"/>
  </clipPath>
</defs>
<path clip-path="url(#clip360)" d="M0 1200 L3200 1200 L3200 0 L0 0  Z" fill="#ffffff" fill-rule="evenodd" fill-opacity="1"/>
<defs>
  <clipPath id="clip361">
    <rect x="640" y="0" width="2241" height="1200"/>
  </clipPath>
</defs>
<path clip-path="url(#clip360)" d="M1093.25 305.568 L3152.76 305.568 L3152.76 47.2441 L1093.25 47.2441  Z" fill="#ffffff" fill-rule="evenodd" fill-opacity="1"/>
<defs>
  <clipPath id="clip362">
    <rect x="1093" y="47" width="2061" height="259"/>
  </clipPath>
</defs>
<polyline clip-path="url(#clip362)" style="stroke:#000000; stroke-linecap:round; stroke-linejoin:round; stroke-width:2; stroke-opacity:0.1; fill:none" points="1475.36,305.568 1475.36,47.2441 "/>
<polyline clip-path="url(#clip362)" style="stroke:#000000; stroke-linecap:round; stroke-linejoin:round; stroke-width:2; stroke-opacity:0.1; fill:none" points="1880.13,305.568 1880.13,47.2441 "/>
<polyline clip-path="url(#clip362)" style="stroke:#000000; stroke-linecap:round; stroke-linejoin:round; stroke-width:2; stroke-opacity:0.1; fill:none" points="2284.91,305.568 2284.91,47.2441 "/>
<polyline clip-path="url(#clip362)" style="stroke:#000000; stroke-linecap:round; stroke-linejoin:round; stroke-width:2; stroke-opacity:0.1; fill:none" points="2689.69,305.568 2689.69,47.2441 "/>
<polyline clip-path="url(#clip362)" style="stroke:#000000; stroke-linecap:round; stroke-linejoin:round; stroke-width:2; stroke-opacity:0.1; fill:none" points="3094.47,305.568 3094.47,47.2441 "/>
<polyline clip-path="url(#clip362)" style="stroke:#000000; stroke-linecap:round; stroke-linejoin:round; stroke-width:2; stroke-opacity:0.1; fill:none" points="1093.25,298.257 3152.76,298.257 "/>
<polyline clip-path="url(#clip362)" style="stroke:#000000; stroke-linecap:round; stroke-linejoin:round; stroke-width:2; stroke-opacity:0.1; fill:none" points="1093.25,237.331 3152.76,237.331 "/>
<polyline clip-path="url(#clip362)" style="stroke:#000000; stroke-linecap:round; stroke-linejoin:round; stroke-width:2; stroke-opacity:0.1; fill:none" points="1093.25,176.406 3152.76,176.406 "/>
<polyline clip-path="url(#clip362)" style="stroke:#000000; stroke-linecap:round; stroke-linejoin:round; stroke-width:2; stroke-opacity:0.1; fill:none" points="1093.25,115.481 3152.76,115.481 "/>
<polyline clip-path="url(#clip362)" style="stroke:#000000; stroke-linecap:round; stroke-linejoin:round; stroke-width:2; stroke-opacity:0.1; fill:none" points="1093.25,54.5551 3152.76,54.5551 "/>
<path clip-path="url(#clip362)" d="M2932.56 176.406 L3094.47 176.406 L3094.47 54.5551 L2932.56 54.5551 L2932.56 176.406  Z" fill="#9fb6cd" fill-rule="evenodd" fill-opacity="1"/>
<polyline clip-path="url(#clip362)" style="stroke:#000000; stroke-linecap:round; stroke-linejoin:round; stroke-width:4; stroke-opacity:1; fill:none" points="2932.56,176.406 3094.47,176.406 3094.47,54.5551 2932.56,54.5551 2932.56,176.406 "/>
<path clip-path="url(#clip362)" d="M2932.56 298.257 L3094.47 298.257 L3094.47 176.406 L2932.56 176.406 L2932.56 298.257  Z" fill="#cfe2b5" fill-rule="evenodd" fill-opacity="0.8"/>
<polyline clip-path="url(#clip362)" style="stroke:#000000; stroke-linecap:round; stroke-linejoin:round; stroke-width:4; stroke-opacity:0.8; fill:none" points="2932.56,298.257 3094.47,298.257 3094.47,176.406 2932.56,176.406 2932.56,298.257 "/>
<path clip-path="url(#clip362)" d="M2770.65 176.406 L2932.56 176.406 L2932.56 54.5551 L2770.65 54.5551 L2770.65 176.406  Z" fill="#fffacd" fill-rule="evenodd" fill-opacity="1"/>
<polyline clip-path="url(#clip362)" style="stroke:#000000; stroke-linecap:round; stroke-linejoin:round; stroke-width:4; stroke-opacity:1; fill:none" points="2770.65,176.406 2932.56,176.406 2932.56,54.5551 2770.65,54.5551 2770.65,176.406 "/>
<path clip-path="url(#clip362)" d="M2770.65 298.257 L2932.56 298.257 L2932.56 176.406 L2770.65 176.406 L2770.65 298.257  Z" fill="#f5f0f0" fill-rule="evenodd" fill-opacity="0.8"/>
<polyline clip-path="url(#clip362)" style="stroke:#000000; stroke-linecap:round; stroke-linejoin:round; stroke-width:4; stroke-opacity:0.8; fill:none" points="2770.65,298.257 2932.56,298.257 2932.56,176.406 2770.65,176.406 2770.65,298.257 "/>
<path clip-path="url(#clip362)" d="M2608.73 176.406 L2770.65 176.406 L2770.65 54.5551 L2608.73 54.5551 L2608.73 176.406  Z" fill="#cd96cd" fill-rule="evenodd" fill-opacity="1"/>
<polyline clip-path="url(#clip362)" style="stroke:#000000; stroke-linecap:round; stroke-linejoin:round; stroke-width:4; stroke-opacity:1; fill:none" points="2608.73,176.406 2770.65,176.406 2770.65,54.5551 2608.73,54.5551 2608.73,176.406 "/>
<path clip-path="url(#clip362)" d="M2608.73 298.257 L2770.65 298.257 L2770.65 176.406 L2608.73 176.406 L2608.73 298.257  Z" fill="#f5f0f0" fill-rule="evenodd" fill-opacity="0.8"/>
<polyline clip-path="url(#clip362)" style="stroke:#000000; stroke-linecap:round; stroke-linejoin:round; stroke-width:4; stroke-opacity:0.8; fill:none" points="2608.73,298.257 2770.65,298.257 2770.65,176.406 2608.73,176.406 2608.73,298.257 "/>
<path clip-path="url(#clip362)" d="M2446.82 176.406 L2608.73 176.406 L2608.73 54.5551 L2446.82 54.5551 L2446.82 176.406  Z" fill="#b4eeb4" fill-rule="evenodd" fill-opacity="1"/>
<polyline clip-path="url(#clip362)" style="stroke:#000000; stroke-linecap:round; stroke-linejoin:round; stroke-width:4; stroke-opacity:1; fill:none" points="2446.82,176.406 2608.73,176.406 2608.73,54.5551 2446.82,54.5551 2446.82,176.406 "/>
<path clip-path="url(#clip362)" d="M2446.82 298.257 L2608.73 298.257 L2608.73 176.406 L2446.82 176.406 L2446.82 298.257  Z" fill="#f5f0f0" fill-rule="evenodd" fill-opacity="0.8"/>
<polyline clip-path="url(#clip362)" style="stroke:#000000; stroke-linecap:round; stroke-linejoin:round; stroke-width:4; stroke-opacity:0.8; fill:none" points="2446.82,298.257 2608.73,298.257 2608.73,176.406 2446.82,176.406 2446.82,298.257 "/>
<path clip-path="url(#clip362)" d="M2284.91 176.406 L2446.82 176.406 L2446.82 54.5551 L2284.91 54.5551 L2284.91 176.406  Z" fill="#eedd82" fill-rule="evenodd" fill-opacity="1"/>
<polyline clip-path="url(#clip362)" style="stroke:#000000; stroke-linecap:round; stroke-linejoin:round; stroke-width:4; stroke-opacity:1; fill:none" points="2284.91,176.406 2446.82,176.406 2446.82,54.5551 2284.91,54.5551 2284.91,176.406 "/>
<path clip-path="url(#clip362)" d="M2284.91 298.257 L2446.82 298.257 L2446.82 176.406 L2284.91 176.406 L2284.91 298.257  Z" fill="#f4f2ee" fill-rule="evenodd" fill-opacity="0.8"/>
<polyline clip-path="url(#clip362)" style="stroke:#000000; stroke-linecap:round; stroke-linejoin:round; stroke-width:4; stroke-opacity:0.8; fill:none" points="2284.91,298.257 2446.82,298.257 2446.82,176.406 2284.91,176.406 2284.91,298.257 "/>
<path clip-path="url(#clip362)" d="M2123 176.406 L2284.91 176.406 L2284.91 54.5551 L2123 54.5551 L2123 176.406  Z" fill="#c0c0c0" fill-rule="evenodd" fill-opacity="1"/>
<polyline clip-path="url(#clip362)" style="stroke:#000000; stroke-linecap:round; stroke-linejoin:round; stroke-width:4; stroke-opacity:1; fill:none" points="2123,176.406 2284.91,176.406 2284.91,54.5551 2123,54.5551 2123,176.406 "/>
<path clip-path="url(#clip362)" d="M2123 298.257 L2284.91 298.257 L2284.91 176.406 L2123 176.406 L2123 298.257  Z" fill="#c0c0c0" fill-rule="evenodd" fill-opacity="0.8"/>
<polyline clip-path="url(#clip362)" style="stroke:#000000; stroke-linecap:round; stroke-linejoin:round; stroke-width:4; stroke-opacity:0.8; fill:none" points="2123,298.257 2284.91,298.257 2284.91,176.406 2123,176.406 2123,298.257 "/>
<path clip-path="url(#clip362)" d="M1961.09 176.406 L2123 176.406 L2123 54.5551 L1961.09 54.5551 L1961.09 176.406  Z" fill="#c0c0c0" fill-rule="evenodd" fill-opacity="1"/>
<polyline clip-path="url(#clip362)" style="stroke:#000000; stroke-linecap:round; stroke-linejoin:round; stroke-width:4; stroke-opacity:1; fill:none" points="1961.09,176.406 2123,176.406 2123,54.5551 1961.09,54.5551 1961.09,176.406 "/>
<path clip-path="url(#clip362)" d="M1961.09 298.257 L2123 298.257 L2123 176.406 L1961.09 176.406 L1961.09 298.257  Z" fill="#c0c0c0" fill-rule="evenodd" fill-opacity="0.8"/>
<polyline clip-path="url(#clip362)" style="stroke:#000000; stroke-linecap:round; stroke-linejoin:round; stroke-width:4; stroke-opacity:0.8; fill:none" points="1961.09,298.257 2123,298.257 2123,176.406 1961.09,176.406 1961.09,298.257 "/>
<path clip-path="url(#clip362)" d="M1799.18 176.406 L1961.09 176.406 L1961.09 54.5551 L1799.18 54.5551 L1799.18 176.406  Z" fill="#c0c0c0" fill-rule="evenodd" fill-opacity="1"/>
<polyline clip-path="url(#clip362)" style="stroke:#000000; stroke-linecap:round; stroke-linejoin:round; stroke-width:4; stroke-opacity:1; fill:none" points="1799.18,176.406 1961.09,176.406 1961.09,54.5551 1799.18,54.5551 1799.18,176.406 "/>
<path clip-path="url(#clip362)" d="M1799.18 298.257 L1961.09 298.257 L1961.09 176.406 L1799.18 176.406 L1799.18 298.257  Z" fill="#c0c0c0" fill-rule="evenodd" fill-opacity="0.8"/>
<polyline clip-path="url(#clip362)" style="stroke:#000000; stroke-linecap:round; stroke-linejoin:round; stroke-width:4; stroke-opacity:0.8; fill:none" points="1799.18,298.257 1961.09,298.257 1961.09,176.406 1799.18,176.406 1799.18,298.257 "/>
<path clip-path="url(#clip362)" d="M1637.27 176.406 L1799.18 176.406 L1799.18 54.5551 L1637.27 54.5551 L1637.27 176.406  Z" fill="#c0c0c0" fill-rule="evenodd" fill-opacity="1"/>
<polyline clip-path="url(#clip362)" style="stroke:#000000; stroke-linecap:round; stroke-linejoin:round; stroke-width:4; stroke-opacity:1; fill:none" points="1637.27,176.406 1799.18,176.406 1799.18,54.5551 1637.27,54.5551 1637.27,176.406 "/>
<path clip-path="url(#clip362)" d="M1637.27 298.257 L1799.18 298.257 L1799.18 176.406 L1637.27 176.406 L1637.27 298.257  Z" fill="#c0c0c0" fill-rule="evenodd" fill-opacity="0.8"/>
<polyline clip-path="url(#clip362)" style="stroke:#000000; stroke-linecap:round; stroke-linejoin:round; stroke-width:4; stroke-opacity:0.8; fill:none" points="1637.27,298.257 1799.18,298.257 1799.18,176.406 1637.27,176.406 1637.27,298.257 "/>
<path clip-path="url(#clip362)" d="M1475.36 176.406 L1637.27 176.406 L1637.27 54.5551 L1475.36 54.5551 L1475.36 176.406  Z" fill="#c0c0c0" fill-rule="evenodd" fill-opacity="1"/>
<polyline clip-path="url(#clip362)" style="stroke:#000000; stroke-linecap:round; stroke-linejoin:round; stroke-width:4; stroke-opacity:1; fill:none" points="1475.36,176.406 1637.27,176.406 1637.27,54.5551 1475.36,54.5551 1475.36,176.406 "/>
<path clip-path="url(#clip362)" d="M1475.36 298.257 L1637.27 298.257 L1637.27 176.406 L1475.36 176.406 L1475.36 298.257  Z" fill="#c0c0c0" fill-rule="evenodd" fill-opacity="0.8"/>
<polyline clip-path="url(#clip362)" style="stroke:#000000; stroke-linecap:round; stroke-linejoin:round; stroke-width:4; stroke-opacity:0.8; fill:none" points="1475.36,298.257 1637.27,298.257 1637.27,176.406 1475.36,176.406 1475.36,298.257 "/>
<path clip-path="url(#clip362)" d="M1313.45 176.406 L1475.36 176.406 L1475.36 54.5551 L1313.45 54.5551 L1313.45 176.406  Z" fill="#c0c0c0" fill-rule="evenodd" fill-opacity="1"/>
<polyline clip-path="url(#clip362)" style="stroke:#000000; stroke-linecap:round; stroke-linejoin:round; stroke-width:4; stroke-opacity:1; fill:none" points="1313.45,176.406 1475.36,176.406 1475.36,54.5551 1313.45,54.5551 1313.45,176.406 "/>
<path clip-path="url(#clip362)" d="M1313.45 298.257 L1475.36 298.257 L1475.36 176.406 L1313.45 176.406 L1313.45 298.257  Z" fill="#c0c0c0" fill-rule="evenodd" fill-opacity="0.8"/>
<polyline clip-path="url(#clip362)" style="stroke:#000000; stroke-linecap:round; stroke-linejoin:round; stroke-width:4; stroke-opacity:0.8; fill:none" points="1313.45,298.257 1475.36,298.257 1475.36,176.406 1313.45,176.406 1313.45,298.257 "/>
<path clip-path="url(#clip362)" d="M1151.53 176.406 L1313.45 176.406 L1313.45 54.5551 L1151.53 54.5551 L1151.53 176.406  Z" fill="#c0c0c0" fill-rule="evenodd" fill-opacity="1"/>
<polyline clip-path="url(#clip362)" style="stroke:#000000; stroke-linecap:round; stroke-linejoin:round; stroke-width:4; stroke-opacity:1; fill:none" points="1151.53,176.406 1313.45,176.406 1313.45,54.5551 1151.53,54.5551 1151.53,176.406 "/>
<path clip-path="url(#clip362)" d="M1151.53 298.257 L1313.45 298.257 L1313.45 176.406 L1151.53 176.406 L1151.53 298.257  Z" fill="#c0c0c0" fill-rule="evenodd" fill-opacity="0.8"/>
<polyline clip-path="url(#clip362)" style="stroke:#000000; stroke-linecap:round; stroke-linejoin:round; stroke-width:4; stroke-opacity:0.8; fill:none" points="1151.53,298.257 1313.45,298.257 1313.45,176.406 1151.53,176.406 1151.53,298.257 "/>
<path clip-path="url(#clip360)" d="M2999.35 87.2255 L2999.35 95.2058 Q2994.7 92.9778 2990.56 91.884 Q2986.43 90.7903 2982.58 90.7903 Q2975.9 90.7903 2972.25 93.3829 Q2968.65 95.9755 2968.65 100.756 Q2968.65 104.766 2971.04 106.832 Q2973.47 108.857 2980.19 110.113 L2985.14 111.126 Q2994.29 112.868 2998.63 117.283 Q3003 121.658 3003 129.031 Q3003 137.821 2997.09 142.358 Q2991.21 146.895 2979.83 146.895 Q2975.54 146.895 2970.67 145.923 Q2965.85 144.951 2960.67 143.047 L2960.67 134.621 Q2965.65 137.416 2970.43 138.834 Q2975.21 140.252 2979.83 140.252 Q2986.84 140.252 2990.64 137.497 Q2994.45 134.743 2994.45 129.638 Q2994.45 125.182 2991.7 122.671 Q2988.98 120.159 2982.75 118.904 L2977.76 117.931 Q2968.61 116.108 2964.52 112.22 Q2960.43 108.331 2960.43 101.404 Q2960.43 93.3829 2966.06 88.7649 Q2971.73 84.1468 2981.65 84.1468 Q2985.91 84.1468 2990.32 84.9165 Q2994.74 85.6862 2999.35 87.2255 Z" fill="#000000" fill-rule="nonzero" fill-opacity="1" /><path clip-path="url(#clip360)" d="M3023.94 91.9651 L3023.94 138.996 L3033.83 138.996 Q3046.34 138.996 3052.14 133.325 Q3057.97 127.654 3057.97 115.42 Q3057.97 103.267 3052.14 97.6363 Q3046.34 91.9651 3033.83 91.9651 L3023.94 91.9651 M3015.76 85.2406 L3032.57 85.2406 Q3050.15 85.2406 3058.38 92.5727 Q3066.6 99.8643 3066.6 115.42 Q3066.6 131.056 3058.34 138.388 Q3050.07 145.721 3032.57 145.721 L3015.76 145.721 L3015.76 85.2406 Z" fill="#000000" fill-rule="nonzero" fill-opacity="1" /><path clip-path="url(#clip360)" d="M2990.36 207.091 L2998.58 207.091 L2998.58 243.833 Q2998.58 253.555 3002.11 257.849 Q3005.63 262.103 3013.53 262.103 Q3021.39 262.103 3024.92 257.849 Q3028.44 253.555 3028.44 243.833 L3028.44 207.091 L3036.66 207.091 L3036.66 244.846 Q3036.66 256.674 3030.79 262.71 Q3024.96 268.746 3013.53 268.746 Q3002.07 268.746 2996.19 262.71 Q2990.36 256.674 2990.36 244.846 L2990.36 207.091 Z" fill="#000000" fill-rule="nonzero" fill-opacity="1" /><path clip-path="url(#clip360)" d="M2814.7 85.2406 L2822.88 85.2406 L2822.88 145.721 L2814.7 145.721 L2814.7 85.2406 Z" fill="#000000" fill-rule="nonzero" fill-opacity="1" /><path clip-path="url(#clip360)" d="M2880.4 137.092 L2880.4 120.848 L2867.04 120.848 L2867.04 114.124 L2888.5 114.124 L2888.5 140.09 Q2883.77 143.452 2878.05 145.194 Q2872.34 146.895 2865.86 146.895 Q2851.68 146.895 2843.66 138.631 Q2835.68 130.327 2835.68 115.541 Q2835.68 100.715 2843.66 92.4512 Q2851.68 84.1468 2865.86 84.1468 Q2871.77 84.1468 2877.08 85.6051 Q2882.43 87.0635 2886.93 89.8991 L2886.93 98.6085 Q2882.39 94.7602 2877.28 92.8158 Q2872.18 90.8713 2866.55 90.8713 Q2855.45 90.8713 2849.86 97.0692 Q2844.31 103.267 2844.31 115.541 Q2844.31 127.775 2849.86 133.973 Q2855.45 140.171 2866.55 140.171 Q2870.88 140.171 2874.29 139.442 Q2877.69 138.672 2880.4 137.092 Z" fill="#000000" fill-rule="nonzero" fill-opacity="1" /><path clip-path="url(#clip360)" d="M2828.45 207.091 L2836.67 207.091 L2836.67 243.833 Q2836.67 253.555 2840.2 257.849 Q2843.72 262.103 2851.62 262.103 Q2859.48 262.103 2863 257.849 Q2866.53 253.555 2866.53 243.833 L2866.53 207.091 L2874.75 207.091 L2874.75 244.846 Q2874.75 256.674 2868.88 262.71 Q2863.04 268.746 2851.62 268.746 Q2840.16 268.746 2834.28 262.71 Q2828.45 256.674 2828.45 244.846 L2828.45 207.091 Z" fill="#000000" fill-rule="nonzero" fill-opacity="1" /><path clip-path="url(#clip360)" d="M2675.11 137.092 L2675.11 120.848 L2661.74 120.848 L2661.74 114.124 L2683.21 114.124 L2683.21 140.09 Q2678.47 143.452 2672.76 145.194 Q2667.05 146.895 2660.56 146.895 Q2646.39 146.895 2638.37 138.631 Q2630.38 130.327 2630.38 115.541 Q2630.38 100.715 2638.37 92.4512 Q2646.39 84.1468 2660.56 84.1468 Q2666.48 84.1468 2671.78 85.6051 Q2677.13 87.0635 2681.63 89.8991 L2681.63 98.6085 Q2677.09 94.7602 2671.99 92.8158 Q2666.88 90.8713 2661.25 90.8713 Q2650.15 90.8713 2644.56 97.0692 Q2639.01 103.267 2639.01 115.541 Q2639.01 127.775 2644.56 133.973 Q2650.15 140.171 2661.25 140.171 Q2665.59 140.171 2668.99 139.442 Q2672.39 138.672 2675.11 137.092 Z" fill="#000000" fill-rule="nonzero" fill-opacity="1" /><path clip-path="url(#clip360)" d="M2706.34 91.9651 L2706.34 138.996 L2716.22 138.996 Q2728.74 138.996 2734.53 133.325 Q2740.37 127.654 2740.37 115.42 Q2740.37 103.267 2734.53 97.6363 Q2728.74 91.9651 2716.22 91.9651 L2706.34 91.9651 M2698.16 85.2406 L2714.97 85.2406 Q2732.55 85.2406 2740.77 92.5727 Q2749 99.8643 2749 115.42 Q2749 131.056 2740.73 138.388 Q2732.47 145.721 2714.97 145.721 L2698.16 145.721 L2698.16 85.2406 Z" fill="#000000" fill-rule="nonzero" fill-opacity="1" /><path clip-path="url(#clip360)" d="M2708 258.943 L2708 242.699 L2694.63 242.699 L2694.63 235.974 L2716.1 235.974 L2716.1 261.941 Q2711.36 265.303 2705.65 267.045 Q2699.94 268.746 2693.46 268.746 Q2679.28 268.746 2671.26 260.482 Q2663.28 252.178 2663.28 237.392 Q2663.28 222.566 2671.26 214.302 Q2679.28 205.998 2693.46 205.998 Q2699.37 205.998 2704.68 207.456 Q2710.03 208.914 2714.52 211.75 L2714.52 220.459 Q2709.99 216.611 2704.88 214.667 Q2699.78 212.722 2694.15 212.722 Q2683.05 212.722 2677.46 218.92 Q2671.91 225.118 2671.91 237.392 Q2671.91 249.626 2677.46 255.824 Q2683.05 262.022 2694.15 262.022 Q2698.48 262.022 2701.88 261.293 Q2705.29 260.523 2708 258.943 Z" fill="#000000" fill-rule="nonzero" fill-opacity="1" /><path clip-path="url(#clip360)" d="M2473.58 85.2406 L2524.74 85.2406 L2524.74 92.1271 L2503.27 92.1271 L2503.27 145.721 L2495.05 145.721 L2495.05 92.1271 L2473.58 92.1271 L2473.58 85.2406 Z" fill="#000000" fill-rule="nonzero" fill-opacity="1" /><path clip-path="url(#clip360)" d="M2573.88 137.092 L2573.88 120.848 L2560.51 120.848 L2560.51 114.124 L2581.98 114.124 L2581.98 140.09 Q2577.24 143.452 2571.53 145.194 Q2565.82 146.895 2559.34 146.895 Q2545.16 146.895 2537.14 138.631 Q2529.16 130.327 2529.16 115.541 Q2529.16 100.715 2537.14 92.4512 Q2545.16 84.1468 2559.34 84.1468 Q2565.25 84.1468 2570.56 85.6051 Q2575.9 87.0635 2580.4 89.8991 L2580.4 98.6085 Q2575.86 94.7602 2570.76 92.8158 Q2565.65 90.8713 2560.02 90.8713 Q2548.92 90.8713 2543.33 97.0692 Q2537.78 103.267 2537.78 115.541 Q2537.78 127.775 2543.33 133.973 Q2548.92 140.171 2560.02 140.171 Q2564.36 140.171 2567.76 139.442 Q2571.16 138.672 2573.88 137.092 Z" fill="#000000" fill-rule="nonzero" fill-opacity="1" /><path clip-path="url(#clip360)" d="M2527.78 215.153 L2516.68 245.251 L2538.92 245.251 L2527.78 215.153 M2523.16 207.091 L2532.44 207.091 L2555.49 267.571 L2546.98 267.571 L2541.47 252.056 L2514.21 252.056 L2508.7 267.571 L2500.07 267.571 L2523.16 207.091 Z" fill="#000000" fill-rule="nonzero" fill-opacity="1" /><path clip-path="url(#clip360)" d="M2336.03 93.3019 L2324.93 123.4 L2347.17 123.4 L2336.03 93.3019 M2331.41 85.2406 L2340.69 85.2406 L2363.74 145.721 L2355.23 145.721 L2349.72 130.206 L2322.46 130.206 L2316.95 145.721 L2308.32 145.721 L2331.41 85.2406 Z" fill="#000000" fill-rule="nonzero" fill-opacity="1" /><path clip-path="url(#clip360)" d="M2380.75 91.9651 L2380.75 138.996 L2390.64 138.996 Q2403.16 138.996 2408.95 133.325 Q2414.78 127.654 2414.78 115.42 Q2414.78 103.267 2408.95 97.6363 Q2403.16 91.9651 2390.64 91.9651 L2380.75 91.9651 M2372.57 85.2406 L2389.38 85.2406 Q2406.96 85.2406 2415.19 92.5727 Q2423.41 99.8643 2423.41 115.42 Q2423.41 131.056 2415.15 138.388 Q2406.88 145.721 2389.38 145.721 L2372.57 145.721 L2372.57 85.2406 Z" fill="#000000" fill-rule="nonzero" fill-opacity="1" /><path clip-path="url(#clip360)" d="M2342.72 207.091 L2350.94 207.091 L2350.94 243.833 Q2350.94 253.555 2354.46 257.849 Q2357.99 262.103 2365.89 262.103 Q2373.75 262.103 2377.27 257.849 Q2380.8 253.555 2380.8 243.833 L2380.8 207.091 L2389.02 207.091 L2389.02 244.846 Q2389.02 256.674 2383.14 262.71 Q2377.31 268.746 2365.89 268.746 Q2354.42 268.746 2348.55 262.71 Q2342.72 256.674 2342.72 244.846 L2342.72 207.091 Z" fill="#000000" fill-rule="nonzero" fill-opacity="1" /><path clip-path="url(#clip360)" d="M2180.81 207.091 L2189.03 207.091 L2189.03 243.833 Q2189.03 253.555 2192.55 257.849 Q2196.08 262.103 2203.98 262.103 Q2211.84 262.103 2215.36 257.849 Q2218.88 253.555 2218.88 243.833 L2218.88 207.091 L2227.11 207.091 L2227.11 244.846 Q2227.11 256.674 2221.23 262.71 Q2215.4 268.746 2203.98 268.746 Q2192.51 268.746 2186.64 262.71 Q2180.81 256.674 2180.81 244.846 L2180.81 207.091 Z" fill="#000000" fill-rule="nonzero" fill-opacity="1" /><path clip-path="url(#clip360)" d="M2018.89 207.091 L2027.12 207.091 L2027.12 243.833 Q2027.12 253.555 2030.64 257.849 Q2034.17 262.103 2042.07 262.103 Q2049.92 262.103 2053.45 257.849 Q2056.97 253.555 2056.97 243.833 L2056.97 207.091 L2065.2 207.091 L2065.2 244.846 Q2065.2 256.674 2059.32 262.71 Q2053.49 268.746 2042.07 268.746 Q2030.6 268.746 2024.73 262.71 Q2018.89 256.674 2018.89 244.846 L2018.89 207.091 Z" fill="#000000" fill-rule="nonzero" fill-opacity="1" /><path clip-path="url(#clip360)" d="M1898.44 258.943 L1898.44 242.699 L1885.08 242.699 L1885.08 235.974 L1906.55 235.974 L1906.55 261.941 Q1901.81 265.303 1896.09 267.045 Q1890.38 268.746 1883.9 268.746 Q1869.72 268.746 1861.7 260.482 Q1853.72 252.178 1853.72 237.392 Q1853.72 222.566 1861.7 214.302 Q1869.72 205.998 1883.9 205.998 Q1889.82 205.998 1895.12 207.456 Q1900.47 208.914 1904.97 211.75 L1904.97 220.459 Q1900.43 216.611 1895.33 214.667 Q1890.22 212.722 1884.59 212.722 Q1873.49 212.722 1867.9 218.92 Q1862.35 225.118 1862.35 237.392 Q1862.35 249.626 1867.9 255.824 Q1873.49 262.022 1884.59 262.022 Q1888.92 262.022 1892.33 261.293 Q1895.73 260.523 1898.44 258.943 Z" fill="#000000" fill-rule="nonzero" fill-opacity="1" /><path clip-path="url(#clip360)" d="M1695.07 207.091 L1703.3 207.091 L1703.3 243.833 Q1703.3 253.555 1706.82 257.849 Q1710.34 262.103 1718.24 262.103 Q1726.1 262.103 1729.63 257.849 Q1733.15 253.555 1733.15 243.833 L1733.15 207.091 L1741.37 207.091 L1741.37 244.846 Q1741.37 256.674 1735.5 262.71 Q1729.67 268.746 1718.24 268.746 Q1706.78 268.746 1700.91 262.71 Q1695.07 256.674 1695.07 244.846 L1695.07 207.091 Z" fill="#000000" fill-rule="nonzero" fill-opacity="1" /><path clip-path="url(#clip360)" d="M1533.16 207.091 L1541.38 207.091 L1541.38 243.833 Q1541.38 253.555 1544.91 257.849 Q1548.43 262.103 1556.33 262.103 Q1564.19 262.103 1567.72 257.849 Q1571.24 253.555 1571.24 243.833 L1571.24 207.091 L1579.46 207.091 L1579.46 244.846 Q1579.46 256.674 1573.59 262.71 Q1567.76 268.746 1556.33 268.746 Q1544.87 268.746 1538.99 262.71 Q1533.16 256.674 1533.16 244.846 L1533.16 207.091 Z" fill="#000000" fill-rule="nonzero" fill-opacity="1" /><path clip-path="url(#clip360)" d="M1371.25 207.091 L1379.47 207.091 L1379.47 243.833 Q1379.47 253.555 1383 257.849 Q1386.52 262.103 1394.42 262.103 Q1402.28 262.103 1405.8 257.849 Q1409.33 253.555 1409.33 243.833 L1409.33 207.091 L1417.55 207.091 L1417.55 244.846 Q1417.55 256.674 1411.68 262.71 Q1405.84 268.746 1394.42 268.746 Q1382.96 268.746 1377.08 262.71 Q1371.25 256.674 1371.25 244.846 L1371.25 207.091 Z" fill="#000000" fill-rule="nonzero" fill-opacity="1" /><path clip-path="url(#clip360)" d="M1232.49 215.153 L1221.39 245.251 L1243.63 245.251 L1232.49 215.153 M1227.87 207.091 L1237.15 207.091 L1260.2 267.571 L1251.69 267.571 L1246.18 252.056 L1218.92 252.056 L1213.41 267.571 L1204.78 267.571 L1227.87 207.091 Z" fill="#000000" fill-rule="nonzero" fill-opacity="1" /><g clip-path="url(#clip360)">
<text style="fill:#000000; fill-opacity:1; font-family:Arial,Helvetica Neue,Helvetica,sans-serif; font-size:82px; font-style:italic; text-anchor:end;" transform="rotate(0, 1030.1, 206.406)" x="1030.1" y="206.406">Phylloglossum drummondii</text>
</g>
<path clip-path="url(#clip360)" d="M1093.25 705.568 L3152.76 705.568 L3152.76 447.244 L1093.25 447.244  Z" fill="#ffffff" fill-rule="evenodd" fill-opacity="1"/>
<defs>
  <clipPath id="clip363">
    <rect x="1093" y="447" width="2061" height="259"/>
  </clipPath>
</defs>
<polyline clip-path="url(#clip363)" style="stroke:#000000; stroke-linecap:round; stroke-linejoin:round; stroke-width:2; stroke-opacity:0.1; fill:none" points="1475.36,705.568 1475.36,447.244 "/>
<polyline clip-path="url(#clip363)" style="stroke:#000000; stroke-linecap:round; stroke-linejoin:round; stroke-width:2; stroke-opacity:0.1; fill:none" points="1880.13,705.568 1880.13,447.244 "/>
<polyline clip-path="url(#clip363)" style="stroke:#000000; stroke-linecap:round; stroke-linejoin:round; stroke-width:2; stroke-opacity:0.1; fill:none" points="2284.91,705.568 2284.91,447.244 "/>
<polyline clip-path="url(#clip363)" style="stroke:#000000; stroke-linecap:round; stroke-linejoin:round; stroke-width:2; stroke-opacity:0.1; fill:none" points="2689.69,705.568 2689.69,447.244 "/>
<polyline clip-path="url(#clip363)" style="stroke:#000000; stroke-linecap:round; stroke-linejoin:round; stroke-width:2; stroke-opacity:0.1; fill:none" points="3094.47,705.568 3094.47,447.244 "/>
<polyline clip-path="url(#clip363)" style="stroke:#000000; stroke-linecap:round; stroke-linejoin:round; stroke-width:2; stroke-opacity:0.1; fill:none" points="1093.25,698.257 3152.76,698.257 "/>
<polyline clip-path="url(#clip363)" style="stroke:#000000; stroke-linecap:round; stroke-linejoin:round; stroke-width:2; stroke-opacity:0.1; fill:none" points="1093.25,637.331 3152.76,637.331 "/>
<polyline clip-path="url(#clip363)" style="stroke:#000000; stroke-linecap:round; stroke-linejoin:round; stroke-width:2; stroke-opacity:0.1; fill:none" points="1093.25,576.406 3152.76,576.406 "/>
<polyline clip-path="url(#clip363)" style="stroke:#000000; stroke-linecap:round; stroke-linejoin:round; stroke-width:2; stroke-opacity:0.1; fill:none" points="1093.25,515.481 3152.76,515.481 "/>
<polyline clip-path="url(#clip363)" style="stroke:#000000; stroke-linecap:round; stroke-linejoin:round; stroke-width:2; stroke-opacity:0.1; fill:none" points="1093.25,454.555 3152.76,454.555 "/>
<path clip-path="url(#clip363)" d="M2932.56 576.406 L3094.47 576.406 L3094.47 454.555 L2932.56 454.555 L2932.56 576.406  Z" fill="#9fb6cd" fill-rule="evenodd" fill-opacity="1"/>
<polyline clip-path="url(#clip363)" style="stroke:#000000; stroke-linecap:round; stroke-linejoin:round; stroke-width:4; stroke-opacity:1; fill:none" points="2932.56,576.406 3094.47,576.406 3094.47,454.555 2932.56,454.555 2932.56,576.406 "/>
<path clip-path="url(#clip363)" d="M2932.56 698.257 L3094.47 698.257 L3094.47 576.406 L2932.56 576.406 L2932.56 698.257  Z" fill="#cfe2b5" fill-rule="evenodd" fill-opacity="0.8"/>
<polyline clip-path="url(#clip363)" style="stroke:#000000; stroke-linecap:round; stroke-linejoin:round; stroke-width:4; stroke-opacity:0.8; fill:none" points="2932.56,698.257 3094.47,698.257 3094.47,576.406 2932.56,576.406 2932.56,698.257 "/>
<path clip-path="url(#clip363)" d="M2770.65 576.406 L2932.56 576.406 L2932.56 454.555 L2770.65 454.555 L2770.65 576.406  Z" fill="#fffacd" fill-rule="evenodd" fill-opacity="1"/>
<polyline clip-path="url(#clip363)" style="stroke:#000000; stroke-linecap:round; stroke-linejoin:round; stroke-width:4; stroke-opacity:1; fill:none" points="2770.65,576.406 2932.56,576.406 2932.56,454.555 2770.65,454.555 2770.65,576.406 "/>
<path clip-path="url(#clip363)" d="M2770.65 698.257 L2932.56 698.257 L2932.56 576.406 L2770.65 576.406 L2770.65 698.257  Z" fill="#f5f0f0" fill-rule="evenodd" fill-opacity="0.8"/>
<polyline clip-path="url(#clip363)" style="stroke:#000000; stroke-linecap:round; stroke-linejoin:round; stroke-width:4; stroke-opacity:0.8; fill:none" points="2770.65,698.257 2932.56,698.257 2932.56,576.406 2770.65,576.406 2770.65,698.257 "/>
<path clip-path="url(#clip363)" d="M2608.73 576.406 L2770.65 576.406 L2770.65 454.555 L2608.73 454.555 L2608.73 576.406  Z" fill="#cd96cd" fill-rule="evenodd" fill-opacity="1"/>
<polyline clip-path="url(#clip363)" style="stroke:#000000; stroke-linecap:round; stroke-linejoin:round; stroke-width:4; stroke-opacity:1; fill:none" points="2608.73,576.406 2770.65,576.406 2770.65,454.555 2608.73,454.555 2608.73,576.406 "/>
<path clip-path="url(#clip363)" d="M2608.73 698.257 L2770.65 698.257 L2770.65 576.406 L2608.73 576.406 L2608.73 698.257  Z" fill="#f5f0f0" fill-rule="evenodd" fill-opacity="0.8"/>
<polyline clip-path="url(#clip363)" style="stroke:#000000; stroke-linecap:round; stroke-linejoin:round; stroke-width:4; stroke-opacity:0.8; fill:none" points="2608.73,698.257 2770.65,698.257 2770.65,576.406 2608.73,576.406 2608.73,698.257 "/>
<path clip-path="url(#clip363)" d="M2446.82 576.406 L2608.73 576.406 L2608.73 454.555 L2446.82 454.555 L2446.82 576.406  Z" fill="#b4eeb4" fill-rule="evenodd" fill-opacity="1"/>
<polyline clip-path="url(#clip363)" style="stroke:#000000; stroke-linecap:round; stroke-linejoin:round; stroke-width:4; stroke-opacity:1; fill:none" points="2446.82,576.406 2608.73,576.406 2608.73,454.555 2446.82,454.555 2446.82,576.406 "/>
<path clip-path="url(#clip363)" d="M2446.82 698.257 L2608.73 698.257 L2608.73 576.406 L2446.82 576.406 L2446.82 698.257  Z" fill="#f5f0f0" fill-rule="evenodd" fill-opacity="0.8"/>
<polyline clip-path="url(#clip363)" style="stroke:#000000; stroke-linecap:round; stroke-linejoin:round; stroke-width:4; stroke-opacity:0.8; fill:none" points="2446.82,698.257 2608.73,698.257 2608.73,576.406 2446.82,576.406 2446.82,698.257 "/>
<path clip-path="url(#clip363)" d="M2284.91 576.406 L2446.82 576.406 L2446.82 454.555 L2284.91 454.555 L2284.91 576.406  Z" fill="#eedd82" fill-rule="evenodd" fill-opacity="1"/>
<polyline clip-path="url(#clip363)" style="stroke:#000000; stroke-linecap:round; stroke-linejoin:round; stroke-width:4; stroke-opacity:1; fill:none" points="2284.91,576.406 2446.82,576.406 2446.82,454.555 2284.91,454.555 2284.91,576.406 "/>
<path clip-path="url(#clip363)" d="M2284.91 698.257 L2446.82 698.257 L2446.82 576.406 L2284.91 576.406 L2284.91 698.257  Z" fill="#f4f2ee" fill-rule="evenodd" fill-opacity="0.8"/>
<polyline clip-path="url(#clip363)" style="stroke:#000000; stroke-linecap:round; stroke-linejoin:round; stroke-width:4; stroke-opacity:0.8; fill:none" points="2284.91,698.257 2446.82,698.257 2446.82,576.406 2284.91,576.406 2284.91,698.257 "/>
<path clip-path="url(#clip363)" d="M2123 576.406 L2284.91 576.406 L2284.91 454.555 L2123 454.555 L2123 576.406  Z" fill="#fa8072" fill-rule="evenodd" fill-opacity="1"/>
<polyline clip-path="url(#clip363)" style="stroke:#000000; stroke-linecap:round; stroke-linejoin:round; stroke-width:4; stroke-opacity:1; fill:none" points="2123,576.406 2284.91,576.406 2284.91,454.555 2123,454.555 2123,576.406 "/>
<path clip-path="url(#clip363)" d="M2123 698.257 L2284.91 698.257 L2284.91 576.406 L2123 576.406 L2123 698.257  Z" fill="#0c4b00" fill-rule="evenodd" fill-opacity="0.8"/>
<polyline clip-path="url(#clip363)" style="stroke:#000000; stroke-linecap:round; stroke-linejoin:round; stroke-width:4; stroke-opacity:0.8; fill:none" points="2123,698.257 2284.91,698.257 2284.91,576.406 2123,576.406 2123,698.257 "/>
<path clip-path="url(#clip363)" d="M1961.09 576.406 L2123 576.406 L2123 454.555 L1961.09 454.555 L1961.09 576.406  Z" fill="#b4eeb4" fill-rule="evenodd" fill-opacity="1"/>
<polyline clip-path="url(#clip363)" style="stroke:#000000; stroke-linecap:round; stroke-linejoin:round; stroke-width:4; stroke-opacity:1; fill:none" points="1961.09,576.406 2123,576.406 2123,454.555 1961.09,454.555 1961.09,576.406 "/>
<path clip-path="url(#clip363)" d="M1961.09 698.257 L2123 698.257 L2123 576.406 L1961.09 576.406 L1961.09 698.257  Z" fill="#0c4b00" fill-rule="evenodd" fill-opacity="0.8"/>
<polyline clip-path="url(#clip363)" style="stroke:#000000; stroke-linecap:round; stroke-linejoin:round; stroke-width:4; stroke-opacity:0.8; fill:none" points="1961.09,698.257 2123,698.257 2123,576.406 1961.09,576.406 1961.09,698.257 "/>
<path clip-path="url(#clip363)" d="M1799.18 576.406 L1961.09 576.406 L1961.09 454.555 L1799.18 454.555 L1799.18 576.406  Z" fill="#eedd82" fill-rule="evenodd" fill-opacity="1"/>
<polyline clip-path="url(#clip363)" style="stroke:#000000; stroke-linecap:round; stroke-linejoin:round; stroke-width:4; stroke-opacity:1; fill:none" points="1799.18,576.406 1961.09,576.406 1961.09,454.555 1799.18,454.555 1799.18,576.406 "/>
<path clip-path="url(#clip363)" d="M1799.18 698.257 L1961.09 698.257 L1961.09 576.406 L1799.18 576.406 L1799.18 698.257  Z" fill="#d6e6c0" fill-rule="evenodd" fill-opacity="0.8"/>
<polyline clip-path="url(#clip363)" style="stroke:#000000; stroke-linecap:round; stroke-linejoin:round; stroke-width:4; stroke-opacity:0.8; fill:none" points="1799.18,698.257 1961.09,698.257 1961.09,576.406 1799.18,576.406 1799.18,698.257 "/>
<path clip-path="url(#clip363)" d="M1637.27 576.406 L1799.18 576.406 L1799.18 454.555 L1637.27 454.555 L1637.27 576.406  Z" fill="#c0c0c0" fill-rule="evenodd" fill-opacity="1"/>
<polyline clip-path="url(#clip363)" style="stroke:#000000; stroke-linecap:round; stroke-linejoin:round; stroke-width:4; stroke-opacity:1; fill:none" points="1637.27,576.406 1799.18,576.406 1799.18,454.555 1637.27,454.555 1637.27,576.406 "/>
<path clip-path="url(#clip363)" d="M1637.27 698.257 L1799.18 698.257 L1799.18 576.406 L1637.27 576.406 L1637.27 698.257  Z" fill="#c0c0c0" fill-rule="evenodd" fill-opacity="0.8"/>
<polyline clip-path="url(#clip363)" style="stroke:#000000; stroke-linecap:round; stroke-linejoin:round; stroke-width:4; stroke-opacity:0.8; fill:none" points="1637.27,698.257 1799.18,698.257 1799.18,576.406 1637.27,576.406 1637.27,698.257 "/>
<path clip-path="url(#clip363)" d="M1475.36 576.406 L1637.27 576.406 L1637.27 454.555 L1475.36 454.555 L1475.36 576.406  Z" fill="#c0c0c0" fill-rule="evenodd" fill-opacity="1"/>
<polyline clip-path="url(#clip363)" style="stroke:#000000; stroke-linecap:round; stroke-linejoin:round; stroke-width:4; stroke-opacity:1; fill:none" points="1475.36,576.406 1637.27,576.406 1637.27,454.555 1475.36,454.555 1475.36,576.406 "/>
<path clip-path="url(#clip363)" d="M1475.36 698.257 L1637.27 698.257 L1637.27 576.406 L1475.36 576.406 L1475.36 698.257  Z" fill="#c0c0c0" fill-rule="evenodd" fill-opacity="0.8"/>
<polyline clip-path="url(#clip363)" style="stroke:#000000; stroke-linecap:round; stroke-linejoin:round; stroke-width:4; stroke-opacity:0.8; fill:none" points="1475.36,698.257 1637.27,698.257 1637.27,576.406 1475.36,576.406 1475.36,698.257 "/>
<path clip-path="url(#clip363)" d="M1313.45 576.406 L1475.36 576.406 L1475.36 454.555 L1313.45 454.555 L1313.45 576.406  Z" fill="#c0c0c0" fill-rule="evenodd" fill-opacity="1"/>
<polyline clip-path="url(#clip363)" style="stroke:#000000; stroke-linecap:round; stroke-linejoin:round; stroke-width:4; stroke-opacity:1; fill:none" points="1313.45,576.406 1475.36,576.406 1475.36,454.555 1313.45,454.555 1313.45,576.406 "/>
<path clip-path="url(#clip363)" d="M1313.45 698.257 L1475.36 698.257 L1475.36 576.406 L1313.45 576.406 L1313.45 698.257  Z" fill="#c0c0c0" fill-rule="evenodd" fill-opacity="0.8"/>
<polyline clip-path="url(#clip363)" style="stroke:#000000; stroke-linecap:round; stroke-linejoin:round; stroke-width:4; stroke-opacity:0.8; fill:none" points="1313.45,698.257 1475.36,698.257 1475.36,576.406 1313.45,576.406 1313.45,698.257 "/>
<path clip-path="url(#clip363)" d="M1151.53 576.406 L1313.45 576.406 L1313.45 454.555 L1151.53 454.555 L1151.53 576.406  Z" fill="#c0c0c0" fill-rule="evenodd" fill-opacity="1"/>
<polyline clip-path="url(#clip363)" style="stroke:#000000; stroke-linecap:round; stroke-linejoin:round; stroke-width:4; stroke-opacity:1; fill:none" points="1151.53,576.406 1313.45,576.406 1313.45,454.555 1151.53,454.555 1151.53,576.406 "/>
<path clip-path="url(#clip363)" d="M1151.53 698.257 L1313.45 698.257 L1313.45 576.406 L1151.53 576.406 L1151.53 698.257  Z" fill="#c0c0c0" fill-rule="evenodd" fill-opacity="0.8"/>
<polyline clip-path="url(#clip363)" style="stroke:#000000; stroke-linecap:round; stroke-linejoin:round; stroke-width:4; stroke-opacity:0.8; fill:none" points="1151.53,698.257 1313.45,698.257 1313.45,576.406 1151.53,576.406 1151.53,698.257 "/>
<path clip-path="url(#clip360)" d="M2999.35 487.226 L2999.35 495.206 Q2994.7 492.978 2990.56 491.884 Q2986.43 490.79 2982.58 490.79 Q2975.9 490.79 2972.25 493.383 Q2968.65 495.975 2968.65 500.756 Q2968.65 504.766 2971.04 506.832 Q2973.47 508.857 2980.19 510.113 L2985.14 511.126 Q2994.29 512.868 2998.63 517.283 Q3003 521.658 3003 529.031 Q3003 537.821 2997.09 542.358 Q2991.21 546.895 2979.83 546.895 Q2975.54 546.895 2970.67 545.923 Q2965.85 544.951 2960.67 543.047 L2960.67 534.621 Q2965.65 537.416 2970.43 538.834 Q2975.21 540.252 2979.83 540.252 Q2986.84 540.252 2990.64 537.497 Q2994.45 534.743 2994.45 529.638 Q2994.45 525.182 2991.7 522.671 Q2988.98 520.159 2982.75 518.904 L2977.76 517.931 Q2968.61 516.108 2964.52 512.22 Q2960.43 508.331 2960.43 501.404 Q2960.43 493.383 2966.06 488.765 Q2971.73 484.147 2981.65 484.147 Q2985.91 484.147 2990.32 484.916 Q2994.74 485.686 2999.35 487.226 Z" fill="#000000" fill-rule="nonzero" fill-opacity="1" /><path clip-path="url(#clip360)" d="M3023.94 491.965 L3023.94 538.996 L3033.83 538.996 Q3046.34 538.996 3052.14 533.325 Q3057.97 527.654 3057.97 515.42 Q3057.97 503.267 3052.14 497.636 Q3046.34 491.965 3033.83 491.965 L3023.94 491.965 M3015.76 485.241 L3032.57 485.241 Q3050.15 485.241 3058.38 492.573 Q3066.6 499.864 3066.6 515.42 Q3066.6 531.056 3058.34 538.388 Q3050.07 545.721 3032.57 545.721 L3015.76 545.721 L3015.76 485.241 Z" fill="#000000" fill-rule="nonzero" fill-opacity="1" /><path clip-path="url(#clip360)" d="M2990.36 607.091 L2998.58 607.091 L2998.58 643.833 Q2998.58 653.555 3002.11 657.849 Q3005.63 662.103 3013.53 662.103 Q3021.39 662.103 3024.92 657.849 Q3028.44 653.555 3028.44 643.833 L3028.44 607.091 L3036.66 607.091 L3036.66 644.846 Q3036.66 656.674 3030.79 662.71 Q3024.96 668.746 3013.53 668.746 Q3002.07 668.746 2996.19 662.71 Q2990.36 656.674 2990.36 644.846 L2990.36 607.091 Z" fill="#000000" fill-rule="nonzero" fill-opacity="1" /><path clip-path="url(#clip360)" d="M2814.7 485.241 L2822.88 485.241 L2822.88 545.721 L2814.7 545.721 L2814.7 485.241 Z" fill="#000000" fill-rule="nonzero" fill-opacity="1" /><path clip-path="url(#clip360)" d="M2880.4 537.092 L2880.4 520.848 L2867.04 520.848 L2867.04 514.124 L2888.5 514.124 L2888.5 540.09 Q2883.77 543.452 2878.05 545.194 Q2872.34 546.895 2865.86 546.895 Q2851.68 546.895 2843.66 538.631 Q2835.68 530.327 2835.68 515.541 Q2835.68 500.715 2843.66 492.451 Q2851.68 484.147 2865.86 484.147 Q2871.77 484.147 2877.08 485.605 Q2882.43 487.063 2886.93 489.899 L2886.93 498.609 Q2882.39 494.76 2877.28 492.816 Q2872.18 490.871 2866.55 490.871 Q2855.45 490.871 2849.86 497.069 Q2844.31 503.267 2844.31 515.541 Q2844.31 527.775 2849.86 533.973 Q2855.45 540.171 2866.55 540.171 Q2870.88 540.171 2874.29 539.442 Q2877.69 538.672 2880.4 537.092 Z" fill="#000000" fill-rule="nonzero" fill-opacity="1" /><path clip-path="url(#clip360)" d="M2828.45 607.091 L2836.67 607.091 L2836.67 643.833 Q2836.67 653.555 2840.2 657.849 Q2843.72 662.103 2851.62 662.103 Q2859.48 662.103 2863 657.849 Q2866.53 653.555 2866.53 643.833 L2866.53 607.091 L2874.75 607.091 L2874.75 644.846 Q2874.75 656.674 2868.88 662.71 Q2863.04 668.746 2851.62 668.746 Q2840.16 668.746 2834.28 662.71 Q2828.45 656.674 2828.45 644.846 L2828.45 607.091 Z" fill="#000000" fill-rule="nonzero" fill-opacity="1" /><path clip-path="url(#clip360)" d="M2675.11 537.092 L2675.11 520.848 L2661.74 520.848 L2661.74 514.124 L2683.21 514.124 L2683.21 540.09 Q2678.47 543.452 2672.76 545.194 Q2667.05 546.895 2660.56 546.895 Q2646.39 546.895 2638.37 538.631 Q2630.38 530.327 2630.38 515.541 Q2630.38 500.715 2638.37 492.451 Q2646.39 484.147 2660.56 484.147 Q2666.48 484.147 2671.78 485.605 Q2677.13 487.063 2681.63 489.899 L2681.63 498.609 Q2677.09 494.76 2671.99 492.816 Q2666.88 490.871 2661.25 490.871 Q2650.15 490.871 2644.56 497.069 Q2639.01 503.267 2639.01 515.541 Q2639.01 527.775 2644.56 533.973 Q2650.15 540.171 2661.25 540.171 Q2665.59 540.171 2668.99 539.442 Q2672.39 538.672 2675.11 537.092 Z" fill="#000000" fill-rule="nonzero" fill-opacity="1" /><path clip-path="url(#clip360)" d="M2706.34 491.965 L2706.34 538.996 L2716.22 538.996 Q2728.74 538.996 2734.53 533.325 Q2740.37 527.654 2740.37 515.42 Q2740.37 503.267 2734.53 497.636 Q2728.74 491.965 2716.22 491.965 L2706.34 491.965 M2698.16 485.241 L2714.97 485.241 Q2732.55 485.241 2740.77 492.573 Q2749 499.864 2749 515.42 Q2749 531.056 2740.73 538.388 Q2732.47 545.721 2714.97 545.721 L2698.16 545.721 L2698.16 485.241 Z" fill="#000000" fill-rule="nonzero" fill-opacity="1" /><path clip-path="url(#clip360)" d="M2708 658.943 L2708 642.699 L2694.63 642.699 L2694.63 635.974 L2716.1 635.974 L2716.1 661.941 Q2711.36 665.303 2705.65 667.045 Q2699.94 668.746 2693.46 668.746 Q2679.28 668.746 2671.26 660.482 Q2663.28 652.178 2663.28 637.392 Q2663.28 622.566 2671.26 614.302 Q2679.28 605.998 2693.46 605.998 Q2699.37 605.998 2704.68 607.456 Q2710.03 608.914 2714.52 611.75 L2714.52 620.459 Q2709.99 616.611 2704.88 614.667 Q2699.78 612.722 2694.15 612.722 Q2683.05 612.722 2677.46 618.92 Q2671.91 625.118 2671.91 637.392 Q2671.91 649.626 2677.46 655.824 Q2683.05 662.022 2694.15 662.022 Q2698.48 662.022 2701.88 661.293 Q2705.29 660.523 2708 658.943 Z" fill="#000000" fill-rule="nonzero" fill-opacity="1" /><path clip-path="url(#clip360)" d="M2473.58 485.241 L2524.74 485.241 L2524.74 492.127 L2503.27 492.127 L2503.27 545.721 L2495.05 545.721 L2495.05 492.127 L2473.58 492.127 L2473.58 485.241 Z" fill="#000000" fill-rule="nonzero" fill-opacity="1" /><path clip-path="url(#clip360)" d="M2573.88 537.092 L2573.88 520.848 L2560.51 520.848 L2560.51 514.124 L2581.98 514.124 L2581.98 540.09 Q2577.24 543.452 2571.53 545.194 Q2565.82 546.895 2559.34 546.895 Q2545.16 546.895 2537.14 538.631 Q2529.16 530.327 2529.16 515.541 Q2529.16 500.715 2537.14 492.451 Q2545.16 484.147 2559.34 484.147 Q2565.25 484.147 2570.56 485.605 Q2575.9 487.063 2580.4 489.899 L2580.4 498.609 Q2575.86 494.76 2570.76 492.816 Q2565.65 490.871 2560.02 490.871 Q2548.92 490.871 2543.33 497.069 Q2537.78 503.267 2537.78 515.541 Q2537.78 527.775 2543.33 533.973 Q2548.92 540.171 2560.02 540.171 Q2564.36 540.171 2567.76 539.442 Q2571.16 538.672 2573.88 537.092 Z" fill="#000000" fill-rule="nonzero" fill-opacity="1" /><path clip-path="url(#clip360)" d="M2527.78 615.153 L2516.68 645.251 L2538.92 645.251 L2527.78 615.153 M2523.16 607.091 L2532.44 607.091 L2555.49 667.571 L2546.98 667.571 L2541.47 652.056 L2514.21 652.056 L2508.7 667.571 L2500.07 667.571 L2523.16 607.091 Z" fill="#000000" fill-rule="nonzero" fill-opacity="1" /><path clip-path="url(#clip360)" d="M2336.03 493.302 L2324.93 523.4 L2347.17 523.4 L2336.03 493.302 M2331.41 485.241 L2340.69 485.241 L2363.74 545.721 L2355.23 545.721 L2349.72 530.206 L2322.46 530.206 L2316.95 545.721 L2308.32 545.721 L2331.41 485.241 Z" fill="#000000" fill-rule="nonzero" fill-opacity="1" /><path clip-path="url(#clip360)" d="M2380.75 491.965 L2380.75 538.996 L2390.64 538.996 Q2403.16 538.996 2408.95 533.325 Q2414.78 527.654 2414.78 515.42 Q2414.78 503.267 2408.95 497.636 Q2403.16 491.965 2390.64 491.965 L2380.75 491.965 M2372.57 485.241 L2389.38 485.241 Q2406.96 485.241 2415.19 492.573 Q2423.41 499.864 2423.41 515.42 Q2423.41 531.056 2415.15 538.388 Q2406.88 545.721 2389.38 545.721 L2372.57 545.721 L2372.57 485.241 Z" fill="#000000" fill-rule="nonzero" fill-opacity="1" /><path clip-path="url(#clip360)" d="M2342.72 607.091 L2350.94 607.091 L2350.94 643.833 Q2350.94 653.555 2354.46 657.849 Q2357.99 662.103 2365.89 662.103 Q2373.75 662.103 2377.27 657.849 Q2380.8 653.555 2380.8 643.833 L2380.8 607.091 L2389.02 607.091 L2389.02 644.846 Q2389.02 656.674 2383.14 662.71 Q2377.31 668.746 2365.89 668.746 Q2354.42 668.746 2348.55 662.71 Q2342.72 656.674 2342.72 644.846 L2342.72 607.091 Z" fill="#000000" fill-rule="nonzero" fill-opacity="1" /><path clip-path="url(#clip360)" d="M2147.51 485.241 L2158.53 485.241 L2185.34 535.836 L2185.34 485.241 L2193.28 485.241 L2193.28 545.721 L2182.26 545.721 L2155.45 495.125 L2155.45 545.721 L2147.51 545.721 L2147.51 485.241 Z" fill="#000000" fill-rule="nonzero" fill-opacity="1" /><path clip-path="url(#clip360)" d="M2217.75 491.965 L2217.75 538.996 L2227.63 538.996 Q2240.15 538.996 2245.94 533.325 Q2251.78 527.654 2251.78 515.42 Q2251.78 503.267 2245.94 497.636 Q2240.15 491.965 2227.63 491.965 L2217.75 491.965 M2209.57 485.241 L2226.38 485.241 Q2243.96 485.241 2252.18 492.573 Q2260.41 499.864 2260.41 515.42 Q2260.41 531.056 2252.14 538.388 Q2243.88 545.721 2226.38 545.721 L2209.57 545.721 L2209.57 485.241 Z" fill="#000000" fill-rule="nonzero" fill-opacity="1" /><path clip-path="url(#clip360)" d="M2180.81 607.091 L2189.03 607.091 L2189.03 643.833 Q2189.03 653.555 2192.55 657.849 Q2196.08 662.103 2203.98 662.103 Q2211.84 662.103 2215.36 657.849 Q2218.88 653.555 2218.88 643.833 L2218.88 607.091 L2227.11 607.091 L2227.11 644.846 Q2227.11 656.674 2221.23 662.71 Q2215.4 668.746 2203.98 668.746 Q2192.51 668.746 2186.64 662.71 Q2180.81 656.674 2180.81 644.846 L2180.81 607.091 Z" fill="#000000" fill-rule="nonzero" fill-opacity="1" /><path clip-path="url(#clip360)" d="M1985.6 485.241 L1996.61 485.241 L2023.43 535.836 L2023.43 485.241 L2031.37 485.241 L2031.37 545.721 L2020.35 545.721 L1993.54 495.125 L1993.54 545.721 L1985.6 545.721 L1985.6 485.241 Z" fill="#000000" fill-rule="nonzero" fill-opacity="1" /><path clip-path="url(#clip360)" d="M2055.84 491.965 L2055.84 538.996 L2065.72 538.996 Q2078.24 538.996 2084.03 533.325 Q2089.87 527.654 2089.87 515.42 Q2089.87 503.267 2084.03 497.636 Q2078.24 491.965 2065.72 491.965 L2055.84 491.965 M2047.66 485.241 L2064.47 485.241 Q2082.05 485.241 2090.27 492.573 Q2098.49 499.864 2098.49 515.42 Q2098.49 531.056 2090.23 538.388 Q2081.97 545.721 2064.47 545.721 L2047.66 545.721 L2047.66 485.241 Z" fill="#000000" fill-rule="nonzero" fill-opacity="1" /><path clip-path="url(#clip360)" d="M2018.89 607.091 L2027.12 607.091 L2027.12 643.833 Q2027.12 653.555 2030.64 657.849 Q2034.17 662.103 2042.07 662.103 Q2049.92 662.103 2053.45 657.849 Q2056.97 653.555 2056.97 643.833 L2056.97 607.091 L2065.2 607.091 L2065.2 644.846 Q2065.2 656.674 2059.32 662.71 Q2053.49 668.746 2042.07 668.746 Q2030.6 668.746 2024.73 662.71 Q2018.89 656.674 2018.89 644.846 L2018.89 607.091 Z" fill="#000000" fill-rule="nonzero" fill-opacity="1" /><path clip-path="url(#clip360)" d="M1850.3 493.302 L1839.2 523.4 L1861.44 523.4 L1850.3 493.302 M1845.68 485.241 L1854.96 485.241 L1878.01 545.721 L1869.5 545.721 L1863.99 530.206 L1836.73 530.206 L1831.22 545.721 L1822.59 545.721 L1845.68 485.241 Z" fill="#000000" fill-rule="nonzero" fill-opacity="1" /><path clip-path="url(#clip360)" d="M1895.02 491.965 L1895.02 538.996 L1904.91 538.996 Q1917.42 538.996 1923.22 533.325 Q1929.05 527.654 1929.05 515.42 Q1929.05 503.267 1923.22 497.636 Q1917.42 491.965 1904.91 491.965 L1895.02 491.965 M1886.84 485.241 L1903.65 485.241 Q1921.23 485.241 1929.45 492.573 Q1937.68 499.864 1937.68 515.42 Q1937.68 531.056 1929.41 538.388 Q1921.15 545.721 1903.65 545.721 L1886.84 545.721 L1886.84 485.241 Z" fill="#000000" fill-rule="nonzero" fill-opacity="1" /><path clip-path="url(#clip360)" d="M1898.44 658.943 L1898.44 642.699 L1885.08 642.699 L1885.08 635.974 L1906.55 635.974 L1906.55 661.941 Q1901.81 665.303 1896.09 667.045 Q1890.38 668.746 1883.9 668.746 Q1869.72 668.746 1861.7 660.482 Q1853.72 652.178 1853.72 637.392 Q1853.72 622.566 1861.7 614.302 Q1869.72 605.998 1883.9 605.998 Q1889.82 605.998 1895.12 607.456 Q1900.47 608.914 1904.97 611.75 L1904.97 620.459 Q1900.43 616.611 1895.33 614.667 Q1890.22 612.722 1884.59 612.722 Q1873.49 612.722 1867.9 618.92 Q1862.35 625.118 1862.35 637.392 Q1862.35 649.626 1867.9 655.824 Q1873.49 662.022 1884.59 662.022 Q1888.92 662.022 1892.33 661.293 Q1895.73 660.523 1898.44 658.943 Z" fill="#000000" fill-rule="nonzero" fill-opacity="1" /><path clip-path="url(#clip360)" d="M1695.07 607.091 L1703.3 607.091 L1703.3 643.833 Q1703.3 653.555 1706.82 657.849 Q1710.34 662.103 1718.24 662.103 Q1726.1 662.103 1729.63 657.849 Q1733.15 653.555 1733.15 643.833 L1733.15 607.091 L1741.37 607.091 L1741.37 644.846 Q1741.37 656.674 1735.5 662.71 Q1729.67 668.746 1718.24 668.746 Q1706.78 668.746 1700.91 662.71 Q1695.07 656.674 1695.07 644.846 L1695.07 607.091 Z" fill="#000000" fill-rule="nonzero" fill-opacity="1" /><path clip-path="url(#clip360)" d="M1533.16 607.091 L1541.38 607.091 L1541.38 643.833 Q1541.38 653.555 1544.91 657.849 Q1548.43 662.103 1556.33 662.103 Q1564.19 662.103 1567.72 657.849 Q1571.24 653.555 1571.24 643.833 L1571.24 607.091 L1579.46 607.091 L1579.46 644.846 Q1579.46 656.674 1573.59 662.71 Q1567.76 668.746 1556.33 668.746 Q1544.87 668.746 1538.99 662.71 Q1533.16 656.674 1533.16 644.846 L1533.16 607.091 Z" fill="#000000" fill-rule="nonzero" fill-opacity="1" /><path clip-path="url(#clip360)" d="M1371.25 607.091 L1379.47 607.091 L1379.47 643.833 Q1379.47 653.555 1383 657.849 Q1386.52 662.103 1394.42 662.103 Q1402.28 662.103 1405.8 657.849 Q1409.33 653.555 1409.33 643.833 L1409.33 607.091 L1417.55 607.091 L1417.55 644.846 Q1417.55 656.674 1411.68 662.71 Q1405.84 668.746 1394.42 668.746 Q1382.96 668.746 1377.08 662.71 Q1371.25 656.674 1371.25 644.846 L1371.25 607.091 Z" fill="#000000" fill-rule="nonzero" fill-opacity="1" /><path clip-path="url(#clip360)" d="M1232.49 615.153 L1221.39 645.251 L1243.63 645.251 L1232.49 615.153 M1227.87 607.091 L1237.15 607.091 L1260.2 667.571 L1251.69 667.571 L1246.18 652.056 L1218.92 652.056 L1213.41 667.571 L1204.78 667.571 L1227.87 607.091 Z" fill="#000000" fill-rule="nonzero" fill-opacity="1" /><g clip-path="url(#clip360)">
<text style="fill:#000000; fill-opacity:1; font-family:Arial,Helvetica Neue,Helvetica,sans-serif; font-size:82px; font-style:italic; text-anchor:end;" transform="rotate(0, 1030.1, 606.406)" x="1030.1" y="606.406">Phlegmariurus squarrosus</text>
</g>
<path clip-path="url(#clip360)" d="M1093.25 1105.57 L3152.76 1105.57 L3152.76 847.244 L1093.25 847.244  Z" fill="#ffffff" fill-rule="evenodd" fill-opacity="1"/>
<defs>
  <clipPath id="clip364">
    <rect x="1093" y="847" width="2061" height="259"/>
  </clipPath>
</defs>
<polyline clip-path="url(#clip364)" style="stroke:#000000; stroke-linecap:round; stroke-linejoin:round; stroke-width:2; stroke-opacity:0.1; fill:none" points="1475.36,1105.57 1475.36,847.244 "/>
<polyline clip-path="url(#clip364)" style="stroke:#000000; stroke-linecap:round; stroke-linejoin:round; stroke-width:2; stroke-opacity:0.1; fill:none" points="1880.13,1105.57 1880.13,847.244 "/>
<polyline clip-path="url(#clip364)" style="stroke:#000000; stroke-linecap:round; stroke-linejoin:round; stroke-width:2; stroke-opacity:0.1; fill:none" points="2284.91,1105.57 2284.91,847.244 "/>
<polyline clip-path="url(#clip364)" style="stroke:#000000; stroke-linecap:round; stroke-linejoin:round; stroke-width:2; stroke-opacity:0.1; fill:none" points="2689.69,1105.57 2689.69,847.244 "/>
<polyline clip-path="url(#clip364)" style="stroke:#000000; stroke-linecap:round; stroke-linejoin:round; stroke-width:2; stroke-opacity:0.1; fill:none" points="3094.47,1105.57 3094.47,847.244 "/>
<polyline clip-path="url(#clip364)" style="stroke:#000000; stroke-linecap:round; stroke-linejoin:round; stroke-width:2; stroke-opacity:0.1; fill:none" points="1093.25,1098.26 3152.76,1098.26 "/>
<polyline clip-path="url(#clip364)" style="stroke:#000000; stroke-linecap:round; stroke-linejoin:round; stroke-width:2; stroke-opacity:0.1; fill:none" points="1093.25,1037.33 3152.76,1037.33 "/>
<polyline clip-path="url(#clip364)" style="stroke:#000000; stroke-linecap:round; stroke-linejoin:round; stroke-width:2; stroke-opacity:0.1; fill:none" points="1093.25,976.406 3152.76,976.406 "/>
<polyline clip-path="url(#clip364)" style="stroke:#000000; stroke-linecap:round; stroke-linejoin:round; stroke-width:2; stroke-opacity:0.1; fill:none" points="1093.25,915.481 3152.76,915.481 "/>
<polyline clip-path="url(#clip364)" style="stroke:#000000; stroke-linecap:round; stroke-linejoin:round; stroke-width:2; stroke-opacity:0.1; fill:none" points="1093.25,854.555 3152.76,854.555 "/>
<path clip-path="url(#clip364)" d="M2932.56 976.406 L3094.47 976.406 L3094.47 854.555 L2932.56 854.555 L2932.56 976.406  Z" fill="#9fb6cd" fill-rule="evenodd" fill-opacity="1"/>
<polyline clip-path="url(#clip364)" style="stroke:#000000; stroke-linecap:round; stroke-linejoin:round; stroke-width:4; stroke-opacity:1; fill:none" points="2932.56,976.406 3094.47,976.406 3094.47,854.555 2932.56,854.555 2932.56,976.406 "/>
<path clip-path="url(#clip364)" d="M2932.56 1098.26 L3094.47 1098.26 L3094.47 976.406 L2932.56 976.406 L2932.56 1098.26  Z" fill="#cfe2b5" fill-rule="evenodd" fill-opacity="0.8"/>
<polyline clip-path="url(#clip364)" style="stroke:#000000; stroke-linecap:round; stroke-linejoin:round; stroke-width:4; stroke-opacity:0.8; fill:none" points="2932.56,1098.26 3094.47,1098.26 3094.47,976.406 2932.56,976.406 2932.56,1098.26 "/>
<path clip-path="url(#clip364)" d="M2770.65 976.406 L2932.56 976.406 L2932.56 854.555 L2770.65 854.555 L2770.65 976.406  Z" fill="#fffacd" fill-rule="evenodd" fill-opacity="1"/>
<polyline clip-path="url(#clip364)" style="stroke:#000000; stroke-linecap:round; stroke-linejoin:round; stroke-width:4; stroke-opacity:1; fill:none" points="2770.65,976.406 2932.56,976.406 2932.56,854.555 2770.65,854.555 2770.65,976.406 "/>
<path clip-path="url(#clip364)" d="M2770.65 1098.26 L2932.56 1098.26 L2932.56 976.406 L2770.65 976.406 L2770.65 1098.26  Z" fill="#f5f0f0" fill-rule="evenodd" fill-opacity="0.8"/>
<polyline clip-path="url(#clip364)" style="stroke:#000000; stroke-linecap:round; stroke-linejoin:round; stroke-width:4; stroke-opacity:0.8; fill:none" points="2770.65,1098.26 2932.56,1098.26 2932.56,976.406 2770.65,976.406 2770.65,1098.26 "/>
<path clip-path="url(#clip364)" d="M2608.73 976.406 L2770.65 976.406 L2770.65 854.555 L2608.73 854.555 L2608.73 976.406  Z" fill="#cd96cd" fill-rule="evenodd" fill-opacity="1"/>
<polyline clip-path="url(#clip364)" style="stroke:#000000; stroke-linecap:round; stroke-linejoin:round; stroke-width:4; stroke-opacity:1; fill:none" points="2608.73,976.406 2770.65,976.406 2770.65,854.555 2608.73,854.555 2608.73,976.406 "/>
<path clip-path="url(#clip364)" d="M2608.73 1098.26 L2770.65 1098.26 L2770.65 976.406 L2608.73 976.406 L2608.73 1098.26  Z" fill="#f5f0f0" fill-rule="evenodd" fill-opacity="0.8"/>
<polyline clip-path="url(#clip364)" style="stroke:#000000; stroke-linecap:round; stroke-linejoin:round; stroke-width:4; stroke-opacity:0.8; fill:none" points="2608.73,1098.26 2770.65,1098.26 2770.65,976.406 2608.73,976.406 2608.73,1098.26 "/>
<path clip-path="url(#clip364)" d="M2446.82 976.406 L2608.73 976.406 L2608.73 854.555 L2446.82 854.555 L2446.82 976.406  Z" fill="#b4eeb4" fill-rule="evenodd" fill-opacity="1"/>
<polyline clip-path="url(#clip364)" style="stroke:#000000; stroke-linecap:round; stroke-linejoin:round; stroke-width:4; stroke-opacity:1; fill:none" points="2446.82,976.406 2608.73,976.406 2608.73,854.555 2446.82,854.555 2446.82,976.406 "/>
<path clip-path="url(#clip364)" d="M2446.82 1098.26 L2608.73 1098.26 L2608.73 976.406 L2446.82 976.406 L2446.82 1098.26  Z" fill="#f5f0f0" fill-rule="evenodd" fill-opacity="0.8"/>
<polyline clip-path="url(#clip364)" style="stroke:#000000; stroke-linecap:round; stroke-linejoin:round; stroke-width:4; stroke-opacity:0.8; fill:none" points="2446.82,1098.26 2608.73,1098.26 2608.73,976.406 2446.82,976.406 2446.82,1098.26 "/>
<path clip-path="url(#clip364)" d="M2284.91 976.406 L2446.82 976.406 L2446.82 854.555 L2284.91 854.555 L2284.91 976.406  Z" fill="#eedd82" fill-rule="evenodd" fill-opacity="1"/>
<polyline clip-path="url(#clip364)" style="stroke:#000000; stroke-linecap:round; stroke-linejoin:round; stroke-width:4; stroke-opacity:1; fill:none" points="2284.91,976.406 2446.82,976.406 2446.82,854.555 2284.91,854.555 2284.91,976.406 "/>
<path clip-path="url(#clip364)" d="M2284.91 1098.26 L2446.82 1098.26 L2446.82 976.406 L2284.91 976.406 L2284.91 1098.26  Z" fill="#f4f2ee" fill-rule="evenodd" fill-opacity="0.8"/>
<polyline clip-path="url(#clip364)" style="stroke:#000000; stroke-linecap:round; stroke-linejoin:round; stroke-width:4; stroke-opacity:0.8; fill:none" points="2284.91,1098.26 2446.82,1098.26 2446.82,976.406 2284.91,976.406 2284.91,1098.26 "/>
<path clip-path="url(#clip364)" d="M2123 976.406 L2284.91 976.406 L2284.91 854.555 L2123 854.555 L2123 976.406  Z" fill="#fa8072" fill-rule="evenodd" fill-opacity="1"/>
<polyline clip-path="url(#clip364)" style="stroke:#000000; stroke-linecap:round; stroke-linejoin:round; stroke-width:4; stroke-opacity:1; fill:none" points="2123,976.406 2284.91,976.406 2284.91,854.555 2123,854.555 2123,976.406 "/>
<path clip-path="url(#clip364)" d="M2123 1098.26 L2284.91 1098.26 L2284.91 976.406 L2123 976.406 L2123 1098.26  Z" fill="#0c4b00" fill-rule="evenodd" fill-opacity="0.8"/>
<polyline clip-path="url(#clip364)" style="stroke:#000000; stroke-linecap:round; stroke-linejoin:round; stroke-width:4; stroke-opacity:0.8; fill:none" points="2123,1098.26 2284.91,1098.26 2284.91,976.406 2123,976.406 2123,1098.26 "/>
<path clip-path="url(#clip364)" d="M1961.09 976.406 L2123 976.406 L2123 854.555 L1961.09 854.555 L1961.09 976.406  Z" fill="#b4eeb4" fill-rule="evenodd" fill-opacity="1"/>
<polyline clip-path="url(#clip364)" style="stroke:#000000; stroke-linecap:round; stroke-linejoin:round; stroke-width:4; stroke-opacity:1; fill:none" points="1961.09,976.406 2123,976.406 2123,854.555 1961.09,854.555 1961.09,976.406 "/>
<path clip-path="url(#clip364)" d="M1961.09 1098.26 L2123 1098.26 L2123 976.406 L1961.09 976.406 L1961.09 1098.26  Z" fill="#0c4b00" fill-rule="evenodd" fill-opacity="0.8"/>
<polyline clip-path="url(#clip364)" style="stroke:#000000; stroke-linecap:round; stroke-linejoin:round; stroke-width:4; stroke-opacity:0.8; fill:none" points="1961.09,1098.26 2123,1098.26 2123,976.406 1961.09,976.406 1961.09,1098.26 "/>
<path clip-path="url(#clip364)" d="M1799.18 976.406 L1961.09 976.406 L1961.09 854.555 L1799.18 854.555 L1799.18 976.406  Z" fill="#eedd82" fill-rule="evenodd" fill-opacity="1"/>
<polyline clip-path="url(#clip364)" style="stroke:#000000; stroke-linecap:round; stroke-linejoin:round; stroke-width:4; stroke-opacity:1; fill:none" points="1799.18,976.406 1961.09,976.406 1961.09,854.555 1799.18,854.555 1799.18,976.406 "/>
<path clip-path="url(#clip364)" d="M1799.18 1098.26 L1961.09 1098.26 L1961.09 976.406 L1799.18 976.406 L1799.18 1098.26  Z" fill="#d6e6c0" fill-rule="evenodd" fill-opacity="0.8"/>
<polyline clip-path="url(#clip364)" style="stroke:#000000; stroke-linecap:round; stroke-linejoin:round; stroke-width:4; stroke-opacity:0.8; fill:none" points="1799.18,1098.26 1961.09,1098.26 1961.09,976.406 1799.18,976.406 1799.18,1098.26 "/>
<path clip-path="url(#clip364)" d="M1637.27 976.406 L1799.18 976.406 L1799.18 854.555 L1637.27 854.555 L1637.27 976.406  Z" fill="#fa8072" fill-rule="evenodd" fill-opacity="1"/>
<polyline clip-path="url(#clip364)" style="stroke:#000000; stroke-linecap:round; stroke-linejoin:round; stroke-width:4; stroke-opacity:1; fill:none" points="1637.27,976.406 1799.18,976.406 1799.18,854.555 1637.27,854.555 1637.27,976.406 "/>
<path clip-path="url(#clip364)" d="M1637.27 1098.26 L1799.18 1098.26 L1799.18 976.406 L1637.27 976.406 L1637.27 1098.26  Z" fill="#0c4b00" fill-rule="evenodd" fill-opacity="0.8"/>
<polyline clip-path="url(#clip364)" style="stroke:#000000; stroke-linecap:round; stroke-linejoin:round; stroke-width:4; stroke-opacity:0.8; fill:none" points="1637.27,1098.26 1799.18,1098.26 1799.18,976.406 1637.27,976.406 1637.27,1098.26 "/>
<path clip-path="url(#clip364)" d="M1475.36 976.406 L1637.27 976.406 L1637.27 854.555 L1475.36 854.555 L1475.36 976.406  Z" fill="#b4eeb4" fill-rule="evenodd" fill-opacity="1"/>
<polyline clip-path="url(#clip364)" style="stroke:#000000; stroke-linecap:round; stroke-linejoin:round; stroke-width:4; stroke-opacity:1; fill:none" points="1475.36,976.406 1637.27,976.406 1637.27,854.555 1475.36,854.555 1475.36,976.406 "/>
<path clip-path="url(#clip364)" d="M1475.36 1098.26 L1637.27 1098.26 L1637.27 976.406 L1475.36 976.406 L1475.36 1098.26  Z" fill="#0c4b00" fill-rule="evenodd" fill-opacity="0.8"/>
<polyline clip-path="url(#clip364)" style="stroke:#000000; stroke-linecap:round; stroke-linejoin:round; stroke-width:4; stroke-opacity:0.8; fill:none" points="1475.36,1098.26 1637.27,1098.26 1637.27,976.406 1475.36,976.406 1475.36,1098.26 "/>
<path clip-path="url(#clip364)" d="M1313.45 976.406 L1475.36 976.406 L1475.36 854.555 L1313.45 854.555 L1313.45 976.406  Z" fill="#eedd82" fill-rule="evenodd" fill-opacity="1"/>
<polyline clip-path="url(#clip364)" style="stroke:#000000; stroke-linecap:round; stroke-linejoin:round; stroke-width:4; stroke-opacity:1; fill:none" points="1313.45,976.406 1475.36,976.406 1475.36,854.555 1313.45,854.555 1313.45,976.406 "/>
<path clip-path="url(#clip364)" d="M1313.45 1098.26 L1475.36 1098.26 L1475.36 976.406 L1313.45 976.406 L1313.45 1098.26  Z" fill="#ecf1e1" fill-rule="evenodd" fill-opacity="0.8"/>
<polyline clip-path="url(#clip364)" style="stroke:#000000; stroke-linecap:round; stroke-linejoin:round; stroke-width:4; stroke-opacity:0.8; fill:none" points="1313.45,1098.26 1475.36,1098.26 1475.36,976.406 1313.45,976.406 1313.45,1098.26 "/>
<path clip-path="url(#clip364)" d="M1151.53 976.406 L1313.45 976.406 L1313.45 854.555 L1151.53 854.555 L1151.53 976.406  Z" fill="#fa8072" fill-rule="evenodd" fill-opacity="1"/>
<polyline clip-path="url(#clip364)" style="stroke:#000000; stroke-linecap:round; stroke-linejoin:round; stroke-width:4; stroke-opacity:1; fill:none" points="1151.53,976.406 1313.45,976.406 1313.45,854.555 1151.53,854.555 1151.53,976.406 "/>
<path clip-path="url(#clip364)" d="M1151.53 1098.26 L1313.45 1098.26 L1313.45 976.406 L1151.53 976.406 L1151.53 1098.26  Z" fill="#255e11" fill-rule="evenodd" fill-opacity="0.8"/>
<polyline clip-path="url(#clip364)" style="stroke:#000000; stroke-linecap:round; stroke-linejoin:round; stroke-width:4; stroke-opacity:0.8; fill:none" points="1151.53,1098.26 1313.45,1098.26 1313.45,976.406 1151.53,976.406 1151.53,1098.26 "/>
<path clip-path="url(#clip360)" d="M2999.35 887.226 L2999.35 895.206 Q2994.7 892.978 2990.56 891.884 Q2986.43 890.79 2982.58 890.79 Q2975.9 890.79 2972.25 893.383 Q2968.65 895.975 2968.65 900.756 Q2968.65 904.766 2971.04 906.832 Q2973.47 908.857 2980.19 910.113 L2985.14 911.126 Q2994.29 912.868 2998.63 917.283 Q3003 921.658 3003 929.031 Q3003 937.821 2997.09 942.358 Q2991.21 946.895 2979.83 946.895 Q2975.54 946.895 2970.67 945.923 Q2965.85 944.951 2960.67 943.047 L2960.67 934.621 Q2965.65 937.416 2970.43 938.834 Q2975.21 940.252 2979.83 940.252 Q2986.84 940.252 2990.64 937.497 Q2994.45 934.743 2994.45 929.638 Q2994.45 925.182 2991.7 922.671 Q2988.98 920.159 2982.75 918.904 L2977.76 917.931 Q2968.61 916.108 2964.52 912.22 Q2960.43 908.331 2960.43 901.404 Q2960.43 893.383 2966.06 888.765 Q2971.73 884.147 2981.65 884.147 Q2985.91 884.147 2990.32 884.916 Q2994.74 885.686 2999.35 887.226 Z" fill="#000000" fill-rule="nonzero" fill-opacity="1" /><path clip-path="url(#clip360)" d="M3023.94 891.965 L3023.94 938.996 L3033.83 938.996 Q3046.34 938.996 3052.14 933.325 Q3057.97 927.654 3057.97 915.42 Q3057.97 903.267 3052.14 897.636 Q3046.34 891.965 3033.83 891.965 L3023.94 891.965 M3015.76 885.241 L3032.57 885.241 Q3050.15 885.241 3058.38 892.573 Q3066.6 899.864 3066.6 915.42 Q3066.6 931.056 3058.34 938.388 Q3050.07 945.721 3032.57 945.721 L3015.76 945.721 L3015.76 885.241 Z" fill="#000000" fill-rule="nonzero" fill-opacity="1" /><path clip-path="url(#clip360)" d="M2990.36 1007.09 L2998.58 1007.09 L2998.58 1043.83 Q2998.58 1053.56 3002.11 1057.85 Q3005.63 1062.1 3013.53 1062.1 Q3021.39 1062.1 3024.92 1057.85 Q3028.44 1053.56 3028.44 1043.83 L3028.44 1007.09 L3036.66 1007.09 L3036.66 1044.85 Q3036.66 1056.67 3030.79 1062.71 Q3024.96 1068.75 3013.53 1068.75 Q3002.07 1068.75 2996.19 1062.71 Q2990.36 1056.67 2990.36 1044.85 L2990.36 1007.09 Z" fill="#000000" fill-rule="nonzero" fill-opacity="1" /><path clip-path="url(#clip360)" d="M2814.7 885.241 L2822.88 885.241 L2822.88 945.721 L2814.7 945.721 L2814.7 885.241 Z" fill="#000000" fill-rule="nonzero" fill-opacity="1" /><path clip-path="url(#clip360)" d="M2880.4 937.092 L2880.4 920.848 L2867.04 920.848 L2867.04 914.124 L2888.5 914.124 L2888.5 940.09 Q2883.77 943.452 2878.05 945.194 Q2872.34 946.895 2865.86 946.895 Q2851.68 946.895 2843.66 938.631 Q2835.68 930.327 2835.68 915.541 Q2835.68 900.715 2843.66 892.451 Q2851.68 884.147 2865.86 884.147 Q2871.77 884.147 2877.08 885.605 Q2882.43 887.063 2886.93 889.899 L2886.93 898.609 Q2882.39 894.76 2877.28 892.816 Q2872.18 890.871 2866.55 890.871 Q2855.45 890.871 2849.86 897.069 Q2844.31 903.267 2844.31 915.541 Q2844.31 927.775 2849.86 933.973 Q2855.45 940.171 2866.55 940.171 Q2870.88 940.171 2874.29 939.442 Q2877.69 938.672 2880.4 937.092 Z" fill="#000000" fill-rule="nonzero" fill-opacity="1" /><path clip-path="url(#clip360)" d="M2828.45 1007.09 L2836.67 1007.09 L2836.67 1043.83 Q2836.67 1053.56 2840.2 1057.85 Q2843.72 1062.1 2851.62 1062.1 Q2859.48 1062.1 2863 1057.85 Q2866.53 1053.56 2866.53 1043.83 L2866.53 1007.09 L2874.75 1007.09 L2874.75 1044.85 Q2874.75 1056.67 2868.88 1062.71 Q2863.04 1068.75 2851.62 1068.75 Q2840.16 1068.75 2834.28 1062.71 Q2828.45 1056.67 2828.45 1044.85 L2828.45 1007.09 Z" fill="#000000" fill-rule="nonzero" fill-opacity="1" /><path clip-path="url(#clip360)" d="M2675.11 937.092 L2675.11 920.848 L2661.74 920.848 L2661.74 914.124 L2683.21 914.124 L2683.21 940.09 Q2678.47 943.452 2672.76 945.194 Q2667.05 946.895 2660.56 946.895 Q2646.39 946.895 2638.37 938.631 Q2630.38 930.327 2630.38 915.541 Q2630.38 900.715 2638.37 892.451 Q2646.39 884.147 2660.56 884.147 Q2666.48 884.147 2671.78 885.605 Q2677.13 887.063 2681.63 889.899 L2681.63 898.609 Q2677.09 894.76 2671.99 892.816 Q2666.88 890.871 2661.25 890.871 Q2650.15 890.871 2644.56 897.069 Q2639.01 903.267 2639.01 915.541 Q2639.01 927.775 2644.56 933.973 Q2650.15 940.171 2661.25 940.171 Q2665.59 940.171 2668.99 939.442 Q2672.39 938.672 2675.11 937.092 Z" fill="#000000" fill-rule="nonzero" fill-opacity="1" /><path clip-path="url(#clip360)" d="M2706.34 891.965 L2706.34 938.996 L2716.22 938.996 Q2728.74 938.996 2734.53 933.325 Q2740.37 927.654 2740.37 915.42 Q2740.37 903.267 2734.53 897.636 Q2728.74 891.965 2716.22 891.965 L2706.34 891.965 M2698.16 885.241 L2714.97 885.241 Q2732.55 885.241 2740.77 892.573 Q2749 899.864 2749 915.42 Q2749 931.056 2740.73 938.388 Q2732.47 945.721 2714.97 945.721 L2698.16 945.721 L2698.16 885.241 Z" fill="#000000" fill-rule="nonzero" fill-opacity="1" /><path clip-path="url(#clip360)" d="M2708 1058.94 L2708 1042.7 L2694.63 1042.7 L2694.63 1035.97 L2716.1 1035.97 L2716.1 1061.94 Q2711.36 1065.3 2705.65 1067.04 Q2699.94 1068.75 2693.46 1068.75 Q2679.28 1068.75 2671.26 1060.48 Q2663.28 1052.18 2663.28 1037.39 Q2663.28 1022.57 2671.26 1014.3 Q2679.28 1006 2693.46 1006 Q2699.37 1006 2704.68 1007.46 Q2710.03 1008.91 2714.52 1011.75 L2714.52 1020.46 Q2709.99 1016.61 2704.88 1014.67 Q2699.78 1012.72 2694.15 1012.72 Q2683.05 1012.72 2677.46 1018.92 Q2671.91 1025.12 2671.91 1037.39 Q2671.91 1049.63 2677.46 1055.82 Q2683.05 1062.02 2694.15 1062.02 Q2698.48 1062.02 2701.88 1061.29 Q2705.29 1060.52 2708 1058.94 Z" fill="#000000" fill-rule="nonzero" fill-opacity="1" /><path clip-path="url(#clip360)" d="M2473.58 885.241 L2524.74 885.241 L2524.74 892.127 L2503.27 892.127 L2503.27 945.721 L2495.05 945.721 L2495.05 892.127 L2473.58 892.127 L2473.58 885.241 Z" fill="#000000" fill-rule="nonzero" fill-opacity="1" /><path clip-path="url(#clip360)" d="M2573.88 937.092 L2573.88 920.848 L2560.51 920.848 L2560.51 914.124 L2581.98 914.124 L2581.98 940.09 Q2577.24 943.452 2571.53 945.194 Q2565.82 946.895 2559.34 946.895 Q2545.16 946.895 2537.14 938.631 Q2529.16 930.327 2529.16 915.541 Q2529.16 900.715 2537.14 892.451 Q2545.16 884.147 2559.34 884.147 Q2565.25 884.147 2570.56 885.605 Q2575.9 887.063 2580.4 889.899 L2580.4 898.609 Q2575.86 894.76 2570.76 892.816 Q2565.65 890.871 2560.02 890.871 Q2548.92 890.871 2543.33 897.069 Q2537.78 903.267 2537.78 915.541 Q2537.78 927.775 2543.33 933.973 Q2548.92 940.171 2560.02 940.171 Q2564.36 940.171 2567.76 939.442 Q2571.16 938.672 2573.88 937.092 Z" fill="#000000" fill-rule="nonzero" fill-opacity="1" /><path clip-path="url(#clip360)" d="M2527.78 1015.15 L2516.68 1045.25 L2538.92 1045.25 L2527.78 1015.15 M2523.16 1007.09 L2532.44 1007.09 L2555.49 1067.57 L2546.98 1067.57 L2541.47 1052.06 L2514.21 1052.06 L2508.7 1067.57 L2500.07 1067.57 L2523.16 1007.09 Z" fill="#000000" fill-rule="nonzero" fill-opacity="1" /><path clip-path="url(#clip360)" d="M2336.03 893.302 L2324.93 923.4 L2347.17 923.4 L2336.03 893.302 M2331.41 885.241 L2340.69 885.241 L2363.74 945.721 L2355.23 945.721 L2349.72 930.206 L2322.46 930.206 L2316.95 945.721 L2308.32 945.721 L2331.41 885.241 Z" fill="#000000" fill-rule="nonzero" fill-opacity="1" /><path clip-path="url(#clip360)" d="M2380.75 891.965 L2380.75 938.996 L2390.64 938.996 Q2403.16 938.996 2408.95 933.325 Q2414.78 927.654 2414.78 915.42 Q2414.78 903.267 2408.95 897.636 Q2403.16 891.965 2390.64 891.965 L2380.75 891.965 M2372.57 885.241 L2389.38 885.241 Q2406.96 885.241 2415.19 892.573 Q2423.41 899.864 2423.41 915.42 Q2423.41 931.056 2415.15 938.388 Q2406.88 945.721 2389.38 945.721 L2372.57 945.721 L2372.57 885.241 Z" fill="#000000" fill-rule="nonzero" fill-opacity="1" /><path clip-path="url(#clip360)" d="M2342.72 1007.09 L2350.94 1007.09 L2350.94 1043.83 Q2350.94 1053.56 2354.46 1057.85 Q2357.99 1062.1 2365.89 1062.1 Q2373.75 1062.1 2377.27 1057.85 Q2380.8 1053.56 2380.8 1043.83 L2380.8 1007.09 L2389.02 1007.09 L2389.02 1044.85 Q2389.02 1056.67 2383.14 1062.71 Q2377.31 1068.75 2365.89 1068.75 Q2354.42 1068.75 2348.55 1062.71 Q2342.72 1056.67 2342.72 1044.85 L2342.72 1007.09 Z" fill="#000000" fill-rule="nonzero" fill-opacity="1" /><path clip-path="url(#clip360)" d="M2147.51 885.241 L2158.53 885.241 L2185.34 935.836 L2185.34 885.241 L2193.28 885.241 L2193.28 945.721 L2182.26 945.721 L2155.45 895.125 L2155.45 945.721 L2147.51 945.721 L2147.51 885.241 Z" fill="#000000" fill-rule="nonzero" fill-opacity="1" /><path clip-path="url(#clip360)" d="M2217.75 891.965 L2217.75 938.996 L2227.63 938.996 Q2240.15 938.996 2245.94 933.325 Q2251.78 927.654 2251.78 915.42 Q2251.78 903.267 2245.94 897.636 Q2240.15 891.965 2227.63 891.965 L2217.75 891.965 M2209.57 885.241 L2226.38 885.241 Q2243.96 885.241 2252.18 892.573 Q2260.41 899.864 2260.41 915.42 Q2260.41 931.056 2252.14 938.388 Q2243.88 945.721 2226.38 945.721 L2209.57 945.721 L2209.57 885.241 Z" fill="#000000" fill-rule="nonzero" fill-opacity="1" /><path clip-path="url(#clip360)" d="M2180.81 1007.09 L2189.03 1007.09 L2189.03 1043.83 Q2189.03 1053.56 2192.55 1057.85 Q2196.08 1062.1 2203.98 1062.1 Q2211.84 1062.1 2215.36 1057.85 Q2218.88 1053.56 2218.88 1043.83 L2218.88 1007.09 L2227.11 1007.09 L2227.11 1044.85 Q2227.11 1056.67 2221.23 1062.71 Q2215.4 1068.75 2203.98 1068.75 Q2192.51 1068.75 2186.64 1062.71 Q2180.81 1056.67 2180.81 1044.85 L2180.81 1007.09 Z" fill="#000000" fill-rule="nonzero" fill-opacity="1" /><path clip-path="url(#clip360)" d="M1985.6 885.241 L1996.61 885.241 L2023.43 935.836 L2023.43 885.241 L2031.37 885.241 L2031.37 945.721 L2020.35 945.721 L1993.54 895.125 L1993.54 945.721 L1985.6 945.721 L1985.6 885.241 Z" fill="#000000" fill-rule="nonzero" fill-opacity="1" /><path clip-path="url(#clip360)" d="M2055.84 891.965 L2055.84 938.996 L2065.72 938.996 Q2078.24 938.996 2084.03 933.325 Q2089.87 927.654 2089.87 915.42 Q2089.87 903.267 2084.03 897.636 Q2078.24 891.965 2065.72 891.965 L2055.84 891.965 M2047.66 885.241 L2064.47 885.241 Q2082.05 885.241 2090.27 892.573 Q2098.49 899.864 2098.49 915.42 Q2098.49 931.056 2090.23 938.388 Q2081.97 945.721 2064.47 945.721 L2047.66 945.721 L2047.66 885.241 Z" fill="#000000" fill-rule="nonzero" fill-opacity="1" /><path clip-path="url(#clip360)" d="M2018.89 1007.09 L2027.12 1007.09 L2027.12 1043.83 Q2027.12 1053.56 2030.64 1057.85 Q2034.17 1062.1 2042.07 1062.1 Q2049.92 1062.1 2053.45 1057.85 Q2056.97 1053.56 2056.97 1043.83 L2056.97 1007.09 L2065.2 1007.09 L2065.2 1044.85 Q2065.2 1056.67 2059.32 1062.71 Q2053.49 1068.75 2042.07 1068.75 Q2030.6 1068.75 2024.73 1062.71 Q2018.89 1056.67 2018.89 1044.85 L2018.89 1007.09 Z" fill="#000000" fill-rule="nonzero" fill-opacity="1" /><path clip-path="url(#clip360)" d="M1850.3 893.302 L1839.2 923.4 L1861.44 923.4 L1850.3 893.302 M1845.68 885.241 L1854.96 885.241 L1878.01 945.721 L1869.5 945.721 L1863.99 930.206 L1836.73 930.206 L1831.22 945.721 L1822.59 945.721 L1845.68 885.241 Z" fill="#000000" fill-rule="nonzero" fill-opacity="1" /><path clip-path="url(#clip360)" d="M1895.02 891.965 L1895.02 938.996 L1904.91 938.996 Q1917.42 938.996 1923.22 933.325 Q1929.05 927.654 1929.05 915.42 Q1929.05 903.267 1923.22 897.636 Q1917.42 891.965 1904.91 891.965 L1895.02 891.965 M1886.84 885.241 L1903.65 885.241 Q1921.23 885.241 1929.45 892.573 Q1937.68 899.864 1937.68 915.42 Q1937.68 931.056 1929.41 938.388 Q1921.15 945.721 1903.65 945.721 L1886.84 945.721 L1886.84 885.241 Z" fill="#000000" fill-rule="nonzero" fill-opacity="1" /><path clip-path="url(#clip360)" d="M1898.44 1058.94 L1898.44 1042.7 L1885.08 1042.7 L1885.08 1035.97 L1906.55 1035.97 L1906.55 1061.94 Q1901.81 1065.3 1896.09 1067.04 Q1890.38 1068.75 1883.9 1068.75 Q1869.72 1068.75 1861.7 1060.48 Q1853.72 1052.18 1853.72 1037.39 Q1853.72 1022.57 1861.7 1014.3 Q1869.72 1006 1883.9 1006 Q1889.82 1006 1895.12 1007.46 Q1900.47 1008.91 1904.97 1011.75 L1904.97 1020.46 Q1900.43 1016.61 1895.33 1014.67 Q1890.22 1012.72 1884.59 1012.72 Q1873.49 1012.72 1867.9 1018.92 Q1862.35 1025.12 1862.35 1037.39 Q1862.35 1049.63 1867.9 1055.82 Q1873.49 1062.02 1884.59 1062.02 Q1888.92 1062.02 1892.33 1061.29 Q1895.73 1060.52 1898.44 1058.94 Z" fill="#000000" fill-rule="nonzero" fill-opacity="1" /><path clip-path="url(#clip360)" d="M1661.77 885.241 L1672.79 885.241 L1699.61 935.836 L1699.61 885.241 L1707.55 885.241 L1707.55 945.721 L1696.53 945.721 L1669.71 895.125 L1669.71 945.721 L1661.77 945.721 L1661.77 885.241 Z" fill="#000000" fill-rule="nonzero" fill-opacity="1" /><path clip-path="url(#clip360)" d="M1732.02 891.965 L1732.02 938.996 L1741.9 938.996 Q1754.42 938.996 1760.21 933.325 Q1766.04 927.654 1766.04 915.42 Q1766.04 903.267 1760.21 897.636 Q1754.42 891.965 1741.9 891.965 L1732.02 891.965 M1723.83 885.241 L1740.64 885.241 Q1758.23 885.241 1766.45 892.573 Q1774.67 899.864 1774.67 915.42 Q1774.67 931.056 1766.41 938.388 Q1758.14 945.721 1740.64 945.721 L1723.83 945.721 L1723.83 885.241 Z" fill="#000000" fill-rule="nonzero" fill-opacity="1" /><path clip-path="url(#clip360)" d="M1695.07 1007.09 L1703.3 1007.09 L1703.3 1043.83 Q1703.3 1053.56 1706.82 1057.85 Q1710.34 1062.1 1718.24 1062.1 Q1726.1 1062.1 1729.63 1057.85 Q1733.15 1053.56 1733.15 1043.83 L1733.15 1007.09 L1741.37 1007.09 L1741.37 1044.85 Q1741.37 1056.67 1735.5 1062.71 Q1729.67 1068.75 1718.24 1068.75 Q1706.78 1068.75 1700.91 1062.71 Q1695.07 1056.67 1695.07 1044.85 L1695.07 1007.09 Z" fill="#000000" fill-rule="nonzero" fill-opacity="1" /><path clip-path="url(#clip360)" d="M1499.86 885.241 L1510.88 885.241 L1537.7 935.836 L1537.7 885.241 L1545.64 885.241 L1545.64 945.721 L1534.62 945.721 L1507.8 895.125 L1507.8 945.721 L1499.86 945.721 L1499.86 885.241 Z" fill="#000000" fill-rule="nonzero" fill-opacity="1" /><path clip-path="url(#clip360)" d="M1570.11 891.965 L1570.11 938.996 L1579.99 938.996 Q1592.51 938.996 1598.3 933.325 Q1604.13 927.654 1604.13 915.42 Q1604.13 903.267 1598.3 897.636 Q1592.51 891.965 1579.99 891.965 L1570.11 891.965 M1561.92 885.241 L1578.73 885.241 Q1596.31 885.241 1604.54 892.573 Q1612.76 899.864 1612.76 915.42 Q1612.76 931.056 1604.5 938.388 Q1596.23 945.721 1578.73 945.721 L1561.92 945.721 L1561.92 885.241 Z" fill="#000000" fill-rule="nonzero" fill-opacity="1" /><path clip-path="url(#clip360)" d="M1533.16 1007.09 L1541.38 1007.09 L1541.38 1043.83 Q1541.38 1053.56 1544.91 1057.85 Q1548.43 1062.1 1556.33 1062.1 Q1564.19 1062.1 1567.72 1057.85 Q1571.24 1053.56 1571.24 1043.83 L1571.24 1007.09 L1579.46 1007.09 L1579.46 1044.85 Q1579.46 1056.67 1573.59 1062.71 Q1567.76 1068.75 1556.33 1068.75 Q1544.87 1068.75 1538.99 1062.71 Q1533.16 1056.67 1533.16 1044.85 L1533.16 1007.09 Z" fill="#000000" fill-rule="nonzero" fill-opacity="1" /><path clip-path="url(#clip360)" d="M1359.95 945.721 L1336.86 885.241 L1345.41 885.241 L1364.57 936.16 L1383.77 885.241 L1392.27 885.241 L1369.22 945.721 L1359.95 945.721 Z" fill="#000000" fill-rule="nonzero" fill-opacity="1" /><path clip-path="url(#clip360)" d="M1409.29 891.965 L1409.29 938.996 L1419.17 938.996 Q1431.69 938.996 1437.48 933.325 Q1443.32 927.654 1443.32 915.42 Q1443.32 903.267 1437.48 897.636 Q1431.69 891.965 1419.17 891.965 L1409.29 891.965 M1401.1 885.241 L1417.92 885.241 Q1435.5 885.241 1443.72 892.573 Q1451.94 899.864 1451.94 915.42 Q1451.94 931.056 1443.68 938.388 Q1435.42 945.721 1417.92 945.721 L1401.1 945.721 L1401.1 885.241 Z" fill="#000000" fill-rule="nonzero" fill-opacity="1" /><path clip-path="url(#clip360)" d="M1371.25 1007.09 L1379.47 1007.09 L1379.47 1043.83 Q1379.47 1053.56 1383 1057.85 Q1386.52 1062.1 1394.42 1062.1 Q1402.28 1062.1 1405.8 1057.85 Q1409.33 1053.56 1409.33 1043.83 L1409.33 1007.09 L1417.55 1007.09 L1417.55 1044.85 Q1417.55 1056.67 1411.68 1062.71 Q1405.84 1068.75 1394.42 1068.75 Q1382.96 1068.75 1377.08 1062.71 Q1371.25 1056.67 1371.25 1044.85 L1371.25 1007.09 Z" fill="#000000" fill-rule="nonzero" fill-opacity="1" /><path clip-path="url(#clip360)" d="M1220.86 887.226 L1220.86 895.206 Q1216.2 892.978 1212.07 891.884 Q1207.94 890.79 1204.09 890.79 Q1197.41 890.79 1193.76 893.383 Q1190.16 895.975 1190.16 900.756 Q1190.16 904.766 1192.55 906.832 Q1194.98 908.857 1201.7 910.113 L1206.64 911.126 Q1215.8 912.868 1220.13 917.283 Q1224.51 921.658 1224.51 929.031 Q1224.51 937.821 1218.59 942.358 Q1212.72 946.895 1201.34 946.895 Q1197.04 946.895 1192.18 945.923 Q1187.36 944.951 1182.18 943.047 L1182.18 934.621 Q1187.16 937.416 1191.94 938.834 Q1196.72 940.252 1201.34 940.252 Q1208.35 940.252 1212.15 937.497 Q1215.96 934.743 1215.96 929.638 Q1215.96 925.182 1213.21 922.671 Q1210.49 920.159 1204.25 918.904 L1199.27 917.931 Q1190.12 916.108 1186.03 912.22 Q1181.93 908.331 1181.93 901.404 Q1181.93 893.383 1187.57 888.765 Q1193.24 884.147 1203.16 884.147 Q1207.41 884.147 1211.83 884.916 Q1216.25 885.686 1220.86 887.226 Z" fill="#000000" fill-rule="nonzero" fill-opacity="1" /><path clip-path="url(#clip360)" d="M1237.27 885.241 L1248.29 885.241 L1275.11 935.836 L1275.11 885.241 L1283.04 885.241 L1283.04 945.721 L1272.03 945.721 L1245.21 895.125 L1245.21 945.721 L1237.27 945.721 L1237.27 885.241 Z" fill="#000000" fill-rule="nonzero" fill-opacity="1" /><path clip-path="url(#clip360)" d="M1232.49 1015.15 L1221.39 1045.25 L1243.63 1045.25 L1232.49 1015.15 M1227.87 1007.09 L1237.15 1007.09 L1260.2 1067.57 L1251.69 1067.57 L1246.18 1052.06 L1218.92 1052.06 L1213.41 1067.57 L1204.78 1067.57 L1227.87 1007.09 Z" fill="#000000" fill-rule="nonzero" fill-opacity="1" /><g clip-path="url(#clip360)">
<text style="fill:#000000; fill-opacity:1; font-family:Arial,Helvetica Neue,Helvetica,sans-serif; font-size:82px; font-style:italic; text-anchor:end;" transform="rotate(0, 1030.1, 1006.41)" x="1030.1" y="1006.41">Huperzia serrata</text>
</g>
</svg>
