<?xml version="1.0" encoding="utf-8"?>
<svg xmlns="http://www.w3.org/2000/svg" xmlns:xlink="http://www.w3.org/1999/xlink" width="800" height="300" viewBox="0 0 3200 1200">
<defs>
  <clipPath id="clip400">
    <rect x="0" y="0" width="3200" height="1200"/>
  </clipPath>
</defs>
<path clip-path="url(#clip400)" d="M0 1200 L3200 1200 L3200 0 L0 0  Z" fill="#ffffff" fill-rule="evenodd" fill-opacity="1"/>
<defs>
  <clipPath id="clip401">
    <rect x="640" y="0" width="2241" height="1200"/>
  </clipPath>
</defs>
<path clip-path="url(#clip400)" d="M1093.25 305.568 L3152.76 305.568 L3152.76 47.2441 L1093.25 47.2441  Z" fill="#ffffff" fill-rule="evenodd" fill-opacity="1"/>
<defs>
  <clipPath id="clip402">
    <rect x="1093" y="47" width="2061" height="259"/>
  </clipPath>
</defs>
<polyline clip-path="url(#clip402)" style="stroke:#000000; stroke-linecap:round; stroke-linejoin:round; stroke-width:2; stroke-opacity:0.1; fill:none" points="1475.36,305.568 1475.36,47.2441 "/>
<polyline clip-path="url(#clip402)" style="stroke:#000000; stroke-linecap:round; stroke-linejoin:round; stroke-width:2; stroke-opacity:0.1; fill:none" points="1880.13,305.568 1880.13,47.2441 "/>
<polyline clip-path="url(#clip402)" style="stroke:#000000; stroke-linecap:round; stroke-linejoin:round; stroke-width:2; stroke-opacity:0.1; fill:none" points="2284.91,305.568 2284.91,47.2441 "/>
<polyline clip-path="url(#clip402)" style="stroke:#000000; stroke-linecap:round; stroke-linejoin:round; stroke-width:2; stroke-opacity:0.1; fill:none" points="2689.69,305.568 2689.69,47.2441 "/>
<polyline clip-path="url(#clip402)" style="stroke:#000000; stroke-linecap:round; stroke-linejoin:round; stroke-width:2; stroke-opacity:0.1; fill:none" points="3094.47,305.568 3094.47,47.2441 "/>
<polyline clip-path="url(#clip402)" style="stroke:#000000; stroke-linecap:round; stroke-linejoin:round; stroke-width:2; stroke-opacity:0.1; fill:none" points="1093.25,298.257 3152.76,298.257 "/>
<polyline clip-path="url(#clip402)" style="stroke:#000000; stroke-linecap:round; stroke-linejoin:round; stroke-width:2; stroke-opacity:0.1; fill:none" points="1093.25,237.331 3152.76,237.331 "/>
<polyline clip-path="url(#clip402)" style="stroke:#000000; stroke-linecap:round; stroke-linejoin:round; stroke-width:2; stroke-opacity:0.1; fill:none" points="1093.25,176.406 3152.76,176.406 "/>
<polyline clip-path="url(#clip402)" style="stroke:#000000; stroke-linecap:round; stroke-linejoin:round; stroke-width:2; stroke-opacity:0.1; fill:none" points="1093.25,115.481 3152.76,115.481 "/>
<polyline clip-path="url(#clip402)" style="stroke:#000000; stroke-linecap:round; stroke-linejoin:round; stroke-width:2; stroke-opacity:0.1; fill:none" points="1093.25,54.5551 3152.76,54.5551 "/>
<path clip-path="url(#clip402)" d="M2932.56 176.406 L3094.47 176.406 L3094.47 54.5551 L2932.56 54.5551 L2932.56 176.406  Z" fill="#c0c0c0" fill-rule="evenodd" fill-opacity="1"/>
<polyline clip-path="url(#clip402)" style="stroke:#000000; stroke-linecap:round; stroke-linejoin:round; stroke-width:4; stroke-opacity:1; fill:none" points="2932.56,176.406 3094.47,176.406 3094.47,54.5551 2932.56,54.5551 2932.56,176.406 "/>
<path clip-path="url(#clip402)" d="M2932.56 298.257 L3094.47 298.257 L3094.47 176.406 L2932.56 176.406 L2932.56 298.257  Z" fill="#c0c0c0" fill-rule="evenodd" fill-opacity="0.8"/>
<polyline clip-path="url(#clip402)" style="stroke:#000000; stroke-linecap:round; stroke-linejoin:round; stroke-width:4; stroke-opacity:0.8; fill:none" points="2932.56,298.257 3094.47,298.257 3094.47,176.406 2932.56,176.406 2932.56,298.257 "/>
<path clip-path="url(#clip402)" d="M2770.65 176.406 L2932.56 176.406 L2932.56 54.5551 L2770.65 54.5551 L2770.65 176.406  Z" fill="#c0c0c0" fill-rule="evenodd" fill-opacity="1"/>
<polyline clip-path="url(#clip402)" style="stroke:#000000; stroke-linecap:round; stroke-linejoin:round; stroke-width:4; stroke-opacity:1; fill:none" points="2770.65,176.406 2932.56,176.406 2932.56,54.5551 2770.65,54.5551 2770.65,176.406 "/>
<path clip-path="url(#clip402)" d="M2770.65 298.257 L2932.56 298.257 L2932.56 176.406 L2770.65 176.406 L2770.65 298.257  Z" fill="#c0c0c0" fill-rule="evenodd" fill-opacity="0.8"/>
<polyline clip-path="url(#clip402)" style="stroke:#000000; stroke-linecap:round; stroke-linejoin:round; stroke-width:4; stroke-opacity:0.8; fill:none" points="2770.65,298.257 2932.56,298.257 2932.56,176.406 2770.65,176.406 2770.65,298.257 "/>
<path clip-path="url(#clip402)" d="M2608.73 176.406 L2770.65 176.406 L2770.65 54.5551 L2608.73 54.5551 L2608.73 176.406  Z" fill="#c0c0c0" fill-rule="evenodd" fill-opacity="1"/>
<polyline clip-path="url(#clip402)" style="stroke:#000000; stroke-linecap:round; stroke-linejoin:round; stroke-width:4; stroke-opacity:1; fill:none" points="2608.73,176.406 2770.65,176.406 2770.65,54.5551 2608.73,54.5551 2608.73,176.406 "/>
<path clip-path="url(#clip402)" d="M2608.73 298.257 L2770.65 298.257 L2770.65 176.406 L2608.73 176.406 L2608.73 298.257  Z" fill="#c0c0c0" fill-rule="evenodd" fill-opacity="0.8"/>
<polyline clip-path="url(#clip402)" style="stroke:#000000; stroke-linecap:round; stroke-linejoin:round; stroke-width:4; stroke-opacity:0.8; fill:none" points="2608.73,298.257 2770.65,298.257 2770.65,176.406 2608.73,176.406 2608.73,298.257 "/>
<path clip-path="url(#clip402)" d="M2446.82 176.406 L2608.73 176.406 L2608.73 54.5551 L2446.82 54.5551 L2446.82 176.406  Z" fill="#c0c0c0" fill-rule="evenodd" fill-opacity="1"/>
<polyline clip-path="url(#clip402)" style="stroke:#000000; stroke-linecap:round; stroke-linejoin:round; stroke-width:4; stroke-opacity:1; fill:none" points="2446.82,176.406 2608.73,176.406 2608.73,54.5551 2446.82,54.5551 2446.82,176.406 "/>
<path clip-path="url(#clip402)" d="M2446.82 298.257 L2608.73 298.257 L2608.73 176.406 L2446.82 176.406 L2446.82 298.257  Z" fill="#c0c0c0" fill-rule="evenodd" fill-opacity="0.8"/>
<polyline clip-path="url(#clip402)" style="stroke:#000000; stroke-linecap:round; stroke-linejoin:round; stroke-width:4; stroke-opacity:0.8; fill:none" points="2446.82,298.257 2608.73,298.257 2608.73,176.406 2446.82,176.406 2446.82,298.257 "/>
<path clip-path="url(#clip402)" d="M2284.91 176.406 L2446.82 176.406 L2446.82 54.5551 L2284.91 54.5551 L2284.91 176.406  Z" fill="#c0c0c0" fill-rule="evenodd" fill-opacity="1"/>
<polyline clip-path="url(#clip402)" style="stroke:#000000; stroke-linecap:round; stroke-linejoin:round; stroke-width:4; stroke-opacity:1; fill:none" points="2284.91,176.406 2446.82,176.406 2446.82,54.5551 2284.91,54.5551 2284.91,176.406 "/>
<path clip-path="url(#clip402)" d="M2284.91 298.257 L2446.82 298.257 L2446.82 176.406 L2284.91 176.406 L2284.91 298.257  Z" fill="#c0c0c0" fill-rule="evenodd" fill-opacity="0.8"/>
<polyline clip-path="url(#clip402)" style="stroke:#000000; stroke-linecap:round; stroke-linejoin:round; stroke-width:4; stroke-opacity:0.8; fill:none" points="2284.91,298.257 2446.82,298.257 2446.82,176.406 2284.91,176.406 2284.91,298.257 "/>
<path clip-path="url(#clip402)" d="M2123 176.406 L2284.91 176.406 L2284.91 54.5551 L2123 54.5551 L2123 176.406  Z" fill="#c0c0c0" fill-rule="evenodd" fill-opacity="1"/>
<polyline clip-path="url(#clip402)" style="stroke:#000000; stroke-linecap:round; stroke-linejoin:round; stroke-width:4; stroke-opacity:1; fill:none" points="2123,176.406 2284.91,176.406 2284.91,54.5551 2123,54.5551 2123,176.406 "/>
<path clip-path="url(#clip402)" d="M2123 298.257 L2284.91 298.257 L2284.91 176.406 L2123 176.406 L2123 298.257  Z" fill="#c0c0c0" fill-rule="evenodd" fill-opacity="0.8"/>
<polyline clip-path="url(#clip402)" style="stroke:#000000; stroke-linecap:round; stroke-linejoin:round; stroke-width:4; stroke-opacity:0.8; fill:none" points="2123,298.257 2284.91,298.257 2284.91,176.406 2123,176.406 2123,298.257 "/>
<path clip-path="url(#clip402)" d="M1961.09 176.406 L2123 176.406 L2123 54.5551 L1961.09 54.5551 L1961.09 176.406  Z" fill="#c0c0c0" fill-rule="evenodd" fill-opacity="1"/>
<polyline clip-path="url(#clip402)" style="stroke:#000000; stroke-linecap:round; stroke-linejoin:round; stroke-width:4; stroke-opacity:1; fill:none" points="1961.09,176.406 2123,176.406 2123,54.5551 1961.09,54.5551 1961.09,176.406 "/>
<path clip-path="url(#clip402)" d="M1961.09 298.257 L2123 298.257 L2123 176.406 L1961.09 176.406 L1961.09 298.257  Z" fill="#c0c0c0" fill-rule="evenodd" fill-opacity="0.8"/>
<polyline clip-path="url(#clip402)" style="stroke:#000000; stroke-linecap:round; stroke-linejoin:round; stroke-width:4; stroke-opacity:0.8; fill:none" points="1961.09,298.257 2123,298.257 2123,176.406 1961.09,176.406 1961.09,298.257 "/>
<path clip-path="url(#clip402)" d="M1799.18 176.406 L1961.09 176.406 L1961.09 54.5551 L1799.18 54.5551 L1799.18 176.406  Z" fill="#c0c0c0" fill-rule="evenodd" fill-opacity="1"/>
<polyline clip-path="url(#clip402)" style="stroke:#000000; stroke-linecap:round; stroke-linejoin:round; stroke-width:4; stroke-opacity:1; fill:none" points="1799.18,176.406 1961.09,176.406 1961.09,54.5551 1799.18,54.5551 1799.18,176.406 "/>
<path clip-path="url(#clip402)" d="M1799.18 298.257 L1961.09 298.257 L1961.09 176.406 L1799.18 176.406 L1799.18 298.257  Z" fill="#c0c0c0" fill-rule="evenodd" fill-opacity="0.8"/>
<polyline clip-path="url(#clip402)" style="stroke:#000000; stroke-linecap:round; stroke-linejoin:round; stroke-width:4; stroke-opacity:0.8; fill:none" points="1799.18,298.257 1961.09,298.257 1961.09,176.406 1799.18,176.406 1799.18,298.257 "/>
<path clip-path="url(#clip402)" d="M1637.27 176.406 L1799.18 176.406 L1799.18 54.5551 L1637.27 54.5551 L1637.27 176.406  Z" fill="#c0c0c0" fill-rule="evenodd" fill-opacity="1"/>
<polyline clip-path="url(#clip402)" style="stroke:#000000; stroke-linecap:round; stroke-linejoin:round; stroke-width:4; stroke-opacity:1; fill:none" points="1637.27,176.406 1799.18,176.406 1799.18,54.5551 1637.27,54.5551 1637.27,176.406 "/>
<path clip-path="url(#clip402)" d="M1637.27 298.257 L1799.18 298.257 L1799.18 176.406 L1637.27 176.406 L1637.27 298.257  Z" fill="#c0c0c0" fill-rule="evenodd" fill-opacity="0.8"/>
<polyline clip-path="url(#clip402)" style="stroke:#000000; stroke-linecap:round; stroke-linejoin:round; stroke-width:4; stroke-opacity:0.8; fill:none" points="1637.27,298.257 1799.18,298.257 1799.18,176.406 1637.27,176.406 1637.27,298.257 "/>
<path clip-path="url(#clip402)" d="M1475.36 176.406 L1637.27 176.406 L1637.27 54.5551 L1475.36 54.5551 L1475.36 176.406  Z" fill="#c0c0c0" fill-rule="evenodd" fill-opacity="1"/>
<polyline clip-path="url(#clip402)" style="stroke:#000000; stroke-linecap:round; stroke-linejoin:round; stroke-width:4; stroke-opacity:1; fill:none" points="1475.36,176.406 1637.27,176.406 1637.27,54.5551 1475.36,54.5551 1475.36,176.406 "/>
<path clip-path="url(#clip402)" d="M1475.36 298.257 L1637.27 298.257 L1637.27 176.406 L1475.36 176.406 L1475.36 298.257  Z" fill="#c0c0c0" fill-rule="evenodd" fill-opacity="0.8"/>
<polyline clip-path="url(#clip402)" style="stroke:#000000; stroke-linecap:round; stroke-linejoin:round; stroke-width:4; stroke-opacity:0.8; fill:none" points="1475.36,298.257 1637.27,298.257 1637.27,176.406 1475.36,176.406 1475.36,298.257 "/>
<path clip-path="url(#clip402)" d="M1313.45 176.406 L1475.36 176.406 L1475.36 54.5551 L1313.45 54.5551 L1313.45 176.406  Z" fill="#c0c0c0" fill-rule="evenodd" fill-opacity="1"/>
<polyline clip-path="url(#clip402)" style="stroke:#000000; stroke-linecap:round; stroke-linejoin:round; stroke-width:4; stroke-opacity:1; fill:none" points="1313.45,176.406 1475.36,176.406 1475.36,54.5551 1313.45,54.5551 1313.45,176.406 "/>
<path clip-path="url(#clip402)" d="M1313.45 298.257 L1475.36 298.257 L1475.36 176.406 L1313.45 176.406 L1313.45 298.257  Z" fill="#c0c0c0" fill-rule="evenodd" fill-opacity="0.8"/>
<polyline clip-path="url(#clip402)" style="stroke:#000000; stroke-linecap:round; stroke-linejoin:round; stroke-width:4; stroke-opacity:0.8; fill:none" points="1313.45,298.257 1475.36,298.257 1475.36,176.406 1313.45,176.406 1313.45,298.257 "/>
<path clip-path="url(#clip402)" d="M1151.53 176.406 L1313.45 176.406 L1313.45 54.5551 L1151.53 54.5551 L1151.53 176.406  Z" fill="#c0c0c0" fill-rule="evenodd" fill-opacity="1"/>
<polyline clip-path="url(#clip402)" style="stroke:#000000; stroke-linecap:round; stroke-linejoin:round; stroke-width:4; stroke-opacity:1; fill:none" points="1151.53,176.406 1313.45,176.406 1313.45,54.5551 1151.53,54.5551 1151.53,176.406 "/>
<path clip-path="url(#clip402)" d="M1151.53 298.257 L1313.45 298.257 L1313.45 176.406 L1151.53 176.406 L1151.53 298.257  Z" fill="#c0c0c0" fill-rule="evenodd" fill-opacity="0.8"/>
<polyline clip-path="url(#clip402)" style="stroke:#000000; stroke-linecap:round; stroke-linejoin:round; stroke-width:4; stroke-opacity:0.8; fill:none" points="1151.53,298.257 1313.45,298.257 1313.45,176.406 1151.53,176.406 1151.53,298.257 "/>
<path clip-path="url(#clip400)" d="M3013.51 215.153 L3002.41 245.251 L3024.65 245.251 L3013.51 215.153 M3008.89 207.091 L3018.17 207.091 L3041.22 267.571 L3032.71 267.571 L3027.2 252.056 L2999.94 252.056 L2994.43 267.571 L2985.8 267.571 L3008.89 207.091 Z" fill="#000000" fill-rule="nonzero" fill-opacity="1" /><path clip-path="url(#clip400)" d="M2828.45 207.091 L2836.67 207.091 L2836.67 243.833 Q2836.67 253.555 2840.2 257.849 Q2843.72 262.103 2851.62 262.103 Q2859.48 262.103 2863 257.849 Q2866.53 253.555 2866.53 243.833 L2866.53 207.091 L2874.75 207.091 L2874.75 244.846 Q2874.75 256.674 2868.88 262.71 Q2863.04 268.746 2851.62 268.746 Q2840.16 268.746 2834.28 262.71 Q2828.45 256.674 2828.45 244.846 L2828.45 207.091 Z" fill="#000000" fill-rule="nonzero" fill-opacity="1" /><path clip-path="url(#clip400)" d="M2689.69 215.153 L2678.59 245.251 L2700.83 245.251 L2689.69 215.153 M2685.07 207.091 L2694.35 207.091 L2717.4 267.571 L2708.89 267.571 L2703.38 252.056 L2676.12 252.056 L2670.61 267.571 L2661.98 267.571 L2685.07 207.091 Z" fill="#000000" fill-rule="nonzero" fill-opacity="1" /><path clip-path="url(#clip400)" d="M2552.17 211.75 L2552.17 220.378 Q2548.03 216.53 2543.33 214.626 Q2538.68 212.722 2533.41 212.722 Q2523.04 212.722 2517.53 219.082 Q2512.02 225.401 2512.02 237.392 Q2512.02 249.342 2517.53 255.702 Q2523.04 262.022 2533.41 262.022 Q2538.68 262.022 2543.33 260.118 Q2548.03 258.214 2552.17 254.365 L2552.17 262.913 Q2547.87 265.83 2543.05 267.288 Q2538.27 268.746 2532.92 268.746 Q2519.19 268.746 2511.29 260.361 Q2503.39 251.935 2503.39 237.392 Q2503.39 222.809 2511.29 214.424 Q2519.19 205.998 2532.92 205.998 Q2538.35 205.998 2543.13 207.456 Q2547.95 208.874 2552.17 211.75 Z" fill="#000000" fill-rule="nonzero" fill-opacity="1" /><path clip-path="url(#clip400)" d="M2342.72 207.091 L2350.94 207.091 L2350.94 243.833 Q2350.94 253.555 2354.46 257.849 Q2357.99 262.103 2365.89 262.103 Q2373.75 262.103 2377.27 257.849 Q2380.8 253.555 2380.8 243.833 L2380.8 207.091 L2389.02 207.091 L2389.02 244.846 Q2389.02 256.674 2383.14 262.71 Q2377.31 268.746 2365.89 268.746 Q2354.42 268.746 2348.55 262.71 Q2342.72 256.674 2342.72 244.846 L2342.72 207.091 Z" fill="#000000" fill-rule="nonzero" fill-opacity="1" /><path clip-path="url(#clip400)" d="M2222.27 258.943 L2222.27 242.699 L2208.9 242.699 L2208.9 235.974 L2230.37 235.974 L2230.37 261.941 Q2225.63 265.303 2219.92 267.045 Q2214.21 268.746 2207.72 268.746 Q2193.55 268.746 2185.52 260.482 Q2177.54 252.178 2177.54 237.392 Q2177.54 222.566 2185.52 214.302 Q2193.55 205.998 2207.72 205.998 Q2213.64 205.998 2218.94 207.456 Q2224.29 208.914 2228.79 211.75 L2228.79 220.459 Q2224.25 216.611 2219.15 214.667 Q2214.04 212.722 2208.41 212.722 Q2197.31 212.722 2191.72 218.92 Q2186.17 225.118 2186.17 237.392 Q2186.17 249.626 2191.72 255.824 Q2197.31 262.022 2208.41 262.022 Q2212.75 262.022 2216.15 261.293 Q2219.55 260.523 2222.27 258.943 Z" fill="#000000" fill-rule="nonzero" fill-opacity="1" /><path clip-path="url(#clip400)" d="M2018.89 207.091 L2027.12 207.091 L2027.12 243.833 Q2027.12 253.555 2030.64 257.849 Q2034.17 262.103 2042.07 262.103 Q2049.92 262.103 2053.45 257.849 Q2056.97 253.555 2056.97 243.833 L2056.97 207.091 L2065.2 207.091 L2065.2 244.846 Q2065.2 256.674 2059.32 262.71 Q2053.49 268.746 2042.07 268.746 Q2030.6 268.746 2024.73 262.71 Q2018.89 256.674 2018.89 244.846 L2018.89 207.091 Z" fill="#000000" fill-rule="nonzero" fill-opacity="1" /><path clip-path="url(#clip400)" d="M1856.98 207.091 L1865.21 207.091 L1865.21 243.833 Q1865.21 253.555 1868.73 257.849 Q1872.26 262.103 1880.15 262.103 Q1888.01 262.103 1891.54 257.849 Q1895.06 253.555 1895.06 243.833 L1895.06 207.091 L1903.29 207.091 L1903.29 244.846 Q1903.29 256.674 1897.41 262.71 Q1891.58 268.746 1880.15 268.746 Q1868.69 268.746 1862.82 262.71 Q1856.98 256.674 1856.98 244.846 L1856.98 207.091 Z" fill="#000000" fill-rule="nonzero" fill-opacity="1" /><path clip-path="url(#clip400)" d="M1718.22 215.153 L1707.12 245.251 L1729.36 245.251 L1718.22 215.153 M1713.61 207.091 L1722.88 207.091 L1745.93 267.571 L1737.42 267.571 L1731.92 252.056 L1704.65 252.056 L1699.14 267.571 L1690.51 267.571 L1713.61 207.091 Z" fill="#000000" fill-rule="nonzero" fill-opacity="1" /><path clip-path="url(#clip400)" d="M1574.62 258.943 L1574.62 242.699 L1561.25 242.699 L1561.25 235.974 L1582.72 235.974 L1582.72 261.941 Q1577.98 265.303 1572.27 267.045 Q1566.56 268.746 1560.08 268.746 Q1545.9 268.746 1537.88 260.482 Q1529.9 252.178 1529.9 237.392 Q1529.9 222.566 1537.88 214.302 Q1545.9 205.998 1560.08 205.998 Q1565.99 205.998 1571.3 207.456 Q1576.65 208.914 1581.14 211.75 L1581.14 220.459 Q1576.61 216.611 1571.5 214.667 Q1566.4 212.722 1560.77 212.722 Q1549.67 212.722 1544.08 218.92 Q1538.53 225.118 1538.53 237.392 Q1538.53 249.626 1544.08 255.824 Q1549.67 262.022 1560.77 262.022 Q1565.1 262.022 1568.51 261.293 Q1571.91 260.523 1574.62 258.943 Z" fill="#000000" fill-rule="nonzero" fill-opacity="1" /><path clip-path="url(#clip400)" d="M1394.4 215.153 L1383.3 245.251 L1405.54 245.251 L1394.4 215.153 M1389.78 207.091 L1399.06 207.091 L1422.11 267.571 L1413.6 267.571 L1408.09 252.056 L1380.83 252.056 L1375.32 267.571 L1366.69 267.571 L1389.78 207.091 Z" fill="#000000" fill-rule="nonzero" fill-opacity="1" /><path clip-path="url(#clip400)" d="M1250.8 258.943 L1250.8 242.699 L1237.43 242.699 L1237.43 235.974 L1258.9 235.974 L1258.9 261.941 Q1254.16 265.303 1248.45 267.045 Q1242.74 268.746 1236.26 268.746 Q1222.08 268.746 1214.06 260.482 Q1206.08 252.178 1206.08 237.392 Q1206.08 222.566 1214.06 214.302 Q1222.08 205.998 1236.26 205.998 Q1242.17 205.998 1247.48 207.456 Q1252.83 208.914 1257.32 211.75 L1257.32 220.459 Q1252.78 216.611 1247.68 214.667 Q1242.58 212.722 1236.95 212.722 Q1225.85 212.722 1220.26 218.92 Q1214.71 225.118 1214.71 237.392 Q1214.71 249.626 1220.26 255.824 Q1225.85 262.022 1236.95 262.022 Q1241.28 262.022 1244.68 261.293 Q1248.09 260.523 1250.8 258.943 Z" fill="#000000" fill-rule="nonzero" fill-opacity="1" /><g clip-path="url(#clip400)">
<text style="fill:#000000; fill-opacity:1; font-family:Arial,Helvetica Neue,Helvetica,sans-serif; font-size:82px; font-style:italic; text-anchor:end;" transform="rotate(0, 1030.1, 206.406)" x="1030.1" y="206.406">Phylloglossum drummondii</text>
</g>
<path clip-path="url(#clip400)" d="M1093.25 705.568 L3152.76 705.568 L3152.76 447.244 L1093.25 447.244  Z" fill="#ffffff" fill-rule="evenodd" fill-opacity="1"/>
<defs>
  <clipPath id="clip403">
    <rect x="1093" y="447" width="2061" height="259"/>
  </clipPath>
</defs>
<polyline clip-path="url(#clip403)" style="stroke:#000000; stroke-linecap:round; stroke-linejoin:round; stroke-width:2; stroke-opacity:0.1; fill:none" points="1475.36,705.568 1475.36,447.244 "/>
<polyline clip-path="url(#clip403)" style="stroke:#000000; stroke-linecap:round; stroke-linejoin:round; stroke-width:2; stroke-opacity:0.1; fill:none" points="1880.13,705.568 1880.13,447.244 "/>
<polyline clip-path="url(#clip403)" style="stroke:#000000; stroke-linecap:round; stroke-linejoin:round; stroke-width:2; stroke-opacity:0.1; fill:none" points="2284.91,705.568 2284.91,447.244 "/>
<polyline clip-path="url(#clip403)" style="stroke:#000000; stroke-linecap:round; stroke-linejoin:round; stroke-width:2; stroke-opacity:0.1; fill:none" points="2689.69,705.568 2689.69,447.244 "/>
<polyline clip-path="url(#clip403)" style="stroke:#000000; stroke-linecap:round; stroke-linejoin:round; stroke-width:2; stroke-opacity:0.1; fill:none" points="3094.47,705.568 3094.47,447.244 "/>
<polyline clip-path="url(#clip403)" style="stroke:#000000; stroke-linecap:round; stroke-linejoin:round; stroke-width:2; stroke-opacity:0.1; fill:none" points="1093.25,698.257 3152.76,698.257 "/>
<polyline clip-path="url(#clip403)" style="stroke:#000000; stroke-linecap:round; stroke-linejoin:round; stroke-width:2; stroke-opacity:0.1; fill:none" points="1093.25,637.331 3152.76,637.331 "/>
<polyline clip-path="url(#clip403)" style="stroke:#000000; stroke-linecap:round; stroke-linejoin:round; stroke-width:2; stroke-opacity:0.1; fill:none" points="1093.25,576.406 3152.76,576.406 "/>
<polyline clip-path="url(#clip403)" style="stroke:#000000; stroke-linecap:round; stroke-linejoin:round; stroke-width:2; stroke-opacity:0.1; fill:none" points="1093.25,515.481 3152.76,515.481 "/>
<polyline clip-path="url(#clip403)" style="stroke:#000000; stroke-linecap:round; stroke-linejoin:round; stroke-width:2; stroke-opacity:0.1; fill:none" points="1093.25,454.555 3152.76,454.555 "/>
<path clip-path="url(#clip403)" d="M2932.56 576.406 L3094.47 576.406 L3094.47 454.555 L2932.56 454.555 L2932.56 576.406  Z" fill="#9fb6cd" fill-rule="evenodd" fill-opacity="1"/>
<polyline clip-path="url(#clip403)" style="stroke:#000000; stroke-linecap:round; stroke-linejoin:round; stroke-width:4; stroke-opacity:1; fill:none" points="2932.56,576.406 3094.47,576.406 3094.47,454.555 2932.56,454.555 2932.56,576.406 "/>
<path clip-path="url(#clip403)" d="M2932.56 698.257 L3094.47 698.257 L3094.47 576.406 L2932.56 576.406 L2932.56 698.257  Z" fill="#f5f0f0" fill-rule="evenodd" fill-opacity="0.8"/>
<polyline clip-path="url(#clip403)" style="stroke:#000000; stroke-linecap:round; stroke-linejoin:round; stroke-width:4; stroke-opacity:0.8; fill:none" points="2932.56,698.257 3094.47,698.257 3094.47,576.406 2932.56,576.406 2932.56,698.257 "/>
<path clip-path="url(#clip403)" d="M2770.65 576.406 L2932.56 576.406 L2932.56 454.555 L2770.65 454.555 L2770.65 576.406  Z" fill="#fffacd" fill-rule="evenodd" fill-opacity="1"/>
<polyline clip-path="url(#clip403)" style="stroke:#000000; stroke-linecap:round; stroke-linejoin:round; stroke-width:4; stroke-opacity:1; fill:none" points="2770.65,576.406 2932.56,576.406 2932.56,454.555 2770.65,454.555 2770.65,576.406 "/>
<path clip-path="url(#clip403)" d="M2770.65 698.257 L2932.56 698.257 L2932.56 576.406 L2770.65 576.406 L2770.65 698.257  Z" fill="#c4dca6" fill-rule="evenodd" fill-opacity="0.8"/>
<polyline clip-path="url(#clip403)" style="stroke:#000000; stroke-linecap:round; stroke-linejoin:round; stroke-width:4; stroke-opacity:0.8; fill:none" points="2770.65,698.257 2932.56,698.257 2932.56,576.406 2770.65,576.406 2770.65,698.257 "/>
<path clip-path="url(#clip403)" d="M2608.73 576.406 L2770.65 576.406 L2770.65 454.555 L2608.73 454.555 L2608.73 576.406  Z" fill="#cd96cd" fill-rule="evenodd" fill-opacity="1"/>
<polyline clip-path="url(#clip403)" style="stroke:#000000; stroke-linecap:round; stroke-linejoin:round; stroke-width:4; stroke-opacity:1; fill:none" points="2608.73,576.406 2770.65,576.406 2770.65,454.555 2608.73,454.555 2608.73,576.406 "/>
<path clip-path="url(#clip403)" d="M2608.73 698.257 L2770.65 698.257 L2770.65 576.406 L2608.73 576.406 L2608.73 698.257  Z" fill="#f5f0f0" fill-rule="evenodd" fill-opacity="0.8"/>
<polyline clip-path="url(#clip403)" style="stroke:#000000; stroke-linecap:round; stroke-linejoin:round; stroke-width:4; stroke-opacity:0.8; fill:none" points="2608.73,698.257 2770.65,698.257 2770.65,576.406 2608.73,576.406 2608.73,698.257 "/>
<path clip-path="url(#clip403)" d="M2446.82 576.406 L2608.73 576.406 L2608.73 454.555 L2446.82 454.555 L2446.82 576.406  Z" fill="#b4eeb4" fill-rule="evenodd" fill-opacity="1"/>
<polyline clip-path="url(#clip403)" style="stroke:#000000; stroke-linecap:round; stroke-linejoin:round; stroke-width:4; stroke-opacity:1; fill:none" points="2446.82,576.406 2608.73,576.406 2608.73,454.555 2446.82,454.555 2446.82,576.406 "/>
<path clip-path="url(#clip403)" d="M2446.82 698.257 L2608.73 698.257 L2608.73 576.406 L2446.82 576.406 L2446.82 698.257  Z" fill="#65024b" fill-rule="evenodd" fill-opacity="0.8"/>
<polyline clip-path="url(#clip403)" style="stroke:#000000; stroke-linecap:round; stroke-linejoin:round; stroke-width:4; stroke-opacity:0.8; fill:none" points="2446.82,698.257 2608.73,698.257 2608.73,576.406 2446.82,576.406 2446.82,698.257 "/>
<path clip-path="url(#clip403)" d="M2284.91 576.406 L2446.82 576.406 L2446.82 454.555 L2284.91 454.555 L2284.91 576.406  Z" fill="#eedd82" fill-rule="evenodd" fill-opacity="1"/>
<polyline clip-path="url(#clip403)" style="stroke:#000000; stroke-linecap:round; stroke-linejoin:round; stroke-width:4; stroke-opacity:1; fill:none" points="2284.91,576.406 2446.82,576.406 2446.82,454.555 2284.91,454.555 2284.91,576.406 "/>
<path clip-path="url(#clip403)" d="M2284.91 698.257 L2446.82 698.257 L2446.82 576.406 L2284.91 576.406 L2284.91 698.257  Z" fill="#f5f0f0" fill-rule="evenodd" fill-opacity="0.8"/>
<polyline clip-path="url(#clip403)" style="stroke:#000000; stroke-linecap:round; stroke-linejoin:round; stroke-width:4; stroke-opacity:0.8; fill:none" points="2284.91,698.257 2446.82,698.257 2446.82,576.406 2284.91,576.406 2284.91,698.257 "/>
<path clip-path="url(#clip403)" d="M2123 576.406 L2284.91 576.406 L2284.91 454.555 L2123 454.555 L2123 576.406  Z" fill="#fa8072" fill-rule="evenodd" fill-opacity="1"/>
<polyline clip-path="url(#clip403)" style="stroke:#000000; stroke-linecap:round; stroke-linejoin:round; stroke-width:4; stroke-opacity:1; fill:none" points="2123,576.406 2284.91,576.406 2284.91,454.555 2123,454.555 2123,576.406 "/>
<path clip-path="url(#clip403)" d="M2123 698.257 L2284.91 698.257 L2284.91 576.406 L2123 576.406 L2123 698.257  Z" fill="#98bd70" fill-rule="evenodd" fill-opacity="0.8"/>
<polyline clip-path="url(#clip403)" style="stroke:#000000; stroke-linecap:round; stroke-linejoin:round; stroke-width:4; stroke-opacity:0.8; fill:none" points="2123,698.257 2284.91,698.257 2284.91,576.406 2123,576.406 2123,698.257 "/>
<path clip-path="url(#clip403)" d="M1961.09 576.406 L2123 576.406 L2123 454.555 L1961.09 454.555 L1961.09 576.406  Z" fill="#b4eeb4" fill-rule="evenodd" fill-opacity="1"/>
<polyline clip-path="url(#clip403)" style="stroke:#000000; stroke-linecap:round; stroke-linejoin:round; stroke-width:4; stroke-opacity:1; fill:none" points="1961.09,576.406 2123,576.406 2123,454.555 1961.09,454.555 1961.09,576.406 "/>
<path clip-path="url(#clip403)" d="M1961.09 698.257 L2123 698.257 L2123 576.406 L1961.09 576.406 L1961.09 698.257  Z" fill="#0c4b00" fill-rule="evenodd" fill-opacity="0.8"/>
<polyline clip-path="url(#clip403)" style="stroke:#000000; stroke-linecap:round; stroke-linejoin:round; stroke-width:4; stroke-opacity:0.8; fill:none" points="1961.09,698.257 2123,698.257 2123,576.406 1961.09,576.406 1961.09,698.257 "/>
<path clip-path="url(#clip403)" d="M1799.18 576.406 L1961.09 576.406 L1961.09 454.555 L1799.18 454.555 L1799.18 576.406  Z" fill="#eedd82" fill-rule="evenodd" fill-opacity="1"/>
<polyline clip-path="url(#clip403)" style="stroke:#000000; stroke-linecap:round; stroke-linejoin:round; stroke-width:4; stroke-opacity:1; fill:none" points="1799.18,576.406 1961.09,576.406 1961.09,454.555 1799.18,454.555 1799.18,576.406 "/>
<path clip-path="url(#clip403)" d="M1799.18 698.257 L1961.09 698.257 L1961.09 576.406 L1799.18 576.406 L1799.18 698.257  Z" fill="#e4eed5" fill-rule="evenodd" fill-opacity="0.8"/>
<polyline clip-path="url(#clip403)" style="stroke:#000000; stroke-linecap:round; stroke-linejoin:round; stroke-width:4; stroke-opacity:0.8; fill:none" points="1799.18,698.257 1961.09,698.257 1961.09,576.406 1799.18,576.406 1799.18,698.257 "/>
<path clip-path="url(#clip403)" d="M1637.27 576.406 L1799.18 576.406 L1799.18 454.555 L1637.27 454.555 L1637.27 576.406  Z" fill="#fa8072" fill-rule="evenodd" fill-opacity="1"/>
<polyline clip-path="url(#clip403)" style="stroke:#000000; stroke-linecap:round; stroke-linejoin:round; stroke-width:4; stroke-opacity:1; fill:none" points="1637.27,576.406 1799.18,576.406 1799.18,454.555 1637.27,454.555 1637.27,576.406 "/>
<path clip-path="url(#clip403)" d="M1637.27 698.257 L1799.18 698.257 L1799.18 576.406 L1637.27 576.406 L1637.27 698.257  Z" fill="#255e11" fill-rule="evenodd" fill-opacity="0.8"/>
<polyline clip-path="url(#clip403)" style="stroke:#000000; stroke-linecap:round; stroke-linejoin:round; stroke-width:4; stroke-opacity:0.8; fill:none" points="1637.27,698.257 1799.18,698.257 1799.18,576.406 1637.27,576.406 1637.27,698.257 "/>
<path clip-path="url(#clip403)" d="M1475.36 576.406 L1637.27 576.406 L1637.27 454.555 L1475.36 454.555 L1475.36 576.406  Z" fill="#b4eeb4" fill-rule="evenodd" fill-opacity="1"/>
<polyline clip-path="url(#clip403)" style="stroke:#000000; stroke-linecap:round; stroke-linejoin:round; stroke-width:4; stroke-opacity:1; fill:none" points="1475.36,576.406 1637.27,576.406 1637.27,454.555 1475.36,454.555 1475.36,576.406 "/>
<path clip-path="url(#clip403)" d="M1475.36 698.257 L1637.27 698.257 L1637.27 576.406 L1475.36 576.406 L1475.36 698.257  Z" fill="#255e11" fill-rule="evenodd" fill-opacity="0.8"/>
<polyline clip-path="url(#clip403)" style="stroke:#000000; stroke-linecap:round; stroke-linejoin:round; stroke-width:4; stroke-opacity:0.8; fill:none" points="1475.36,698.257 1637.27,698.257 1637.27,576.406 1475.36,576.406 1475.36,698.257 "/>
<path clip-path="url(#clip403)" d="M1313.45 576.406 L1475.36 576.406 L1475.36 454.555 L1313.45 454.555 L1313.45 576.406  Z" fill="#eedd82" fill-rule="evenodd" fill-opacity="1"/>
<polyline clip-path="url(#clip403)" style="stroke:#000000; stroke-linecap:round; stroke-linejoin:round; stroke-width:4; stroke-opacity:1; fill:none" points="1313.45,576.406 1475.36,576.406 1475.36,454.555 1313.45,454.555 1313.45,576.406 "/>
<path clip-path="url(#clip403)" d="M1313.45 698.257 L1475.36 698.257 L1475.36 576.406 L1313.45 576.406 L1313.45 698.257  Z" fill="#d1e4b9" fill-rule="evenodd" fill-opacity="0.8"/>
<polyline clip-path="url(#clip403)" style="stroke:#000000; stroke-linecap:round; stroke-linejoin:round; stroke-width:4; stroke-opacity:0.8; fill:none" points="1313.45,698.257 1475.36,698.257 1475.36,576.406 1313.45,576.406 1313.45,698.257 "/>
<path clip-path="url(#clip403)" d="M1151.53 576.406 L1313.45 576.406 L1313.45 454.555 L1151.53 454.555 L1151.53 576.406  Z" fill="#fa8072" fill-rule="evenodd" fill-opacity="1"/>
<polyline clip-path="url(#clip403)" style="stroke:#000000; stroke-linecap:round; stroke-linejoin:round; stroke-width:4; stroke-opacity:1; fill:none" points="1151.53,576.406 1313.45,576.406 1313.45,454.555 1151.53,454.555 1151.53,576.406 "/>
<path clip-path="url(#clip403)" d="M1151.53 698.257 L1313.45 698.257 L1313.45 576.406 L1151.53 576.406 L1151.53 698.257  Z" fill="#98bd70" fill-rule="evenodd" fill-opacity="0.8"/>
<polyline clip-path="url(#clip403)" style="stroke:#000000; stroke-linecap:round; stroke-linejoin:round; stroke-width:4; stroke-opacity:0.8; fill:none" points="1151.53,698.257 1313.45,698.257 1313.45,576.406 1151.53,576.406 1151.53,698.257 "/>
<path clip-path="url(#clip400)" d="M2961.09 485.241 L3012.26 485.241 L3012.26 492.127 L2990.79 492.127 L2990.79 545.721 L2982.56 545.721 L2982.56 492.127 L2961.09 492.127 L2961.09 485.241 Z" fill="#000000" fill-rule="nonzero" fill-opacity="1" /><path clip-path="url(#clip400)" d="M3020.16 485.241 L3031.17 485.241 L3057.99 535.836 L3057.99 485.241 L3065.93 485.241 L3065.93 545.721 L3054.91 545.721 L3028.1 495.125 L3028.1 545.721 L3020.16 545.721 L3020.16 485.241 Z" fill="#000000" fill-rule="nonzero" fill-opacity="1" /><path clip-path="url(#clip400)" d="M3013.51 615.153 L3002.41 645.251 L3024.65 645.251 L3013.51 615.153 M3008.89 607.091 L3018.17 607.091 L3041.22 667.571 L3032.71 667.571 L3027.2 652.056 L2999.94 652.056 L2994.43 667.571 L2985.8 667.571 L3008.89 607.091 Z" fill="#000000" fill-rule="nonzero" fill-opacity="1" /><path clip-path="url(#clip400)" d="M2808.54 485.241 L2816.72 485.241 L2816.72 538.834 L2846.17 538.834 L2846.17 545.721 L2808.54 545.721 L2808.54 485.241 Z" fill="#000000" fill-rule="nonzero" fill-opacity="1" /><path clip-path="url(#clip400)" d="M2891.02 487.226 L2891.02 495.206 Q2886.36 492.978 2882.23 491.884 Q2878.09 490.79 2874.25 490.79 Q2867.56 490.79 2863.92 493.383 Q2860.31 495.975 2860.31 500.756 Q2860.31 504.766 2862.7 506.832 Q2865.13 508.857 2871.86 510.113 L2876.8 511.126 Q2885.95 512.868 2890.29 517.283 Q2894.66 521.658 2894.66 529.031 Q2894.66 537.821 2888.75 542.358 Q2882.87 546.895 2871.49 546.895 Q2867.2 546.895 2862.34 545.923 Q2857.52 544.951 2852.33 543.047 L2852.33 534.621 Q2857.31 537.416 2862.09 538.834 Q2866.87 540.252 2871.49 540.252 Q2878.5 540.252 2882.31 537.497 Q2886.11 534.743 2886.11 529.638 Q2886.11 525.182 2883.36 522.671 Q2880.65 520.159 2874.41 518.904 L2869.43 517.931 Q2860.27 516.108 2856.18 512.22 Q2852.09 508.331 2852.09 501.404 Q2852.09 493.383 2857.72 488.765 Q2863.39 484.147 2873.31 484.147 Q2877.57 484.147 2881.98 484.916 Q2886.4 485.686 2891.02 487.226 Z" fill="#000000" fill-rule="nonzero" fill-opacity="1" /><path clip-path="url(#clip400)" d="M2828.45 607.091 L2836.67 607.091 L2836.67 643.833 Q2836.67 653.555 2840.2 657.849 Q2843.72 662.103 2851.62 662.103 Q2859.48 662.103 2863 657.849 Q2866.53 653.555 2866.53 643.833 L2866.53 607.091 L2874.75 607.091 L2874.75 644.846 Q2874.75 656.674 2868.88 662.71 Q2863.04 668.746 2851.62 668.746 Q2840.16 668.746 2834.28 662.71 Q2828.45 656.674 2828.45 644.846 L2828.45 607.091 Z" fill="#000000" fill-rule="nonzero" fill-opacity="1" /><path clip-path="url(#clip400)" d="M2675.11 537.092 L2675.11 520.848 L2661.74 520.848 L2661.74 514.124 L2683.21 514.124 L2683.21 540.09 Q2678.47 543.452 2672.76 545.194 Q2667.05 546.895 2660.56 546.895 Q2646.39 546.895 2638.37 538.631 Q2630.38 530.327 2630.38 515.541 Q2630.38 500.715 2638.37 492.451 Q2646.39 484.147 2660.56 484.147 Q2666.48 484.147 2671.78 485.605 Q2677.13 487.063 2681.63 489.899 L2681.63 498.609 Q2677.09 494.76 2671.99 492.816 Q2666.88 490.871 2661.25 490.871 Q2650.15 490.871 2644.56 497.069 Q2639.01 503.267 2639.01 515.541 Q2639.01 527.775 2644.56 533.973 Q2650.15 540.171 2661.25 540.171 Q2665.59 540.171 2668.99 539.442 Q2672.39 538.672 2675.11 537.092 Z" fill="#000000" fill-rule="nonzero" fill-opacity="1" /><path clip-path="url(#clip400)" d="M2706.34 491.965 L2706.34 538.996 L2716.22 538.996 Q2728.74 538.996 2734.53 533.325 Q2740.37 527.654 2740.37 515.42 Q2740.37 503.267 2734.53 497.636 Q2728.74 491.965 2716.22 491.965 L2706.34 491.965 M2698.16 485.241 L2714.97 485.241 Q2732.55 485.241 2740.77 492.573 Q2749 499.864 2749 515.42 Q2749 531.056 2740.73 538.388 Q2732.47 545.721 2714.97 545.721 L2698.16 545.721 L2698.16 485.241 Z" fill="#000000" fill-rule="nonzero" fill-opacity="1" /><path clip-path="url(#clip400)" d="M2689.69 615.153 L2678.59 645.251 L2700.83 645.251 L2689.69 615.153 M2685.07 607.091 L2694.35 607.091 L2717.4 667.571 L2708.89 667.571 L2703.38 652.056 L2676.12 652.056 L2670.61 667.571 L2661.98 667.571 L2685.07 607.091 Z" fill="#000000" fill-rule="nonzero" fill-opacity="1" /><path clip-path="url(#clip400)" d="M2471.33 485.241 L2482.35 485.241 L2509.16 535.836 L2509.16 485.241 L2517.1 485.241 L2517.1 545.721 L2506.09 545.721 L2479.27 495.125 L2479.27 545.721 L2471.33 545.721 L2471.33 485.241 Z" fill="#000000" fill-rule="nonzero" fill-opacity="1" /><path clip-path="url(#clip400)" d="M2541.57 491.965 L2541.57 538.996 L2551.46 538.996 Q2563.97 538.996 2569.77 533.325 Q2575.6 527.654 2575.6 515.42 Q2575.6 503.267 2569.77 497.636 Q2563.97 491.965 2551.46 491.965 L2541.57 491.965 M2533.39 485.241 L2550.2 485.241 Q2567.78 485.241 2576 492.573 Q2584.23 499.864 2584.23 515.42 Q2584.23 531.056 2575.96 538.388 Q2567.7 545.721 2550.2 545.721 L2533.39 545.721 L2533.39 485.241 Z" fill="#000000" fill-rule="nonzero" fill-opacity="1" /><path clip-path="url(#clip400)" d="M2552.17 611.75 L2552.17 620.378 Q2548.03 616.53 2543.33 614.626 Q2538.68 612.722 2533.41 612.722 Q2523.04 612.722 2517.53 619.082 Q2512.02 625.401 2512.02 637.392 Q2512.02 649.342 2517.53 655.702 Q2523.04 662.022 2533.41 662.022 Q2538.68 662.022 2543.33 660.118 Q2548.03 658.214 2552.17 654.365 L2552.17 662.913 Q2547.87 665.83 2543.05 667.288 Q2538.27 668.746 2532.92 668.746 Q2519.19 668.746 2511.29 660.361 Q2503.39 651.935 2503.39 637.392 Q2503.39 622.809 2511.29 614.424 Q2519.19 605.998 2532.92 605.998 Q2538.35 605.998 2543.13 607.456 Q2547.95 608.874 2552.17 611.75 Z" fill="#000000" fill-rule="nonzero" fill-opacity="1" /><path clip-path="url(#clip400)" d="M2341.97 493.302 L2330.87 523.4 L2353.11 523.4 L2341.97 493.302 M2337.35 485.241 L2346.63 485.241 L2369.68 545.721 L2361.17 545.721 L2355.66 530.206 L2328.4 530.206 L2322.89 545.721 L2314.26 545.721 L2337.35 485.241 Z" fill="#000000" fill-rule="nonzero" fill-opacity="1" /><path clip-path="url(#clip400)" d="M2378.51 485.241 L2416.75 485.241 L2416.75 492.127 L2386.69 492.127 L2386.69 510.032 L2415.49 510.032 L2415.49 516.919 L2386.69 516.919 L2386.69 538.834 L2417.48 538.834 L2417.48 545.721 L2378.51 545.721 L2378.51 485.241 Z" fill="#000000" fill-rule="nonzero" fill-opacity="1" /><path clip-path="url(#clip400)" d="M2342.72 607.091 L2350.94 607.091 L2350.94 643.833 Q2350.94 653.555 2354.46 657.849 Q2357.99 662.103 2365.89 662.103 Q2373.75 662.103 2377.27 657.849 Q2380.8 653.555 2380.8 643.833 L2380.8 607.091 L2389.02 607.091 L2389.02 644.846 Q2389.02 656.674 2383.14 662.71 Q2377.31 668.746 2365.89 668.746 Q2354.42 668.746 2348.55 662.71 Q2342.72 656.674 2342.72 644.846 L2342.72 607.091 Z" fill="#000000" fill-rule="nonzero" fill-opacity="1" /><path clip-path="url(#clip400)" d="M2189.8 487.226 L2189.8 495.206 Q2185.14 492.978 2181.01 491.884 Q2176.88 490.79 2173.03 490.79 Q2166.34 490.79 2162.7 493.383 Q2159.09 495.975 2159.09 500.756 Q2159.09 504.766 2161.48 506.832 Q2163.91 508.857 2170.64 510.113 L2175.58 511.126 Q2184.73 512.868 2189.07 517.283 Q2193.44 521.658 2193.44 529.031 Q2193.44 537.821 2187.53 542.358 Q2181.66 546.895 2170.27 546.895 Q2165.98 546.895 2161.12 545.923 Q2156.3 544.951 2151.11 543.047 L2151.11 534.621 Q2156.1 537.416 2160.88 538.834 Q2165.66 540.252 2170.27 540.252 Q2177.28 540.252 2181.09 537.497 Q2184.9 534.743 2184.9 529.638 Q2184.9 525.182 2182.14 522.671 Q2179.43 520.159 2173.19 518.904 L2168.21 517.931 Q2159.05 516.108 2154.96 512.22 Q2150.87 508.331 2150.87 501.404 Q2150.87 493.383 2156.5 488.765 Q2162.17 484.147 2172.1 484.147 Q2176.35 484.147 2180.77 484.916 Q2185.18 485.686 2189.8 487.226 Z" fill="#000000" fill-rule="nonzero" fill-opacity="1" /><path clip-path="url(#clip400)" d="M2214.39 491.965 L2214.39 538.996 L2224.27 538.996 Q2236.79 538.996 2242.58 533.325 Q2248.42 527.654 2248.42 515.42 Q2248.42 503.267 2242.58 497.636 Q2236.79 491.965 2224.27 491.965 L2214.39 491.965 M2206.2 485.241 L2223.02 485.241 Q2240.6 485.241 2248.82 492.573 Q2257.04 499.864 2257.04 515.42 Q2257.04 531.056 2248.78 538.388 Q2240.52 545.721 2223.02 545.721 L2206.2 545.721 L2206.2 485.241 Z" fill="#000000" fill-rule="nonzero" fill-opacity="1" /><path clip-path="url(#clip400)" d="M2222.27 658.943 L2222.27 642.699 L2208.9 642.699 L2208.9 635.974 L2230.37 635.974 L2230.37 661.941 Q2225.63 665.303 2219.92 667.045 Q2214.21 668.746 2207.72 668.746 Q2193.55 668.746 2185.52 660.482 Q2177.54 652.178 2177.54 637.392 Q2177.54 622.566 2185.52 614.302 Q2193.55 605.998 2207.72 605.998 Q2213.64 605.998 2218.94 607.456 Q2224.29 608.914 2228.79 611.75 L2228.79 620.459 Q2224.25 616.611 2219.15 614.667 Q2214.04 612.722 2208.41 612.722 Q2197.31 612.722 2191.72 618.92 Q2186.17 625.118 2186.17 637.392 Q2186.17 649.626 2191.72 655.824 Q2197.31 662.022 2208.41 662.022 Q2212.75 662.022 2216.15 661.293 Q2219.55 660.523 2222.27 658.943 Z" fill="#000000" fill-rule="nonzero" fill-opacity="1" /><path clip-path="url(#clip400)" d="M1985.6 485.241 L1996.61 485.241 L2023.43 535.836 L2023.43 485.241 L2031.37 485.241 L2031.37 545.721 L2020.35 545.721 L1993.54 495.125 L1993.54 545.721 L1985.6 545.721 L1985.6 485.241 Z" fill="#000000" fill-rule="nonzero" fill-opacity="1" /><path clip-path="url(#clip400)" d="M2055.84 491.965 L2055.84 538.996 L2065.72 538.996 Q2078.24 538.996 2084.03 533.325 Q2089.87 527.654 2089.87 515.42 Q2089.87 503.267 2084.03 497.636 Q2078.24 491.965 2065.72 491.965 L2055.84 491.965 M2047.66 485.241 L2064.47 485.241 Q2082.05 485.241 2090.27 492.573 Q2098.49 499.864 2098.49 515.42 Q2098.49 531.056 2090.23 538.388 Q2081.97 545.721 2064.47 545.721 L2047.66 545.721 L2047.66 485.241 Z" fill="#000000" fill-rule="nonzero" fill-opacity="1" /><path clip-path="url(#clip400)" d="M2018.89 607.091 L2027.12 607.091 L2027.12 643.833 Q2027.12 653.555 2030.64 657.849 Q2034.17 662.103 2042.07 662.103 Q2049.92 662.103 2053.45 657.849 Q2056.97 653.555 2056.97 643.833 L2056.97 607.091 L2065.2 607.091 L2065.2 644.846 Q2065.2 656.674 2059.32 662.71 Q2053.49 668.746 2042.07 668.746 Q2030.6 668.746 2024.73 662.71 Q2018.89 656.674 2018.89 644.846 L2018.89 607.091 Z" fill="#000000" fill-rule="nonzero" fill-opacity="1" /><path clip-path="url(#clip400)" d="M1848.21 545.721 L1825.12 485.241 L1833.67 485.241 L1852.83 536.16 L1872.03 485.241 L1880.54 485.241 L1857.49 545.721 L1848.21 545.721 Z" fill="#000000" fill-rule="nonzero" fill-opacity="1" /><path clip-path="url(#clip400)" d="M1889.37 485.241 L1900.39 485.241 L1927.21 535.836 L1927.21 485.241 L1935.15 485.241 L1935.15 545.721 L1924.13 545.721 L1897.31 495.125 L1897.31 545.721 L1889.37 545.721 L1889.37 485.241 Z" fill="#000000" fill-rule="nonzero" fill-opacity="1" /><path clip-path="url(#clip400)" d="M1856.98 607.091 L1865.21 607.091 L1865.21 643.833 Q1865.21 653.555 1868.73 657.849 Q1872.26 662.103 1880.15 662.103 Q1888.01 662.103 1891.54 657.849 Q1895.06 653.555 1895.06 643.833 L1895.06 607.091 L1903.29 607.091 L1903.29 644.846 Q1903.29 656.674 1897.41 662.71 Q1891.58 668.746 1880.15 668.746 Q1868.69 668.746 1862.82 662.71 Q1856.98 656.674 1856.98 644.846 L1856.98 607.091 Z" fill="#000000" fill-rule="nonzero" fill-opacity="1" /><path clip-path="url(#clip400)" d="M1706.6 487.226 L1706.6 495.206 Q1701.94 492.978 1697.81 491.884 Q1693.67 490.79 1689.83 490.79 Q1683.14 490.79 1679.5 493.383 Q1675.89 495.975 1675.89 500.756 Q1675.89 504.766 1678.28 506.832 Q1680.71 508.857 1687.44 510.113 L1692.38 511.126 Q1701.53 512.868 1705.87 517.283 Q1710.24 521.658 1710.24 529.031 Q1710.24 537.821 1704.33 542.358 Q1698.45 546.895 1687.07 546.895 Q1682.78 546.895 1677.92 545.923 Q1673.1 544.951 1667.91 543.047 L1667.91 534.621 Q1672.89 537.416 1677.67 538.834 Q1682.45 540.252 1687.07 540.252 Q1694.08 540.252 1697.89 537.497 Q1701.7 534.743 1701.7 529.638 Q1701.7 525.182 1698.94 522.671 Q1696.23 520.159 1689.99 518.904 L1685.01 517.931 Q1675.85 516.108 1671.76 512.22 Q1667.67 508.331 1667.67 501.404 Q1667.67 493.383 1673.3 488.765 Q1678.97 484.147 1688.89 484.147 Q1693.15 484.147 1697.56 484.916 Q1701.98 485.686 1706.6 487.226 Z" fill="#000000" fill-rule="nonzero" fill-opacity="1" /><path clip-path="url(#clip400)" d="M1723 485.241 L1734.02 485.241 L1760.84 535.836 L1760.84 485.241 L1768.78 485.241 L1768.78 545.721 L1757.76 545.721 L1730.94 495.125 L1730.94 545.721 L1723 545.721 L1723 485.241 Z" fill="#000000" fill-rule="nonzero" fill-opacity="1" /><path clip-path="url(#clip400)" d="M1718.22 615.153 L1707.12 645.251 L1729.36 645.251 L1718.22 615.153 M1713.61 607.091 L1722.88 607.091 L1745.93 667.571 L1737.42 667.571 L1731.92 652.056 L1704.65 652.056 L1699.14 667.571 L1690.51 667.571 L1713.61 607.091 Z" fill="#000000" fill-rule="nonzero" fill-opacity="1" /><path clip-path="url(#clip400)" d="M1501.36 485.241 L1552.52 485.241 L1552.52 492.127 L1531.05 492.127 L1531.05 545.721 L1522.83 545.721 L1522.83 492.127 L1501.36 492.127 L1501.36 485.241 Z" fill="#000000" fill-rule="nonzero" fill-opacity="1" /><path clip-path="url(#clip400)" d="M1568.61 491.965 L1568.61 538.996 L1578.49 538.996 Q1591.01 538.996 1596.8 533.325 Q1602.63 527.654 1602.63 515.42 Q1602.63 503.267 1596.8 497.636 Q1591.01 491.965 1578.49 491.965 L1568.61 491.965 M1560.42 485.241 L1577.23 485.241 Q1594.82 485.241 1603.04 492.573 Q1611.26 499.864 1611.26 515.42 Q1611.26 531.056 1603 538.388 Q1594.73 545.721 1577.23 545.721 L1560.42 545.721 L1560.42 485.241 Z" fill="#000000" fill-rule="nonzero" fill-opacity="1" /><path clip-path="url(#clip400)" d="M1574.62 658.943 L1574.62 642.699 L1561.25 642.699 L1561.25 635.974 L1582.72 635.974 L1582.72 661.941 Q1577.98 665.303 1572.27 667.045 Q1566.56 668.746 1560.08 668.746 Q1545.9 668.746 1537.88 660.482 Q1529.9 652.178 1529.9 637.392 Q1529.9 622.566 1537.88 614.302 Q1545.9 605.998 1560.08 605.998 Q1565.99 605.998 1571.3 607.456 Q1576.65 608.914 1581.14 611.75 L1581.14 620.459 Q1576.61 616.611 1571.5 614.667 Q1566.4 612.722 1560.77 612.722 Q1549.67 612.722 1544.08 618.92 Q1538.53 625.118 1538.53 637.392 Q1538.53 649.626 1544.08 655.824 Q1549.67 662.022 1560.77 662.022 Q1565.1 662.022 1568.51 661.293 Q1571.91 660.523 1574.62 658.943 Z" fill="#000000" fill-rule="nonzero" fill-opacity="1" /><path clip-path="url(#clip400)" d="M1359.95 545.721 L1336.86 485.241 L1345.41 485.241 L1364.57 536.16 L1383.77 485.241 L1392.27 485.241 L1369.22 545.721 L1359.95 545.721 Z" fill="#000000" fill-rule="nonzero" fill-opacity="1" /><path clip-path="url(#clip400)" d="M1409.29 491.965 L1409.29 538.996 L1419.17 538.996 Q1431.69 538.996 1437.48 533.325 Q1443.32 527.654 1443.32 515.42 Q1443.32 503.267 1437.48 497.636 Q1431.69 491.965 1419.17 491.965 L1409.29 491.965 M1401.1 485.241 L1417.92 485.241 Q1435.5 485.241 1443.72 492.573 Q1451.94 499.864 1451.94 515.42 Q1451.94 531.056 1443.68 538.388 Q1435.42 545.721 1417.92 545.721 L1401.1 545.721 L1401.1 485.241 Z" fill="#000000" fill-rule="nonzero" fill-opacity="1" /><path clip-path="url(#clip400)" d="M1394.4 615.153 L1383.3 645.251 L1405.54 645.251 L1394.4 615.153 M1389.78 607.091 L1399.06 607.091 L1422.11 667.571 L1413.6 667.571 L1408.09 652.056 L1380.83 652.056 L1375.32 667.571 L1366.69 667.571 L1389.78 607.091 Z" fill="#000000" fill-rule="nonzero" fill-opacity="1" /><path clip-path="url(#clip400)" d="M1218.33 487.226 L1218.33 495.206 Q1213.67 492.978 1209.54 491.884 Q1205.41 490.79 1201.56 490.79 Q1194.88 490.79 1191.23 493.383 Q1187.63 495.975 1187.63 500.756 Q1187.63 504.766 1190.02 506.832 Q1192.45 508.857 1199.17 510.113 L1204.11 511.126 Q1213.27 512.868 1217.6 517.283 Q1221.98 521.658 1221.98 529.031 Q1221.98 537.821 1216.06 542.358 Q1210.19 546.895 1198.81 546.895 Q1194.51 546.895 1189.65 545.923 Q1184.83 544.951 1179.65 543.047 L1179.65 534.621 Q1184.63 537.416 1189.41 538.834 Q1194.19 540.252 1198.81 540.252 Q1205.81 540.252 1209.62 537.497 Q1213.43 534.743 1213.43 529.638 Q1213.43 525.182 1210.68 522.671 Q1207.96 520.159 1201.72 518.904 L1196.74 517.931 Q1187.59 516.108 1183.49 512.22 Q1179.4 508.331 1179.4 501.404 Q1179.4 493.383 1185.03 488.765 Q1190.7 484.147 1200.63 484.147 Q1204.88 484.147 1209.3 484.916 Q1213.71 485.686 1218.33 487.226 Z" fill="#000000" fill-rule="nonzero" fill-opacity="1" /><path clip-path="url(#clip400)" d="M1242.92 491.965 L1242.92 538.996 L1252.8 538.996 Q1265.32 538.996 1271.11 533.325 Q1276.95 527.654 1276.95 515.42 Q1276.95 503.267 1271.11 497.636 Q1265.32 491.965 1252.8 491.965 L1242.92 491.965 M1234.74 485.241 L1251.55 485.241 Q1269.13 485.241 1277.35 492.573 Q1285.58 499.864 1285.58 515.42 Q1285.58 531.056 1277.31 538.388 Q1269.05 545.721 1251.55 545.721 L1234.74 545.721 L1234.74 485.241 Z" fill="#000000" fill-rule="nonzero" fill-opacity="1" /><path clip-path="url(#clip400)" d="M1250.8 658.943 L1250.8 642.699 L1237.43 642.699 L1237.43 635.974 L1258.9 635.974 L1258.9 661.941 Q1254.16 665.303 1248.45 667.045 Q1242.74 668.746 1236.26 668.746 Q1222.08 668.746 1214.06 660.482 Q1206.08 652.178 1206.08 637.392 Q1206.08 622.566 1214.06 614.302 Q1222.08 605.998 1236.26 605.998 Q1242.17 605.998 1247.48 607.456 Q1252.83 608.914 1257.32 611.75 L1257.32 620.459 Q1252.78 616.611 1247.68 614.667 Q1242.58 612.722 1236.95 612.722 Q1225.85 612.722 1220.26 618.92 Q1214.71 625.118 1214.71 637.392 Q1214.71 649.626 1220.26 655.824 Q1225.85 662.022 1236.95 662.022 Q1241.28 662.022 1244.68 661.293 Q1248.09 660.523 1250.8 658.943 Z" fill="#000000" fill-rule="nonzero" fill-opacity="1" /><g clip-path="url(#clip400)">
<text style="fill:#000000; fill-opacity:1; font-family:Arial,Helvetica Neue,Helvetica,sans-serif; font-size:82px; font-style:italic; text-anchor:end;" transform="rotate(0, 1030.1, 606.406)" x="1030.1" y="606.406">Phlegmariurus squarrosus</text>
</g>
<path clip-path="url(#clip400)" d="M1093.25 1105.57 L3152.76 1105.57 L3152.76 847.244 L1093.25 847.244  Z" fill="#ffffff" fill-rule="evenodd" fill-opacity="1"/>
<defs>
  <clipPath id="clip404">
    <rect x="1093" y="847" width="2061" height="259"/>
  </clipPath>
</defs>
<polyline clip-path="url(#clip404)" style="stroke:#000000; stroke-linecap:round; stroke-linejoin:round; stroke-width:2; stroke-opacity:0.1; fill:none" points="1475.36,1105.57 1475.36,847.244 "/>
<polyline clip-path="url(#clip404)" style="stroke:#000000; stroke-linecap:round; stroke-linejoin:round; stroke-width:2; stroke-opacity:0.1; fill:none" points="1880.13,1105.57 1880.13,847.244 "/>
<polyline clip-path="url(#clip404)" style="stroke:#000000; stroke-linecap:round; stroke-linejoin:round; stroke-width:2; stroke-opacity:0.1; fill:none" points="2284.91,1105.57 2284.91,847.244 "/>
<polyline clip-path="url(#clip404)" style="stroke:#000000; stroke-linecap:round; stroke-linejoin:round; stroke-width:2; stroke-opacity:0.1; fill:none" points="2689.69,1105.57 2689.69,847.244 "/>
<polyline clip-path="url(#clip404)" style="stroke:#000000; stroke-linecap:round; stroke-linejoin:round; stroke-width:2; stroke-opacity:0.1; fill:none" points="3094.47,1105.57 3094.47,847.244 "/>
<polyline clip-path="url(#clip404)" style="stroke:#000000; stroke-linecap:round; stroke-linejoin:round; stroke-width:2; stroke-opacity:0.1; fill:none" points="1093.25,1098.26 3152.76,1098.26 "/>
<polyline clip-path="url(#clip404)" style="stroke:#000000; stroke-linecap:round; stroke-linejoin:round; stroke-width:2; stroke-opacity:0.1; fill:none" points="1093.25,1037.33 3152.76,1037.33 "/>
<polyline clip-path="url(#clip404)" style="stroke:#000000; stroke-linecap:round; stroke-linejoin:round; stroke-width:2; stroke-opacity:0.1; fill:none" points="1093.25,976.406 3152.76,976.406 "/>
<polyline clip-path="url(#clip404)" style="stroke:#000000; stroke-linecap:round; stroke-linejoin:round; stroke-width:2; stroke-opacity:0.1; fill:none" points="1093.25,915.481 3152.76,915.481 "/>
<polyline clip-path="url(#clip404)" style="stroke:#000000; stroke-linecap:round; stroke-linejoin:round; stroke-width:2; stroke-opacity:0.1; fill:none" points="1093.25,854.555 3152.76,854.555 "/>
<path clip-path="url(#clip404)" d="M2932.56 976.406 L3094.47 976.406 L3094.47 854.555 L2932.56 854.555 L2932.56 976.406  Z" fill="#9fb6cd" fill-rule="evenodd" fill-opacity="1"/>
<polyline clip-path="url(#clip404)" style="stroke:#000000; stroke-linecap:round; stroke-linejoin:round; stroke-width:4; stroke-opacity:1; fill:none" points="2932.56,976.406 3094.47,976.406 3094.47,854.555 2932.56,854.555 2932.56,976.406 "/>
<path clip-path="url(#clip404)" d="M2932.56 1098.26 L3094.47 1098.26 L3094.47 976.406 L2932.56 976.406 L2932.56 1098.26  Z" fill="#f5f0f0" fill-rule="evenodd" fill-opacity="0.8"/>
<polyline clip-path="url(#clip404)" style="stroke:#000000; stroke-linecap:round; stroke-linejoin:round; stroke-width:4; stroke-opacity:0.8; fill:none" points="2932.56,1098.26 3094.47,1098.26 3094.47,976.406 2932.56,976.406 2932.56,1098.26 "/>
<path clip-path="url(#clip404)" d="M2770.65 976.406 L2932.56 976.406 L2932.56 854.555 L2770.65 854.555 L2770.65 976.406  Z" fill="#fffacd" fill-rule="evenodd" fill-opacity="1"/>
<polyline clip-path="url(#clip404)" style="stroke:#000000; stroke-linecap:round; stroke-linejoin:round; stroke-width:4; stroke-opacity:1; fill:none" points="2770.65,976.406 2932.56,976.406 2932.56,854.555 2770.65,854.555 2770.65,976.406 "/>
<path clip-path="url(#clip404)" d="M2770.65 1098.26 L2932.56 1098.26 L2932.56 976.406 L2770.65 976.406 L2770.65 1098.26  Z" fill="#c4dca6" fill-rule="evenodd" fill-opacity="0.8"/>
<polyline clip-path="url(#clip404)" style="stroke:#000000; stroke-linecap:round; stroke-linejoin:round; stroke-width:4; stroke-opacity:0.8; fill:none" points="2770.65,1098.26 2932.56,1098.26 2932.56,976.406 2770.65,976.406 2770.65,1098.26 "/>
<path clip-path="url(#clip404)" d="M2608.73 976.406 L2770.65 976.406 L2770.65 854.555 L2608.73 854.555 L2608.73 976.406  Z" fill="#cd96cd" fill-rule="evenodd" fill-opacity="1"/>
<polyline clip-path="url(#clip404)" style="stroke:#000000; stroke-linecap:round; stroke-linejoin:round; stroke-width:4; stroke-opacity:1; fill:none" points="2608.73,976.406 2770.65,976.406 2770.65,854.555 2608.73,854.555 2608.73,976.406 "/>
<path clip-path="url(#clip404)" d="M2608.73 1098.26 L2770.65 1098.26 L2770.65 976.406 L2608.73 976.406 L2608.73 1098.26  Z" fill="#f5f0f0" fill-rule="evenodd" fill-opacity="0.8"/>
<polyline clip-path="url(#clip404)" style="stroke:#000000; stroke-linecap:round; stroke-linejoin:round; stroke-width:4; stroke-opacity:0.8; fill:none" points="2608.73,1098.26 2770.65,1098.26 2770.65,976.406 2608.73,976.406 2608.73,1098.26 "/>
<path clip-path="url(#clip404)" d="M2446.82 976.406 L2608.73 976.406 L2608.73 854.555 L2446.82 854.555 L2446.82 976.406  Z" fill="#b4eeb4" fill-rule="evenodd" fill-opacity="1"/>
<polyline clip-path="url(#clip404)" style="stroke:#000000; stroke-linecap:round; stroke-linejoin:round; stroke-width:4; stroke-opacity:1; fill:none" points="2446.82,976.406 2608.73,976.406 2608.73,854.555 2446.82,854.555 2446.82,976.406 "/>
<path clip-path="url(#clip404)" d="M2446.82 1098.26 L2608.73 1098.26 L2608.73 976.406 L2446.82 976.406 L2446.82 1098.26  Z" fill="#65024b" fill-rule="evenodd" fill-opacity="0.8"/>
<polyline clip-path="url(#clip404)" style="stroke:#000000; stroke-linecap:round; stroke-linejoin:round; stroke-width:4; stroke-opacity:0.8; fill:none" points="2446.82,1098.26 2608.73,1098.26 2608.73,976.406 2446.82,976.406 2446.82,1098.26 "/>
<path clip-path="url(#clip404)" d="M2284.91 976.406 L2446.82 976.406 L2446.82 854.555 L2284.91 854.555 L2284.91 976.406  Z" fill="#eedd82" fill-rule="evenodd" fill-opacity="1"/>
<polyline clip-path="url(#clip404)" style="stroke:#000000; stroke-linecap:round; stroke-linejoin:round; stroke-width:4; stroke-opacity:1; fill:none" points="2284.91,976.406 2446.82,976.406 2446.82,854.555 2284.91,854.555 2284.91,976.406 "/>
<path clip-path="url(#clip404)" d="M2284.91 1098.26 L2446.82 1098.26 L2446.82 976.406 L2284.91 976.406 L2284.91 1098.26  Z" fill="#f5f0f0" fill-rule="evenodd" fill-opacity="0.8"/>
<polyline clip-path="url(#clip404)" style="stroke:#000000; stroke-linecap:round; stroke-linejoin:round; stroke-width:4; stroke-opacity:0.8; fill:none" points="2284.91,1098.26 2446.82,1098.26 2446.82,976.406 2284.91,976.406 2284.91,1098.26 "/>
<path clip-path="url(#clip404)" d="M2123 976.406 L2284.91 976.406 L2284.91 854.555 L2123 854.555 L2123 976.406  Z" fill="#fa8072" fill-rule="evenodd" fill-opacity="1"/>
<polyline clip-path="url(#clip404)" style="stroke:#000000; stroke-linecap:round; stroke-linejoin:round; stroke-width:4; stroke-opacity:1; fill:none" points="2123,976.406 2284.91,976.406 2284.91,854.555 2123,854.555 2123,976.406 "/>
<path clip-path="url(#clip404)" d="M2123 1098.26 L2284.91 1098.26 L2284.91 976.406 L2123 976.406 L2123 1098.26  Z" fill="#98bd70" fill-rule="evenodd" fill-opacity="0.8"/>
<polyline clip-path="url(#clip404)" style="stroke:#000000; stroke-linecap:round; stroke-linejoin:round; stroke-width:4; stroke-opacity:0.8; fill:none" points="2123,1098.26 2284.91,1098.26 2284.91,976.406 2123,976.406 2123,1098.26 "/>
<path clip-path="url(#clip404)" d="M1961.09 976.406 L2123 976.406 L2123 854.555 L1961.09 854.555 L1961.09 976.406  Z" fill="#b4eeb4" fill-rule="evenodd" fill-opacity="1"/>
<polyline clip-path="url(#clip404)" style="stroke:#000000; stroke-linecap:round; stroke-linejoin:round; stroke-width:4; stroke-opacity:1; fill:none" points="1961.09,976.406 2123,976.406 2123,854.555 1961.09,854.555 1961.09,976.406 "/>
<path clip-path="url(#clip404)" d="M1961.09 1098.26 L2123 1098.26 L2123 976.406 L1961.09 976.406 L1961.09 1098.26  Z" fill="#0c4b00" fill-rule="evenodd" fill-opacity="0.8"/>
<polyline clip-path="url(#clip404)" style="stroke:#000000; stroke-linecap:round; stroke-linejoin:round; stroke-width:4; stroke-opacity:0.8; fill:none" points="1961.09,1098.26 2123,1098.26 2123,976.406 1961.09,976.406 1961.09,1098.26 "/>
<path clip-path="url(#clip404)" d="M1799.18 976.406 L1961.09 976.406 L1961.09 854.555 L1799.18 854.555 L1799.18 976.406  Z" fill="#eedd82" fill-rule="evenodd" fill-opacity="1"/>
<polyline clip-path="url(#clip404)" style="stroke:#000000; stroke-linecap:round; stroke-linejoin:round; stroke-width:4; stroke-opacity:1; fill:none" points="1799.18,976.406 1961.09,976.406 1961.09,854.555 1799.18,854.555 1799.18,976.406 "/>
<path clip-path="url(#clip404)" d="M1799.18 1098.26 L1961.09 1098.26 L1961.09 976.406 L1799.18 976.406 L1799.18 1098.26  Z" fill="#e4eed5" fill-rule="evenodd" fill-opacity="0.8"/>
<polyline clip-path="url(#clip404)" style="stroke:#000000; stroke-linecap:round; stroke-linejoin:round; stroke-width:4; stroke-opacity:0.8; fill:none" points="1799.18,1098.26 1961.09,1098.26 1961.09,976.406 1799.18,976.406 1799.18,1098.26 "/>
<path clip-path="url(#clip404)" d="M1637.27 976.406 L1799.18 976.406 L1799.18 854.555 L1637.27 854.555 L1637.27 976.406  Z" fill="#fa8072" fill-rule="evenodd" fill-opacity="1"/>
<polyline clip-path="url(#clip404)" style="stroke:#000000; stroke-linecap:round; stroke-linejoin:round; stroke-width:4; stroke-opacity:1; fill:none" points="1637.27,976.406 1799.18,976.406 1799.18,854.555 1637.27,854.555 1637.27,976.406 "/>
<path clip-path="url(#clip404)" d="M1637.27 1098.26 L1799.18 1098.26 L1799.18 976.406 L1637.27 976.406 L1637.27 1098.26  Z" fill="#255e11" fill-rule="evenodd" fill-opacity="0.8"/>
<polyline clip-path="url(#clip404)" style="stroke:#000000; stroke-linecap:round; stroke-linejoin:round; stroke-width:4; stroke-opacity:0.8; fill:none" points="1637.27,1098.26 1799.18,1098.26 1799.18,976.406 1637.27,976.406 1637.27,1098.26 "/>
<path clip-path="url(#clip404)" d="M1475.36 976.406 L1637.27 976.406 L1637.27 854.555 L1475.36 854.555 L1475.36 976.406  Z" fill="#b4eeb4" fill-rule="evenodd" fill-opacity="1"/>
<polyline clip-path="url(#clip404)" style="stroke:#000000; stroke-linecap:round; stroke-linejoin:round; stroke-width:4; stroke-opacity:1; fill:none" points="1475.36,976.406 1637.27,976.406 1637.27,854.555 1475.36,854.555 1475.36,976.406 "/>
<path clip-path="url(#clip404)" d="M1475.36 1098.26 L1637.27 1098.26 L1637.27 976.406 L1475.36 976.406 L1475.36 1098.26  Z" fill="#255e11" fill-rule="evenodd" fill-opacity="0.8"/>
<polyline clip-path="url(#clip404)" style="stroke:#000000; stroke-linecap:round; stroke-linejoin:round; stroke-width:4; stroke-opacity:0.8; fill:none" points="1475.36,1098.26 1637.27,1098.26 1637.27,976.406 1475.36,976.406 1475.36,1098.26 "/>
<path clip-path="url(#clip404)" d="M1313.45 976.406 L1475.36 976.406 L1475.36 854.555 L1313.45 854.555 L1313.45 976.406  Z" fill="#eedd82" fill-rule="evenodd" fill-opacity="1"/>
<polyline clip-path="url(#clip404)" style="stroke:#000000; stroke-linecap:round; stroke-linejoin:round; stroke-width:4; stroke-opacity:1; fill:none" points="1313.45,976.406 1475.36,976.406 1475.36,854.555 1313.45,854.555 1313.45,976.406 "/>
<path clip-path="url(#clip404)" d="M1313.45 1098.26 L1475.36 1098.26 L1475.36 976.406 L1313.45 976.406 L1313.45 1098.26  Z" fill="#d1e4b9" fill-rule="evenodd" fill-opacity="0.8"/>
<polyline clip-path="url(#clip404)" style="stroke:#000000; stroke-linecap:round; stroke-linejoin:round; stroke-width:4; stroke-opacity:0.8; fill:none" points="1313.45,1098.26 1475.36,1098.26 1475.36,976.406 1313.45,976.406 1313.45,1098.26 "/>
<path clip-path="url(#clip404)" d="M1151.53 976.406 L1313.45 976.406 L1313.45 854.555 L1151.53 854.555 L1151.53 976.406  Z" fill="#fa8072" fill-rule="evenodd" fill-opacity="1"/>
<polyline clip-path="url(#clip404)" style="stroke:#000000; stroke-linecap:round; stroke-linejoin:round; stroke-width:4; stroke-opacity:1; fill:none" points="1151.53,976.406 1313.45,976.406 1313.45,854.555 1151.53,854.555 1151.53,976.406 "/>
<path clip-path="url(#clip404)" d="M1151.53 1098.26 L1313.45 1098.26 L1313.45 976.406 L1151.53 976.406 L1151.53 1098.26  Z" fill="#98bd70" fill-rule="evenodd" fill-opacity="0.8"/>
<polyline clip-path="url(#clip404)" style="stroke:#000000; stroke-linecap:round; stroke-linejoin:round; stroke-width:4; stroke-opacity:0.8; fill:none" points="1151.53,1098.26 1313.45,1098.26 1313.45,976.406 1151.53,976.406 1151.53,1098.26 "/>
<path clip-path="url(#clip400)" d="M2961.09 885.241 L3012.26 885.241 L3012.26 892.127 L2990.79 892.127 L2990.79 945.721 L2982.56 945.721 L2982.56 892.127 L2961.09 892.127 L2961.09 885.241 Z" fill="#000000" fill-rule="nonzero" fill-opacity="1" /><path clip-path="url(#clip400)" d="M3020.16 885.241 L3031.17 885.241 L3057.99 935.836 L3057.99 885.241 L3065.93 885.241 L3065.93 945.721 L3054.91 945.721 L3028.1 895.125 L3028.1 945.721 L3020.16 945.721 L3020.16 885.241 Z" fill="#000000" fill-rule="nonzero" fill-opacity="1" /><path clip-path="url(#clip400)" d="M3013.51 1015.15 L3002.41 1045.25 L3024.65 1045.25 L3013.51 1015.15 M3008.89 1007.09 L3018.17 1007.09 L3041.22 1067.57 L3032.71 1067.57 L3027.2 1052.06 L2999.94 1052.06 L2994.43 1067.57 L2985.8 1067.57 L3008.89 1007.09 Z" fill="#000000" fill-rule="nonzero" fill-opacity="1" /><path clip-path="url(#clip400)" d="M2808.54 885.241 L2816.72 885.241 L2816.72 938.834 L2846.17 938.834 L2846.17 945.721 L2808.54 945.721 L2808.54 885.241 Z" fill="#000000" fill-rule="nonzero" fill-opacity="1" /><path clip-path="url(#clip400)" d="M2891.02 887.226 L2891.02 895.206 Q2886.36 892.978 2882.23 891.884 Q2878.09 890.79 2874.25 890.79 Q2867.56 890.79 2863.92 893.383 Q2860.31 895.975 2860.31 900.756 Q2860.31 904.766 2862.7 906.832 Q2865.13 908.857 2871.86 910.113 L2876.8 911.126 Q2885.95 912.868 2890.29 917.283 Q2894.66 921.658 2894.66 929.031 Q2894.66 937.821 2888.75 942.358 Q2882.87 946.895 2871.49 946.895 Q2867.2 946.895 2862.34 945.923 Q2857.52 944.951 2852.33 943.047 L2852.33 934.621 Q2857.31 937.416 2862.09 938.834 Q2866.87 940.252 2871.49 940.252 Q2878.5 940.252 2882.31 937.497 Q2886.11 934.743 2886.11 929.638 Q2886.11 925.182 2883.36 922.671 Q2880.65 920.159 2874.41 918.904 L2869.43 917.931 Q2860.27 916.108 2856.18 912.22 Q2852.09 908.331 2852.09 901.404 Q2852.09 893.383 2857.72 888.765 Q2863.39 884.147 2873.31 884.147 Q2877.57 884.147 2881.98 884.916 Q2886.4 885.686 2891.02 887.226 Z" fill="#000000" fill-rule="nonzero" fill-opacity="1" /><path clip-path="url(#clip400)" d="M2828.45 1007.09 L2836.67 1007.09 L2836.67 1043.83 Q2836.67 1053.56 2840.2 1057.85 Q2843.72 1062.1 2851.62 1062.1 Q2859.48 1062.1 2863 1057.85 Q2866.53 1053.56 2866.53 1043.83 L2866.53 1007.09 L2874.75 1007.09 L2874.75 1044.85 Q2874.75 1056.67 2868.88 1062.71 Q2863.04 1068.75 2851.62 1068.75 Q2840.16 1068.75 2834.28 1062.71 Q2828.45 1056.67 2828.45 1044.85 L2828.45 1007.09 Z" fill="#000000" fill-rule="nonzero" fill-opacity="1" /><path clip-path="url(#clip400)" d="M2675.11 937.092 L2675.11 920.848 L2661.74 920.848 L2661.74 914.124 L2683.21 914.124 L2683.21 940.09 Q2678.47 943.452 2672.76 945.194 Q2667.05 946.895 2660.56 946.895 Q2646.39 946.895 2638.37 938.631 Q2630.38 930.327 2630.38 915.541 Q2630.38 900.715 2638.37 892.451 Q2646.39 884.147 2660.56 884.147 Q2666.48 884.147 2671.78 885.605 Q2677.13 887.063 2681.63 889.899 L2681.63 898.609 Q2677.09 894.76 2671.99 892.816 Q2666.88 890.871 2661.25 890.871 Q2650.15 890.871 2644.56 897.069 Q2639.01 903.267 2639.01 915.541 Q2639.01 927.775 2644.56 933.973 Q2650.15 940.171 2661.25 940.171 Q2665.59 940.171 2668.99 939.442 Q2672.39 938.672 2675.11 937.092 Z" fill="#000000" fill-rule="nonzero" fill-opacity="1" /><path clip-path="url(#clip400)" d="M2706.34 891.965 L2706.34 938.996 L2716.22 938.996 Q2728.74 938.996 2734.53 933.325 Q2740.37 927.654 2740.37 915.42 Q2740.37 903.267 2734.53 897.636 Q2728.74 891.965 2716.22 891.965 L2706.34 891.965 M2698.16 885.241 L2714.97 885.241 Q2732.55 885.241 2740.77 892.573 Q2749 899.864 2749 915.42 Q2749 931.056 2740.73 938.388 Q2732.47 945.721 2714.97 945.721 L2698.16 945.721 L2698.16 885.241 Z" fill="#000000" fill-rule="nonzero" fill-opacity="1" /><path clip-path="url(#clip400)" d="M2689.69 1015.15 L2678.59 1045.25 L2700.83 1045.25 L2689.69 1015.15 M2685.07 1007.09 L2694.35 1007.09 L2717.4 1067.57 L2708.89 1067.57 L2703.38 1052.06 L2676.12 1052.06 L2670.61 1067.57 L2661.98 1067.57 L2685.07 1007.09 Z" fill="#000000" fill-rule="nonzero" fill-opacity="1" /><path clip-path="url(#clip400)" d="M2471.33 885.241 L2482.35 885.241 L2509.16 935.836 L2509.16 885.241 L2517.1 885.241 L2517.1 945.721 L2506.09 945.721 L2479.27 895.125 L2479.27 945.721 L2471.33 945.721 L2471.33 885.241 Z" fill="#000000" fill-rule="nonzero" fill-opacity="1" /><path clip-path="url(#clip400)" d="M2541.57 891.965 L2541.57 938.996 L2551.46 938.996 Q2563.97 938.996 2569.77 933.325 Q2575.6 927.654 2575.6 915.42 Q2575.6 903.267 2569.77 897.636 Q2563.97 891.965 2551.46 891.965 L2541.57 891.965 M2533.39 885.241 L2550.2 885.241 Q2567.78 885.241 2576 892.573 Q2584.23 899.864 2584.23 915.42 Q2584.23 931.056 2575.96 938.388 Q2567.7 945.721 2550.2 945.721 L2533.39 945.721 L2533.39 885.241 Z" fill="#000000" fill-rule="nonzero" fill-opacity="1" /><path clip-path="url(#clip400)" d="M2552.17 1011.75 L2552.17 1020.38 Q2548.03 1016.53 2543.33 1014.63 Q2538.68 1012.72 2533.41 1012.72 Q2523.04 1012.72 2517.53 1019.08 Q2512.02 1025.4 2512.02 1037.39 Q2512.02 1049.34 2517.53 1055.7 Q2523.04 1062.02 2533.41 1062.02 Q2538.68 1062.02 2543.33 1060.12 Q2548.03 1058.21 2552.17 1054.37 L2552.17 1062.91 Q2547.87 1065.83 2543.05 1067.29 Q2538.27 1068.75 2532.92 1068.75 Q2519.19 1068.75 2511.29 1060.36 Q2503.39 1051.93 2503.39 1037.39 Q2503.39 1022.81 2511.29 1014.42 Q2519.19 1006 2532.92 1006 Q2538.35 1006 2543.13 1007.46 Q2547.95 1008.87 2552.17 1011.75 Z" fill="#000000" fill-rule="nonzero" fill-opacity="1" /><path clip-path="url(#clip400)" d="M2341.97 893.302 L2330.87 923.4 L2353.11 923.4 L2341.97 893.302 M2337.35 885.241 L2346.63 885.241 L2369.68 945.721 L2361.17 945.721 L2355.66 930.206 L2328.4 930.206 L2322.89 945.721 L2314.26 945.721 L2337.35 885.241 Z" fill="#000000" fill-rule="nonzero" fill-opacity="1" /><path clip-path="url(#clip400)" d="M2378.51 885.241 L2416.75 885.241 L2416.75 892.127 L2386.69 892.127 L2386.69 910.032 L2415.49 910.032 L2415.49 916.919 L2386.69 916.919 L2386.69 938.834 L2417.48 938.834 L2417.48 945.721 L2378.51 945.721 L2378.51 885.241 Z" fill="#000000" fill-rule="nonzero" fill-opacity="1" /><path clip-path="url(#clip400)" d="M2342.72 1007.09 L2350.94 1007.09 L2350.94 1043.83 Q2350.94 1053.56 2354.46 1057.85 Q2357.99 1062.1 2365.89 1062.1 Q2373.75 1062.1 2377.27 1057.85 Q2380.8 1053.56 2380.8 1043.83 L2380.8 1007.09 L2389.02 1007.09 L2389.02 1044.85 Q2389.02 1056.67 2383.14 1062.71 Q2377.31 1068.75 2365.89 1068.75 Q2354.42 1068.75 2348.55 1062.71 Q2342.72 1056.67 2342.72 1044.85 L2342.72 1007.09 Z" fill="#000000" fill-rule="nonzero" fill-opacity="1" /><path clip-path="url(#clip400)" d="M2189.8 887.226 L2189.8 895.206 Q2185.14 892.978 2181.01 891.884 Q2176.88 890.79 2173.03 890.79 Q2166.34 890.79 2162.7 893.383 Q2159.09 895.975 2159.09 900.756 Q2159.09 904.766 2161.48 906.832 Q2163.91 908.857 2170.64 910.113 L2175.58 911.126 Q2184.73 912.868 2189.07 917.283 Q2193.44 921.658 2193.44 929.031 Q2193.44 937.821 2187.53 942.358 Q2181.66 946.895 2170.27 946.895 Q2165.98 946.895 2161.12 945.923 Q2156.3 944.951 2151.11 943.047 L2151.11 934.621 Q2156.1 937.416 2160.88 938.834 Q2165.66 940.252 2170.27 940.252 Q2177.28 940.252 2181.09 937.497 Q2184.9 934.743 2184.9 929.638 Q2184.9 925.182 2182.14 922.671 Q2179.43 920.159 2173.19 918.904 L2168.21 917.931 Q2159.05 916.108 2154.96 912.22 Q2150.87 908.331 2150.87 901.404 Q2150.87 893.383 2156.5 888.765 Q2162.17 884.147 2172.1 884.147 Q2176.35 884.147 2180.77 884.916 Q2185.18 885.686 2189.8 887.226 Z" fill="#000000" fill-rule="nonzero" fill-opacity="1" /><path clip-path="url(#clip400)" d="M2214.39 891.965 L2214.39 938.996 L2224.27 938.996 Q2236.79 938.996 2242.58 933.325 Q2248.42 927.654 2248.42 915.42 Q2248.42 903.267 2242.58 897.636 Q2236.79 891.965 2224.27 891.965 L2214.39 891.965 M2206.2 885.241 L2223.02 885.241 Q2240.6 885.241 2248.82 892.573 Q2257.04 899.864 2257.04 915.42 Q2257.04 931.056 2248.78 938.388 Q2240.52 945.721 2223.02 945.721 L2206.2 945.721 L2206.2 885.241 Z" fill="#000000" fill-rule="nonzero" fill-opacity="1" /><path clip-path="url(#clip400)" d="M2222.27 1058.94 L2222.27 1042.7 L2208.9 1042.7 L2208.9 1035.97 L2230.37 1035.97 L2230.37 1061.94 Q2225.63 1065.3 2219.92 1067.04 Q2214.21 1068.75 2207.72 1068.75 Q2193.55 1068.75 2185.52 1060.48 Q2177.54 1052.18 2177.54 1037.39 Q2177.54 1022.57 2185.52 1014.3 Q2193.55 1006 2207.72 1006 Q2213.64 1006 2218.94 1007.46 Q2224.29 1008.91 2228.79 1011.75 L2228.79 1020.46 Q2224.25 1016.61 2219.15 1014.67 Q2214.04 1012.72 2208.41 1012.72 Q2197.31 1012.72 2191.72 1018.92 Q2186.17 1025.12 2186.17 1037.39 Q2186.17 1049.63 2191.72 1055.82 Q2197.31 1062.02 2208.41 1062.02 Q2212.75 1062.02 2216.15 1061.29 Q2219.55 1060.52 2222.27 1058.94 Z" fill="#000000" fill-rule="nonzero" fill-opacity="1" /><path clip-path="url(#clip400)" d="M1985.6 885.241 L1996.61 885.241 L2023.43 935.836 L2023.43 885.241 L2031.37 885.241 L2031.37 945.721 L2020.35 945.721 L1993.54 895.125 L1993.54 945.721 L1985.6 945.721 L1985.6 885.241 Z" fill="#000000" fill-rule="nonzero" fill-opacity="1" /><path clip-path="url(#clip400)" d="M2055.84 891.965 L2055.84 938.996 L2065.72 938.996 Q2078.24 938.996 2084.03 933.325 Q2089.87 927.654 2089.87 915.42 Q2089.87 903.267 2084.03 897.636 Q2078.24 891.965 2065.72 891.965 L2055.84 891.965 M2047.66 885.241 L2064.47 885.241 Q2082.05 885.241 2090.27 892.573 Q2098.49 899.864 2098.49 915.42 Q2098.49 931.056 2090.23 938.388 Q2081.97 945.721 2064.47 945.721 L2047.66 945.721 L2047.66 885.241 Z" fill="#000000" fill-rule="nonzero" fill-opacity="1" /><path clip-path="url(#clip400)" d="M2018.89 1007.09 L2027.12 1007.09 L2027.12 1043.83 Q2027.12 1053.56 2030.64 1057.85 Q2034.17 1062.1 2042.07 1062.1 Q2049.92 1062.1 2053.45 1057.85 Q2056.97 1053.56 2056.97 1043.83 L2056.97 1007.09 L2065.2 1007.09 L2065.2 1044.85 Q2065.2 1056.67 2059.32 1062.71 Q2053.49 1068.75 2042.07 1068.75 Q2030.6 1068.75 2024.73 1062.71 Q2018.89 1056.67 2018.89 1044.85 L2018.89 1007.09 Z" fill="#000000" fill-rule="nonzero" fill-opacity="1" /><path clip-path="url(#clip400)" d="M1848.21 945.721 L1825.12 885.241 L1833.67 885.241 L1852.83 936.16 L1872.03 885.241 L1880.54 885.241 L1857.49 945.721 L1848.21 945.721 Z" fill="#000000" fill-rule="nonzero" fill-opacity="1" /><path clip-path="url(#clip400)" d="M1889.37 885.241 L1900.39 885.241 L1927.21 935.836 L1927.21 885.241 L1935.15 885.241 L1935.15 945.721 L1924.13 945.721 L1897.31 895.125 L1897.31 945.721 L1889.37 945.721 L1889.37 885.241 Z" fill="#000000" fill-rule="nonzero" fill-opacity="1" /><path clip-path="url(#clip400)" d="M1856.98 1007.09 L1865.21 1007.09 L1865.21 1043.83 Q1865.21 1053.56 1868.73 1057.85 Q1872.26 1062.1 1880.15 1062.1 Q1888.01 1062.1 1891.54 1057.85 Q1895.06 1053.56 1895.06 1043.83 L1895.06 1007.09 L1903.29 1007.09 L1903.29 1044.85 Q1903.29 1056.67 1897.41 1062.71 Q1891.58 1068.75 1880.15 1068.75 Q1868.69 1068.75 1862.82 1062.71 Q1856.98 1056.67 1856.98 1044.85 L1856.98 1007.09 Z" fill="#000000" fill-rule="nonzero" fill-opacity="1" /><path clip-path="url(#clip400)" d="M1706.6 887.226 L1706.6 895.206 Q1701.94 892.978 1697.81 891.884 Q1693.67 890.79 1689.83 890.79 Q1683.14 890.79 1679.5 893.383 Q1675.89 895.975 1675.89 900.756 Q1675.89 904.766 1678.28 906.832 Q1680.71 908.857 1687.44 910.113 L1692.38 911.126 Q1701.53 912.868 1705.87 917.283 Q1710.24 921.658 1710.24 929.031 Q1710.24 937.821 1704.33 942.358 Q1698.45 946.895 1687.07 946.895 Q1682.78 946.895 1677.92 945.923 Q1673.1 944.951 1667.91 943.047 L1667.91 934.621 Q1672.89 937.416 1677.67 938.834 Q1682.45 940.252 1687.07 940.252 Q1694.08 940.252 1697.89 937.497 Q1701.7 934.743 1701.7 929.638 Q1701.7 925.182 1698.94 922.671 Q1696.23 920.159 1689.99 918.904 L1685.01 917.931 Q1675.85 916.108 1671.76 912.22 Q1667.67 908.331 1667.67 901.404 Q1667.67 893.383 1673.3 888.765 Q1678.97 884.147 1688.89 884.147 Q1693.15 884.147 1697.56 884.916 Q1701.98 885.686 1706.6 887.226 Z" fill="#000000" fill-rule="nonzero" fill-opacity="1" /><path clip-path="url(#clip400)" d="M1723 885.241 L1734.02 885.241 L1760.84 935.836 L1760.84 885.241 L1768.78 885.241 L1768.78 945.721 L1757.76 945.721 L1730.94 895.125 L1730.94 945.721 L1723 945.721 L1723 885.241 Z" fill="#000000" fill-rule="nonzero" fill-opacity="1" /><path clip-path="url(#clip400)" d="M1718.22 1015.15 L1707.12 1045.25 L1729.36 1045.25 L1718.22 1015.15 M1713.61 1007.09 L1722.88 1007.09 L1745.93 1067.57 L1737.42 1067.57 L1731.92 1052.06 L1704.65 1052.06 L1699.14 1067.57 L1690.51 1067.57 L1713.61 1007.09 Z" fill="#000000" fill-rule="nonzero" fill-opacity="1" /><path clip-path="url(#clip400)" d="M1501.36 885.241 L1552.52 885.241 L1552.52 892.127 L1531.05 892.127 L1531.05 945.721 L1522.83 945.721 L1522.83 892.127 L1501.36 892.127 L1501.36 885.241 Z" fill="#000000" fill-rule="nonzero" fill-opacity="1" /><path clip-path="url(#clip400)" d="M1568.61 891.965 L1568.61 938.996 L1578.49 938.996 Q1591.01 938.996 1596.8 933.325 Q1602.63 927.654 1602.63 915.42 Q1602.63 903.267 1596.8 897.636 Q1591.01 891.965 1578.49 891.965 L1568.61 891.965 M1560.42 885.241 L1577.23 885.241 Q1594.82 885.241 1603.04 892.573 Q1611.26 899.864 1611.26 915.42 Q1611.26 931.056 1603 938.388 Q1594.73 945.721 1577.23 945.721 L1560.42 945.721 L1560.42 885.241 Z" fill="#000000" fill-rule="nonzero" fill-opacity="1" /><path clip-path="url(#clip400)" d="M1574.62 1058.94 L1574.62 1042.7 L1561.25 1042.7 L1561.25 1035.97 L1582.72 1035.97 L1582.72 1061.94 Q1577.98 1065.3 1572.27 1067.04 Q1566.56 1068.75 1560.08 1068.75 Q1545.9 1068.75 1537.88 1060.48 Q1529.9 1052.18 1529.9 1037.39 Q1529.9 1022.57 1537.88 1014.3 Q1545.9 1006 1560.08 1006 Q1565.99 1006 1571.3 1007.46 Q1576.65 1008.91 1581.14 1011.75 L1581.14 1020.46 Q1576.61 1016.61 1571.5 1014.67 Q1566.4 1012.72 1560.77 1012.72 Q1549.67 1012.72 1544.08 1018.92 Q1538.53 1025.12 1538.53 1037.39 Q1538.53 1049.63 1544.08 1055.82 Q1549.67 1062.02 1560.77 1062.02 Q1565.1 1062.02 1568.51 1061.29 Q1571.91 1060.52 1574.62 1058.94 Z" fill="#000000" fill-rule="nonzero" fill-opacity="1" /><path clip-path="url(#clip400)" d="M1359.95 945.721 L1336.86 885.241 L1345.41 885.241 L1364.57 936.16 L1383.77 885.241 L1392.27 885.241 L1369.22 945.721 L1359.95 945.721 Z" fill="#000000" fill-rule="nonzero" fill-opacity="1" /><path clip-path="url(#clip400)" d="M1409.29 891.965 L1409.29 938.996 L1419.17 938.996 Q1431.69 938.996 1437.48 933.325 Q1443.32 927.654 1443.32 915.42 Q1443.32 903.267 1437.48 897.636 Q1431.69 891.965 1419.17 891.965 L1409.29 891.965 M1401.1 885.241 L1417.92 885.241 Q1435.5 885.241 1443.72 892.573 Q1451.94 899.864 1451.94 915.42 Q1451.94 931.056 1443.68 938.388 Q1435.42 945.721 1417.92 945.721 L1401.1 945.721 L1401.1 885.241 Z" fill="#000000" fill-rule="nonzero" fill-opacity="1" /><path clip-path="url(#clip400)" d="M1394.4 1015.15 L1383.3 1045.25 L1405.54 1045.25 L1394.4 1015.15 M1389.78 1007.09 L1399.06 1007.09 L1422.11 1067.57 L1413.6 1067.57 L1408.09 1052.06 L1380.83 1052.06 L1375.32 1067.57 L1366.69 1067.57 L1389.78 1007.09 Z" fill="#000000" fill-rule="nonzero" fill-opacity="1" /><path clip-path="url(#clip400)" d="M1218.33 887.226 L1218.33 895.206 Q1213.67 892.978 1209.54 891.884 Q1205.41 890.79 1201.56 890.79 Q1194.88 890.79 1191.23 893.383 Q1187.63 895.975 1187.63 900.756 Q1187.63 904.766 1190.02 906.832 Q1192.45 908.857 1199.17 910.113 L1204.11 911.126 Q1213.27 912.868 1217.6 917.283 Q1221.98 921.658 1221.98 929.031 Q1221.98 937.821 1216.06 942.358 Q1210.19 946.895 1198.81 946.895 Q1194.51 946.895 1189.65 945.923 Q1184.83 944.951 1179.65 943.047 L1179.65 934.621 Q1184.63 937.416 1189.41 938.834 Q1194.19 940.252 1198.81 940.252 Q1205.81 940.252 1209.62 937.497 Q1213.43 934.743 1213.43 929.638 Q1213.43 925.182 1210.68 922.671 Q1207.96 920.159 1201.72 918.904 L1196.74 917.931 Q1187.59 916.108 1183.49 912.22 Q1179.4 908.331 1179.4 901.404 Q1179.4 893.383 1185.03 888.765 Q1190.7 884.147 1200.63 884.147 Q1204.88 884.147 1209.3 884.916 Q1213.71 885.686 1218.33 887.226 Z" fill="#000000" fill-rule="nonzero" fill-opacity="1" /><path clip-path="url(#clip400)" d="M1242.92 891.965 L1242.92 938.996 L1252.8 938.996 Q1265.32 938.996 1271.11 933.325 Q1276.95 927.654 1276.95 915.42 Q1276.95 903.267 1271.11 897.636 Q1265.32 891.965 1252.8 891.965 L1242.92 891.965 M1234.74 885.241 L1251.55 885.241 Q1269.13 885.241 1277.35 892.573 Q1285.58 899.864 1285.58 915.42 Q1285.58 931.056 1277.31 938.388 Q1269.05 945.721 1251.55 945.721 L1234.74 945.721 L1234.74 885.241 Z" fill="#000000" fill-rule="nonzero" fill-opacity="1" /><path clip-path="url(#clip400)" d="M1250.8 1058.94 L1250.8 1042.7 L1237.43 1042.7 L1237.43 1035.97 L1258.9 1035.97 L1258.9 1061.94 Q1254.16 1065.3 1248.45 1067.04 Q1242.74 1068.75 1236.26 1068.75 Q1222.08 1068.75 1214.06 1060.48 Q1206.08 1052.18 1206.08 1037.39 Q1206.08 1022.57 1214.06 1014.3 Q1222.08 1006 1236.26 1006 Q1242.17 1006 1247.48 1007.46 Q1252.83 1008.91 1257.32 1011.75 L1257.32 1020.46 Q1252.78 1016.61 1247.68 1014.67 Q1242.58 1012.72 1236.95 1012.72 Q1225.85 1012.72 1220.26 1018.92 Q1214.71 1025.12 1214.71 1037.39 Q1214.71 1049.63 1220.26 1055.82 Q1225.85 1062.02 1236.95 1062.02 Q1241.28 1062.02 1244.68 1061.29 Q1248.09 1060.52 1250.8 1058.94 Z" fill="#000000" fill-rule="nonzero" fill-opacity="1" /><g clip-path="url(#clip400)">
<text style="fill:#000000; fill-opacity:1; font-family:Arial,Helvetica Neue,Helvetica,sans-serif; font-size:82px; font-style:italic; text-anchor:end;" transform="rotate(0, 1030.1, 1006.41)" x="1030.1" y="1006.41">Huperzia serrata</text>
</g>
</svg>
