<?xml version="1.0" encoding="utf-8"?>
<svg xmlns="http://www.w3.org/2000/svg" xmlns:xlink="http://www.w3.org/1999/xlink" width="800" height="300" viewBox="0 0 3200 1200">
<defs>
  <clipPath id="clip480">
    <rect x="0" y="0" width="3200" height="1200"/>
  </clipPath>
</defs>
<path clip-path="url(#clip480)" d="M0 1200 L3200 1200 L3200 0 L0 0  Z" fill="#ffffff" fill-rule="evenodd" fill-opacity="1"/>
<defs>
  <clipPath id="clip481">
    <rect x="640" y="0" width="2241" height="1200"/>
  </clipPath>
</defs>
<path clip-path="url(#clip480)" d="M1093.25 352.793 L3152.76 352.793 L3152.76 47.2441 L1093.25 47.2441  Z" fill="#ffffff" fill-rule="evenodd" fill-opacity="1"/>
<defs>
  <clipPath id="clip482">
    <rect x="1093" y="47" width="2061" height="307"/>
  </clipPath>
</defs>
<polyline clip-path="url(#clip482)" style="stroke:#000000; stroke-linecap:round; stroke-linejoin:round; stroke-width:2; stroke-opacity:0.1; fill:none" points="1450.45,352.793 1450.45,47.2441 "/>
<polyline clip-path="url(#clip482)" style="stroke:#000000; stroke-linecap:round; stroke-linejoin:round; stroke-width:2; stroke-opacity:0.1; fill:none" points="1824.09,352.793 1824.09,47.2441 "/>
<polyline clip-path="url(#clip482)" style="stroke:#000000; stroke-linecap:round; stroke-linejoin:round; stroke-width:2; stroke-opacity:0.1; fill:none" points="2197.73,352.793 2197.73,47.2441 "/>
<polyline clip-path="url(#clip482)" style="stroke:#000000; stroke-linecap:round; stroke-linejoin:round; stroke-width:2; stroke-opacity:0.1; fill:none" points="2571.37,352.793 2571.37,47.2441 "/>
<polyline clip-path="url(#clip482)" style="stroke:#000000; stroke-linecap:round; stroke-linejoin:round; stroke-width:2; stroke-opacity:0.1; fill:none" points="2945.01,352.793 2945.01,47.2441 "/>
<polyline clip-path="url(#clip482)" style="stroke:#000000; stroke-linecap:round; stroke-linejoin:round; stroke-width:2; stroke-opacity:0.1; fill:none" points="1093.25,344.146 3152.76,344.146 "/>
<polyline clip-path="url(#clip482)" style="stroke:#000000; stroke-linecap:round; stroke-linejoin:round; stroke-width:2; stroke-opacity:0.1; fill:none" points="1093.25,272.082 3152.76,272.082 "/>
<polyline clip-path="url(#clip482)" style="stroke:#000000; stroke-linecap:round; stroke-linejoin:round; stroke-width:2; stroke-opacity:0.1; fill:none" points="1093.25,200.019 3152.76,200.019 "/>
<polyline clip-path="url(#clip482)" style="stroke:#000000; stroke-linecap:round; stroke-linejoin:round; stroke-width:2; stroke-opacity:0.1; fill:none" points="1093.25,127.955 3152.76,127.955 "/>
<polyline clip-path="url(#clip482)" style="stroke:#000000; stroke-linecap:round; stroke-linejoin:round; stroke-width:2; stroke-opacity:0.1; fill:none" points="1093.25,55.8917 3152.76,55.8917 "/>
<path clip-path="url(#clip482)" d="M2945.01 200.019 L3094.47 200.019 L3094.47 55.8917 L2945.01 55.8917 L2945.01 200.019  Z" fill="#9fb6cd" fill-rule="evenodd" fill-opacity="1"/>
<polyline clip-path="url(#clip482)" style="stroke:#000000; stroke-linecap:round; stroke-linejoin:round; stroke-width:4; stroke-opacity:1; fill:none" points="2945.01,200.019 3094.47,200.019 3094.47,55.8917 2945.01,55.8917 2945.01,200.019 "/>
<path clip-path="url(#clip482)" d="M2945.01 344.146 L3094.47 344.146 L3094.47 200.019 L2945.01 200.019 L2945.01 344.146  Z" fill="#f5f0f0" fill-rule="evenodd" fill-opacity="0.8"/>
<polyline clip-path="url(#clip482)" style="stroke:#000000; stroke-linecap:round; stroke-linejoin:round; stroke-width:4; stroke-opacity:0.8; fill:none" points="2945.01,344.146 3094.47,344.146 3094.47,200.019 2945.01,200.019 2945.01,344.146 "/>
<path clip-path="url(#clip482)" d="M2795.55 200.019 L2945.01 200.019 L2945.01 55.8917 L2795.55 55.8917 L2795.55 200.019  Z" fill="#fffacd" fill-rule="evenodd" fill-opacity="1"/>
<polyline clip-path="url(#clip482)" style="stroke:#000000; stroke-linecap:round; stroke-linejoin:round; stroke-width:4; stroke-opacity:1; fill:none" points="2795.55,200.019 2945.01,200.019 2945.01,55.8917 2795.55,55.8917 2795.55,200.019 "/>
<path clip-path="url(#clip482)" d="M2795.55 344.146 L2945.01 344.146 L2945.01 200.019 L2795.55 200.019 L2795.55 344.146  Z" fill="#5c8e3b" fill-rule="evenodd" fill-opacity="0.8"/>
<polyline clip-path="url(#clip482)" style="stroke:#000000; stroke-linecap:round; stroke-linejoin:round; stroke-width:4; stroke-opacity:0.8; fill:none" points="2795.55,344.146 2945.01,344.146 2945.01,200.019 2795.55,200.019 2795.55,344.146 "/>
<path clip-path="url(#clip482)" d="M2646.1 200.019 L2795.55 200.019 L2795.55 55.8917 L2646.1 55.8917 L2646.1 200.019  Z" fill="#cd96cd" fill-rule="evenodd" fill-opacity="1"/>
<polyline clip-path="url(#clip482)" style="stroke:#000000; stroke-linecap:round; stroke-linejoin:round; stroke-width:4; stroke-opacity:1; fill:none" points="2646.1,200.019 2795.55,200.019 2795.55,55.8917 2646.1,55.8917 2646.1,200.019 "/>
<path clip-path="url(#clip482)" d="M2646.1 344.146 L2795.55 344.146 L2795.55 200.019 L2646.1 200.019 L2646.1 344.146  Z" fill="#f5f0f0" fill-rule="evenodd" fill-opacity="0.8"/>
<polyline clip-path="url(#clip482)" style="stroke:#000000; stroke-linecap:round; stroke-linejoin:round; stroke-width:4; stroke-opacity:0.8; fill:none" points="2646.1,344.146 2795.55,344.146 2795.55,200.019 2646.1,200.019 2646.1,344.146 "/>
<path clip-path="url(#clip482)" d="M2496.64 200.019 L2646.1 200.019 L2646.1 55.8917 L2496.64 55.8917 L2496.64 200.019  Z" fill="#b4eeb4" fill-rule="evenodd" fill-opacity="1"/>
<polyline clip-path="url(#clip482)" style="stroke:#000000; stroke-linecap:round; stroke-linejoin:round; stroke-width:4; stroke-opacity:1; fill:none" points="2496.64,200.019 2646.1,200.019 2646.1,55.8917 2496.64,55.8917 2496.64,200.019 "/>
<path clip-path="url(#clip482)" d="M2496.64 344.146 L2646.1 344.146 L2646.1 200.019 L2496.64 200.019 L2496.64 344.146  Z" fill="#0c4b00" fill-rule="evenodd" fill-opacity="0.8"/>
<polyline clip-path="url(#clip482)" style="stroke:#000000; stroke-linecap:round; stroke-linejoin:round; stroke-width:4; stroke-opacity:0.8; fill:none" points="2496.64,344.146 2646.1,344.146 2646.1,200.019 2496.64,200.019 2496.64,344.146 "/>
<path clip-path="url(#clip482)" d="M2347.19 200.019 L2496.64 200.019 L2496.64 55.8917 L2347.19 55.8917 L2347.19 200.019  Z" fill="#eedd82" fill-rule="evenodd" fill-opacity="1"/>
<polyline clip-path="url(#clip482)" style="stroke:#000000; stroke-linecap:round; stroke-linejoin:round; stroke-width:4; stroke-opacity:1; fill:none" points="2347.19,200.019 2496.64,200.019 2496.64,55.8917 2347.19,55.8917 2347.19,200.019 "/>
<path clip-path="url(#clip482)" d="M2347.19 344.146 L2496.64 344.146 L2496.64 200.019 L2347.19 200.019 L2347.19 344.146  Z" fill="#f4e2ef" fill-rule="evenodd" fill-opacity="0.8"/>
<polyline clip-path="url(#clip482)" style="stroke:#000000; stroke-linecap:round; stroke-linejoin:round; stroke-width:4; stroke-opacity:0.8; fill:none" points="2347.19,344.146 2496.64,344.146 2496.64,200.019 2347.19,200.019 2347.19,344.146 "/>
<path clip-path="url(#clip482)" d="M2197.73 200.019 L2347.19 200.019 L2347.19 55.8917 L2197.73 55.8917 L2197.73 200.019  Z" fill="#fa8072" fill-rule="evenodd" fill-opacity="1"/>
<polyline clip-path="url(#clip482)" style="stroke:#000000; stroke-linecap:round; stroke-linejoin:round; stroke-width:4; stroke-opacity:1; fill:none" points="2197.73,200.019 2347.19,200.019 2347.19,55.8917 2197.73,55.8917 2197.73,200.019 "/>
<path clip-path="url(#clip482)" d="M2197.73 344.146 L2347.19 344.146 L2347.19 200.019 L2197.73 200.019 L2197.73 344.146  Z" fill="#98bd70" fill-rule="evenodd" fill-opacity="0.8"/>
<polyline clip-path="url(#clip482)" style="stroke:#000000; stroke-linecap:round; stroke-linejoin:round; stroke-width:4; stroke-opacity:0.8; fill:none" points="2197.73,344.146 2347.19,344.146 2347.19,200.019 2197.73,200.019 2197.73,344.146 "/>
<path clip-path="url(#clip482)" d="M2048.27 200.019 L2197.73 200.019 L2197.73 55.8917 L2048.27 55.8917 L2048.27 200.019  Z" fill="#b4eeb4" fill-rule="evenodd" fill-opacity="1"/>
<polyline clip-path="url(#clip482)" style="stroke:#000000; stroke-linecap:round; stroke-linejoin:round; stroke-width:4; stroke-opacity:1; fill:none" points="2048.27,200.019 2197.73,200.019 2197.73,55.8917 2048.27,55.8917 2048.27,200.019 "/>
<path clip-path="url(#clip482)" d="M2048.27 344.146 L2197.73 344.146 L2197.73 200.019 L2048.27 200.019 L2048.27 344.146  Z" fill="#0c4b00" fill-rule="evenodd" fill-opacity="0.8"/>
<polyline clip-path="url(#clip482)" style="stroke:#000000; stroke-linecap:round; stroke-linejoin:round; stroke-width:4; stroke-opacity:0.8; fill:none" points="2048.27,344.146 2197.73,344.146 2197.73,200.019 2048.27,200.019 2048.27,344.146 "/>
<path clip-path="url(#clip482)" d="M1898.82 200.019 L2048.27 200.019 L2048.27 55.8917 L1898.82 55.8917 L1898.82 200.019  Z" fill="#eedd82" fill-rule="evenodd" fill-opacity="1"/>
<polyline clip-path="url(#clip482)" style="stroke:#000000; stroke-linecap:round; stroke-linejoin:round; stroke-width:4; stroke-opacity:1; fill:none" points="1898.82,200.019 2048.27,200.019 2048.27,55.8917 1898.82,55.8917 1898.82,200.019 "/>
<path clip-path="url(#clip482)" d="M1898.82 344.146 L2048.27 344.146 L2048.27 200.019 L1898.82 200.019 L1898.82 344.146  Z" fill="#b5d293" fill-rule="evenodd" fill-opacity="0.8"/>
<polyline clip-path="url(#clip482)" style="stroke:#000000; stroke-linecap:round; stroke-linejoin:round; stroke-width:4; stroke-opacity:0.8; fill:none" points="1898.82,344.146 2048.27,344.146 2048.27,200.019 1898.82,200.019 1898.82,344.146 "/>
<path clip-path="url(#clip482)" d="M1749.36 200.019 L1898.82 200.019 L1898.82 55.8917 L1749.36 55.8917 L1749.36 200.019  Z" fill="#fa8072" fill-rule="evenodd" fill-opacity="1"/>
<polyline clip-path="url(#clip482)" style="stroke:#000000; stroke-linecap:round; stroke-linejoin:round; stroke-width:4; stroke-opacity:1; fill:none" points="1749.36,200.019 1898.82,200.019 1898.82,55.8917 1749.36,55.8917 1749.36,200.019 "/>
<path clip-path="url(#clip482)" d="M1749.36 344.146 L1898.82 344.146 L1898.82 200.019 L1749.36 200.019 L1749.36 344.146  Z" fill="#f2d9eb" fill-rule="evenodd" fill-opacity="0.8"/>
<polyline clip-path="url(#clip482)" style="stroke:#000000; stroke-linecap:round; stroke-linejoin:round; stroke-width:4; stroke-opacity:0.8; fill:none" points="1749.36,344.146 1898.82,344.146 1898.82,200.019 1749.36,200.019 1749.36,344.146 "/>
<path clip-path="url(#clip482)" d="M1599.9 200.019 L1749.36 200.019 L1749.36 55.8917 L1599.9 55.8917 L1599.9 200.019  Z" fill="#b4eeb4" fill-rule="evenodd" fill-opacity="1"/>
<polyline clip-path="url(#clip482)" style="stroke:#000000; stroke-linecap:round; stroke-linejoin:round; stroke-width:4; stroke-opacity:1; fill:none" points="1599.9,200.019 1749.36,200.019 1749.36,55.8917 1599.9,55.8917 1599.9,200.019 "/>
<path clip-path="url(#clip482)" d="M1599.9 344.146 L1749.36 344.146 L1749.36 200.019 L1599.9 200.019 L1599.9 344.146  Z" fill="#0c4b00" fill-rule="evenodd" fill-opacity="0.8"/>
<polyline clip-path="url(#clip482)" style="stroke:#000000; stroke-linecap:round; stroke-linejoin:round; stroke-width:4; stroke-opacity:0.8; fill:none" points="1599.9,344.146 1749.36,344.146 1749.36,200.019 1599.9,200.019 1599.9,344.146 "/>
<path clip-path="url(#clip482)" d="M1450.45 200.019 L1599.9 200.019 L1599.9 55.8917 L1450.45 55.8917 L1450.45 200.019  Z" fill="#eedd82" fill-rule="evenodd" fill-opacity="1"/>
<polyline clip-path="url(#clip482)" style="stroke:#000000; stroke-linecap:round; stroke-linejoin:round; stroke-width:4; stroke-opacity:1; fill:none" points="1450.45,200.019 1599.9,200.019 1599.9,55.8917 1450.45,55.8917 1450.45,200.019 "/>
<path clip-path="url(#clip482)" d="M1450.45 344.146 L1599.9 344.146 L1599.9 200.019 L1450.45 200.019 L1450.45 344.146  Z" fill="#ecf1e1" fill-rule="evenodd" fill-opacity="0.8"/>
<polyline clip-path="url(#clip482)" style="stroke:#000000; stroke-linecap:round; stroke-linejoin:round; stroke-width:4; stroke-opacity:0.8; fill:none" points="1450.45,344.146 1599.9,344.146 1599.9,200.019 1450.45,200.019 1450.45,344.146 "/>
<path clip-path="url(#clip482)" d="M1300.99 200.019 L1450.45 200.019 L1450.45 55.8917 L1300.99 55.8917 L1300.99 200.019  Z" fill="#fa8072" fill-rule="evenodd" fill-opacity="1"/>
<polyline clip-path="url(#clip482)" style="stroke:#000000; stroke-linecap:round; stroke-linejoin:round; stroke-width:4; stroke-opacity:1; fill:none" points="1300.99,200.019 1450.45,200.019 1450.45,55.8917 1300.99,55.8917 1300.99,200.019 "/>
<path clip-path="url(#clip482)" d="M1300.99 344.146 L1450.45 344.146 L1450.45 200.019 L1300.99 200.019 L1300.99 344.146  Z" fill="#f5f0f0" fill-rule="evenodd" fill-opacity="0.8"/>
<polyline clip-path="url(#clip482)" style="stroke:#000000; stroke-linecap:round; stroke-linejoin:round; stroke-width:4; stroke-opacity:0.8; fill:none" points="1300.99,344.146 1450.45,344.146 1450.45,200.019 1300.99,200.019 1300.99,344.146 "/>
<path clip-path="url(#clip482)" d="M1151.53 200.019 L1300.99 200.019 L1300.99 55.8917 L1151.53 55.8917 L1151.53 200.019  Z" fill="#b4eeb4" fill-rule="evenodd" fill-opacity="1"/>
<polyline clip-path="url(#clip482)" style="stroke:#000000; stroke-linecap:round; stroke-linejoin:round; stroke-width:4; stroke-opacity:1; fill:none" points="1151.53,200.019 1300.99,200.019 1300.99,55.8917 1151.53,55.8917 1151.53,200.019 "/>
<path clip-path="url(#clip482)" d="M1151.53 344.146 L1300.99 344.146 L1300.99 200.019 L1151.53 200.019 L1151.53 344.146  Z" fill="#f5f0f0" fill-rule="evenodd" fill-opacity="0.8"/>
<polyline clip-path="url(#clip482)" style="stroke:#000000; stroke-linecap:round; stroke-linejoin:round; stroke-width:4; stroke-opacity:0.8; fill:none" points="1151.53,344.146 1300.99,344.146 1300.99,200.019 1151.53,200.019 1151.53,344.146 "/>
<path clip-path="url(#clip480)" d="M2963.29 97.7152 L2974.31 97.7152 L3001.13 148.311 L3001.13 97.7152 L3009.07 97.7152 L3009.07 158.195 L2998.05 158.195 L2971.23 107.599 L2971.23 158.195 L2963.29 158.195 L2963.29 97.7152 Z" fill="#000000" fill-rule="nonzero" fill-opacity="1" /><path clip-path="url(#clip480)" d="M3033.53 104.44 L3033.53 151.471 L3043.42 151.471 Q3055.93 151.471 3061.73 145.799 Q3067.56 140.128 3067.56 127.894 Q3067.56 115.742 3061.73 110.111 Q3055.93 104.44 3043.42 104.44 L3033.53 104.44 M3025.35 97.7152 L3042.16 97.7152 Q3059.74 97.7152 3067.97 105.047 Q3076.19 112.339 3076.19 127.894 Q3076.19 143.531 3067.93 150.863 Q3059.66 158.195 3042.16 158.195 L3025.35 158.195 L3025.35 97.7152 Z" fill="#000000" fill-rule="nonzero" fill-opacity="1" /><path clip-path="url(#clip480)" d="M2996.59 241.842 L3004.81 241.842 L3004.81 278.584 Q3004.81 288.306 3008.34 292.6 Q3011.86 296.853 3019.76 296.853 Q3027.62 296.853 3031.14 292.6 Q3034.67 288.306 3034.67 278.584 L3034.67 241.842 L3042.89 241.842 L3042.89 279.597 Q3042.89 291.425 3037.02 297.461 Q3031.18 303.497 3019.76 303.497 Q3008.3 303.497 3002.42 297.461 Q2996.59 291.425 2996.59 279.597 L2996.59 241.842 Z" fill="#000000" fill-rule="nonzero" fill-opacity="1" /><path clip-path="url(#clip480)" d="M2838.1 97.7152 L2846.28 97.7152 L2846.28 158.195 L2838.1 158.195 L2838.1 97.7152 Z" fill="#000000" fill-rule="nonzero" fill-opacity="1" /><path clip-path="url(#clip480)" d="M2898.82 99.7001 L2898.82 107.68 Q2894.16 105.452 2890.03 104.359 Q2885.9 103.265 2882.05 103.265 Q2875.37 103.265 2871.72 105.858 Q2868.12 108.45 2868.12 113.23 Q2868.12 117.241 2870.51 119.307 Q2872.94 121.332 2879.66 122.588 L2884.6 123.6 Q2893.76 125.342 2898.09 129.758 Q2902.47 134.133 2902.47 141.505 Q2902.47 150.296 2896.55 154.833 Q2890.68 159.37 2879.3 159.37 Q2875 159.37 2870.14 158.398 Q2865.32 157.426 2860.14 155.522 L2860.14 147.096 Q2865.12 149.891 2869.9 151.309 Q2874.68 152.726 2879.3 152.726 Q2886.3 152.726 2890.11 149.972 Q2893.92 147.217 2893.92 142.113 Q2893.92 137.657 2891.17 135.146 Q2888.45 132.634 2882.21 131.378 L2877.23 130.406 Q2868.08 128.583 2863.98 124.694 Q2859.89 120.805 2859.89 113.878 Q2859.89 105.858 2865.52 101.239 Q2871.19 96.6215 2881.12 96.6215 Q2885.37 96.6215 2889.79 97.3911 Q2894.2 98.1608 2898.82 99.7001 Z" fill="#000000" fill-rule="nonzero" fill-opacity="1" /><path clip-path="url(#clip480)" d="M2847.13 241.842 L2855.36 241.842 L2855.36 278.584 Q2855.36 288.306 2858.88 292.6 Q2862.4 296.853 2870.3 296.853 Q2878.16 296.853 2881.69 292.6 Q2885.21 288.306 2885.21 278.584 L2885.21 241.842 L2893.43 241.842 L2893.43 279.597 Q2893.43 291.425 2887.56 297.461 Q2881.73 303.497 2870.3 303.497 Q2858.84 303.497 2852.97 297.461 Q2847.13 291.425 2847.13 279.597 L2847.13 241.842 Z" fill="#000000" fill-rule="nonzero" fill-opacity="1" /><path clip-path="url(#clip480)" d="M2706.24 149.567 L2706.24 133.323 L2692.88 133.323 L2692.88 126.598 L2714.35 126.598 L2714.35 152.564 Q2709.61 155.927 2703.89 157.669 Q2698.18 159.37 2691.7 159.37 Q2677.52 159.37 2669.5 151.106 Q2661.52 142.802 2661.52 128.016 Q2661.52 113.19 2669.5 104.926 Q2677.52 96.6215 2691.7 96.6215 Q2697.62 96.6215 2702.92 98.0798 Q2708.27 99.5381 2712.77 102.374 L2712.77 111.083 Q2708.23 107.235 2703.12 105.29 Q2698.02 103.346 2692.39 103.346 Q2681.29 103.346 2675.7 109.544 Q2670.15 115.742 2670.15 128.016 Q2670.15 140.25 2675.7 146.448 Q2681.29 152.645 2692.39 152.645 Q2696.72 152.645 2700.13 151.916 Q2703.53 151.147 2706.24 149.567 Z" fill="#000000" fill-rule="nonzero" fill-opacity="1" /><path clip-path="url(#clip480)" d="M2737.48 104.44 L2737.48 151.471 L2747.36 151.471 Q2759.88 151.471 2765.67 145.799 Q2771.5 140.128 2771.5 127.894 Q2771.5 115.742 2765.67 110.111 Q2759.88 104.44 2747.36 104.44 L2737.48 104.44 M2729.29 97.7152 L2746.1 97.7152 Q2763.69 97.7152 2771.91 105.047 Q2780.13 112.339 2780.13 127.894 Q2780.13 143.531 2771.87 150.863 Q2763.6 158.195 2746.1 158.195 L2729.29 158.195 L2729.29 97.7152 Z" fill="#000000" fill-rule="nonzero" fill-opacity="1" /><path clip-path="url(#clip480)" d="M2697.68 241.842 L2705.9 241.842 L2705.9 278.584 Q2705.9 288.306 2709.42 292.6 Q2712.95 296.853 2720.85 296.853 Q2728.71 296.853 2732.23 292.6 Q2735.75 288.306 2735.75 278.584 L2735.75 241.842 L2743.98 241.842 L2743.98 279.597 Q2743.98 291.425 2738.1 297.461 Q2732.27 303.497 2720.85 303.497 Q2709.38 303.497 2703.51 297.461 Q2697.68 291.425 2697.68 279.597 L2697.68 241.842 Z" fill="#000000" fill-rule="nonzero" fill-opacity="1" /><path clip-path="url(#clip480)" d="M2514.92 97.7152 L2525.94 97.7152 L2552.76 148.311 L2552.76 97.7152 L2560.7 97.7152 L2560.7 158.195 L2549.68 158.195 L2522.86 107.599 L2522.86 158.195 L2514.92 158.195 L2514.92 97.7152 Z" fill="#000000" fill-rule="nonzero" fill-opacity="1" /><path clip-path="url(#clip480)" d="M2585.16 104.44 L2585.16 151.471 L2595.05 151.471 Q2607.57 151.471 2613.36 145.799 Q2619.19 140.128 2619.19 127.894 Q2619.19 115.742 2613.36 110.111 Q2607.57 104.44 2595.05 104.44 L2585.16 104.44 M2576.98 97.7152 L2593.79 97.7152 Q2611.37 97.7152 2619.6 105.047 Q2627.82 112.339 2627.82 127.894 Q2627.82 143.531 2619.56 150.863 Q2611.29 158.195 2593.79 158.195 L2576.98 158.195 L2576.98 97.7152 Z" fill="#000000" fill-rule="nonzero" fill-opacity="1" /><path clip-path="url(#clip480)" d="M2548.22 241.842 L2556.44 241.842 L2556.44 278.584 Q2556.44 288.306 2559.97 292.6 Q2563.49 296.853 2571.39 296.853 Q2579.25 296.853 2582.77 292.6 Q2586.3 288.306 2586.3 278.584 L2586.3 241.842 L2594.52 241.842 L2594.52 279.597 Q2594.52 291.425 2588.65 297.461 Q2582.81 303.497 2571.39 303.497 Q2559.93 303.497 2554.05 297.461 Q2548.22 291.425 2548.22 279.597 L2548.22 241.842 Z" fill="#000000" fill-rule="nonzero" fill-opacity="1" /><path clip-path="url(#clip480)" d="M2394.61 105.776 L2383.51 135.875 L2405.75 135.875 L2394.61 105.776 M2389.99 97.7152 L2399.27 97.7152 L2422.32 158.195 L2413.81 158.195 L2408.3 142.68 L2381.04 142.68 L2375.53 158.195 L2366.9 158.195 L2389.99 97.7152 Z" fill="#000000" fill-rule="nonzero" fill-opacity="1" /><path clip-path="url(#clip480)" d="M2431.15 97.7152 L2442.17 97.7152 L2468.99 148.311 L2468.99 97.7152 L2476.93 97.7152 L2476.93 158.195 L2465.91 158.195 L2439.09 107.599 L2439.09 158.195 L2431.15 158.195 L2431.15 97.7152 Z" fill="#000000" fill-rule="nonzero" fill-opacity="1" /><path clip-path="url(#clip480)" d="M2398.76 241.842 L2406.99 241.842 L2406.99 278.584 Q2406.99 288.306 2410.51 292.6 Q2414.03 296.853 2421.93 296.853 Q2429.79 296.853 2433.32 292.6 Q2436.84 288.306 2436.84 278.584 L2436.84 241.842 L2445.06 241.842 L2445.06 279.597 Q2445.06 291.425 2439.19 297.461 Q2433.36 303.497 2421.93 303.497 Q2410.47 303.497 2404.6 297.461 Q2398.76 291.425 2398.76 279.597 L2398.76 241.842 Z" fill="#000000" fill-rule="nonzero" fill-opacity="1" /><path clip-path="url(#clip480)" d="M2258.3 99.7001 L2258.3 107.68 Q2253.64 105.452 2249.51 104.359 Q2245.38 103.265 2241.53 103.265 Q2234.84 103.265 2231.2 105.858 Q2227.59 108.45 2227.59 113.23 Q2227.59 117.241 2229.98 119.307 Q2232.41 121.332 2239.14 122.588 L2244.08 123.6 Q2253.24 125.342 2257.57 129.758 Q2261.95 134.133 2261.95 141.505 Q2261.95 150.296 2256.03 154.833 Q2250.16 159.37 2238.77 159.37 Q2234.48 159.37 2229.62 158.398 Q2224.8 157.426 2219.61 155.522 L2219.61 147.096 Q2224.6 149.891 2229.38 151.309 Q2234.16 152.726 2238.77 152.726 Q2245.78 152.726 2249.59 149.972 Q2253.4 147.217 2253.4 142.113 Q2253.4 137.657 2250.64 135.146 Q2247.93 132.634 2241.69 131.378 L2236.71 130.406 Q2227.55 128.583 2223.46 124.694 Q2219.37 120.805 2219.37 113.878 Q2219.37 105.858 2225 101.239 Q2230.67 96.6215 2240.6 96.6215 Q2244.85 96.6215 2249.27 97.3911 Q2253.68 98.1608 2258.3 99.7001 Z" fill="#000000" fill-rule="nonzero" fill-opacity="1" /><path clip-path="url(#clip480)" d="M2282.89 104.44 L2282.89 151.471 L2292.77 151.471 Q2305.29 151.471 2311.08 145.799 Q2316.92 140.128 2316.92 127.894 Q2316.92 115.742 2311.08 110.111 Q2305.29 104.44 2292.77 104.44 L2282.89 104.44 M2274.71 97.7152 L2291.52 97.7152 Q2309.1 97.7152 2317.32 105.047 Q2325.54 112.339 2325.54 127.894 Q2325.54 143.531 2317.28 150.863 Q2309.02 158.195 2291.52 158.195 L2274.71 158.195 L2274.71 97.7152 Z" fill="#000000" fill-rule="nonzero" fill-opacity="1" /><path clip-path="url(#clip480)" d="M2290.77 293.694 L2290.77 277.45 L2277.4 277.45 L2277.4 270.725 L2298.87 270.725 L2298.87 296.691 Q2294.13 300.054 2288.42 301.796 Q2282.71 303.497 2276.22 303.497 Q2262.05 303.497 2254.03 295.233 Q2246.05 286.929 2246.05 272.143 Q2246.05 257.317 2254.03 249.053 Q2262.05 240.748 2276.22 240.748 Q2282.14 240.748 2287.45 242.207 Q2292.79 243.665 2297.29 246.501 L2297.29 255.21 Q2292.75 251.362 2287.65 249.417 Q2282.54 247.473 2276.91 247.473 Q2265.81 247.473 2260.22 253.671 Q2254.67 259.869 2254.67 272.143 Q2254.67 284.377 2260.22 290.575 Q2265.81 296.772 2276.91 296.772 Q2281.25 296.772 2284.65 296.043 Q2288.05 295.274 2290.77 293.694 Z" fill="#000000" fill-rule="nonzero" fill-opacity="1" /><path clip-path="url(#clip480)" d="M2108.84 99.7001 L2108.84 107.68 Q2104.18 105.452 2100.05 104.359 Q2095.92 103.265 2092.07 103.265 Q2085.39 103.265 2081.74 105.858 Q2078.14 108.45 2078.14 113.23 Q2078.14 117.241 2080.53 119.307 Q2082.96 121.332 2089.68 122.588 L2094.62 123.6 Q2103.78 125.342 2108.11 129.758 Q2112.49 134.133 2112.49 141.505 Q2112.49 150.296 2106.57 154.833 Q2100.7 159.37 2089.32 159.37 Q2085.02 159.37 2080.16 158.398 Q2075.34 157.426 2070.16 155.522 L2070.16 147.096 Q2075.14 149.891 2079.92 151.309 Q2084.7 152.726 2089.32 152.726 Q2096.33 152.726 2100.13 149.972 Q2103.94 147.217 2103.94 142.113 Q2103.94 137.657 2101.19 135.146 Q2098.47 132.634 2092.23 131.378 L2087.25 130.406 Q2078.1 128.583 2074.01 124.694 Q2069.91 120.805 2069.91 113.878 Q2069.91 105.858 2075.54 101.239 Q2081.22 96.6215 2091.14 96.6215 Q2095.39 96.6215 2099.81 97.3911 Q2104.23 98.1608 2108.84 99.7001 Z" fill="#000000" fill-rule="nonzero" fill-opacity="1" /><path clip-path="url(#clip480)" d="M2133.43 104.44 L2133.43 151.471 L2143.32 151.471 Q2155.83 151.471 2161.63 145.799 Q2167.46 140.128 2167.46 127.894 Q2167.46 115.742 2161.63 110.111 Q2155.83 104.44 2143.32 104.44 L2133.43 104.44 M2125.25 97.7152 L2142.06 97.7152 Q2159.64 97.7152 2167.86 105.047 Q2176.09 112.339 2176.09 127.894 Q2176.09 143.531 2167.82 150.863 Q2159.56 158.195 2142.06 158.195 L2125.25 158.195 L2125.25 97.7152 Z" fill="#000000" fill-rule="nonzero" fill-opacity="1" /><path clip-path="url(#clip480)" d="M2141.31 293.694 L2141.31 277.45 L2127.94 277.45 L2127.94 270.725 L2149.41 270.725 L2149.41 296.691 Q2144.67 300.054 2138.96 301.796 Q2133.25 303.497 2126.77 303.497 Q2112.59 303.497 2104.57 295.233 Q2096.59 286.929 2096.59 272.143 Q2096.59 257.317 2104.57 249.053 Q2112.59 240.748 2126.77 240.748 Q2132.68 240.748 2137.99 242.207 Q2143.34 243.665 2147.83 246.501 L2147.83 255.21 Q2143.3 251.362 2138.19 249.417 Q2133.09 247.473 2127.46 247.473 Q2116.36 247.473 2110.77 253.671 Q2105.22 259.869 2105.22 272.143 Q2105.22 284.377 2110.77 290.575 Q2116.36 296.772 2127.46 296.772 Q2131.79 296.772 2135.19 296.043 Q2138.6 295.274 2141.31 293.694 Z" fill="#000000" fill-rule="nonzero" fill-opacity="1" /><path clip-path="url(#clip480)" d="M1925.01 97.7152 L1933.2 97.7152 L1933.2 151.309 L1962.65 151.309 L1962.65 158.195 L1925.01 158.195 L1925.01 97.7152 Z" fill="#000000" fill-rule="nonzero" fill-opacity="1" /><path clip-path="url(#clip480)" d="M1979.42 104.44 L1979.42 151.471 L1989.3 151.471 Q2001.82 151.471 2007.61 145.799 Q2013.45 140.128 2013.45 127.894 Q2013.45 115.742 2007.61 110.111 Q2001.82 104.44 1989.3 104.44 L1979.42 104.44 M1971.24 97.7152 L1988.05 97.7152 Q2005.63 97.7152 2013.85 105.047 Q2022.07 112.339 2022.07 127.894 Q2022.07 143.531 2013.81 150.863 Q2005.55 158.195 1988.05 158.195 L1971.24 158.195 L1971.24 97.7152 Z" fill="#000000" fill-rule="nonzero" fill-opacity="1" /><path clip-path="url(#clip480)" d="M1997.93 246.501 L1997.93 255.129 Q1993.8 251.281 1989.1 249.377 Q1984.44 247.473 1979.18 247.473 Q1968.8 247.473 1963.3 253.833 Q1957.79 260.152 1957.79 272.143 Q1957.79 284.093 1963.3 290.453 Q1968.8 296.772 1979.18 296.772 Q1984.44 296.772 1989.1 294.869 Q1993.8 292.965 1997.93 289.116 L1997.93 297.664 Q1993.64 300.58 1988.82 302.039 Q1984.04 303.497 1978.69 303.497 Q1964.96 303.497 1957.06 295.112 Q1949.16 286.686 1949.16 272.143 Q1949.16 257.56 1957.06 249.174 Q1964.96 240.748 1978.69 240.748 Q1984.12 240.748 1988.9 242.207 Q1993.72 243.625 1997.93 246.501 Z" fill="#000000" fill-rule="nonzero" fill-opacity="1" /><path clip-path="url(#clip480)" d="M1812.04 149.567 L1812.04 133.323 L1798.67 133.323 L1798.67 126.598 L1820.14 126.598 L1820.14 152.564 Q1815.4 155.927 1809.69 157.669 Q1803.98 159.37 1797.49 159.37 Q1783.32 159.37 1775.29 151.106 Q1767.31 142.802 1767.31 128.016 Q1767.31 113.19 1775.29 104.926 Q1783.32 96.6215 1797.49 96.6215 Q1803.41 96.6215 1808.71 98.0798 Q1814.06 99.5381 1818.56 102.374 L1818.56 111.083 Q1814.02 107.235 1808.92 105.29 Q1803.81 103.346 1798.18 103.346 Q1787.08 103.346 1781.49 109.544 Q1775.94 115.742 1775.94 128.016 Q1775.94 140.25 1781.49 146.448 Q1787.08 152.645 1798.18 152.645 Q1802.52 152.645 1805.92 151.916 Q1809.32 151.147 1812.04 149.567 Z" fill="#000000" fill-rule="nonzero" fill-opacity="1" /><path clip-path="url(#clip480)" d="M1835.09 97.7152 L1846.1 97.7152 L1872.92 148.311 L1872.92 97.7152 L1880.86 97.7152 L1880.86 158.195 L1869.84 158.195 L1843.03 107.599 L1843.03 158.195 L1835.09 158.195 L1835.09 97.7152 Z" fill="#000000" fill-rule="nonzero" fill-opacity="1" /><path clip-path="url(#clip480)" d="M1824.09 249.903 L1812.99 280.002 L1835.23 280.002 L1824.09 249.903 M1819.47 241.842 L1828.75 241.842 L1851.8 302.322 L1843.29 302.322 L1837.78 286.807 L1810.52 286.807 L1805.01 302.322 L1796.38 302.322 L1819.47 241.842 Z" fill="#000000" fill-rule="nonzero" fill-opacity="1" /><path clip-path="url(#clip480)" d="M1618.18 97.7152 L1629.2 97.7152 L1656.02 148.311 L1656.02 97.7152 L1663.96 97.7152 L1663.96 158.195 L1652.94 158.195 L1626.12 107.599 L1626.12 158.195 L1618.18 158.195 L1618.18 97.7152 Z" fill="#000000" fill-rule="nonzero" fill-opacity="1" /><path clip-path="url(#clip480)" d="M1688.42 104.44 L1688.42 151.471 L1698.31 151.471 Q1710.83 151.471 1716.62 145.799 Q1722.45 140.128 1722.45 127.894 Q1722.45 115.742 1716.62 110.111 Q1710.83 104.44 1698.31 104.44 L1688.42 104.44 M1680.24 97.7152 L1697.05 97.7152 Q1714.63 97.7152 1722.86 105.047 Q1731.08 112.339 1731.08 127.894 Q1731.08 143.531 1722.82 150.863 Q1714.55 158.195 1697.05 158.195 L1680.24 158.195 L1680.24 97.7152 Z" fill="#000000" fill-rule="nonzero" fill-opacity="1" /><path clip-path="url(#clip480)" d="M1651.48 241.842 L1659.7 241.842 L1659.7 278.584 Q1659.7 288.306 1663.23 292.6 Q1666.75 296.853 1674.65 296.853 Q1682.51 296.853 1686.03 292.6 Q1689.56 288.306 1689.56 278.584 L1689.56 241.842 L1697.78 241.842 L1697.78 279.597 Q1697.78 291.425 1691.91 297.461 Q1686.08 303.497 1674.65 303.497 Q1663.19 303.497 1657.31 297.461 Q1651.48 291.425 1651.48 279.597 L1651.48 241.842 Z" fill="#000000" fill-rule="nonzero" fill-opacity="1" /><path clip-path="url(#clip480)" d="M1490.72 158.195 L1467.63 97.7152 L1476.18 97.7152 L1495.34 148.635 L1514.54 97.7152 L1523.05 97.7152 L1500 158.195 L1490.72 158.195 Z" fill="#000000" fill-rule="nonzero" fill-opacity="1" /><path clip-path="url(#clip480)" d="M1540.06 104.44 L1540.06 151.471 L1549.95 151.471 Q1562.46 151.471 1568.26 145.799 Q1574.09 140.128 1574.09 127.894 Q1574.09 115.742 1568.26 110.111 Q1562.46 104.44 1549.95 104.44 L1540.06 104.44 M1531.88 97.7152 L1548.69 97.7152 Q1566.27 97.7152 1574.49 105.047 Q1582.72 112.339 1582.72 127.894 Q1582.72 143.531 1574.45 150.863 Q1566.19 158.195 1548.69 158.195 L1531.88 158.195 L1531.88 97.7152 Z" fill="#000000" fill-rule="nonzero" fill-opacity="1" /><path clip-path="url(#clip480)" d="M1502.02 241.842 L1510.25 241.842 L1510.25 278.584 Q1510.25 288.306 1513.77 292.6 Q1517.3 296.853 1525.2 296.853 Q1533.05 296.853 1536.58 292.6 Q1540.1 288.306 1540.1 278.584 L1540.1 241.842 L1548.33 241.842 L1548.33 279.597 Q1548.33 291.425 1542.45 297.461 Q1536.62 303.497 1525.2 303.497 Q1513.73 303.497 1507.86 297.461 Q1502.02 291.425 1502.02 279.597 L1502.02 241.842 Z" fill="#000000" fill-rule="nonzero" fill-opacity="1" /><path clip-path="url(#clip480)" d="M1352.69 129.839 Q1355.32 130.73 1357.79 133.647 Q1360.3 136.563 1362.82 141.668 L1371.12 158.195 L1362.33 158.195 L1354.59 142.68 Q1351.6 136.604 1348.76 134.619 Q1345.96 132.634 1341.1 132.634 L1332.19 132.634 L1332.19 158.195 L1324.01 158.195 L1324.01 97.7152 L1342.48 97.7152 Q1352.85 97.7152 1357.96 102.05 Q1363.06 106.384 1363.06 115.134 Q1363.06 120.846 1360.39 124.613 Q1357.75 128.381 1352.69 129.839 M1332.19 104.44 L1332.19 125.909 L1342.48 125.909 Q1348.4 125.909 1351.39 123.195 Q1354.43 120.441 1354.43 115.134 Q1354.43 109.827 1351.39 107.154 Q1348.4 104.44 1342.48 104.44 L1332.19 104.44 Z" fill="#000000" fill-rule="nonzero" fill-opacity="1" /><path clip-path="url(#clip480)" d="M1381.65 97.7152 L1392.67 97.7152 L1419.49 148.311 L1419.49 97.7152 L1427.43 97.7152 L1427.43 158.195 L1416.41 158.195 L1389.59 107.599 L1389.59 158.195 L1381.65 158.195 L1381.65 97.7152 Z" fill="#000000" fill-rule="nonzero" fill-opacity="1" /><path clip-path="url(#clip480)" d="M1375.72 249.903 L1364.62 280.002 L1386.86 280.002 L1375.72 249.903 M1371.1 241.842 L1380.38 241.842 L1403.43 302.322 L1394.92 302.322 L1389.41 286.807 L1362.15 286.807 L1356.64 302.322 L1348.01 302.322 L1371.1 241.842 Z" fill="#000000" fill-rule="nonzero" fill-opacity="1" /><path clip-path="url(#clip480)" d="M1181.11 104.44 L1181.11 151.471 L1191 151.471 Q1203.52 151.471 1209.31 145.799 Q1215.14 140.128 1215.14 127.894 Q1215.14 115.742 1209.31 110.111 Q1203.52 104.44 1191 104.44 L1181.11 104.44 M1172.93 97.7152 L1189.74 97.7152 Q1207.32 97.7152 1215.55 105.047 Q1223.77 112.339 1223.77 127.894 Q1223.77 143.531 1215.51 150.863 Q1207.24 158.195 1189.74 158.195 L1172.93 158.195 L1172.93 97.7152 Z" fill="#000000" fill-rule="nonzero" fill-opacity="1" /><path clip-path="url(#clip480)" d="M1228.43 97.7152 L1279.59 97.7152 L1279.59 104.602 L1258.12 104.602 L1258.12 158.195 L1249.9 158.195 L1249.9 104.602 L1228.43 104.602 L1228.43 97.7152 Z" fill="#000000" fill-rule="nonzero" fill-opacity="1" /><path clip-path="url(#clip480)" d="M1203.11 241.842 L1211.33 241.842 L1211.33 278.584 Q1211.33 288.306 1214.86 292.6 Q1218.38 296.853 1226.28 296.853 Q1234.14 296.853 1237.67 292.6 Q1241.19 288.306 1241.19 278.584 L1241.19 241.842 L1249.41 241.842 L1249.41 279.597 Q1249.41 291.425 1243.54 297.461 Q1237.71 303.497 1226.28 303.497 Q1214.82 303.497 1208.94 297.461 Q1203.11 291.425 1203.11 279.597 L1203.11 241.842 Z" fill="#000000" fill-rule="nonzero" fill-opacity="1" /><g clip-path="url(#clip480)">
<text style="fill:#000000; fill-opacity:1; font-family:Arial,Helvetica Neue,Helvetica,sans-serif; font-size:82px; font-style:italic; text-anchor:end;" transform="rotate(0, 1039.44, 230.019)" x="1039.44" y="230.019">Phylloglossum drummondii</text>
</g>
<path clip-path="url(#clip480)" d="M1093.25 800.019 L3152.76 800.019 L3152.76 494.47 L1093.25 494.47  Z" fill="#ffffff" fill-rule="evenodd" fill-opacity="1"/>
<defs>
  <clipPath id="clip483">
    <rect x="1093" y="494" width="2061" height="307"/>
  </clipPath>
</defs>
<polyline clip-path="url(#clip483)" style="stroke:#000000; stroke-linecap:round; stroke-linejoin:round; stroke-width:2; stroke-opacity:0.1; fill:none" points="1450.45,800.019 1450.45,494.47 "/>
<polyline clip-path="url(#clip483)" style="stroke:#000000; stroke-linecap:round; stroke-linejoin:round; stroke-width:2; stroke-opacity:0.1; fill:none" points="1824.09,800.019 1824.09,494.47 "/>
<polyline clip-path="url(#clip483)" style="stroke:#000000; stroke-linecap:round; stroke-linejoin:round; stroke-width:2; stroke-opacity:0.1; fill:none" points="2197.73,800.019 2197.73,494.47 "/>
<polyline clip-path="url(#clip483)" style="stroke:#000000; stroke-linecap:round; stroke-linejoin:round; stroke-width:2; stroke-opacity:0.1; fill:none" points="2571.37,800.019 2571.37,494.47 "/>
<polyline clip-path="url(#clip483)" style="stroke:#000000; stroke-linecap:round; stroke-linejoin:round; stroke-width:2; stroke-opacity:0.1; fill:none" points="2945.01,800.019 2945.01,494.47 "/>
<polyline clip-path="url(#clip483)" style="stroke:#000000; stroke-linecap:round; stroke-linejoin:round; stroke-width:2; stroke-opacity:0.1; fill:none" points="1093.25,791.371 3152.76,791.371 "/>
<polyline clip-path="url(#clip483)" style="stroke:#000000; stroke-linecap:round; stroke-linejoin:round; stroke-width:2; stroke-opacity:0.1; fill:none" points="1093.25,719.308 3152.76,719.308 "/>
<polyline clip-path="url(#clip483)" style="stroke:#000000; stroke-linecap:round; stroke-linejoin:round; stroke-width:2; stroke-opacity:0.1; fill:none" points="1093.25,647.244 3152.76,647.244 "/>
<polyline clip-path="url(#clip483)" style="stroke:#000000; stroke-linecap:round; stroke-linejoin:round; stroke-width:2; stroke-opacity:0.1; fill:none" points="1093.25,575.181 3152.76,575.181 "/>
<polyline clip-path="url(#clip483)" style="stroke:#000000; stroke-linecap:round; stroke-linejoin:round; stroke-width:2; stroke-opacity:0.1; fill:none" points="1093.25,503.117 3152.76,503.117 "/>
<path clip-path="url(#clip483)" d="M2945.01 647.244 L3094.47 647.244 L3094.47 503.117 L2945.01 503.117 L2945.01 647.244  Z" fill="#9fb6cd" fill-rule="evenodd" fill-opacity="1"/>
<polyline clip-path="url(#clip483)" style="stroke:#000000; stroke-linecap:round; stroke-linejoin:round; stroke-width:4; stroke-opacity:1; fill:none" points="2945.01,647.244 3094.47,647.244 3094.47,503.117 2945.01,503.117 2945.01,647.244 "/>
<path clip-path="url(#clip483)" d="M2945.01 791.371 L3094.47 791.371 L3094.47 647.244 L2945.01 647.244 L2945.01 791.371  Z" fill="#f5f0f0" fill-rule="evenodd" fill-opacity="0.8"/>
<polyline clip-path="url(#clip483)" style="stroke:#000000; stroke-linecap:round; stroke-linejoin:round; stroke-width:4; stroke-opacity:0.8; fill:none" points="2945.01,791.371 3094.47,791.371 3094.47,647.244 2945.01,647.244 2945.01,791.371 "/>
<path clip-path="url(#clip483)" d="M2795.55 647.244 L2945.01 647.244 L2945.01 503.117 L2795.55 503.117 L2795.55 647.244  Z" fill="#fffacd" fill-rule="evenodd" fill-opacity="1"/>
<polyline clip-path="url(#clip483)" style="stroke:#000000; stroke-linecap:round; stroke-linejoin:round; stroke-width:4; stroke-opacity:1; fill:none" points="2795.55,647.244 2945.01,647.244 2945.01,503.117 2795.55,503.117 2795.55,647.244 "/>
<path clip-path="url(#clip483)" d="M2795.55 791.371 L2945.01 791.371 L2945.01 647.244 L2795.55 647.244 L2795.55 791.371  Z" fill="#5c8e3b" fill-rule="evenodd" fill-opacity="0.8"/>
<polyline clip-path="url(#clip483)" style="stroke:#000000; stroke-linecap:round; stroke-linejoin:round; stroke-width:4; stroke-opacity:0.8; fill:none" points="2795.55,791.371 2945.01,791.371 2945.01,647.244 2795.55,647.244 2795.55,791.371 "/>
<path clip-path="url(#clip483)" d="M2646.1 647.244 L2795.55 647.244 L2795.55 503.117 L2646.1 503.117 L2646.1 647.244  Z" fill="#cd96cd" fill-rule="evenodd" fill-opacity="1"/>
<polyline clip-path="url(#clip483)" style="stroke:#000000; stroke-linecap:round; stroke-linejoin:round; stroke-width:4; stroke-opacity:1; fill:none" points="2646.1,647.244 2795.55,647.244 2795.55,503.117 2646.1,503.117 2646.1,647.244 "/>
<path clip-path="url(#clip483)" d="M2646.1 791.371 L2795.55 791.371 L2795.55 647.244 L2646.1 647.244 L2646.1 791.371  Z" fill="#f5f0f0" fill-rule="evenodd" fill-opacity="0.8"/>
<polyline clip-path="url(#clip483)" style="stroke:#000000; stroke-linecap:round; stroke-linejoin:round; stroke-width:4; stroke-opacity:0.8; fill:none" points="2646.1,791.371 2795.55,791.371 2795.55,647.244 2646.1,647.244 2646.1,791.371 "/>
<path clip-path="url(#clip483)" d="M2496.64 647.244 L2646.1 647.244 L2646.1 503.117 L2496.64 503.117 L2496.64 647.244  Z" fill="#b4eeb4" fill-rule="evenodd" fill-opacity="1"/>
<polyline clip-path="url(#clip483)" style="stroke:#000000; stroke-linecap:round; stroke-linejoin:round; stroke-width:4; stroke-opacity:1; fill:none" points="2496.64,647.244 2646.1,647.244 2646.1,503.117 2496.64,503.117 2496.64,647.244 "/>
<path clip-path="url(#clip483)" d="M2496.64 791.371 L2646.1 791.371 L2646.1 647.244 L2496.64 647.244 L2496.64 791.371  Z" fill="#0c4b00" fill-rule="evenodd" fill-opacity="0.8"/>
<polyline clip-path="url(#clip483)" style="stroke:#000000; stroke-linecap:round; stroke-linejoin:round; stroke-width:4; stroke-opacity:0.8; fill:none" points="2496.64,791.371 2646.1,791.371 2646.1,647.244 2496.64,647.244 2496.64,791.371 "/>
<path clip-path="url(#clip483)" d="M2347.19 647.244 L2496.64 647.244 L2496.64 503.117 L2347.19 503.117 L2347.19 647.244  Z" fill="#eedd82" fill-rule="evenodd" fill-opacity="1"/>
<polyline clip-path="url(#clip483)" style="stroke:#000000; stroke-linecap:round; stroke-linejoin:round; stroke-width:4; stroke-opacity:1; fill:none" points="2347.19,647.244 2496.64,647.244 2496.64,503.117 2347.19,503.117 2347.19,647.244 "/>
<path clip-path="url(#clip483)" d="M2347.19 791.371 L2496.64 791.371 L2496.64 647.244 L2347.19 647.244 L2347.19 791.371  Z" fill="#f4e2ef" fill-rule="evenodd" fill-opacity="0.8"/>
<polyline clip-path="url(#clip483)" style="stroke:#000000; stroke-linecap:round; stroke-linejoin:round; stroke-width:4; stroke-opacity:0.8; fill:none" points="2347.19,791.371 2496.64,791.371 2496.64,647.244 2347.19,647.244 2347.19,791.371 "/>
<path clip-path="url(#clip483)" d="M2197.73 647.244 L2347.19 647.244 L2347.19 503.117 L2197.73 503.117 L2197.73 647.244  Z" fill="#fa8072" fill-rule="evenodd" fill-opacity="1"/>
<polyline clip-path="url(#clip483)" style="stroke:#000000; stroke-linecap:round; stroke-linejoin:round; stroke-width:4; stroke-opacity:1; fill:none" points="2197.73,647.244 2347.19,647.244 2347.19,503.117 2197.73,503.117 2197.73,647.244 "/>
<path clip-path="url(#clip483)" d="M2197.73 791.371 L2347.19 791.371 L2347.19 647.244 L2197.73 647.244 L2197.73 791.371  Z" fill="#98bd70" fill-rule="evenodd" fill-opacity="0.8"/>
<polyline clip-path="url(#clip483)" style="stroke:#000000; stroke-linecap:round; stroke-linejoin:round; stroke-width:4; stroke-opacity:0.8; fill:none" points="2197.73,791.371 2347.19,791.371 2347.19,647.244 2197.73,647.244 2197.73,791.371 "/>
<path clip-path="url(#clip483)" d="M2048.27 647.244 L2197.73 647.244 L2197.73 503.117 L2048.27 503.117 L2048.27 647.244  Z" fill="#b4eeb4" fill-rule="evenodd" fill-opacity="1"/>
<polyline clip-path="url(#clip483)" style="stroke:#000000; stroke-linecap:round; stroke-linejoin:round; stroke-width:4; stroke-opacity:1; fill:none" points="2048.27,647.244 2197.73,647.244 2197.73,503.117 2048.27,503.117 2048.27,647.244 "/>
<path clip-path="url(#clip483)" d="M2048.27 791.371 L2197.73 791.371 L2197.73 647.244 L2048.27 647.244 L2048.27 791.371  Z" fill="#0c4b00" fill-rule="evenodd" fill-opacity="0.8"/>
<polyline clip-path="url(#clip483)" style="stroke:#000000; stroke-linecap:round; stroke-linejoin:round; stroke-width:4; stroke-opacity:0.8; fill:none" points="2048.27,791.371 2197.73,791.371 2197.73,647.244 2048.27,647.244 2048.27,791.371 "/>
<path clip-path="url(#clip483)" d="M1898.82 647.244 L2048.27 647.244 L2048.27 503.117 L1898.82 503.117 L1898.82 647.244  Z" fill="#eedd82" fill-rule="evenodd" fill-opacity="1"/>
<polyline clip-path="url(#clip483)" style="stroke:#000000; stroke-linecap:round; stroke-linejoin:round; stroke-width:4; stroke-opacity:1; fill:none" points="1898.82,647.244 2048.27,647.244 2048.27,503.117 1898.82,503.117 1898.82,647.244 "/>
<path clip-path="url(#clip483)" d="M1898.82 791.371 L2048.27 791.371 L2048.27 647.244 L1898.82 647.244 L1898.82 791.371  Z" fill="#b5d293" fill-rule="evenodd" fill-opacity="0.8"/>
<polyline clip-path="url(#clip483)" style="stroke:#000000; stroke-linecap:round; stroke-linejoin:round; stroke-width:4; stroke-opacity:0.8; fill:none" points="1898.82,791.371 2048.27,791.371 2048.27,647.244 1898.82,647.244 1898.82,791.371 "/>
<path clip-path="url(#clip483)" d="M1749.36 647.244 L1898.82 647.244 L1898.82 503.117 L1749.36 503.117 L1749.36 647.244  Z" fill="#fa8072" fill-rule="evenodd" fill-opacity="1"/>
<polyline clip-path="url(#clip483)" style="stroke:#000000; stroke-linecap:round; stroke-linejoin:round; stroke-width:4; stroke-opacity:1; fill:none" points="1749.36,647.244 1898.82,647.244 1898.82,503.117 1749.36,503.117 1749.36,647.244 "/>
<path clip-path="url(#clip483)" d="M1749.36 791.371 L1898.82 791.371 L1898.82 647.244 L1749.36 647.244 L1749.36 791.371  Z" fill="#f2d9eb" fill-rule="evenodd" fill-opacity="0.8"/>
<polyline clip-path="url(#clip483)" style="stroke:#000000; stroke-linecap:round; stroke-linejoin:round; stroke-width:4; stroke-opacity:0.8; fill:none" points="1749.36,791.371 1898.82,791.371 1898.82,647.244 1749.36,647.244 1749.36,791.371 "/>
<path clip-path="url(#clip483)" d="M1599.9 647.244 L1749.36 647.244 L1749.36 503.117 L1599.9 503.117 L1599.9 647.244  Z" fill="#b4eeb4" fill-rule="evenodd" fill-opacity="1"/>
<polyline clip-path="url(#clip483)" style="stroke:#000000; stroke-linecap:round; stroke-linejoin:round; stroke-width:4; stroke-opacity:1; fill:none" points="1599.9,647.244 1749.36,647.244 1749.36,503.117 1599.9,503.117 1599.9,647.244 "/>
<path clip-path="url(#clip483)" d="M1599.9 791.371 L1749.36 791.371 L1749.36 647.244 L1599.9 647.244 L1599.9 791.371  Z" fill="#0c4b00" fill-rule="evenodd" fill-opacity="0.8"/>
<polyline clip-path="url(#clip483)" style="stroke:#000000; stroke-linecap:round; stroke-linejoin:round; stroke-width:4; stroke-opacity:0.8; fill:none" points="1599.9,791.371 1749.36,791.371 1749.36,647.244 1599.9,647.244 1599.9,791.371 "/>
<path clip-path="url(#clip483)" d="M1450.45 647.244 L1599.9 647.244 L1599.9 503.117 L1450.45 503.117 L1450.45 647.244  Z" fill="#eedd82" fill-rule="evenodd" fill-opacity="1"/>
<polyline clip-path="url(#clip483)" style="stroke:#000000; stroke-linecap:round; stroke-linejoin:round; stroke-width:4; stroke-opacity:1; fill:none" points="1450.45,647.244 1599.9,647.244 1599.9,503.117 1450.45,503.117 1450.45,647.244 "/>
<path clip-path="url(#clip483)" d="M1450.45 791.371 L1599.9 791.371 L1599.9 647.244 L1450.45 647.244 L1450.45 791.371  Z" fill="#ecf1e1" fill-rule="evenodd" fill-opacity="0.8"/>
<polyline clip-path="url(#clip483)" style="stroke:#000000; stroke-linecap:round; stroke-linejoin:round; stroke-width:4; stroke-opacity:0.8; fill:none" points="1450.45,791.371 1599.9,791.371 1599.9,647.244 1450.45,647.244 1450.45,791.371 "/>
<path clip-path="url(#clip483)" d="M1300.99 647.244 L1450.45 647.244 L1450.45 503.117 L1300.99 503.117 L1300.99 647.244  Z" fill="#fa8072" fill-rule="evenodd" fill-opacity="1"/>
<polyline clip-path="url(#clip483)" style="stroke:#000000; stroke-linecap:round; stroke-linejoin:round; stroke-width:4; stroke-opacity:1; fill:none" points="1300.99,647.244 1450.45,647.244 1450.45,503.117 1300.99,503.117 1300.99,647.244 "/>
<path clip-path="url(#clip483)" d="M1300.99 791.371 L1450.45 791.371 L1450.45 647.244 L1300.99 647.244 L1300.99 791.371  Z" fill="#f5f0f0" fill-rule="evenodd" fill-opacity="0.8"/>
<polyline clip-path="url(#clip483)" style="stroke:#000000; stroke-linecap:round; stroke-linejoin:round; stroke-width:4; stroke-opacity:0.8; fill:none" points="1300.99,791.371 1450.45,791.371 1450.45,647.244 1300.99,647.244 1300.99,791.371 "/>
<path clip-path="url(#clip483)" d="M1151.53 647.244 L1300.99 647.244 L1300.99 503.117 L1151.53 503.117 L1151.53 647.244  Z" fill="#c0c0c0" fill-rule="evenodd" fill-opacity="1"/>
<polyline clip-path="url(#clip483)" style="stroke:#000000; stroke-linecap:round; stroke-linejoin:round; stroke-width:4; stroke-opacity:1; fill:none" points="1151.53,647.244 1300.99,647.244 1300.99,503.117 1151.53,503.117 1151.53,647.244 "/>
<path clip-path="url(#clip483)" d="M1151.53 791.371 L1300.99 791.371 L1300.99 647.244 L1151.53 647.244 L1151.53 791.371  Z" fill="#c0c0c0" fill-rule="evenodd" fill-opacity="0.8"/>
<polyline clip-path="url(#clip483)" style="stroke:#000000; stroke-linecap:round; stroke-linejoin:round; stroke-width:4; stroke-opacity:0.8; fill:none" points="1151.53,791.371 1300.99,791.371 1300.99,647.244 1151.53,647.244 1151.53,791.371 "/>
<path clip-path="url(#clip480)" d="M2963.29 544.941 L2974.31 544.941 L3001.13 595.536 L3001.13 544.941 L3009.07 544.941 L3009.07 605.421 L2998.05 605.421 L2971.23 554.825 L2971.23 605.421 L2963.29 605.421 L2963.29 544.941 Z" fill="#000000" fill-rule="nonzero" fill-opacity="1" /><path clip-path="url(#clip480)" d="M3033.53 551.665 L3033.53 598.696 L3043.42 598.696 Q3055.93 598.696 3061.73 593.025 Q3067.56 587.354 3067.56 575.12 Q3067.56 562.967 3061.73 557.336 Q3055.93 551.665 3043.42 551.665 L3033.53 551.665 M3025.35 544.941 L3042.16 544.941 Q3059.74 544.941 3067.97 552.273 Q3076.19 559.564 3076.19 575.12 Q3076.19 590.756 3067.93 598.088 Q3059.66 605.421 3042.16 605.421 L3025.35 605.421 L3025.35 544.941 Z" fill="#000000" fill-rule="nonzero" fill-opacity="1" /><path clip-path="url(#clip480)" d="M2996.59 689.068 L3004.81 689.068 L3004.81 725.809 Q3004.81 735.531 3008.34 739.825 Q3011.86 744.079 3019.76 744.079 Q3027.62 744.079 3031.14 739.825 Q3034.67 735.531 3034.67 725.809 L3034.67 689.068 L3042.89 689.068 L3042.89 726.822 Q3042.89 738.651 3037.02 744.686 Q3031.18 750.722 3019.76 750.722 Q3008.3 750.722 3002.42 744.686 Q2996.59 738.651 2996.59 726.822 L2996.59 689.068 Z" fill="#000000" fill-rule="nonzero" fill-opacity="1" /><path clip-path="url(#clip480)" d="M2838.1 544.941 L2846.28 544.941 L2846.28 605.421 L2838.1 605.421 L2838.1 544.941 Z" fill="#000000" fill-rule="nonzero" fill-opacity="1" /><path clip-path="url(#clip480)" d="M2898.82 546.926 L2898.82 554.906 Q2894.16 552.678 2890.03 551.584 Q2885.9 550.49 2882.05 550.49 Q2875.37 550.49 2871.72 553.083 Q2868.12 555.676 2868.12 560.456 Q2868.12 564.466 2870.51 566.532 Q2872.94 568.557 2879.66 569.813 L2884.6 570.826 Q2893.76 572.568 2898.09 576.983 Q2902.47 581.358 2902.47 588.731 Q2902.47 597.521 2896.55 602.058 Q2890.68 606.595 2879.3 606.595 Q2875 606.595 2870.14 605.623 Q2865.32 604.651 2860.14 602.747 L2860.14 594.321 Q2865.12 597.116 2869.9 598.534 Q2874.68 599.952 2879.3 599.952 Q2886.3 599.952 2890.11 597.197 Q2893.92 594.443 2893.92 589.339 Q2893.92 584.883 2891.17 582.371 Q2888.45 579.859 2882.21 578.604 L2877.23 577.631 Q2868.08 575.808 2863.98 571.92 Q2859.89 568.031 2859.89 561.104 Q2859.89 553.083 2865.52 548.465 Q2871.19 543.847 2881.12 543.847 Q2885.37 543.847 2889.79 544.617 Q2894.2 545.386 2898.82 546.926 Z" fill="#000000" fill-rule="nonzero" fill-opacity="1" /><path clip-path="url(#clip480)" d="M2847.13 689.068 L2855.36 689.068 L2855.36 725.809 Q2855.36 735.531 2858.88 739.825 Q2862.4 744.079 2870.3 744.079 Q2878.16 744.079 2881.69 739.825 Q2885.21 735.531 2885.21 725.809 L2885.21 689.068 L2893.43 689.068 L2893.43 726.822 Q2893.43 738.651 2887.56 744.686 Q2881.73 750.722 2870.3 750.722 Q2858.84 750.722 2852.97 744.686 Q2847.13 738.651 2847.13 726.822 L2847.13 689.068 Z" fill="#000000" fill-rule="nonzero" fill-opacity="1" /><path clip-path="url(#clip480)" d="M2706.24 596.792 L2706.24 580.548 L2692.88 580.548 L2692.88 573.824 L2714.35 573.824 L2714.35 599.79 Q2709.61 603.152 2703.89 604.894 Q2698.18 606.595 2691.7 606.595 Q2677.52 606.595 2669.5 598.332 Q2661.52 590.027 2661.52 575.241 Q2661.52 560.415 2669.5 552.151 Q2677.52 543.847 2691.7 543.847 Q2697.62 543.847 2702.92 545.305 Q2708.27 546.764 2712.77 549.599 L2712.77 558.309 Q2708.23 554.46 2703.12 552.516 Q2698.02 550.571 2692.39 550.571 Q2681.29 550.571 2675.7 556.769 Q2670.15 562.967 2670.15 575.241 Q2670.15 587.475 2675.7 593.673 Q2681.29 599.871 2692.39 599.871 Q2696.72 599.871 2700.13 599.142 Q2703.53 598.372 2706.24 596.792 Z" fill="#000000" fill-rule="nonzero" fill-opacity="1" /><path clip-path="url(#clip480)" d="M2737.48 551.665 L2737.48 598.696 L2747.36 598.696 Q2759.88 598.696 2765.67 593.025 Q2771.5 587.354 2771.5 575.12 Q2771.5 562.967 2765.67 557.336 Q2759.88 551.665 2747.36 551.665 L2737.48 551.665 M2729.29 544.941 L2746.1 544.941 Q2763.69 544.941 2771.91 552.273 Q2780.13 559.564 2780.13 575.12 Q2780.13 590.756 2771.87 598.088 Q2763.6 605.421 2746.1 605.421 L2729.29 605.421 L2729.29 544.941 Z" fill="#000000" fill-rule="nonzero" fill-opacity="1" /><path clip-path="url(#clip480)" d="M2697.68 689.068 L2705.9 689.068 L2705.9 725.809 Q2705.9 735.531 2709.42 739.825 Q2712.95 744.079 2720.85 744.079 Q2728.71 744.079 2732.23 739.825 Q2735.75 735.531 2735.75 725.809 L2735.75 689.068 L2743.98 689.068 L2743.98 726.822 Q2743.98 738.651 2738.1 744.686 Q2732.27 750.722 2720.85 750.722 Q2709.38 750.722 2703.51 744.686 Q2697.68 738.651 2697.68 726.822 L2697.68 689.068 Z" fill="#000000" fill-rule="nonzero" fill-opacity="1" /><path clip-path="url(#clip480)" d="M2514.92 544.941 L2525.94 544.941 L2552.76 595.536 L2552.76 544.941 L2560.7 544.941 L2560.7 605.421 L2549.68 605.421 L2522.86 554.825 L2522.86 605.421 L2514.92 605.421 L2514.92 544.941 Z" fill="#000000" fill-rule="nonzero" fill-opacity="1" /><path clip-path="url(#clip480)" d="M2585.16 551.665 L2585.16 598.696 L2595.05 598.696 Q2607.57 598.696 2613.36 593.025 Q2619.19 587.354 2619.19 575.12 Q2619.19 562.967 2613.36 557.336 Q2607.57 551.665 2595.05 551.665 L2585.16 551.665 M2576.98 544.941 L2593.79 544.941 Q2611.37 544.941 2619.6 552.273 Q2627.82 559.564 2627.82 575.12 Q2627.82 590.756 2619.56 598.088 Q2611.29 605.421 2593.79 605.421 L2576.98 605.421 L2576.98 544.941 Z" fill="#000000" fill-rule="nonzero" fill-opacity="1" /><path clip-path="url(#clip480)" d="M2548.22 689.068 L2556.44 689.068 L2556.44 725.809 Q2556.44 735.531 2559.97 739.825 Q2563.49 744.079 2571.39 744.079 Q2579.25 744.079 2582.77 739.825 Q2586.3 735.531 2586.3 725.809 L2586.3 689.068 L2594.52 689.068 L2594.52 726.822 Q2594.52 738.651 2588.65 744.686 Q2582.81 750.722 2571.39 750.722 Q2559.93 750.722 2554.05 744.686 Q2548.22 738.651 2548.22 726.822 L2548.22 689.068 Z" fill="#000000" fill-rule="nonzero" fill-opacity="1" /><path clip-path="url(#clip480)" d="M2394.61 553.002 L2383.51 583.1 L2405.75 583.1 L2394.61 553.002 M2389.99 544.941 L2399.27 544.941 L2422.32 605.421 L2413.81 605.421 L2408.3 589.906 L2381.04 589.906 L2375.53 605.421 L2366.9 605.421 L2389.99 544.941 Z" fill="#000000" fill-rule="nonzero" fill-opacity="1" /><path clip-path="url(#clip480)" d="M2431.15 544.941 L2442.17 544.941 L2468.99 595.536 L2468.99 544.941 L2476.93 544.941 L2476.93 605.421 L2465.91 605.421 L2439.09 554.825 L2439.09 605.421 L2431.15 605.421 L2431.15 544.941 Z" fill="#000000" fill-rule="nonzero" fill-opacity="1" /><path clip-path="url(#clip480)" d="M2398.76 689.068 L2406.99 689.068 L2406.99 725.809 Q2406.99 735.531 2410.51 739.825 Q2414.03 744.079 2421.93 744.079 Q2429.79 744.079 2433.32 739.825 Q2436.84 735.531 2436.84 725.809 L2436.84 689.068 L2445.06 689.068 L2445.06 726.822 Q2445.06 738.651 2439.19 744.686 Q2433.36 750.722 2421.93 750.722 Q2410.47 750.722 2404.6 744.686 Q2398.76 738.651 2398.76 726.822 L2398.76 689.068 Z" fill="#000000" fill-rule="nonzero" fill-opacity="1" /><path clip-path="url(#clip480)" d="M2258.3 546.926 L2258.3 554.906 Q2253.64 552.678 2249.51 551.584 Q2245.38 550.49 2241.53 550.49 Q2234.84 550.49 2231.2 553.083 Q2227.59 555.676 2227.59 560.456 Q2227.59 564.466 2229.98 566.532 Q2232.41 568.557 2239.14 569.813 L2244.08 570.826 Q2253.24 572.568 2257.57 576.983 Q2261.95 581.358 2261.95 588.731 Q2261.95 597.521 2256.03 602.058 Q2250.16 606.595 2238.77 606.595 Q2234.48 606.595 2229.62 605.623 Q2224.8 604.651 2219.61 602.747 L2219.61 594.321 Q2224.6 597.116 2229.38 598.534 Q2234.16 599.952 2238.77 599.952 Q2245.78 599.952 2249.59 597.197 Q2253.4 594.443 2253.4 589.339 Q2253.4 584.883 2250.64 582.371 Q2247.93 579.859 2241.69 578.604 L2236.71 577.631 Q2227.55 575.808 2223.46 571.92 Q2219.37 568.031 2219.37 561.104 Q2219.37 553.083 2225 548.465 Q2230.67 543.847 2240.6 543.847 Q2244.85 543.847 2249.27 544.617 Q2253.68 545.386 2258.3 546.926 Z" fill="#000000" fill-rule="nonzero" fill-opacity="1" /><path clip-path="url(#clip480)" d="M2282.89 551.665 L2282.89 598.696 L2292.77 598.696 Q2305.29 598.696 2311.08 593.025 Q2316.92 587.354 2316.92 575.12 Q2316.92 562.967 2311.08 557.336 Q2305.29 551.665 2292.77 551.665 L2282.89 551.665 M2274.71 544.941 L2291.52 544.941 Q2309.1 544.941 2317.32 552.273 Q2325.54 559.564 2325.54 575.12 Q2325.54 590.756 2317.28 598.088 Q2309.02 605.421 2291.52 605.421 L2274.71 605.421 L2274.71 544.941 Z" fill="#000000" fill-rule="nonzero" fill-opacity="1" /><path clip-path="url(#clip480)" d="M2290.77 740.919 L2290.77 724.675 L2277.4 724.675 L2277.4 717.951 L2298.87 717.951 L2298.87 743.917 Q2294.13 747.279 2288.42 749.021 Q2282.71 750.722 2276.22 750.722 Q2262.05 750.722 2254.03 742.458 Q2246.05 734.154 2246.05 719.368 Q2246.05 704.542 2254.03 696.278 Q2262.05 687.974 2276.22 687.974 Q2282.14 687.974 2287.45 689.432 Q2292.79 690.89 2297.29 693.726 L2297.29 702.436 Q2292.75 698.587 2287.65 696.643 Q2282.54 694.698 2276.91 694.698 Q2265.81 694.698 2260.22 700.896 Q2254.67 707.094 2254.67 719.368 Q2254.67 731.602 2260.22 737.8 Q2265.81 743.998 2276.91 743.998 Q2281.25 743.998 2284.65 743.269 Q2288.05 742.499 2290.77 740.919 Z" fill="#000000" fill-rule="nonzero" fill-opacity="1" /><path clip-path="url(#clip480)" d="M2108.84 546.926 L2108.84 554.906 Q2104.18 552.678 2100.05 551.584 Q2095.92 550.49 2092.07 550.49 Q2085.39 550.49 2081.74 553.083 Q2078.14 555.676 2078.14 560.456 Q2078.14 564.466 2080.53 566.532 Q2082.96 568.557 2089.68 569.813 L2094.62 570.826 Q2103.78 572.568 2108.11 576.983 Q2112.49 581.358 2112.49 588.731 Q2112.49 597.521 2106.57 602.058 Q2100.7 606.595 2089.32 606.595 Q2085.02 606.595 2080.16 605.623 Q2075.34 604.651 2070.16 602.747 L2070.16 594.321 Q2075.14 597.116 2079.92 598.534 Q2084.7 599.952 2089.32 599.952 Q2096.33 599.952 2100.13 597.197 Q2103.94 594.443 2103.94 589.339 Q2103.94 584.883 2101.19 582.371 Q2098.47 579.859 2092.23 578.604 L2087.25 577.631 Q2078.1 575.808 2074.01 571.92 Q2069.91 568.031 2069.91 561.104 Q2069.91 553.083 2075.54 548.465 Q2081.22 543.847 2091.14 543.847 Q2095.39 543.847 2099.81 544.617 Q2104.23 545.386 2108.84 546.926 Z" fill="#000000" fill-rule="nonzero" fill-opacity="1" /><path clip-path="url(#clip480)" d="M2133.43 551.665 L2133.43 598.696 L2143.32 598.696 Q2155.83 598.696 2161.63 593.025 Q2167.46 587.354 2167.46 575.12 Q2167.46 562.967 2161.63 557.336 Q2155.83 551.665 2143.32 551.665 L2133.43 551.665 M2125.25 544.941 L2142.06 544.941 Q2159.64 544.941 2167.86 552.273 Q2176.09 559.564 2176.09 575.12 Q2176.09 590.756 2167.82 598.088 Q2159.56 605.421 2142.06 605.421 L2125.25 605.421 L2125.25 544.941 Z" fill="#000000" fill-rule="nonzero" fill-opacity="1" /><path clip-path="url(#clip480)" d="M2141.31 740.919 L2141.31 724.675 L2127.94 724.675 L2127.94 717.951 L2149.41 717.951 L2149.41 743.917 Q2144.67 747.279 2138.96 749.021 Q2133.25 750.722 2126.77 750.722 Q2112.59 750.722 2104.57 742.458 Q2096.59 734.154 2096.59 719.368 Q2096.59 704.542 2104.57 696.278 Q2112.59 687.974 2126.77 687.974 Q2132.68 687.974 2137.99 689.432 Q2143.34 690.89 2147.83 693.726 L2147.83 702.436 Q2143.3 698.587 2138.19 696.643 Q2133.09 694.698 2127.46 694.698 Q2116.36 694.698 2110.77 700.896 Q2105.22 707.094 2105.22 719.368 Q2105.22 731.602 2110.77 737.8 Q2116.36 743.998 2127.46 743.998 Q2131.79 743.998 2135.19 743.269 Q2138.6 742.499 2141.31 740.919 Z" fill="#000000" fill-rule="nonzero" fill-opacity="1" /><path clip-path="url(#clip480)" d="M1925.01 544.941 L1933.2 544.941 L1933.2 598.534 L1962.65 598.534 L1962.65 605.421 L1925.01 605.421 L1925.01 544.941 Z" fill="#000000" fill-rule="nonzero" fill-opacity="1" /><path clip-path="url(#clip480)" d="M1979.42 551.665 L1979.42 598.696 L1989.3 598.696 Q2001.82 598.696 2007.61 593.025 Q2013.45 587.354 2013.45 575.12 Q2013.45 562.967 2007.61 557.336 Q2001.82 551.665 1989.3 551.665 L1979.42 551.665 M1971.24 544.941 L1988.05 544.941 Q2005.63 544.941 2013.85 552.273 Q2022.07 559.564 2022.07 575.12 Q2022.07 590.756 2013.81 598.088 Q2005.55 605.421 1988.05 605.421 L1971.24 605.421 L1971.24 544.941 Z" fill="#000000" fill-rule="nonzero" fill-opacity="1" /><path clip-path="url(#clip480)" d="M1997.93 693.726 L1997.93 702.355 Q1993.8 698.506 1989.1 696.602 Q1984.44 694.698 1979.18 694.698 Q1968.8 694.698 1963.3 701.058 Q1957.79 707.378 1957.79 719.368 Q1957.79 731.319 1963.3 737.678 Q1968.8 743.998 1979.18 743.998 Q1984.44 743.998 1989.1 742.094 Q1993.8 740.19 1997.93 736.342 L1997.93 744.889 Q1993.64 747.806 1988.82 749.264 Q1984.04 750.722 1978.69 750.722 Q1964.96 750.722 1957.06 742.337 Q1949.16 733.911 1949.16 719.368 Q1949.16 704.785 1957.06 696.4 Q1964.96 687.974 1978.69 687.974 Q1984.12 687.974 1988.9 689.432 Q1993.72 690.85 1997.93 693.726 Z" fill="#000000" fill-rule="nonzero" fill-opacity="1" /><path clip-path="url(#clip480)" d="M1812.04 596.792 L1812.04 580.548 L1798.67 580.548 L1798.67 573.824 L1820.14 573.824 L1820.14 599.79 Q1815.4 603.152 1809.69 604.894 Q1803.98 606.595 1797.49 606.595 Q1783.32 606.595 1775.29 598.332 Q1767.31 590.027 1767.31 575.241 Q1767.31 560.415 1775.29 552.151 Q1783.32 543.847 1797.49 543.847 Q1803.41 543.847 1808.71 545.305 Q1814.06 546.764 1818.56 549.599 L1818.56 558.309 Q1814.02 554.46 1808.92 552.516 Q1803.81 550.571 1798.18 550.571 Q1787.08 550.571 1781.49 556.769 Q1775.94 562.967 1775.94 575.241 Q1775.94 587.475 1781.49 593.673 Q1787.08 599.871 1798.18 599.871 Q1802.52 599.871 1805.92 599.142 Q1809.32 598.372 1812.04 596.792 Z" fill="#000000" fill-rule="nonzero" fill-opacity="1" /><path clip-path="url(#clip480)" d="M1835.09 544.941 L1846.1 544.941 L1872.92 595.536 L1872.92 544.941 L1880.86 544.941 L1880.86 605.421 L1869.84 605.421 L1843.03 554.825 L1843.03 605.421 L1835.09 605.421 L1835.09 544.941 Z" fill="#000000" fill-rule="nonzero" fill-opacity="1" /><path clip-path="url(#clip480)" d="M1824.09 697.129 L1812.99 727.227 L1835.23 727.227 L1824.09 697.129 M1819.47 689.068 L1828.75 689.068 L1851.8 749.548 L1843.29 749.548 L1837.78 734.033 L1810.52 734.033 L1805.01 749.548 L1796.38 749.548 L1819.47 689.068 Z" fill="#000000" fill-rule="nonzero" fill-opacity="1" /><path clip-path="url(#clip480)" d="M1618.18 544.941 L1629.2 544.941 L1656.02 595.536 L1656.02 544.941 L1663.96 544.941 L1663.96 605.421 L1652.94 605.421 L1626.12 554.825 L1626.12 605.421 L1618.18 605.421 L1618.18 544.941 Z" fill="#000000" fill-rule="nonzero" fill-opacity="1" /><path clip-path="url(#clip480)" d="M1688.42 551.665 L1688.42 598.696 L1698.31 598.696 Q1710.83 598.696 1716.62 593.025 Q1722.45 587.354 1722.45 575.12 Q1722.45 562.967 1716.62 557.336 Q1710.83 551.665 1698.31 551.665 L1688.42 551.665 M1680.24 544.941 L1697.05 544.941 Q1714.63 544.941 1722.86 552.273 Q1731.08 559.564 1731.08 575.12 Q1731.08 590.756 1722.82 598.088 Q1714.55 605.421 1697.05 605.421 L1680.24 605.421 L1680.24 544.941 Z" fill="#000000" fill-rule="nonzero" fill-opacity="1" /><path clip-path="url(#clip480)" d="M1651.48 689.068 L1659.7 689.068 L1659.7 725.809 Q1659.7 735.531 1663.23 739.825 Q1666.75 744.079 1674.65 744.079 Q1682.51 744.079 1686.03 739.825 Q1689.56 735.531 1689.56 725.809 L1689.56 689.068 L1697.78 689.068 L1697.78 726.822 Q1697.78 738.651 1691.91 744.686 Q1686.08 750.722 1674.65 750.722 Q1663.19 750.722 1657.31 744.686 Q1651.48 738.651 1651.48 726.822 L1651.48 689.068 Z" fill="#000000" fill-rule="nonzero" fill-opacity="1" /><path clip-path="url(#clip480)" d="M1490.72 605.421 L1467.63 544.941 L1476.18 544.941 L1495.34 595.86 L1514.54 544.941 L1523.05 544.941 L1500 605.421 L1490.72 605.421 Z" fill="#000000" fill-rule="nonzero" fill-opacity="1" /><path clip-path="url(#clip480)" d="M1540.06 551.665 L1540.06 598.696 L1549.95 598.696 Q1562.46 598.696 1568.26 593.025 Q1574.09 587.354 1574.09 575.12 Q1574.09 562.967 1568.26 557.336 Q1562.46 551.665 1549.95 551.665 L1540.06 551.665 M1531.88 544.941 L1548.69 544.941 Q1566.27 544.941 1574.49 552.273 Q1582.72 559.564 1582.72 575.12 Q1582.72 590.756 1574.45 598.088 Q1566.19 605.421 1548.69 605.421 L1531.88 605.421 L1531.88 544.941 Z" fill="#000000" fill-rule="nonzero" fill-opacity="1" /><path clip-path="url(#clip480)" d="M1502.02 689.068 L1510.25 689.068 L1510.25 725.809 Q1510.25 735.531 1513.77 739.825 Q1517.3 744.079 1525.2 744.079 Q1533.05 744.079 1536.58 739.825 Q1540.1 735.531 1540.1 725.809 L1540.1 689.068 L1548.33 689.068 L1548.33 726.822 Q1548.33 738.651 1542.45 744.686 Q1536.62 750.722 1525.2 750.722 Q1513.73 750.722 1507.86 744.686 Q1502.02 738.651 1502.02 726.822 L1502.02 689.068 Z" fill="#000000" fill-rule="nonzero" fill-opacity="1" /><path clip-path="url(#clip480)" d="M1352.69 577.064 Q1355.32 577.955 1357.79 580.872 Q1360.3 583.789 1362.82 588.893 L1371.12 605.421 L1362.33 605.421 L1354.59 589.906 Q1351.6 583.829 1348.76 581.844 Q1345.96 579.859 1341.1 579.859 L1332.19 579.859 L1332.19 605.421 L1324.01 605.421 L1324.01 544.941 L1342.48 544.941 Q1352.85 544.941 1357.96 549.275 Q1363.06 553.61 1363.06 562.359 Q1363.06 568.071 1360.39 571.839 Q1357.75 575.606 1352.69 577.064 M1332.19 551.665 L1332.19 573.135 L1342.48 573.135 Q1348.4 573.135 1351.39 570.421 Q1354.43 567.666 1354.43 562.359 Q1354.43 557.053 1351.39 554.379 Q1348.4 551.665 1342.48 551.665 L1332.19 551.665 Z" fill="#000000" fill-rule="nonzero" fill-opacity="1" /><path clip-path="url(#clip480)" d="M1381.65 544.941 L1392.67 544.941 L1419.49 595.536 L1419.49 544.941 L1427.43 544.941 L1427.43 605.421 L1416.41 605.421 L1389.59 554.825 L1389.59 605.421 L1381.65 605.421 L1381.65 544.941 Z" fill="#000000" fill-rule="nonzero" fill-opacity="1" /><path clip-path="url(#clip480)" d="M1375.72 697.129 L1364.62 727.227 L1386.86 727.227 L1375.72 697.129 M1371.1 689.068 L1380.38 689.068 L1403.43 749.548 L1394.92 749.548 L1389.41 734.033 L1362.15 734.033 L1356.64 749.548 L1348.01 749.548 L1371.1 689.068 Z" fill="#000000" fill-rule="nonzero" fill-opacity="1" /><path clip-path="url(#clip480)" d="M1203.11 689.068 L1211.33 689.068 L1211.33 725.809 Q1211.33 735.531 1214.86 739.825 Q1218.38 744.079 1226.28 744.079 Q1234.14 744.079 1237.67 739.825 Q1241.19 735.531 1241.19 725.809 L1241.19 689.068 L1249.41 689.068 L1249.41 726.822 Q1249.41 738.651 1243.54 744.686 Q1237.71 750.722 1226.28 750.722 Q1214.82 750.722 1208.94 744.686 Q1203.11 738.651 1203.11 726.822 L1203.11 689.068 Z" fill="#000000" fill-rule="nonzero" fill-opacity="1" /><g clip-path="url(#clip480)">
<text style="fill:#000000; fill-opacity:1; font-family:Arial,Helvetica Neue,Helvetica,sans-serif; font-size:82px; font-style:italic; text-anchor:end;" transform="rotate(0, 1039.44, 677.244)" x="1039.44" y="677.244">Huperzia serrata</text>
</g>
</svg>
