<?xml version="1.0" encoding="utf-8"?>
<svg xmlns="http://www.w3.org/2000/svg" xmlns:xlink="http://www.w3.org/1999/xlink" width="1200" height="300" viewBox="0 0 4800 1200">
<defs>
  <clipPath id="clip400">
    <rect x="0" y="0" width="4800" height="1200"/>
  </clipPath>
</defs>
<path clip-path="url(#clip400)" d="M0 1200 L4800 1200 L4800 0 L0 0  Z" fill="#ffffff" fill-rule="evenodd" fill-opacity="1"/>
<defs>
  <clipPath id="clip401">
    <rect x="960" y="0" width="3361" height="1200"/>
  </clipPath>
</defs>
<path clip-path="url(#clip400)" d="M204.66 932.947 L1152.76 932.947 L1152.76 47.2441 L204.66 47.2441  Z" fill="#ffffff" fill-rule="evenodd" fill-opacity="1"/>
<defs>
  <clipPath id="clip402">
    <rect x="204" y="47" width="949" height="887"/>
  </clipPath>
</defs>
<polyline clip-path="url(#clip402)" style="stroke:#000000; stroke-linecap:round; stroke-linejoin:round; stroke-width:2; stroke-opacity:0.1; fill:none" points="444.319,932.947 444.319,47.2441 "/>
<polyline clip-path="url(#clip402)" style="stroke:#000000; stroke-linecap:round; stroke-linejoin:round; stroke-width:2; stroke-opacity:0.1; fill:none" points="913.097,932.947 913.097,47.2441 "/>
<polyline clip-path="url(#clip400)" style="stroke:#000000; stroke-linecap:round; stroke-linejoin:round; stroke-width:4; stroke-opacity:1; fill:none" points="204.66,932.947 1152.76,932.947 "/>
<polyline clip-path="url(#clip400)" style="stroke:#000000; stroke-linecap:round; stroke-linejoin:round; stroke-width:4; stroke-opacity:1; fill:none" points="204.66,47.2441 1152.76,47.2441 "/>
<polyline clip-path="url(#clip400)" style="stroke:#000000; stroke-linecap:round; stroke-linejoin:round; stroke-width:4; stroke-opacity:1; fill:none" points="444.319,932.947 444.319,914.049 "/>
<polyline clip-path="url(#clip400)" style="stroke:#000000; stroke-linecap:round; stroke-linejoin:round; stroke-width:4; stroke-opacity:1; fill:none" points="913.097,932.947 913.097,914.049 "/>
<g clip-path="url(#clip400)">
<text style="fill:#000000; fill-opacity:1; font-family:Arial,Helvetica Neue,Helvetica,sans-serif; font-size:59px; font-weight:bold; text-anchor:middle;" transform="rotate(0, 444.319, 1024.28)" x="444.319" y="1024.28">cp</text>
</g>
<g clip-path="url(#clip400)">
<text style="fill:#000000; fill-opacity:1; font-family:Arial,Helvetica Neue,Helvetica,sans-serif; font-size:59px; font-weight:bold; text-anchor:middle;" transform="rotate(0, 913.097, 1024.28)" x="913.097" y="1024.28">mt</text>
</g>
<g clip-path="url(#clip400)">
<text style="fill:#000000; fill-opacity:1; font-family:Arial,Helvetica Neue,Helvetica,sans-serif; font-size:71px; text-anchor:middle;" transform="rotate(0, 678.708, 1132.87)" x="678.708" y="1132.87">editing direction</text>
</g>
<polyline clip-path="url(#clip402)" style="stroke:#000000; stroke-linecap:round; stroke-linejoin:round; stroke-width:2; stroke-opacity:0.1; fill:none" points="204.66,932.947 1152.76,932.947 "/>
<polyline clip-path="url(#clip402)" style="stroke:#000000; stroke-linecap:round; stroke-linejoin:round; stroke-width:2; stroke-opacity:0.1; fill:none" points="204.66,711.521 1152.76,711.521 "/>
<polyline clip-path="url(#clip402)" style="stroke:#000000; stroke-linecap:round; stroke-linejoin:round; stroke-width:2; stroke-opacity:0.1; fill:none" points="204.66,490.095 1152.76,490.095 "/>
<polyline clip-path="url(#clip402)" style="stroke:#000000; stroke-linecap:round; stroke-linejoin:round; stroke-width:2; stroke-opacity:0.1; fill:none" points="204.66,268.67 1152.76,268.67 "/>
<polyline clip-path="url(#clip402)" style="stroke:#000000; stroke-linecap:round; stroke-linejoin:round; stroke-width:2; stroke-opacity:0.1; fill:none" points="204.66,47.2441 1152.76,47.2441 "/>
<polyline clip-path="url(#clip400)" style="stroke:#000000; stroke-linecap:round; stroke-linejoin:round; stroke-width:4; stroke-opacity:1; fill:none" points="204.66,932.947 204.66,47.2441 "/>
<polyline clip-path="url(#clip400)" style="stroke:#000000; stroke-linecap:round; stroke-linejoin:round; stroke-width:4; stroke-opacity:1; fill:none" points="1152.76,932.947 1152.76,47.2441 "/>
<polyline clip-path="url(#clip400)" style="stroke:#000000; stroke-linecap:round; stroke-linejoin:round; stroke-width:4; stroke-opacity:1; fill:none" points="204.66,932.947 223.558,932.947 "/>
<polyline clip-path="url(#clip400)" style="stroke:#000000; stroke-linecap:round; stroke-linejoin:round; stroke-width:4; stroke-opacity:1; fill:none" points="204.66,711.521 223.558,711.521 "/>
<polyline clip-path="url(#clip400)" style="stroke:#000000; stroke-linecap:round; stroke-linejoin:round; stroke-width:4; stroke-opacity:1; fill:none" points="204.66,490.095 223.558,490.095 "/>
<polyline clip-path="url(#clip400)" style="stroke:#000000; stroke-linecap:round; stroke-linejoin:round; stroke-width:4; stroke-opacity:1; fill:none" points="204.66,268.67 223.558,268.67 "/>
<polyline clip-path="url(#clip400)" style="stroke:#000000; stroke-linecap:round; stroke-linejoin:round; stroke-width:4; stroke-opacity:1; fill:none" points="204.66,47.2441 223.558,47.2441 "/>
<g clip-path="url(#clip400)">
<text style="fill:#000000; fill-opacity:1; font-family:Arial,Helvetica Neue,Helvetica,sans-serif; font-size:48px; text-anchor:middle;" transform="rotate(0, 85.8262, 950.447)" x="85.8262" y="950.447">0.00</text>
</g>
<g clip-path="url(#clip400)">
<text style="fill:#000000; fill-opacity:1; font-family:Arial,Helvetica Neue,Helvetica,sans-serif; font-size:48px; text-anchor:middle;" transform="rotate(0, 85.8262, 729.021)" x="85.8262" y="729.021">0.25</text>
</g>
<g clip-path="url(#clip400)">
<text style="fill:#000000; fill-opacity:1; font-family:Arial,Helvetica Neue,Helvetica,sans-serif; font-size:48px; text-anchor:middle;" transform="rotate(0, 85.8262, 507.595)" x="85.8262" y="507.595">0.50</text>
</g>
<g clip-path="url(#clip400)">
<text style="fill:#000000; fill-opacity:1; font-family:Arial,Helvetica Neue,Helvetica,sans-serif; font-size:48px; text-anchor:middle;" transform="rotate(0, 85.8262, 286.17)" x="85.8262" y="286.17">0.75</text>
</g>
<g clip-path="url(#clip400)">
<text style="fill:#000000; fill-opacity:1; font-family:Arial,Helvetica Neue,Helvetica,sans-serif; font-size:48px; text-anchor:middle;" transform="rotate(0, 85.8262, 64.7441)" x="85.8262" y="64.7441">1.00</text>
</g>
<path clip-path="url(#clip402)" d="M256.807 47.2441 L256.807 932.947 L631.83 932.947 L631.83 47.2441 L256.807 47.2441 L256.807 47.2441  Z" fill="#009af9" fill-rule="evenodd" fill-opacity="0.7"/>
<polyline clip-path="url(#clip402)" style="stroke:#000000; stroke-linecap:round; stroke-linejoin:round; stroke-width:0; stroke-opacity:0.7; fill:none" points="256.807,47.2441 256.807,932.947 631.83,932.947 631.83,47.2441 256.807,47.2441 "/>
<path clip-path="url(#clip402)" d="M725.586 47.2441 L725.586 918.506 L1100.61 918.506 L1100.61 47.2441 L725.586 47.2441 L725.586 47.2441  Z" fill="#009af9" fill-rule="evenodd" fill-opacity="0.7"/>
<polyline clip-path="url(#clip402)" style="stroke:#000000; stroke-linecap:round; stroke-linejoin:round; stroke-width:0; stroke-opacity:0.7; fill:none" points="725.586,47.2441 725.586,918.506 1100.61,918.506 1100.61,47.2441 725.586,47.2441 "/>
<path clip-path="url(#clip402)" d="M256.807 932.947 L256.807 932.947 L631.83 932.947 L631.83 932.947 L256.807 932.947 L256.807 932.947  Z" fill="#e26f46" fill-rule="evenodd" fill-opacity="0.7"/>
<polyline clip-path="url(#clip402)" style="stroke:#000000; stroke-linecap:round; stroke-linejoin:round; stroke-width:0; stroke-opacity:0.7; fill:none" points="256.807,932.947 256.807,932.947 631.83,932.947 256.807,932.947 "/>
<path clip-path="url(#clip402)" d="M725.586 918.506 L725.586 932.947 L1100.61 932.947 L1100.61 918.506 L725.586 918.506 L725.586 918.506  Z" fill="#e26f46" fill-rule="evenodd" fill-opacity="0.7"/>
<polyline clip-path="url(#clip402)" style="stroke:#000000; stroke-linecap:round; stroke-linejoin:round; stroke-width:0; stroke-opacity:0.7; fill:none" points="725.586,918.506 725.586,932.947 1100.61,932.947 1100.61,918.506 725.586,918.506 "/>
<circle clip-path="url(#clip402)" style="fill:#e26f46; stroke:none; fill-opacity:0" cx="444.319" cy="932.947" r="2"/>
<circle clip-path="url(#clip402)" style="fill:#e26f46; stroke:none; fill-opacity:0" cx="913.097" cy="918.506" r="2"/>
<path clip-path="url(#clip400)" d="M916.695 227.667 L1121.15 227.667 L1121.15 76.7675 L916.695 76.7675  Z" fill="#ffffff" fill-rule="evenodd" fill-opacity="1"/>
<polyline clip-path="url(#clip400)" style="stroke:#000000; stroke-linecap:round; stroke-linejoin:round; stroke-width:4; stroke-opacity:1; fill:none" points="916.695,227.667 1121.15,227.667 1121.15,76.7675 916.695,76.7675 916.695,227.667 "/>
<path clip-path="url(#clip400)" d="M927.229 147.187 L990.435 147.187 L990.435 106.947 L927.229 106.947 L927.229 147.187  Z" fill="#009af9" fill-rule="evenodd" fill-opacity="0.7"/>
<polyline clip-path="url(#clip400)" style="stroke:#000000; stroke-linecap:round; stroke-linejoin:round; stroke-width:0.8; stroke-opacity:1; fill:none" points="927.229,147.187 990.435,147.187 990.435,106.947 927.229,106.947 927.229,147.187 "/>
<g clip-path="url(#clip400)">
<text style="fill:#000000; fill-opacity:1; font-family:Arial,Helvetica Neue,Helvetica,sans-serif; font-size:48px; text-anchor:start;" transform="rotate(0, 1000.97, 144.567)" x="1000.97" y="144.567">CtoU</text>
</g>
<path clip-path="url(#clip400)" d="M927.229 197.487 L990.435 197.487 L990.435 157.247 L927.229 157.247 L927.229 197.487  Z" fill="#e26f46" fill-rule="evenodd" fill-opacity="0.7"/>
<polyline clip-path="url(#clip400)" style="stroke:#000000; stroke-linecap:round; stroke-linejoin:round; stroke-width:0.8; stroke-opacity:1; fill:none" points="927.229,197.487 990.435,197.487 990.435,157.247 927.229,157.247 927.229,197.487 "/>
<g clip-path="url(#clip400)">
<text style="fill:#000000; fill-opacity:1; font-family:Arial,Helvetica Neue,Helvetica,sans-serif; font-size:48px; text-anchor:start;" transform="rotate(0, 1000.97, 194.867)" x="1000.97" y="194.867">UtoC</text>
</g>
<path clip-path="url(#clip400)" d="M1404.66 932.947 L2352.76 932.947 L2352.76 47.2441 L1404.66 47.2441  Z" fill="#ffffff" fill-rule="evenodd" fill-opacity="1"/>
<defs>
  <clipPath id="clip403">
    <rect x="1404" y="47" width="949" height="887"/>
  </clipPath>
</defs>
<polyline clip-path="url(#clip403)" style="stroke:#000000; stroke-linecap:round; stroke-linejoin:round; stroke-width:2; stroke-opacity:0.1; fill:none" points="1644.32,932.947 1644.32,47.2441 "/>
<polyline clip-path="url(#clip403)" style="stroke:#000000; stroke-linecap:round; stroke-linejoin:round; stroke-width:2; stroke-opacity:0.1; fill:none" points="2113.1,932.947 2113.1,47.2441 "/>
<polyline clip-path="url(#clip400)" style="stroke:#000000; stroke-linecap:round; stroke-linejoin:round; stroke-width:4; stroke-opacity:1; fill:none" points="1404.66,932.947 2352.76,932.947 "/>
<polyline clip-path="url(#clip400)" style="stroke:#000000; stroke-linecap:round; stroke-linejoin:round; stroke-width:4; stroke-opacity:1; fill:none" points="1404.66,47.2441 2352.76,47.2441 "/>
<polyline clip-path="url(#clip400)" style="stroke:#000000; stroke-linecap:round; stroke-linejoin:round; stroke-width:4; stroke-opacity:1; fill:none" points="1644.32,932.947 1644.32,914.049 "/>
<polyline clip-path="url(#clip400)" style="stroke:#000000; stroke-linecap:round; stroke-linejoin:round; stroke-width:4; stroke-opacity:1; fill:none" points="2113.1,932.947 2113.1,914.049 "/>
<g clip-path="url(#clip400)">
<text style="fill:#000000; fill-opacity:1; font-family:Arial,Helvetica Neue,Helvetica,sans-serif; font-size:59px; font-weight:bold; text-anchor:middle;" transform="rotate(0, 1644.32, 1024.28)" x="1644.32" y="1024.28">cp</text>
</g>
<g clip-path="url(#clip400)">
<text style="fill:#000000; fill-opacity:1; font-family:Arial,Helvetica Neue,Helvetica,sans-serif; font-size:59px; font-weight:bold; text-anchor:middle;" transform="rotate(0, 2113.1, 1024.28)" x="2113.1" y="1024.28">mt</text>
</g>
<g clip-path="url(#clip400)">
<text style="fill:#000000; fill-opacity:1; font-family:Arial,Helvetica Neue,Helvetica,sans-serif; font-size:71px; text-anchor:middle;" transform="rotate(0, 1878.71, 1132.87)" x="1878.71" y="1132.87">codon position</text>
</g>
<polyline clip-path="url(#clip403)" style="stroke:#000000; stroke-linecap:round; stroke-linejoin:round; stroke-width:2; stroke-opacity:0.1; fill:none" points="1404.66,932.947 2352.76,932.947 "/>
<polyline clip-path="url(#clip403)" style="stroke:#000000; stroke-linecap:round; stroke-linejoin:round; stroke-width:2; stroke-opacity:0.1; fill:none" points="1404.66,711.521 2352.76,711.521 "/>
<polyline clip-path="url(#clip403)" style="stroke:#000000; stroke-linecap:round; stroke-linejoin:round; stroke-width:2; stroke-opacity:0.1; fill:none" points="1404.66,490.095 2352.76,490.095 "/>
<polyline clip-path="url(#clip403)" style="stroke:#000000; stroke-linecap:round; stroke-linejoin:round; stroke-width:2; stroke-opacity:0.1; fill:none" points="1404.66,268.67 2352.76,268.67 "/>
<polyline clip-path="url(#clip403)" style="stroke:#000000; stroke-linecap:round; stroke-linejoin:round; stroke-width:2; stroke-opacity:0.1; fill:none" points="1404.66,47.2441 2352.76,47.2441 "/>
<polyline clip-path="url(#clip400)" style="stroke:#000000; stroke-linecap:round; stroke-linejoin:round; stroke-width:4; stroke-opacity:1; fill:none" points="1404.66,932.947 1404.66,47.2441 "/>
<polyline clip-path="url(#clip400)" style="stroke:#000000; stroke-linecap:round; stroke-linejoin:round; stroke-width:4; stroke-opacity:1; fill:none" points="2352.76,932.947 2352.76,47.2441 "/>
<polyline clip-path="url(#clip400)" style="stroke:#000000; stroke-linecap:round; stroke-linejoin:round; stroke-width:4; stroke-opacity:1; fill:none" points="1404.66,932.947 1423.56,932.947 "/>
<polyline clip-path="url(#clip400)" style="stroke:#000000; stroke-linecap:round; stroke-linejoin:round; stroke-width:4; stroke-opacity:1; fill:none" points="1404.66,711.521 1423.56,711.521 "/>
<polyline clip-path="url(#clip400)" style="stroke:#000000; stroke-linecap:round; stroke-linejoin:round; stroke-width:4; stroke-opacity:1; fill:none" points="1404.66,490.095 1423.56,490.095 "/>
<polyline clip-path="url(#clip400)" style="stroke:#000000; stroke-linecap:round; stroke-linejoin:round; stroke-width:4; stroke-opacity:1; fill:none" points="1404.66,268.67 1423.56,268.67 "/>
<polyline clip-path="url(#clip400)" style="stroke:#000000; stroke-linecap:round; stroke-linejoin:round; stroke-width:4; stroke-opacity:1; fill:none" points="1404.66,47.2441 1423.56,47.2441 "/>
<g clip-path="url(#clip400)">
<text style="fill:#000000; fill-opacity:1; font-family:Arial,Helvetica Neue,Helvetica,sans-serif; font-size:48px; text-anchor:middle;" transform="rotate(0, 1285.83, 950.447)" x="1285.83" y="950.447">0.00</text>
</g>
<g clip-path="url(#clip400)">
<text style="fill:#000000; fill-opacity:1; font-family:Arial,Helvetica Neue,Helvetica,sans-serif; font-size:48px; text-anchor:middle;" transform="rotate(0, 1285.83, 729.021)" x="1285.83" y="729.021">0.25</text>
</g>
<g clip-path="url(#clip400)">
<text style="fill:#000000; fill-opacity:1; font-family:Arial,Helvetica Neue,Helvetica,sans-serif; font-size:48px; text-anchor:middle;" transform="rotate(0, 1285.83, 507.595)" x="1285.83" y="507.595">0.50</text>
</g>
<g clip-path="url(#clip400)">
<text style="fill:#000000; fill-opacity:1; font-family:Arial,Helvetica Neue,Helvetica,sans-serif; font-size:48px; text-anchor:middle;" transform="rotate(0, 1285.83, 286.17)" x="1285.83" y="286.17">0.75</text>
</g>
<g clip-path="url(#clip400)">
<text style="fill:#000000; fill-opacity:1; font-family:Arial,Helvetica Neue,Helvetica,sans-serif; font-size:48px; text-anchor:middle;" transform="rotate(0, 1285.83, 64.7441)" x="1285.83" y="64.7441">1.00</text>
</g>
<path clip-path="url(#clip403)" d="M1456.81 47.2441 L1456.81 137.699 L1831.83 137.699 L1831.83 47.2441 L1456.81 47.2441 L1456.81 47.2441  Z" fill="#009af9" fill-rule="evenodd" fill-opacity="0.7"/>
<polyline clip-path="url(#clip403)" style="stroke:#000000; stroke-linecap:round; stroke-linejoin:round; stroke-width:0; stroke-opacity:0.7; fill:none" points="1456.81,47.2441 1456.81,137.699 1831.83,137.699 1831.83,47.2441 1456.81,47.2441 "/>
<path clip-path="url(#clip403)" d="M1925.59 47.2441 L1925.59 295.751 L2300.61 295.751 L2300.61 47.2441 L1925.59 47.2441 L1925.59 47.2441  Z" fill="#009af9" fill-rule="evenodd" fill-opacity="0.7"/>
<polyline clip-path="url(#clip403)" style="stroke:#000000; stroke-linecap:round; stroke-linejoin:round; stroke-width:0; stroke-opacity:0.7; fill:none" points="1925.59,47.2441 1925.59,295.751 2300.61,295.751 2300.61,47.2441 1925.59,47.2441 "/>
<path clip-path="url(#clip403)" d="M1456.81 137.699 L1456.81 846.261 L1831.83 846.261 L1831.83 137.699 L1456.81 137.699 L1456.81 137.699  Z" fill="#e26f46" fill-rule="evenodd" fill-opacity="0.7"/>
<polyline clip-path="url(#clip403)" style="stroke:#000000; stroke-linecap:round; stroke-linejoin:round; stroke-width:0; stroke-opacity:0.7; fill:none" points="1456.81,137.699 1456.81,846.261 1831.83,846.261 1831.83,137.699 1456.81,137.699 "/>
<path clip-path="url(#clip403)" d="M1925.59 295.751 L1925.59 846.925 L2300.61 846.925 L2300.61 295.751 L1925.59 295.751 L1925.59 295.751  Z" fill="#e26f46" fill-rule="evenodd" fill-opacity="0.7"/>
<polyline clip-path="url(#clip403)" style="stroke:#000000; stroke-linecap:round; stroke-linejoin:round; stroke-width:0; stroke-opacity:0.7; fill:none" points="1925.59,295.751 1925.59,846.925 2300.61,846.925 2300.61,295.751 1925.59,295.751 "/>
<circle clip-path="url(#clip403)" style="fill:#e26f46; stroke:none; fill-opacity:0" cx="1644.32" cy="137.699" r="2"/>
<circle clip-path="url(#clip403)" style="fill:#e26f46; stroke:none; fill-opacity:0" cx="2113.1" cy="295.751" r="2"/>
<path clip-path="url(#clip403)" d="M1456.81 846.261 L1456.81 932.947 L1831.83 932.947 L1831.83 846.261 L1456.81 846.261 L1456.81 846.261  Z" fill="#3da44d" fill-rule="evenodd" fill-opacity="0.7"/>
<polyline clip-path="url(#clip403)" style="stroke:#000000; stroke-linecap:round; stroke-linejoin:round; stroke-width:0; stroke-opacity:0.7; fill:none" points="1456.81,846.261 1456.81,932.947 1831.83,932.947 1831.83,846.261 1456.81,846.261 "/>
<path clip-path="url(#clip403)" d="M1925.59 846.925 L1925.59 932.947 L2300.61 932.947 L2300.61 846.925 L1925.59 846.925 L1925.59 846.925  Z" fill="#3da44d" fill-rule="evenodd" fill-opacity="0.7"/>
<polyline clip-path="url(#clip403)" style="stroke:#000000; stroke-linecap:round; stroke-linejoin:round; stroke-width:0; stroke-opacity:0.7; fill:none" points="1925.59,846.925 1925.59,932.947 2300.61,932.947 2300.61,846.925 1925.59,846.925 "/>
<circle clip-path="url(#clip403)" style="fill:#3da44d; stroke:none; fill-opacity:0" cx="1644.32" cy="846.261" r="2"/>
<circle clip-path="url(#clip403)" style="fill:#3da44d; stroke:none; fill-opacity:0" cx="2113.1" cy="846.925" r="2"/>
<path clip-path="url(#clip400)" d="M2146.06 277.966 L2321.15 277.966 L2321.15 76.7675 L2146.06 76.7675  Z" fill="#ffffff" fill-rule="evenodd" fill-opacity="1"/>
<polyline clip-path="url(#clip400)" style="stroke:#000000; stroke-linecap:round; stroke-linejoin:round; stroke-width:4; stroke-opacity:1; fill:none" points="2146.06,277.966 2321.15,277.966 2321.15,76.7675 2146.06,76.7675 2146.06,277.966 "/>
<path clip-path="url(#clip400)" d="M2156.59 147.187 L2219.8 147.187 L2219.8 106.947 L2156.59 106.947 L2156.59 147.187  Z" fill="#009af9" fill-rule="evenodd" fill-opacity="0.7"/>
<polyline clip-path="url(#clip400)" style="stroke:#000000; stroke-linecap:round; stroke-linejoin:round; stroke-width:0.8; stroke-opacity:1; fill:none" points="2156.59,147.187 2219.8,147.187 2219.8,106.947 2156.59,106.947 2156.59,147.187 "/>
<g clip-path="url(#clip400)">
<text style="fill:#000000; fill-opacity:1; font-family:Arial,Helvetica Neue,Helvetica,sans-serif; font-size:48px; text-anchor:start;" transform="rotate(0, 2230.33, 144.567)" x="2230.33" y="144.567">1st</text>
</g>
<path clip-path="url(#clip400)" d="M2156.59 197.487 L2219.8 197.487 L2219.8 157.247 L2156.59 157.247 L2156.59 197.487  Z" fill="#e26f46" fill-rule="evenodd" fill-opacity="0.7"/>
<polyline clip-path="url(#clip400)" style="stroke:#000000; stroke-linecap:round; stroke-linejoin:round; stroke-width:0.8; stroke-opacity:1; fill:none" points="2156.59,197.487 2219.8,197.487 2219.8,157.247 2156.59,157.247 2156.59,197.487 "/>
<g clip-path="url(#clip400)">
<text style="fill:#000000; fill-opacity:1; font-family:Arial,Helvetica Neue,Helvetica,sans-serif; font-size:48px; text-anchor:start;" transform="rotate(0, 2230.33, 194.867)" x="2230.33" y="194.867">2nd</text>
</g>
<path clip-path="url(#clip400)" d="M2156.59 247.787 L2219.8 247.787 L2219.8 207.547 L2156.59 207.547 L2156.59 247.787  Z" fill="#3da44d" fill-rule="evenodd" fill-opacity="0.7"/>
<polyline clip-path="url(#clip400)" style="stroke:#000000; stroke-linecap:round; stroke-linejoin:round; stroke-width:0.8; stroke-opacity:1; fill:none" points="2156.59,247.787 2219.8,247.787 2219.8,207.547 2156.59,207.547 2156.59,247.787 "/>
<g clip-path="url(#clip400)">
<text style="fill:#000000; fill-opacity:1; font-family:Arial,Helvetica Neue,Helvetica,sans-serif; font-size:48px; text-anchor:start;" transform="rotate(0, 2230.33, 245.167)" x="2230.33" y="245.167">3rd</text>
</g>
<path clip-path="url(#clip400)" d="M2604.66 932.947 L3552.76 932.947 L3552.76 47.2441 L2604.66 47.2441  Z" fill="#ffffff" fill-rule="evenodd" fill-opacity="1"/>
<defs>
  <clipPath id="clip404">
    <rect x="2604" y="47" width="949" height="887"/>
  </clipPath>
</defs>
<polyline clip-path="url(#clip404)" style="stroke:#000000; stroke-linecap:round; stroke-linejoin:round; stroke-width:2; stroke-opacity:0.1; fill:none" points="2844.32,932.947 2844.32,47.2441 "/>
<polyline clip-path="url(#clip404)" style="stroke:#000000; stroke-linecap:round; stroke-linejoin:round; stroke-width:2; stroke-opacity:0.1; fill:none" points="3313.1,932.947 3313.1,47.2441 "/>
<polyline clip-path="url(#clip400)" style="stroke:#000000; stroke-linecap:round; stroke-linejoin:round; stroke-width:4; stroke-opacity:1; fill:none" points="2604.66,932.947 3552.76,932.947 "/>
<polyline clip-path="url(#clip400)" style="stroke:#000000; stroke-linecap:round; stroke-linejoin:round; stroke-width:4; stroke-opacity:1; fill:none" points="2604.66,47.2441 3552.76,47.2441 "/>
<polyline clip-path="url(#clip400)" style="stroke:#000000; stroke-linecap:round; stroke-linejoin:round; stroke-width:4; stroke-opacity:1; fill:none" points="2844.32,932.947 2844.32,914.049 "/>
<polyline clip-path="url(#clip400)" style="stroke:#000000; stroke-linecap:round; stroke-linejoin:round; stroke-width:4; stroke-opacity:1; fill:none" points="3313.1,932.947 3313.1,914.049 "/>
<g clip-path="url(#clip400)">
<text style="fill:#000000; fill-opacity:1; font-family:Arial,Helvetica Neue,Helvetica,sans-serif; font-size:59px; font-weight:bold; text-anchor:middle;" transform="rotate(0, 2844.32, 1024.28)" x="2844.32" y="1024.28">cp</text>
</g>
<g clip-path="url(#clip400)">
<text style="fill:#000000; fill-opacity:1; font-family:Arial,Helvetica Neue,Helvetica,sans-serif; font-size:59px; font-weight:bold; text-anchor:middle;" transform="rotate(0, 3313.1, 1024.28)" x="3313.1" y="1024.28">mt</text>
</g>
<g clip-path="url(#clip400)">
<text style="fill:#000000; fill-opacity:1; font-family:Arial,Helvetica Neue,Helvetica,sans-serif; font-size:71px; text-anchor:middle;" transform="rotate(0, 3078.71, 1132.87)" x="3078.71" y="1132.87">synonmous or not</text>
</g>
<polyline clip-path="url(#clip404)" style="stroke:#000000; stroke-linecap:round; stroke-linejoin:round; stroke-width:2; stroke-opacity:0.1; fill:none" points="2604.66,932.947 3552.76,932.947 "/>
<polyline clip-path="url(#clip404)" style="stroke:#000000; stroke-linecap:round; stroke-linejoin:round; stroke-width:2; stroke-opacity:0.1; fill:none" points="2604.66,711.521 3552.76,711.521 "/>
<polyline clip-path="url(#clip404)" style="stroke:#000000; stroke-linecap:round; stroke-linejoin:round; stroke-width:2; stroke-opacity:0.1; fill:none" points="2604.66,490.095 3552.76,490.095 "/>
<polyline clip-path="url(#clip404)" style="stroke:#000000; stroke-linecap:round; stroke-linejoin:round; stroke-width:2; stroke-opacity:0.1; fill:none" points="2604.66,268.67 3552.76,268.67 "/>
<polyline clip-path="url(#clip404)" style="stroke:#000000; stroke-linecap:round; stroke-linejoin:round; stroke-width:2; stroke-opacity:0.1; fill:none" points="2604.66,47.2441 3552.76,47.2441 "/>
<polyline clip-path="url(#clip400)" style="stroke:#000000; stroke-linecap:round; stroke-linejoin:round; stroke-width:4; stroke-opacity:1; fill:none" points="2604.66,932.947 2604.66,47.2441 "/>
<polyline clip-path="url(#clip400)" style="stroke:#000000; stroke-linecap:round; stroke-linejoin:round; stroke-width:4; stroke-opacity:1; fill:none" points="3552.76,932.947 3552.76,47.2441 "/>
<polyline clip-path="url(#clip400)" style="stroke:#000000; stroke-linecap:round; stroke-linejoin:round; stroke-width:4; stroke-opacity:1; fill:none" points="2604.66,932.947 2623.56,932.947 "/>
<polyline clip-path="url(#clip400)" style="stroke:#000000; stroke-linecap:round; stroke-linejoin:round; stroke-width:4; stroke-opacity:1; fill:none" points="2604.66,711.521 2623.56,711.521 "/>
<polyline clip-path="url(#clip400)" style="stroke:#000000; stroke-linecap:round; stroke-linejoin:round; stroke-width:4; stroke-opacity:1; fill:none" points="2604.66,490.095 2623.56,490.095 "/>
<polyline clip-path="url(#clip400)" style="stroke:#000000; stroke-linecap:round; stroke-linejoin:round; stroke-width:4; stroke-opacity:1; fill:none" points="2604.66,268.67 2623.56,268.67 "/>
<polyline clip-path="url(#clip400)" style="stroke:#000000; stroke-linecap:round; stroke-linejoin:round; stroke-width:4; stroke-opacity:1; fill:none" points="2604.66,47.2441 2623.56,47.2441 "/>
<g clip-path="url(#clip400)">
<text style="fill:#000000; fill-opacity:1; font-family:Arial,Helvetica Neue,Helvetica,sans-serif; font-size:48px; text-anchor:middle;" transform="rotate(0, 2485.83, 950.447)" x="2485.83" y="950.447">0.00</text>
</g>
<g clip-path="url(#clip400)">
<text style="fill:#000000; fill-opacity:1; font-family:Arial,Helvetica Neue,Helvetica,sans-serif; font-size:48px; text-anchor:middle;" transform="rotate(0, 2485.83, 729.021)" x="2485.83" y="729.021">0.25</text>
</g>
<g clip-path="url(#clip400)">
<text style="fill:#000000; fill-opacity:1; font-family:Arial,Helvetica Neue,Helvetica,sans-serif; font-size:48px; text-anchor:middle;" transform="rotate(0, 2485.83, 507.595)" x="2485.83" y="507.595">0.50</text>
</g>
<g clip-path="url(#clip400)">
<text style="fill:#000000; fill-opacity:1; font-family:Arial,Helvetica Neue,Helvetica,sans-serif; font-size:48px; text-anchor:middle;" transform="rotate(0, 2485.83, 286.17)" x="2485.83" y="286.17">0.75</text>
</g>
<g clip-path="url(#clip400)">
<text style="fill:#000000; fill-opacity:1; font-family:Arial,Helvetica Neue,Helvetica,sans-serif; font-size:48px; text-anchor:middle;" transform="rotate(0, 2485.83, 64.7441)" x="2485.83" y="64.7441">1.00</text>
</g>
<path clip-path="url(#clip404)" d="M2656.81 47.2441 L2656.81 846.261 L3031.83 846.261 L3031.83 47.2441 L2656.81 47.2441 L2656.81 47.2441  Z" fill="#009af9" fill-rule="evenodd" fill-opacity="0.7"/>
<polyline clip-path="url(#clip404)" style="stroke:#000000; stroke-linecap:round; stroke-linejoin:round; stroke-width:0; stroke-opacity:0.7; fill:none" points="2656.81,47.2441 2656.81,846.261 3031.83,846.261 3031.83,47.2441 2656.81,47.2441 "/>
<path clip-path="url(#clip404)" d="M3125.59 47.2441 L3125.59 827.809 L3500.61 827.809 L3500.61 47.2441 L3125.59 47.2441 L3125.59 47.2441  Z" fill="#009af9" fill-rule="evenodd" fill-opacity="0.7"/>
<polyline clip-path="url(#clip404)" style="stroke:#000000; stroke-linecap:round; stroke-linejoin:round; stroke-width:0; stroke-opacity:0.7; fill:none" points="3125.59,47.2441 3125.59,827.809 3500.61,827.809 3500.61,47.2441 3125.59,47.2441 "/>
<path clip-path="url(#clip404)" d="M2656.81 846.261 L2656.81 932.947 L3031.83 932.947 L3031.83 846.261 L2656.81 846.261 L2656.81 846.261  Z" fill="#e26f46" fill-rule="evenodd" fill-opacity="0.7"/>
<polyline clip-path="url(#clip404)" style="stroke:#000000; stroke-linecap:round; stroke-linejoin:round; stroke-width:0; stroke-opacity:0.7; fill:none" points="2656.81,846.261 2656.81,932.947 3031.83,932.947 3031.83,846.261 2656.81,846.261 "/>
<path clip-path="url(#clip404)" d="M3125.59 827.809 L3125.59 932.947 L3500.61 932.947 L3500.61 827.809 L3125.59 827.809 L3125.59 827.809  Z" fill="#e26f46" fill-rule="evenodd" fill-opacity="0.7"/>
<polyline clip-path="url(#clip404)" style="stroke:#000000; stroke-linecap:round; stroke-linejoin:round; stroke-width:0; stroke-opacity:0.7; fill:none" points="3125.59,827.809 3125.59,932.947 3500.61,932.947 3500.61,827.809 3125.59,827.809 "/>
<circle clip-path="url(#clip404)" style="fill:#e26f46; stroke:none; fill-opacity:0" cx="2844.32" cy="846.261" r="2"/>
<circle clip-path="url(#clip404)" style="fill:#e26f46; stroke:none; fill-opacity:0" cx="3313.1" cy="827.809" r="2"/>
<path clip-path="url(#clip400)" d="M3047.77 227.667 L3521.15 227.667 L3521.15 76.7675 L3047.77 76.7675  Z" fill="#ffffff" fill-rule="evenodd" fill-opacity="1"/>
<polyline clip-path="url(#clip400)" style="stroke:#000000; stroke-linecap:round; stroke-linejoin:round; stroke-width:4; stroke-opacity:1; fill:none" points="3047.77,227.667 3521.15,227.667 3521.15,76.7675 3047.77,76.7675 3047.77,227.667 "/>
<path clip-path="url(#clip400)" d="M3058.31 147.187 L3121.51 147.187 L3121.51 106.947 L3058.31 106.947 L3058.31 147.187  Z" fill="#009af9" fill-rule="evenodd" fill-opacity="0.7"/>
<polyline clip-path="url(#clip400)" style="stroke:#000000; stroke-linecap:round; stroke-linejoin:round; stroke-width:0.8; stroke-opacity:1; fill:none" points="3058.31,147.187 3121.51,147.187 3121.51,106.947 3058.31,106.947 3058.31,147.187 "/>
<g clip-path="url(#clip400)">
<text style="fill:#000000; fill-opacity:1; font-family:Arial,Helvetica Neue,Helvetica,sans-serif; font-size:48px; text-anchor:start;" transform="rotate(0, 3132.05, 144.567)" x="3132.05" y="144.567">non-synonymous</text>
</g>
<path clip-path="url(#clip400)" d="M3058.31 197.487 L3121.51 197.487 L3121.51 157.247 L3058.31 157.247 L3058.31 197.487  Z" fill="#e26f46" fill-rule="evenodd" fill-opacity="0.7"/>
<polyline clip-path="url(#clip400)" style="stroke:#000000; stroke-linecap:round; stroke-linejoin:round; stroke-width:0.8; stroke-opacity:1; fill:none" points="3058.31,197.487 3121.51,197.487 3121.51,157.247 3058.31,157.247 3058.31,197.487 "/>
<g clip-path="url(#clip400)">
<text style="fill:#000000; fill-opacity:1; font-family:Arial,Helvetica Neue,Helvetica,sans-serif; font-size:48px; text-anchor:start;" transform="rotate(0, 3132.05, 194.867)" x="3132.05" y="194.867">synonymous</text>
</g>
<path clip-path="url(#clip400)" d="M3804.66 932.947 L4752.76 932.947 L4752.76 47.2441 L3804.66 47.2441  Z" fill="#ffffff" fill-rule="evenodd" fill-opacity="1"/>
<defs>
  <clipPath id="clip405">
    <rect x="3804" y="47" width="949" height="887"/>
  </clipPath>
</defs>
<polyline clip-path="url(#clip405)" style="stroke:#000000; stroke-linecap:round; stroke-linejoin:round; stroke-width:2; stroke-opacity:0.1; fill:none" points="4044.32,932.947 4044.32,47.2441 "/>
<polyline clip-path="url(#clip405)" style="stroke:#000000; stroke-linecap:round; stroke-linejoin:round; stroke-width:2; stroke-opacity:0.1; fill:none" points="4513.1,932.947 4513.1,47.2441 "/>
<polyline clip-path="url(#clip400)" style="stroke:#000000; stroke-linecap:round; stroke-linejoin:round; stroke-width:4; stroke-opacity:1; fill:none" points="3804.66,932.947 4752.76,932.947 "/>
<polyline clip-path="url(#clip400)" style="stroke:#000000; stroke-linecap:round; stroke-linejoin:round; stroke-width:4; stroke-opacity:1; fill:none" points="3804.66,47.2441 4752.76,47.2441 "/>
<polyline clip-path="url(#clip400)" style="stroke:#000000; stroke-linecap:round; stroke-linejoin:round; stroke-width:4; stroke-opacity:1; fill:none" points="4044.32,932.947 4044.32,914.049 "/>
<polyline clip-path="url(#clip400)" style="stroke:#000000; stroke-linecap:round; stroke-linejoin:round; stroke-width:4; stroke-opacity:1; fill:none" points="4513.1,932.947 4513.1,914.049 "/>
<g clip-path="url(#clip400)">
<text style="fill:#000000; fill-opacity:1; font-family:Arial,Helvetica Neue,Helvetica,sans-serif; font-size:59px; font-weight:bold; text-anchor:middle;" transform="rotate(0, 4044.32, 1024.28)" x="4044.32" y="1024.28">cp</text>
</g>
<g clip-path="url(#clip400)">
<text style="fill:#000000; fill-opacity:1; font-family:Arial,Helvetica Neue,Helvetica,sans-serif; font-size:59px; font-weight:bold; text-anchor:middle;" transform="rotate(0, 4513.1, 1024.28)" x="4513.1" y="1024.28">mt</text>
</g>
<g clip-path="url(#clip400)">
<text style="fill:#000000; fill-opacity:1; font-family:Arial,Helvetica Neue,Helvetica,sans-serif; font-size:71px; text-anchor:middle;" transform="rotate(0, 4278.71, 1132.87)" x="4278.71" y="1132.87">base at -1</text>
</g>
<polyline clip-path="url(#clip405)" style="stroke:#000000; stroke-linecap:round; stroke-linejoin:round; stroke-width:2; stroke-opacity:0.1; fill:none" points="3804.66,932.947 4752.76,932.947 "/>
<polyline clip-path="url(#clip405)" style="stroke:#000000; stroke-linecap:round; stroke-linejoin:round; stroke-width:2; stroke-opacity:0.1; fill:none" points="3804.66,711.521 4752.76,711.521 "/>
<polyline clip-path="url(#clip405)" style="stroke:#000000; stroke-linecap:round; stroke-linejoin:round; stroke-width:2; stroke-opacity:0.1; fill:none" points="3804.66,490.095 4752.76,490.095 "/>
<polyline clip-path="url(#clip405)" style="stroke:#000000; stroke-linecap:round; stroke-linejoin:round; stroke-width:2; stroke-opacity:0.1; fill:none" points="3804.66,268.67 4752.76,268.67 "/>
<polyline clip-path="url(#clip405)" style="stroke:#000000; stroke-linecap:round; stroke-linejoin:round; stroke-width:2; stroke-opacity:0.1; fill:none" points="3804.66,47.2441 4752.76,47.2441 "/>
<polyline clip-path="url(#clip400)" style="stroke:#000000; stroke-linecap:round; stroke-linejoin:round; stroke-width:4; stroke-opacity:1; fill:none" points="3804.66,932.947 3804.66,47.2441 "/>
<polyline clip-path="url(#clip400)" style="stroke:#000000; stroke-linecap:round; stroke-linejoin:round; stroke-width:4; stroke-opacity:1; fill:none" points="4752.76,932.947 4752.76,47.2441 "/>
<polyline clip-path="url(#clip400)" style="stroke:#000000; stroke-linecap:round; stroke-linejoin:round; stroke-width:4; stroke-opacity:1; fill:none" points="3804.66,932.947 3823.56,932.947 "/>
<polyline clip-path="url(#clip400)" style="stroke:#000000; stroke-linecap:round; stroke-linejoin:round; stroke-width:4; stroke-opacity:1; fill:none" points="3804.66,711.521 3823.56,711.521 "/>
<polyline clip-path="url(#clip400)" style="stroke:#000000; stroke-linecap:round; stroke-linejoin:round; stroke-width:4; stroke-opacity:1; fill:none" points="3804.66,490.095 3823.56,490.095 "/>
<polyline clip-path="url(#clip400)" style="stroke:#000000; stroke-linecap:round; stroke-linejoin:round; stroke-width:4; stroke-opacity:1; fill:none" points="3804.66,268.67 3823.56,268.67 "/>
<polyline clip-path="url(#clip400)" style="stroke:#000000; stroke-linecap:round; stroke-linejoin:round; stroke-width:4; stroke-opacity:1; fill:none" points="3804.66,47.2441 3823.56,47.2441 "/>
<g clip-path="url(#clip400)">
<text style="fill:#000000; fill-opacity:1; font-family:Arial,Helvetica Neue,Helvetica,sans-serif; font-size:48px; text-anchor:middle;" transform="rotate(0, 3685.83, 950.447)" x="3685.83" y="950.447">0.00</text>
</g>
<g clip-path="url(#clip400)">
<text style="fill:#000000; fill-opacity:1; font-family:Arial,Helvetica Neue,Helvetica,sans-serif; font-size:48px; text-anchor:middle;" transform="rotate(0, 3685.83, 729.021)" x="3685.83" y="729.021">0.25</text>
</g>
<g clip-path="url(#clip400)">
<text style="fill:#000000; fill-opacity:1; font-family:Arial,Helvetica Neue,Helvetica,sans-serif; font-size:48px; text-anchor:middle;" transform="rotate(0, 3685.83, 507.595)" x="3685.83" y="507.595">0.50</text>
</g>
<g clip-path="url(#clip400)">
<text style="fill:#000000; fill-opacity:1; font-family:Arial,Helvetica Neue,Helvetica,sans-serif; font-size:48px; text-anchor:middle;" transform="rotate(0, 3685.83, 286.17)" x="3685.83" y="286.17">0.75</text>
</g>
<g clip-path="url(#clip400)">
<text style="fill:#000000; fill-opacity:1; font-family:Arial,Helvetica Neue,Helvetica,sans-serif; font-size:48px; text-anchor:middle;" transform="rotate(0, 3685.83, 64.7441)" x="3685.83" y="64.7441">1.00</text>
</g>
<path clip-path="url(#clip405)" d="M3856.81 47.2441 L3856.81 165.338 L4231.83 165.338 L4231.83 47.2441 L3856.81 47.2441 L3856.81 47.2441  Z" fill="#009af9" fill-rule="evenodd" fill-opacity="0.7"/>
<polyline clip-path="url(#clip405)" style="stroke:#000000; stroke-linecap:round; stroke-linejoin:round; stroke-width:0; stroke-opacity:0.7; fill:none" points="3856.81,47.2441 3856.81,165.338 4231.83,165.338 4231.83,47.2441 3856.81,47.2441 "/>
<path clip-path="url(#clip405)" d="M4325.59 47.2441 L4325.59 152.452 L4700.61 152.452 L4700.61 47.2441 L4325.59 47.2441 L4325.59 47.2441  Z" fill="#009af9" fill-rule="evenodd" fill-opacity="0.7"/>
<polyline clip-path="url(#clip405)" style="stroke:#000000; stroke-linecap:round; stroke-linejoin:round; stroke-width:0; stroke-opacity:0.7; fill:none" points="4325.59,47.2441 4325.59,152.452 4700.61,152.452 4700.61,47.2441 4325.59,47.2441 "/>
<path clip-path="url(#clip405)" d="M3856.81 165.338 L3856.81 426.387 L4231.83 426.387 L4231.83 165.338 L3856.81 165.338 L3856.81 165.338  Z" fill="#e26f46" fill-rule="evenodd" fill-opacity="0.7"/>
<polyline clip-path="url(#clip405)" style="stroke:#000000; stroke-linecap:round; stroke-linejoin:round; stroke-width:0; stroke-opacity:0.7; fill:none" points="3856.81,165.338 3856.81,426.387 4231.83,426.387 4231.83,165.338 3856.81,165.338 "/>
<path clip-path="url(#clip405)" d="M4325.59 152.452 L4325.59 411.801 L4700.61 411.801 L4700.61 152.452 L4325.59 152.452 L4325.59 152.452  Z" fill="#e26f46" fill-rule="evenodd" fill-opacity="0.7"/>
<polyline clip-path="url(#clip405)" style="stroke:#000000; stroke-linecap:round; stroke-linejoin:round; stroke-width:0; stroke-opacity:0.7; fill:none" points="4325.59,152.452 4325.59,411.801 4700.61,411.801 4700.61,152.452 4325.59,152.452 "/>
<circle clip-path="url(#clip405)" style="fill:#e26f46; stroke:none; fill-opacity:0" cx="4044.32" cy="165.338" r="2"/>
<circle clip-path="url(#clip405)" style="fill:#e26f46; stroke:none; fill-opacity:0" cx="4513.1" cy="152.452" r="2"/>
<path clip-path="url(#clip405)" d="M3856.81 426.387 L3856.81 438.818 L4231.83 438.818 L4231.83 426.387 L3856.81 426.387 L3856.81 426.387  Z" fill="#3da44d" fill-rule="evenodd" fill-opacity="0.7"/>
<polyline clip-path="url(#clip405)" style="stroke:#000000; stroke-linecap:round; stroke-linejoin:round; stroke-width:0; stroke-opacity:0.7; fill:none" points="3856.81,426.387 3856.81,438.818 4231.83,438.818 4231.83,426.387 3856.81,426.387 "/>
<path clip-path="url(#clip405)" d="M4325.59 411.801 L4325.59 433.821 L4700.61 433.821 L4700.61 411.801 L4325.59 411.801 L4325.59 411.801  Z" fill="#3da44d" fill-rule="evenodd" fill-opacity="0.7"/>
<polyline clip-path="url(#clip405)" style="stroke:#000000; stroke-linecap:round; stroke-linejoin:round; stroke-width:0; stroke-opacity:0.7; fill:none" points="4325.59,411.801 4325.59,433.821 4700.61,433.821 4700.61,411.801 4325.59,411.801 "/>
<circle clip-path="url(#clip405)" style="fill:#3da44d; stroke:none; fill-opacity:0" cx="4044.32" cy="426.387" r="2"/>
<circle clip-path="url(#clip405)" style="fill:#3da44d; stroke:none; fill-opacity:0" cx="4513.1" cy="411.801" r="2"/>
<path clip-path="url(#clip405)" d="M3856.81 438.818 L3856.81 932.947 L4231.83 932.947 L4231.83 438.818 L3856.81 438.818 L3856.81 438.818  Z" fill="#c271d2" fill-rule="evenodd" fill-opacity="0.7"/>
<polyline clip-path="url(#clip405)" style="stroke:#000000; stroke-linecap:round; stroke-linejoin:round; stroke-width:0; stroke-opacity:0.7; fill:none" points="3856.81,438.818 3856.81,932.947 4231.83,932.947 4231.83,438.818 3856.81,438.818 "/>
<path clip-path="url(#clip405)" d="M4325.59 433.821 L4325.59 932.947 L4700.61 932.947 L4700.61 433.821 L4325.59 433.821 L4325.59 433.821  Z" fill="#c271d2" fill-rule="evenodd" fill-opacity="0.7"/>
<polyline clip-path="url(#clip405)" style="stroke:#000000; stroke-linecap:round; stroke-linejoin:round; stroke-width:0; stroke-opacity:0.7; fill:none" points="4325.59,433.821 4325.59,932.947 4700.61,932.947 4700.61,433.821 4325.59,433.821 "/>
<circle clip-path="url(#clip405)" style="fill:#c271d2; stroke:none; fill-opacity:0" cx="4044.32" cy="438.818" r="2"/>
<circle clip-path="url(#clip405)" style="fill:#c271d2; stroke:none; fill-opacity:0" cx="4513.1" cy="433.821" r="2"/>
<path clip-path="url(#clip400)" d="M4588.9 328.266 L4721.15 328.266 L4721.15 76.7675 L4588.9 76.7675  Z" fill="#ffffff" fill-rule="evenodd" fill-opacity="1"/>
<polyline clip-path="url(#clip400)" style="stroke:#000000; stroke-linecap:round; stroke-linejoin:round; stroke-width:4; stroke-opacity:1; fill:none" points="4588.9,328.266 4721.15,328.266 4721.15,76.7675 4588.9,76.7675 4588.9,328.266 "/>
<path clip-path="url(#clip400)" d="M4599.43 147.187 L4662.64 147.187 L4662.64 106.947 L4599.43 106.947 L4599.43 147.187  Z" fill="#009af9" fill-rule="evenodd" fill-opacity="0.7"/>
<polyline clip-path="url(#clip400)" style="stroke:#000000; stroke-linecap:round; stroke-linejoin:round; stroke-width:0.8; stroke-opacity:1; fill:none" points="4599.43,147.187 4662.64,147.187 4662.64,106.947 4599.43,106.947 4599.43,147.187 "/>
<g clip-path="url(#clip400)">
<text style="fill:#000000; fill-opacity:1; font-family:Arial,Helvetica Neue,Helvetica,sans-serif; font-size:48px; text-anchor:start;" transform="rotate(0, 4673.17, 144.567)" x="4673.17" y="144.567">A</text>
</g>
<path clip-path="url(#clip400)" d="M4599.43 197.487 L4662.64 197.487 L4662.64 157.247 L4599.43 157.247 L4599.43 197.487  Z" fill="#e26f46" fill-rule="evenodd" fill-opacity="0.7"/>
<polyline clip-path="url(#clip400)" style="stroke:#000000; stroke-linecap:round; stroke-linejoin:round; stroke-width:0.8; stroke-opacity:1; fill:none" points="4599.43,197.487 4662.64,197.487 4662.64,157.247 4599.43,157.247 4599.43,197.487 "/>
<g clip-path="url(#clip400)">
<text style="fill:#000000; fill-opacity:1; font-family:Arial,Helvetica Neue,Helvetica,sans-serif; font-size:48px; text-anchor:start;" transform="rotate(0, 4673.17, 194.867)" x="4673.17" y="194.867">C</text>
</g>
<path clip-path="url(#clip400)" d="M4599.43 247.787 L4662.64 247.787 L4662.64 207.547 L4599.43 207.547 L4599.43 247.787  Z" fill="#3da44d" fill-rule="evenodd" fill-opacity="0.7"/>
<polyline clip-path="url(#clip400)" style="stroke:#000000; stroke-linecap:round; stroke-linejoin:round; stroke-width:0.8; stroke-opacity:1; fill:none" points="4599.43,247.787 4662.64,247.787 4662.64,207.547 4599.43,207.547 4599.43,247.787 "/>
<g clip-path="url(#clip400)">
<text style="fill:#000000; fill-opacity:1; font-family:Arial,Helvetica Neue,Helvetica,sans-serif; font-size:48px; text-anchor:start;" transform="rotate(0, 4673.17, 245.167)" x="4673.17" y="245.167">G</text>
</g>
<path clip-path="url(#clip400)" d="M4599.43 298.086 L4662.64 298.086 L4662.64 257.847 L4599.43 257.847 L4599.43 298.086  Z" fill="#c271d2" fill-rule="evenodd" fill-opacity="0.7"/>
<polyline clip-path="url(#clip400)" style="stroke:#000000; stroke-linecap:round; stroke-linejoin:round; stroke-width:0.8; stroke-opacity:1; fill:none" points="4599.43,298.086 4662.64,298.086 4662.64,257.847 4599.43,257.847 4599.43,298.086 "/>
<g clip-path="url(#clip400)">
<text style="fill:#000000; fill-opacity:1; font-family:Arial,Helvetica Neue,Helvetica,sans-serif; font-size:48px; text-anchor:start;" transform="rotate(0, 4673.17, 295.466)" x="4673.17" y="295.466">U</text>
</g>
</svg>
