<?xml version="1.0" encoding="utf-8"?>
<svg xmlns="http://www.w3.org/2000/svg" xmlns:xlink="http://www.w3.org/1999/xlink" width="800" height="300" viewBox="0 0 3200 1200">
<defs>
  <clipPath id="clip440">
    <rect x="0" y="0" width="3200" height="1200"/>
  </clipPath>
</defs>
<path clip-path="url(#clip440)" d="M0 1200 L3200 1200 L3200 0 L0 0  Z" fill="#ffffff" fill-rule="evenodd" fill-opacity="1"/>
<defs>
  <clipPath id="clip441">
    <rect x="640" y="0" width="2241" height="1200"/>
  </clipPath>
</defs>
<path clip-path="url(#clip440)" d="M1093.25 305.568 L3152.76 305.568 L3152.76 47.2441 L1093.25 47.2441  Z" fill="#ffffff" fill-rule="evenodd" fill-opacity="1"/>
<defs>
  <clipPath id="clip442">
    <rect x="1093" y="47" width="2061" height="259"/>
  </clipPath>
</defs>
<polyline clip-path="url(#clip442)" style="stroke:#000000; stroke-linecap:round; stroke-linejoin:round; stroke-width:2; stroke-opacity:0.1; fill:none" points="1450.45,305.568 1450.45,47.2441 "/>
<polyline clip-path="url(#clip442)" style="stroke:#000000; stroke-linecap:round; stroke-linejoin:round; stroke-width:2; stroke-opacity:0.1; fill:none" points="1824.09,305.568 1824.09,47.2441 "/>
<polyline clip-path="url(#clip442)" style="stroke:#000000; stroke-linecap:round; stroke-linejoin:round; stroke-width:2; stroke-opacity:0.1; fill:none" points="2197.73,305.568 2197.73,47.2441 "/>
<polyline clip-path="url(#clip442)" style="stroke:#000000; stroke-linecap:round; stroke-linejoin:round; stroke-width:2; stroke-opacity:0.1; fill:none" points="2571.37,305.568 2571.37,47.2441 "/>
<polyline clip-path="url(#clip442)" style="stroke:#000000; stroke-linecap:round; stroke-linejoin:round; stroke-width:2; stroke-opacity:0.1; fill:none" points="2945.01,305.568 2945.01,47.2441 "/>
<polyline clip-path="url(#clip442)" style="stroke:#000000; stroke-linecap:round; stroke-linejoin:round; stroke-width:2; stroke-opacity:0.1; fill:none" points="1093.25,298.257 3152.76,298.257 "/>
<polyline clip-path="url(#clip442)" style="stroke:#000000; stroke-linecap:round; stroke-linejoin:round; stroke-width:2; stroke-opacity:0.1; fill:none" points="1093.25,237.331 3152.76,237.331 "/>
<polyline clip-path="url(#clip442)" style="stroke:#000000; stroke-linecap:round; stroke-linejoin:round; stroke-width:2; stroke-opacity:0.1; fill:none" points="1093.25,176.406 3152.76,176.406 "/>
<polyline clip-path="url(#clip442)" style="stroke:#000000; stroke-linecap:round; stroke-linejoin:round; stroke-width:2; stroke-opacity:0.1; fill:none" points="1093.25,115.481 3152.76,115.481 "/>
<polyline clip-path="url(#clip442)" style="stroke:#000000; stroke-linecap:round; stroke-linejoin:round; stroke-width:2; stroke-opacity:0.1; fill:none" points="1093.25,54.5551 3152.76,54.5551 "/>
<path clip-path="url(#clip442)" d="M2945.01 176.406 L3094.47 176.406 L3094.47 54.5551 L2945.01 54.5551 L2945.01 176.406  Z" fill="#9fb6cd" fill-rule="evenodd" fill-opacity="1"/>
<polyline clip-path="url(#clip442)" style="stroke:#000000; stroke-linecap:round; stroke-linejoin:round; stroke-width:4; stroke-opacity:1; fill:none" points="2945.01,176.406 3094.47,176.406 3094.47,54.5551 2945.01,54.5551 2945.01,176.406 "/>
<path clip-path="url(#clip442)" d="M2945.01 298.257 L3094.47 298.257 L3094.47 176.406 L2945.01 176.406 L2945.01 298.257  Z" fill="#f5f0f0" fill-rule="evenodd" fill-opacity="0.8"/>
<polyline clip-path="url(#clip442)" style="stroke:#000000; stroke-linecap:round; stroke-linejoin:round; stroke-width:4; stroke-opacity:0.8; fill:none" points="2945.01,298.257 3094.47,298.257 3094.47,176.406 2945.01,176.406 2945.01,298.257 "/>
<path clip-path="url(#clip442)" d="M2795.55 176.406 L2945.01 176.406 L2945.01 54.5551 L2795.55 54.5551 L2795.55 176.406  Z" fill="#fffacd" fill-rule="evenodd" fill-opacity="1"/>
<polyline clip-path="url(#clip442)" style="stroke:#000000; stroke-linecap:round; stroke-linejoin:round; stroke-width:4; stroke-opacity:1; fill:none" points="2795.55,176.406 2945.01,176.406 2945.01,54.5551 2795.55,54.5551 2795.55,176.406 "/>
<path clip-path="url(#clip442)" d="M2795.55 298.257 L2945.01 298.257 L2945.01 176.406 L2795.55 176.406 L2795.55 298.257  Z" fill="#b8d396" fill-rule="evenodd" fill-opacity="0.8"/>
<polyline clip-path="url(#clip442)" style="stroke:#000000; stroke-linecap:round; stroke-linejoin:round; stroke-width:4; stroke-opacity:0.8; fill:none" points="2795.55,298.257 2945.01,298.257 2945.01,176.406 2795.55,176.406 2795.55,298.257 "/>
<path clip-path="url(#clip442)" d="M2646.1 176.406 L2795.55 176.406 L2795.55 54.5551 L2646.1 54.5551 L2646.1 176.406  Z" fill="#cd96cd" fill-rule="evenodd" fill-opacity="1"/>
<polyline clip-path="url(#clip442)" style="stroke:#000000; stroke-linecap:round; stroke-linejoin:round; stroke-width:4; stroke-opacity:1; fill:none" points="2646.1,176.406 2795.55,176.406 2795.55,54.5551 2646.1,54.5551 2646.1,176.406 "/>
<path clip-path="url(#clip442)" d="M2646.1 298.257 L2795.55 298.257 L2795.55 176.406 L2646.1 176.406 L2646.1 298.257  Z" fill="#cadfae" fill-rule="evenodd" fill-opacity="0.8"/>
<polyline clip-path="url(#clip442)" style="stroke:#000000; stroke-linecap:round; stroke-linejoin:round; stroke-width:4; stroke-opacity:0.8; fill:none" points="2646.1,298.257 2795.55,298.257 2795.55,176.406 2646.1,176.406 2646.1,298.257 "/>
<path clip-path="url(#clip442)" d="M2496.64 176.406 L2646.1 176.406 L2646.1 54.5551 L2496.64 54.5551 L2496.64 176.406  Z" fill="#b4eeb4" fill-rule="evenodd" fill-opacity="1"/>
<polyline clip-path="url(#clip442)" style="stroke:#000000; stroke-linecap:round; stroke-linejoin:round; stroke-width:4; stroke-opacity:1; fill:none" points="2496.64,176.406 2646.1,176.406 2646.1,54.5551 2496.64,54.5551 2496.64,176.406 "/>
<path clip-path="url(#clip442)" d="M2496.64 298.257 L2646.1 298.257 L2646.1 176.406 L2496.64 176.406 L2496.64 298.257  Z" fill="#326a1b" fill-rule="evenodd" fill-opacity="0.8"/>
<polyline clip-path="url(#clip442)" style="stroke:#000000; stroke-linecap:round; stroke-linejoin:round; stroke-width:4; stroke-opacity:0.8; fill:none" points="2496.64,298.257 2646.1,298.257 2646.1,176.406 2496.64,176.406 2496.64,298.257 "/>
<path clip-path="url(#clip442)" d="M2347.19 176.406 L2496.64 176.406 L2496.64 54.5551 L2347.19 54.5551 L2347.19 176.406  Z" fill="#eedd82" fill-rule="evenodd" fill-opacity="1"/>
<polyline clip-path="url(#clip442)" style="stroke:#000000; stroke-linecap:round; stroke-linejoin:round; stroke-width:4; stroke-opacity:1; fill:none" points="2347.19,176.406 2496.64,176.406 2496.64,54.5551 2347.19,54.5551 2347.19,176.406 "/>
<path clip-path="url(#clip442)" d="M2347.19 298.257 L2496.64 298.257 L2496.64 176.406 L2347.19 176.406 L2347.19 298.257  Z" fill="#f4f2ee" fill-rule="evenodd" fill-opacity="0.8"/>
<polyline clip-path="url(#clip442)" style="stroke:#000000; stroke-linecap:round; stroke-linejoin:round; stroke-width:4; stroke-opacity:0.8; fill:none" points="2347.19,298.257 2496.64,298.257 2496.64,176.406 2347.19,176.406 2347.19,298.257 "/>
<path clip-path="url(#clip442)" d="M2197.73 176.406 L2347.19 176.406 L2347.19 54.5551 L2197.73 54.5551 L2197.73 176.406  Z" fill="#fa8072" fill-rule="evenodd" fill-opacity="1"/>
<polyline clip-path="url(#clip442)" style="stroke:#000000; stroke-linecap:round; stroke-linejoin:round; stroke-width:4; stroke-opacity:1; fill:none" points="2197.73,176.406 2347.19,176.406 2347.19,54.5551 2197.73,54.5551 2197.73,176.406 "/>
<path clip-path="url(#clip442)" d="M2197.73 298.257 L2347.19 298.257 L2347.19 176.406 L2197.73 176.406 L2197.73 298.257  Z" fill="#98bd70" fill-rule="evenodd" fill-opacity="0.8"/>
<polyline clip-path="url(#clip442)" style="stroke:#000000; stroke-linecap:round; stroke-linejoin:round; stroke-width:4; stroke-opacity:0.8; fill:none" points="2197.73,298.257 2347.19,298.257 2347.19,176.406 2197.73,176.406 2197.73,298.257 "/>
<path clip-path="url(#clip442)" d="M2048.27 176.406 L2197.73 176.406 L2197.73 54.5551 L2048.27 54.5551 L2048.27 176.406  Z" fill="#b4eeb4" fill-rule="evenodd" fill-opacity="1"/>
<polyline clip-path="url(#clip442)" style="stroke:#000000; stroke-linecap:round; stroke-linejoin:round; stroke-width:4; stroke-opacity:1; fill:none" points="2048.27,176.406 2197.73,176.406 2197.73,54.5551 2048.27,54.5551 2048.27,176.406 "/>
<path clip-path="url(#clip442)" d="M2048.27 298.257 L2197.73 298.257 L2197.73 176.406 L2048.27 176.406 L2048.27 298.257  Z" fill="#0c4b00" fill-rule="evenodd" fill-opacity="0.8"/>
<polyline clip-path="url(#clip442)" style="stroke:#000000; stroke-linecap:round; stroke-linejoin:round; stroke-width:4; stroke-opacity:0.8; fill:none" points="2048.27,298.257 2197.73,298.257 2197.73,176.406 2048.27,176.406 2048.27,298.257 "/>
<path clip-path="url(#clip442)" d="M1898.82 176.406 L2048.27 176.406 L2048.27 54.5551 L1898.82 54.5551 L1898.82 176.406  Z" fill="#eedd82" fill-rule="evenodd" fill-opacity="1"/>
<polyline clip-path="url(#clip442)" style="stroke:#000000; stroke-linecap:round; stroke-linejoin:round; stroke-width:4; stroke-opacity:1; fill:none" points="1898.82,176.406 2048.27,176.406 2048.27,54.5551 1898.82,54.5551 1898.82,176.406 "/>
<path clip-path="url(#clip442)" d="M1898.82 298.257 L2048.27 298.257 L2048.27 176.406 L1898.82 176.406 L1898.82 298.257  Z" fill="#f5e7f0" fill-rule="evenodd" fill-opacity="0.8"/>
<polyline clip-path="url(#clip442)" style="stroke:#000000; stroke-linecap:round; stroke-linejoin:round; stroke-width:4; stroke-opacity:0.8; fill:none" points="1898.82,298.257 2048.27,298.257 2048.27,176.406 1898.82,176.406 1898.82,298.257 "/>
<path clip-path="url(#clip442)" d="M1749.36 176.406 L1898.82 176.406 L1898.82 54.5551 L1749.36 54.5551 L1749.36 176.406  Z" fill="#fa8072" fill-rule="evenodd" fill-opacity="1"/>
<polyline clip-path="url(#clip442)" style="stroke:#000000; stroke-linecap:round; stroke-linejoin:round; stroke-width:4; stroke-opacity:1; fill:none" points="1749.36,176.406 1898.82,176.406 1898.82,54.5551 1749.36,54.5551 1749.36,176.406 "/>
<path clip-path="url(#clip442)" d="M1749.36 298.257 L1898.82 298.257 L1898.82 176.406 L1749.36 176.406 L1749.36 298.257  Z" fill="#0c4b00" fill-rule="evenodd" fill-opacity="0.8"/>
<polyline clip-path="url(#clip442)" style="stroke:#000000; stroke-linecap:round; stroke-linejoin:round; stroke-width:4; stroke-opacity:0.8; fill:none" points="1749.36,298.257 1898.82,298.257 1898.82,176.406 1749.36,176.406 1749.36,298.257 "/>
<path clip-path="url(#clip442)" d="M1599.9 176.406 L1749.36 176.406 L1749.36 54.5551 L1599.9 54.5551 L1599.9 176.406  Z" fill="#b4eeb4" fill-rule="evenodd" fill-opacity="1"/>
<polyline clip-path="url(#clip442)" style="stroke:#000000; stroke-linecap:round; stroke-linejoin:round; stroke-width:4; stroke-opacity:1; fill:none" points="1599.9,176.406 1749.36,176.406 1749.36,54.5551 1599.9,54.5551 1599.9,176.406 "/>
<path clip-path="url(#clip442)" d="M1599.9 298.257 L1749.36 298.257 L1749.36 176.406 L1599.9 176.406 L1599.9 298.257  Z" fill="#0c4b00" fill-rule="evenodd" fill-opacity="0.8"/>
<polyline clip-path="url(#clip442)" style="stroke:#000000; stroke-linecap:round; stroke-linejoin:round; stroke-width:4; stroke-opacity:0.8; fill:none" points="1599.9,298.257 1749.36,298.257 1749.36,176.406 1599.9,176.406 1599.9,298.257 "/>
<path clip-path="url(#clip442)" d="M1450.45 176.406 L1599.9 176.406 L1599.9 54.5551 L1450.45 54.5551 L1450.45 176.406  Z" fill="#eedd82" fill-rule="evenodd" fill-opacity="1"/>
<polyline clip-path="url(#clip442)" style="stroke:#000000; stroke-linecap:round; stroke-linejoin:round; stroke-width:4; stroke-opacity:1; fill:none" points="1450.45,176.406 1599.9,176.406 1599.9,54.5551 1450.45,54.5551 1450.45,176.406 "/>
<path clip-path="url(#clip442)" d="M1450.45 298.257 L1599.9 298.257 L1599.9 176.406 L1450.45 176.406 L1450.45 298.257  Z" fill="#f5f0f0" fill-rule="evenodd" fill-opacity="0.8"/>
<polyline clip-path="url(#clip442)" style="stroke:#000000; stroke-linecap:round; stroke-linejoin:round; stroke-width:4; stroke-opacity:0.8; fill:none" points="1450.45,298.257 1599.9,298.257 1599.9,176.406 1450.45,176.406 1450.45,298.257 "/>
<path clip-path="url(#clip442)" d="M1300.99 176.406 L1450.45 176.406 L1450.45 54.5551 L1300.99 54.5551 L1300.99 176.406  Z" fill="#fa8072" fill-rule="evenodd" fill-opacity="1"/>
<polyline clip-path="url(#clip442)" style="stroke:#000000; stroke-linecap:round; stroke-linejoin:round; stroke-width:4; stroke-opacity:1; fill:none" points="1300.99,176.406 1450.45,176.406 1450.45,54.5551 1300.99,54.5551 1300.99,176.406 "/>
<path clip-path="url(#clip442)" d="M1300.99 298.257 L1450.45 298.257 L1450.45 176.406 L1300.99 176.406 L1300.99 298.257  Z" fill="#ae4c95" fill-rule="evenodd" fill-opacity="0.8"/>
<polyline clip-path="url(#clip442)" style="stroke:#000000; stroke-linecap:round; stroke-linejoin:round; stroke-width:4; stroke-opacity:0.8; fill:none" points="1300.99,298.257 1450.45,298.257 1450.45,176.406 1300.99,176.406 1300.99,298.257 "/>
<path clip-path="url(#clip442)" d="M1151.53 176.406 L1300.99 176.406 L1300.99 54.5551 L1151.53 54.5551 L1151.53 176.406  Z" fill="#b4eeb4" fill-rule="evenodd" fill-opacity="1"/>
<polyline clip-path="url(#clip442)" style="stroke:#000000; stroke-linecap:round; stroke-linejoin:round; stroke-width:4; stroke-opacity:1; fill:none" points="1151.53,176.406 1300.99,176.406 1300.99,54.5551 1151.53,54.5551 1151.53,176.406 "/>
<path clip-path="url(#clip442)" d="M1151.53 298.257 L1300.99 298.257 L1300.99 176.406 L1151.53 176.406 L1151.53 298.257  Z" fill="#f5f0f0" fill-rule="evenodd" fill-opacity="0.8"/>
<polyline clip-path="url(#clip442)" style="stroke:#000000; stroke-linecap:round; stroke-linejoin:round; stroke-width:4; stroke-opacity:0.8; fill:none" points="1151.53,298.257 1300.99,298.257 1300.99,176.406 1151.53,176.406 1151.53,298.257 "/>
<path clip-path="url(#clip440)" d="M2967.32 85.2406 L3018.48 85.2406 L3018.48 92.1271 L2997.01 92.1271 L2997.01 145.721 L2988.79 145.721 L2988.79 92.1271 L2967.32 92.1271 L2967.32 85.2406 Z" fill="#000000" fill-rule="nonzero" fill-opacity="1" /><path clip-path="url(#clip440)" d="M3026.38 85.2406 L3037.4 85.2406 L3064.22 135.836 L3064.22 85.2406 L3072.16 85.2406 L3072.16 145.721 L3061.14 145.721 L3034.32 95.1248 L3034.32 145.721 L3026.38 145.721 L3026.38 85.2406 Z" fill="#000000" fill-rule="nonzero" fill-opacity="1" /><path clip-path="url(#clip440)" d="M3019.74 215.153 L3008.64 245.251 L3030.88 245.251 L3019.74 215.153 M3015.12 207.091 L3024.4 207.091 L3047.45 267.571 L3038.94 267.571 L3033.43 252.056 L3006.17 252.056 L3000.66 267.571 L2992.03 267.571 L3015.12 207.091 Z" fill="#000000" fill-rule="nonzero" fill-opacity="1" /><path clip-path="url(#clip440)" d="M2827.22 85.2406 L2835.4 85.2406 L2835.4 138.834 L2864.85 138.834 L2864.85 145.721 L2827.22 145.721 L2827.22 85.2406 Z" fill="#000000" fill-rule="nonzero" fill-opacity="1" /><path clip-path="url(#clip440)" d="M2909.7 87.2255 L2909.7 95.2058 Q2905.04 92.9778 2900.91 91.884 Q2896.78 90.7903 2892.93 90.7903 Q2886.24 90.7903 2882.6 93.3829 Q2878.99 95.9755 2878.99 100.756 Q2878.99 104.766 2881.38 106.832 Q2883.81 108.857 2890.54 110.113 L2895.48 111.126 Q2904.63 112.868 2908.97 117.283 Q2913.34 121.658 2913.34 129.031 Q2913.34 137.821 2907.43 142.358 Q2901.56 146.895 2890.17 146.895 Q2885.88 146.895 2881.02 145.923 Q2876.2 144.951 2871.01 143.047 L2871.01 134.621 Q2875.99 137.416 2880.78 138.834 Q2885.56 140.252 2890.17 140.252 Q2897.18 140.252 2900.99 137.497 Q2904.8 134.743 2904.8 129.638 Q2904.8 125.182 2902.04 122.671 Q2899.33 120.159 2893.09 118.904 L2888.11 117.931 Q2878.95 116.108 2874.86 112.22 Q2870.77 108.331 2870.77 101.404 Q2870.77 93.3829 2876.4 88.7649 Q2882.07 84.1468 2892 84.1468 Q2896.25 84.1468 2900.66 84.9165 Q2905.08 85.6862 2909.7 87.2255 Z" fill="#000000" fill-rule="nonzero" fill-opacity="1" /><path clip-path="url(#clip440)" d="M2894.67 211.75 L2894.67 220.378 Q2890.54 216.53 2885.84 214.626 Q2881.18 212.722 2875.91 212.722 Q2865.54 212.722 2860.03 219.082 Q2854.53 225.401 2854.53 237.392 Q2854.53 249.342 2860.03 255.702 Q2865.54 262.022 2875.91 262.022 Q2881.18 262.022 2885.84 260.118 Q2890.54 258.214 2894.67 254.365 L2894.67 262.913 Q2890.38 265.83 2885.56 267.288 Q2880.78 268.746 2875.43 268.746 Q2861.7 268.746 2853.8 260.361 Q2845.9 251.935 2845.9 237.392 Q2845.9 222.809 2853.8 214.424 Q2861.7 205.998 2875.43 205.998 Q2880.86 205.998 2885.64 207.456 Q2890.46 208.874 2894.67 211.75 Z" fill="#000000" fill-rule="nonzero" fill-opacity="1" /><path clip-path="url(#clip440)" d="M2706.67 87.2255 L2706.67 95.2058 Q2702.01 92.9778 2697.88 91.884 Q2693.75 90.7903 2689.9 90.7903 Q2683.21 90.7903 2679.57 93.3829 Q2675.96 95.9755 2675.96 100.756 Q2675.96 104.766 2678.35 106.832 Q2680.78 108.857 2687.51 110.113 L2692.45 111.126 Q2701.61 112.868 2705.94 117.283 Q2710.31 121.658 2710.31 129.031 Q2710.31 137.821 2704.4 142.358 Q2698.53 146.895 2687.14 146.895 Q2682.85 146.895 2677.99 145.923 Q2673.17 144.951 2667.98 143.047 L2667.98 134.621 Q2672.97 137.416 2677.75 138.834 Q2682.53 140.252 2687.14 140.252 Q2694.15 140.252 2697.96 137.497 Q2701.77 134.743 2701.77 129.638 Q2701.77 125.182 2699.01 122.671 Q2696.3 120.159 2690.06 118.904 L2685.08 117.931 Q2675.92 116.108 2671.83 112.22 Q2667.74 108.331 2667.74 101.404 Q2667.74 93.3829 2673.37 88.7649 Q2679.04 84.1468 2688.97 84.1468 Q2693.22 84.1468 2697.64 84.9165 Q2702.05 85.6862 2706.67 87.2255 Z" fill="#000000" fill-rule="nonzero" fill-opacity="1" /><path clip-path="url(#clip440)" d="M2731.26 91.9651 L2731.26 138.996 L2741.14 138.996 Q2753.66 138.996 2759.45 133.325 Q2765.29 127.654 2765.29 115.42 Q2765.29 103.267 2759.45 97.6363 Q2753.66 91.9651 2741.14 91.9651 L2731.26 91.9651 M2723.08 85.2406 L2739.89 85.2406 Q2757.47 85.2406 2765.69 92.5727 Q2773.91 99.8643 2773.91 115.42 Q2773.91 131.056 2765.65 138.388 Q2757.39 145.721 2739.89 145.721 L2723.08 145.721 L2723.08 85.2406 Z" fill="#000000" fill-rule="nonzero" fill-opacity="1" /><path clip-path="url(#clip440)" d="M2697.68 207.091 L2705.9 207.091 L2705.9 243.833 Q2705.9 253.555 2709.42 257.849 Q2712.95 262.103 2720.85 262.103 Q2728.71 262.103 2732.23 257.849 Q2735.75 253.555 2735.75 243.833 L2735.75 207.091 L2743.98 207.091 L2743.98 244.846 Q2743.98 256.674 2738.1 262.71 Q2732.27 268.746 2720.85 268.746 Q2709.38 268.746 2703.51 262.71 Q2697.68 256.674 2697.68 244.846 L2697.68 207.091 Z" fill="#000000" fill-rule="nonzero" fill-opacity="1" /><path clip-path="url(#clip440)" d="M2518.95 85.2406 L2570.11 85.2406 L2570.11 92.1271 L2548.64 92.1271 L2548.64 145.721 L2540.42 145.721 L2540.42 92.1271 L2518.95 92.1271 L2518.95 85.2406 Z" fill="#000000" fill-rule="nonzero" fill-opacity="1" /><path clip-path="url(#clip440)" d="M2578.01 85.2406 L2589.03 85.2406 L2615.85 135.836 L2615.85 85.2406 L2623.79 85.2406 L2623.79 145.721 L2612.77 145.721 L2585.95 95.1248 L2585.95 145.721 L2578.01 145.721 L2578.01 85.2406 Z" fill="#000000" fill-rule="nonzero" fill-opacity="1" /><path clip-path="url(#clip440)" d="M2571.37 215.153 L2560.27 245.251 L2582.51 245.251 L2571.37 215.153 M2566.75 207.091 L2576.03 207.091 L2599.08 267.571 L2590.57 267.571 L2585.06 252.056 L2557.8 252.056 L2552.29 267.571 L2543.66 267.571 L2566.75 207.091 Z" fill="#000000" fill-rule="nonzero" fill-opacity="1" /><path clip-path="url(#clip440)" d="M2392.08 93.3019 L2380.98 123.4 L2403.22 123.4 L2392.08 93.3019 M2387.46 85.2406 L2396.74 85.2406 L2419.79 145.721 L2411.28 145.721 L2405.77 130.206 L2378.51 130.206 L2373 145.721 L2364.37 145.721 L2387.46 85.2406 Z" fill="#000000" fill-rule="nonzero" fill-opacity="1" /><path clip-path="url(#clip440)" d="M2436.8 91.9651 L2436.8 138.996 L2446.69 138.996 Q2459.2 138.996 2465 133.325 Q2470.83 127.654 2470.83 115.42 Q2470.83 103.267 2465 97.6363 Q2459.2 91.9651 2446.69 91.9651 L2436.8 91.9651 M2428.62 85.2406 L2445.43 85.2406 Q2463.01 85.2406 2471.23 92.5727 Q2479.46 99.8643 2479.46 115.42 Q2479.46 131.056 2471.19 138.388 Q2462.93 145.721 2445.43 145.721 L2428.62 145.721 L2428.62 85.2406 Z" fill="#000000" fill-rule="nonzero" fill-opacity="1" /><path clip-path="url(#clip440)" d="M2398.76 207.091 L2406.99 207.091 L2406.99 243.833 Q2406.99 253.555 2410.51 257.849 Q2414.03 262.103 2421.93 262.103 Q2429.79 262.103 2433.32 257.849 Q2436.84 253.555 2436.84 243.833 L2436.84 207.091 L2445.06 207.091 L2445.06 244.846 Q2445.06 256.674 2439.19 262.71 Q2433.36 268.746 2421.93 268.746 Q2410.47 268.746 2404.6 262.71 Q2398.76 256.674 2398.76 244.846 L2398.76 207.091 Z" fill="#000000" fill-rule="nonzero" fill-opacity="1" /><path clip-path="url(#clip440)" d="M2258.3 87.2255 L2258.3 95.2058 Q2253.64 92.9778 2249.51 91.884 Q2245.38 90.7903 2241.53 90.7903 Q2234.84 90.7903 2231.2 93.3829 Q2227.59 95.9755 2227.59 100.756 Q2227.59 104.766 2229.98 106.832 Q2232.41 108.857 2239.14 110.113 L2244.08 111.126 Q2253.24 112.868 2257.57 117.283 Q2261.95 121.658 2261.95 129.031 Q2261.95 137.821 2256.03 142.358 Q2250.16 146.895 2238.77 146.895 Q2234.48 146.895 2229.62 145.923 Q2224.8 144.951 2219.61 143.047 L2219.61 134.621 Q2224.6 137.416 2229.38 138.834 Q2234.16 140.252 2238.77 140.252 Q2245.78 140.252 2249.59 137.497 Q2253.4 134.743 2253.4 129.638 Q2253.4 125.182 2250.64 122.671 Q2247.93 120.159 2241.69 118.904 L2236.71 117.931 Q2227.55 116.108 2223.46 112.22 Q2219.37 108.331 2219.37 101.404 Q2219.37 93.3829 2225 88.7649 Q2230.67 84.1468 2240.6 84.1468 Q2244.85 84.1468 2249.27 84.9165 Q2253.68 85.6862 2258.3 87.2255 Z" fill="#000000" fill-rule="nonzero" fill-opacity="1" /><path clip-path="url(#clip440)" d="M2282.89 91.9651 L2282.89 138.996 L2292.77 138.996 Q2305.29 138.996 2311.08 133.325 Q2316.92 127.654 2316.92 115.42 Q2316.92 103.267 2311.08 97.6363 Q2305.29 91.9651 2292.77 91.9651 L2282.89 91.9651 M2274.71 85.2406 L2291.52 85.2406 Q2309.1 85.2406 2317.32 92.5727 Q2325.54 99.8643 2325.54 115.42 Q2325.54 131.056 2317.28 138.388 Q2309.02 145.721 2291.52 145.721 L2274.71 145.721 L2274.71 85.2406 Z" fill="#000000" fill-rule="nonzero" fill-opacity="1" /><path clip-path="url(#clip440)" d="M2290.77 258.943 L2290.77 242.699 L2277.4 242.699 L2277.4 235.974 L2298.87 235.974 L2298.87 261.941 Q2294.13 265.303 2288.42 267.045 Q2282.71 268.746 2276.22 268.746 Q2262.05 268.746 2254.03 260.482 Q2246.05 252.178 2246.05 237.392 Q2246.05 222.566 2254.03 214.302 Q2262.05 205.998 2276.22 205.998 Q2282.14 205.998 2287.45 207.456 Q2292.79 208.914 2297.29 211.75 L2297.29 220.459 Q2292.75 216.611 2287.65 214.667 Q2282.54 212.722 2276.91 212.722 Q2265.81 212.722 2260.22 218.92 Q2254.67 225.118 2254.67 237.392 Q2254.67 249.626 2260.22 255.824 Q2265.81 262.022 2276.91 262.022 Q2281.25 262.022 2284.65 261.293 Q2288.05 260.523 2290.77 258.943 Z" fill="#000000" fill-rule="nonzero" fill-opacity="1" /><path clip-path="url(#clip440)" d="M2066.55 85.2406 L2077.57 85.2406 L2104.39 135.836 L2104.39 85.2406 L2112.33 85.2406 L2112.33 145.721 L2101.31 145.721 L2074.49 95.1248 L2074.49 145.721 L2066.55 145.721 L2066.55 85.2406 Z" fill="#000000" fill-rule="nonzero" fill-opacity="1" /><path clip-path="url(#clip440)" d="M2136.79 91.9651 L2136.79 138.996 L2146.68 138.996 Q2159.2 138.996 2164.99 133.325 Q2170.82 127.654 2170.82 115.42 Q2170.82 103.267 2164.99 97.6363 Q2159.2 91.9651 2146.68 91.9651 L2136.79 91.9651 M2128.61 85.2406 L2145.42 85.2406 Q2163 85.2406 2171.23 92.5727 Q2179.45 99.8643 2179.45 115.42 Q2179.45 131.056 2171.19 138.388 Q2162.92 145.721 2145.42 145.721 L2128.61 145.721 L2128.61 85.2406 Z" fill="#000000" fill-rule="nonzero" fill-opacity="1" /><path clip-path="url(#clip440)" d="M2099.85 207.091 L2108.07 207.091 L2108.07 243.833 Q2108.07 253.555 2111.6 257.849 Q2115.12 262.103 2123.02 262.103 Q2130.88 262.103 2134.4 257.849 Q2137.93 253.555 2137.93 243.833 L2137.93 207.091 L2146.15 207.091 L2146.15 244.846 Q2146.15 256.674 2140.28 262.71 Q2134.44 268.746 2123.02 268.746 Q2111.56 268.746 2105.68 262.71 Q2099.85 256.674 2099.85 244.846 L2099.85 207.091 Z" fill="#000000" fill-rule="nonzero" fill-opacity="1" /><path clip-path="url(#clip440)" d="M1966.19 89.8991 L1966.19 98.5275 Q1962.06 94.6792 1957.36 92.7752 Q1952.7 90.8713 1947.44 90.8713 Q1937.07 90.8713 1931.56 97.2312 Q1926.05 103.551 1926.05 115.541 Q1926.05 127.491 1931.56 133.851 Q1937.07 140.171 1947.44 140.171 Q1952.7 140.171 1957.36 138.267 Q1962.06 136.363 1966.19 132.515 L1966.19 141.062 Q1961.9 143.979 1957.08 145.437 Q1952.3 146.895 1946.95 146.895 Q1933.22 146.895 1925.32 138.51 Q1917.42 130.084 1917.42 115.541 Q1917.42 100.958 1925.32 92.5727 Q1933.22 84.1468 1946.95 84.1468 Q1952.38 84.1468 1957.16 85.6051 Q1961.98 87.023 1966.19 89.8991 Z" fill="#000000" fill-rule="nonzero" fill-opacity="1" /><path clip-path="url(#clip440)" d="M1987.01 91.9651 L1987.01 138.996 L1996.9 138.996 Q2009.42 138.996 2015.21 133.325 Q2021.04 127.654 2021.04 115.42 Q2021.04 103.267 2015.21 97.6363 Q2009.42 91.9651 1996.9 91.9651 L1987.01 91.9651 M1978.83 85.2406 L1995.64 85.2406 Q2013.22 85.2406 2021.45 92.5727 Q2029.67 99.8643 2029.67 115.42 Q2029.67 131.056 2021.41 138.388 Q2013.14 145.721 1995.64 145.721 L1978.83 145.721 L1978.83 85.2406 Z" fill="#000000" fill-rule="nonzero" fill-opacity="1" /><path clip-path="url(#clip440)" d="M1950.39 207.091 L1958.62 207.091 L1958.62 243.833 Q1958.62 253.555 1962.14 257.849 Q1965.67 262.103 1973.56 262.103 Q1981.42 262.103 1984.95 257.849 Q1988.47 253.555 1988.47 243.833 L1988.47 207.091 L1996.7 207.091 L1996.7 244.846 Q1996.7 256.674 1990.82 262.71 Q1984.99 268.746 1973.56 268.746 Q1962.1 268.746 1956.23 262.71 Q1950.39 256.674 1950.39 244.846 L1950.39 207.091 Z" fill="#000000" fill-rule="nonzero" fill-opacity="1" /><path clip-path="url(#clip440)" d="M1767.64 85.2406 L1778.66 85.2406 L1805.47 135.836 L1805.47 85.2406 L1813.41 85.2406 L1813.41 145.721 L1802.4 145.721 L1775.58 95.1248 L1775.58 145.721 L1767.64 145.721 L1767.64 85.2406 Z" fill="#000000" fill-rule="nonzero" fill-opacity="1" /><path clip-path="url(#clip440)" d="M1837.88 91.9651 L1837.88 138.996 L1847.77 138.996 Q1860.28 138.996 1866.08 133.325 Q1871.91 127.654 1871.91 115.42 Q1871.91 103.267 1866.08 97.6363 Q1860.28 91.9651 1847.77 91.9651 L1837.88 91.9651 M1829.7 85.2406 L1846.51 85.2406 Q1864.09 85.2406 1872.31 92.5727 Q1880.54 99.8643 1880.54 115.42 Q1880.54 131.056 1872.27 138.388 Q1864.01 145.721 1846.51 145.721 L1829.7 145.721 L1829.7 85.2406 Z" fill="#000000" fill-rule="nonzero" fill-opacity="1" /><path clip-path="url(#clip440)" d="M1800.94 207.091 L1809.16 207.091 L1809.16 243.833 Q1809.16 253.555 1812.68 257.849 Q1816.21 262.103 1824.11 262.103 Q1831.97 262.103 1835.49 257.849 Q1839.02 253.555 1839.02 243.833 L1839.02 207.091 L1847.24 207.091 L1847.24 244.846 Q1847.24 256.674 1841.37 262.71 Q1835.53 268.746 1824.11 268.746 Q1812.64 268.746 1806.77 262.71 Q1800.94 256.674 1800.94 244.846 L1800.94 207.091 Z" fill="#000000" fill-rule="nonzero" fill-opacity="1" /><path clip-path="url(#clip440)" d="M1618.18 85.2406 L1629.2 85.2406 L1656.02 135.836 L1656.02 85.2406 L1663.96 85.2406 L1663.96 145.721 L1652.94 145.721 L1626.12 95.1248 L1626.12 145.721 L1618.18 145.721 L1618.18 85.2406 Z" fill="#000000" fill-rule="nonzero" fill-opacity="1" /><path clip-path="url(#clip440)" d="M1688.42 91.9651 L1688.42 138.996 L1698.31 138.996 Q1710.83 138.996 1716.62 133.325 Q1722.45 127.654 1722.45 115.42 Q1722.45 103.267 1716.62 97.6363 Q1710.83 91.9651 1698.31 91.9651 L1688.42 91.9651 M1680.24 85.2406 L1697.05 85.2406 Q1714.63 85.2406 1722.86 92.5727 Q1731.08 99.8643 1731.08 115.42 Q1731.08 131.056 1722.82 138.388 Q1714.55 145.721 1697.05 145.721 L1680.24 145.721 L1680.24 85.2406 Z" fill="#000000" fill-rule="nonzero" fill-opacity="1" /><path clip-path="url(#clip440)" d="M1651.48 207.091 L1659.7 207.091 L1659.7 243.833 Q1659.7 253.555 1663.23 257.849 Q1666.75 262.103 1674.65 262.103 Q1682.51 262.103 1686.03 257.849 Q1689.56 253.555 1689.56 243.833 L1689.56 207.091 L1697.78 207.091 L1697.78 244.846 Q1697.78 256.674 1691.91 262.71 Q1686.08 268.746 1674.65 268.746 Q1663.19 268.746 1657.31 262.71 Q1651.48 256.674 1651.48 244.846 L1651.48 207.091 Z" fill="#000000" fill-rule="nonzero" fill-opacity="1" /><path clip-path="url(#clip440)" d="M1493.09 145.721 L1470 85.2406 L1478.55 85.2406 L1497.71 136.16 L1516.91 85.2406 L1525.42 85.2406 L1502.37 145.721 L1493.09 145.721 Z" fill="#000000" fill-rule="nonzero" fill-opacity="1" /><path clip-path="url(#clip440)" d="M1534.25 85.2406 L1542.43 85.2406 L1542.43 110.032 L1572.17 110.032 L1572.17 85.2406 L1580.35 85.2406 L1580.35 145.721 L1572.17 145.721 L1572.17 116.919 L1542.43 116.919 L1542.43 145.721 L1534.25 145.721 L1534.25 85.2406 Z" fill="#000000" fill-rule="nonzero" fill-opacity="1" /><path clip-path="url(#clip440)" d="M1525.18 215.153 L1514.08 245.251 L1536.32 245.251 L1525.18 215.153 M1520.56 207.091 L1529.83 207.091 L1552.88 267.571 L1544.38 267.571 L1538.87 252.056 L1511.6 252.056 L1506.1 267.571 L1497.47 267.571 L1520.56 207.091 Z" fill="#000000" fill-rule="nonzero" fill-opacity="1" /><path clip-path="url(#clip440)" d="M1321.8 85.2406 L1332.82 85.2406 L1359.64 135.836 L1359.64 85.2406 L1367.58 85.2406 L1367.58 145.721 L1356.56 145.721 L1329.74 95.1248 L1329.74 145.721 L1321.8 145.721 L1321.8 85.2406 Z" fill="#000000" fill-rule="nonzero" fill-opacity="1" /><path clip-path="url(#clip440)" d="M1383.86 85.2406 L1394.88 85.2406 L1421.7 135.836 L1421.7 85.2406 L1429.64 85.2406 L1429.64 145.721 L1418.62 145.721 L1391.8 95.1248 L1391.8 145.721 L1383.86 145.721 L1383.86 85.2406 Z" fill="#000000" fill-rule="nonzero" fill-opacity="1" /><path clip-path="url(#clip440)" d="M1375.72 215.153 L1364.62 245.251 L1386.86 245.251 L1375.72 215.153 M1371.1 207.091 L1380.38 207.091 L1403.43 267.571 L1394.92 267.571 L1389.41 252.056 L1362.15 252.056 L1356.64 267.571 L1348.01 267.571 L1371.1 207.091 Z" fill="#000000" fill-rule="nonzero" fill-opacity="1" /><path clip-path="url(#clip440)" d="M1201.9 93.3019 L1190.8 123.4 L1213.04 123.4 L1201.9 93.3019 M1197.28 85.2406 L1206.55 85.2406 L1229.6 145.721 L1221.1 145.721 L1215.59 130.206 L1188.33 130.206 L1182.82 145.721 L1174.19 145.721 L1197.28 85.2406 Z" fill="#000000" fill-rule="nonzero" fill-opacity="1" /><path clip-path="url(#clip440)" d="M1274.69 87.2255 L1274.69 95.2058 Q1270.03 92.9778 1265.9 91.884 Q1261.77 90.7903 1257.92 90.7903 Q1251.24 90.7903 1247.59 93.3829 Q1243.98 95.9755 1243.98 100.756 Q1243.98 104.766 1246.37 106.832 Q1248.81 108.857 1255.53 110.113 L1260.47 111.126 Q1269.63 112.868 1273.96 117.283 Q1278.34 121.658 1278.34 129.031 Q1278.34 137.821 1272.42 142.358 Q1266.55 146.895 1255.17 146.895 Q1250.87 146.895 1246.01 145.923 Q1241.19 144.951 1236 143.047 L1236 134.621 Q1240.99 137.416 1245.77 138.834 Q1250.55 140.252 1255.17 140.252 Q1262.17 140.252 1265.98 137.497 Q1269.79 134.743 1269.79 129.638 Q1269.79 125.182 1267.03 122.671 Q1264.32 120.159 1258.08 118.904 L1253.1 117.931 Q1243.94 116.108 1239.85 112.22 Q1235.76 108.331 1235.76 101.404 Q1235.76 93.3829 1241.39 88.7649 Q1247.06 84.1468 1256.99 84.1468 Q1261.24 84.1468 1265.66 84.9165 Q1270.07 85.6862 1274.69 87.2255 Z" fill="#000000" fill-rule="nonzero" fill-opacity="1" /><path clip-path="url(#clip440)" d="M1226.26 215.153 L1215.16 245.251 L1237.4 245.251 L1226.26 215.153 M1221.64 207.091 L1230.92 207.091 L1253.97 267.571 L1245.46 267.571 L1239.95 252.056 L1212.69 252.056 L1207.18 267.571 L1198.55 267.571 L1221.64 207.091 Z" fill="#000000" fill-rule="nonzero" fill-opacity="1" /><g clip-path="url(#clip440)">
<text style="fill:#000000; fill-opacity:1; font-family:Arial,Helvetica Neue,Helvetica,sans-serif; font-size:82px; font-style:italic; text-anchor:end;" transform="rotate(0, 1039.44, 206.406)" x="1039.44" y="206.406">Phylloglossum drummondii</text>
</g>
<path clip-path="url(#clip440)" d="M1093.25 705.568 L3152.76 705.568 L3152.76 447.244 L1093.25 447.244  Z" fill="#ffffff" fill-rule="evenodd" fill-opacity="1"/>
<defs>
  <clipPath id="clip443">
    <rect x="1093" y="447" width="2061" height="259"/>
  </clipPath>
</defs>
<polyline clip-path="url(#clip443)" style="stroke:#000000; stroke-linecap:round; stroke-linejoin:round; stroke-width:2; stroke-opacity:0.1; fill:none" points="1450.45,705.568 1450.45,447.244 "/>
<polyline clip-path="url(#clip443)" style="stroke:#000000; stroke-linecap:round; stroke-linejoin:round; stroke-width:2; stroke-opacity:0.1; fill:none" points="1824.09,705.568 1824.09,447.244 "/>
<polyline clip-path="url(#clip443)" style="stroke:#000000; stroke-linecap:round; stroke-linejoin:round; stroke-width:2; stroke-opacity:0.1; fill:none" points="2197.73,705.568 2197.73,447.244 "/>
<polyline clip-path="url(#clip443)" style="stroke:#000000; stroke-linecap:round; stroke-linejoin:round; stroke-width:2; stroke-opacity:0.1; fill:none" points="2571.37,705.568 2571.37,447.244 "/>
<polyline clip-path="url(#clip443)" style="stroke:#000000; stroke-linecap:round; stroke-linejoin:round; stroke-width:2; stroke-opacity:0.1; fill:none" points="2945.01,705.568 2945.01,447.244 "/>
<polyline clip-path="url(#clip443)" style="stroke:#000000; stroke-linecap:round; stroke-linejoin:round; stroke-width:2; stroke-opacity:0.1; fill:none" points="1093.25,698.257 3152.76,698.257 "/>
<polyline clip-path="url(#clip443)" style="stroke:#000000; stroke-linecap:round; stroke-linejoin:round; stroke-width:2; stroke-opacity:0.1; fill:none" points="1093.25,637.331 3152.76,637.331 "/>
<polyline clip-path="url(#clip443)" style="stroke:#000000; stroke-linecap:round; stroke-linejoin:round; stroke-width:2; stroke-opacity:0.1; fill:none" points="1093.25,576.406 3152.76,576.406 "/>
<polyline clip-path="url(#clip443)" style="stroke:#000000; stroke-linecap:round; stroke-linejoin:round; stroke-width:2; stroke-opacity:0.1; fill:none" points="1093.25,515.481 3152.76,515.481 "/>
<polyline clip-path="url(#clip443)" style="stroke:#000000; stroke-linecap:round; stroke-linejoin:round; stroke-width:2; stroke-opacity:0.1; fill:none" points="1093.25,454.555 3152.76,454.555 "/>
<path clip-path="url(#clip443)" d="M2945.01 576.406 L3094.47 576.406 L3094.47 454.555 L2945.01 454.555 L2945.01 576.406  Z" fill="#9fb6cd" fill-rule="evenodd" fill-opacity="1"/>
<polyline clip-path="url(#clip443)" style="stroke:#000000; stroke-linecap:round; stroke-linejoin:round; stroke-width:4; stroke-opacity:1; fill:none" points="2945.01,576.406 3094.47,576.406 3094.47,454.555 2945.01,454.555 2945.01,576.406 "/>
<path clip-path="url(#clip443)" d="M2945.01 698.257 L3094.47 698.257 L3094.47 576.406 L2945.01 576.406 L2945.01 698.257  Z" fill="#f5f0f0" fill-rule="evenodd" fill-opacity="0.8"/>
<polyline clip-path="url(#clip443)" style="stroke:#000000; stroke-linecap:round; stroke-linejoin:round; stroke-width:4; stroke-opacity:0.8; fill:none" points="2945.01,698.257 3094.47,698.257 3094.47,576.406 2945.01,576.406 2945.01,698.257 "/>
<path clip-path="url(#clip443)" d="M2795.55 576.406 L2945.01 576.406 L2945.01 454.555 L2795.55 454.555 L2795.55 576.406  Z" fill="#fffacd" fill-rule="evenodd" fill-opacity="1"/>
<polyline clip-path="url(#clip443)" style="stroke:#000000; stroke-linecap:round; stroke-linejoin:round; stroke-width:4; stroke-opacity:1; fill:none" points="2795.55,576.406 2945.01,576.406 2945.01,454.555 2795.55,454.555 2795.55,576.406 "/>
<path clip-path="url(#clip443)" d="M2795.55 698.257 L2945.01 698.257 L2945.01 576.406 L2795.55 576.406 L2795.55 698.257  Z" fill="#b8d396" fill-rule="evenodd" fill-opacity="0.8"/>
<polyline clip-path="url(#clip443)" style="stroke:#000000; stroke-linecap:round; stroke-linejoin:round; stroke-width:4; stroke-opacity:0.8; fill:none" points="2795.55,698.257 2945.01,698.257 2945.01,576.406 2795.55,576.406 2795.55,698.257 "/>
<path clip-path="url(#clip443)" d="M2646.1 576.406 L2795.55 576.406 L2795.55 454.555 L2646.1 454.555 L2646.1 576.406  Z" fill="#cd96cd" fill-rule="evenodd" fill-opacity="1"/>
<polyline clip-path="url(#clip443)" style="stroke:#000000; stroke-linecap:round; stroke-linejoin:round; stroke-width:4; stroke-opacity:1; fill:none" points="2646.1,576.406 2795.55,576.406 2795.55,454.555 2646.1,454.555 2646.1,576.406 "/>
<path clip-path="url(#clip443)" d="M2646.1 698.257 L2795.55 698.257 L2795.55 576.406 L2646.1 576.406 L2646.1 698.257  Z" fill="#f5f0f0" fill-rule="evenodd" fill-opacity="0.8"/>
<polyline clip-path="url(#clip443)" style="stroke:#000000; stroke-linecap:round; stroke-linejoin:round; stroke-width:4; stroke-opacity:0.8; fill:none" points="2646.1,698.257 2795.55,698.257 2795.55,576.406 2646.1,576.406 2646.1,698.257 "/>
<path clip-path="url(#clip443)" d="M2496.64 576.406 L2646.1 576.406 L2646.1 454.555 L2496.64 454.555 L2496.64 576.406  Z" fill="#b4eeb4" fill-rule="evenodd" fill-opacity="1"/>
<polyline clip-path="url(#clip443)" style="stroke:#000000; stroke-linecap:round; stroke-linejoin:round; stroke-width:4; stroke-opacity:1; fill:none" points="2496.64,576.406 2646.1,576.406 2646.1,454.555 2496.64,454.555 2496.64,576.406 "/>
<path clip-path="url(#clip443)" d="M2496.64 698.257 L2646.1 698.257 L2646.1 576.406 L2496.64 576.406 L2496.64 698.257  Z" fill="#326a1b" fill-rule="evenodd" fill-opacity="0.8"/>
<polyline clip-path="url(#clip443)" style="stroke:#000000; stroke-linecap:round; stroke-linejoin:round; stroke-width:4; stroke-opacity:0.8; fill:none" points="2496.64,698.257 2646.1,698.257 2646.1,576.406 2496.64,576.406 2496.64,698.257 "/>
<path clip-path="url(#clip443)" d="M2347.19 576.406 L2496.64 576.406 L2496.64 454.555 L2347.19 454.555 L2347.19 576.406  Z" fill="#eedd82" fill-rule="evenodd" fill-opacity="1"/>
<polyline clip-path="url(#clip443)" style="stroke:#000000; stroke-linecap:round; stroke-linejoin:round; stroke-width:4; stroke-opacity:1; fill:none" points="2347.19,576.406 2496.64,576.406 2496.64,454.555 2347.19,454.555 2347.19,576.406 "/>
<path clip-path="url(#clip443)" d="M2347.19 698.257 L2496.64 698.257 L2496.64 576.406 L2347.19 576.406 L2347.19 698.257  Z" fill="#f4f2ee" fill-rule="evenodd" fill-opacity="0.8"/>
<polyline clip-path="url(#clip443)" style="stroke:#000000; stroke-linecap:round; stroke-linejoin:round; stroke-width:4; stroke-opacity:0.8; fill:none" points="2347.19,698.257 2496.64,698.257 2496.64,576.406 2347.19,576.406 2347.19,698.257 "/>
<path clip-path="url(#clip443)" d="M2197.73 576.406 L2347.19 576.406 L2347.19 454.555 L2197.73 454.555 L2197.73 576.406  Z" fill="#fa8072" fill-rule="evenodd" fill-opacity="1"/>
<polyline clip-path="url(#clip443)" style="stroke:#000000; stroke-linecap:round; stroke-linejoin:round; stroke-width:4; stroke-opacity:1; fill:none" points="2197.73,576.406 2347.19,576.406 2347.19,454.555 2197.73,454.555 2197.73,576.406 "/>
<path clip-path="url(#clip443)" d="M2197.73 698.257 L2347.19 698.257 L2347.19 576.406 L2197.73 576.406 L2197.73 698.257  Z" fill="#98bd70" fill-rule="evenodd" fill-opacity="0.8"/>
<polyline clip-path="url(#clip443)" style="stroke:#000000; stroke-linecap:round; stroke-linejoin:round; stroke-width:4; stroke-opacity:0.8; fill:none" points="2197.73,698.257 2347.19,698.257 2347.19,576.406 2197.73,576.406 2197.73,698.257 "/>
<path clip-path="url(#clip443)" d="M2048.27 576.406 L2197.73 576.406 L2197.73 454.555 L2048.27 454.555 L2048.27 576.406  Z" fill="#b4eeb4" fill-rule="evenodd" fill-opacity="1"/>
<polyline clip-path="url(#clip443)" style="stroke:#000000; stroke-linecap:round; stroke-linejoin:round; stroke-width:4; stroke-opacity:1; fill:none" points="2048.27,576.406 2197.73,576.406 2197.73,454.555 2048.27,454.555 2048.27,576.406 "/>
<path clip-path="url(#clip443)" d="M2048.27 698.257 L2197.73 698.257 L2197.73 576.406 L2048.27 576.406 L2048.27 698.257  Z" fill="#0c4b00" fill-rule="evenodd" fill-opacity="0.8"/>
<polyline clip-path="url(#clip443)" style="stroke:#000000; stroke-linecap:round; stroke-linejoin:round; stroke-width:4; stroke-opacity:0.8; fill:none" points="2048.27,698.257 2197.73,698.257 2197.73,576.406 2048.27,576.406 2048.27,698.257 "/>
<path clip-path="url(#clip443)" d="M1898.82 576.406 L2048.27 576.406 L2048.27 454.555 L1898.82 454.555 L1898.82 576.406  Z" fill="#eedd82" fill-rule="evenodd" fill-opacity="1"/>
<polyline clip-path="url(#clip443)" style="stroke:#000000; stroke-linecap:round; stroke-linejoin:round; stroke-width:4; stroke-opacity:1; fill:none" points="1898.82,576.406 2048.27,576.406 2048.27,454.555 1898.82,454.555 1898.82,576.406 "/>
<path clip-path="url(#clip443)" d="M1898.82 698.257 L2048.27 698.257 L2048.27 576.406 L1898.82 576.406 L1898.82 698.257  Z" fill="#f5e7f0" fill-rule="evenodd" fill-opacity="0.8"/>
<polyline clip-path="url(#clip443)" style="stroke:#000000; stroke-linecap:round; stroke-linejoin:round; stroke-width:4; stroke-opacity:0.8; fill:none" points="1898.82,698.257 2048.27,698.257 2048.27,576.406 1898.82,576.406 1898.82,698.257 "/>
<path clip-path="url(#clip443)" d="M1749.36 576.406 L1898.82 576.406 L1898.82 454.555 L1749.36 454.555 L1749.36 576.406  Z" fill="#fa8072" fill-rule="evenodd" fill-opacity="1"/>
<polyline clip-path="url(#clip443)" style="stroke:#000000; stroke-linecap:round; stroke-linejoin:round; stroke-width:4; stroke-opacity:1; fill:none" points="1749.36,576.406 1898.82,576.406 1898.82,454.555 1749.36,454.555 1749.36,576.406 "/>
<path clip-path="url(#clip443)" d="M1749.36 698.257 L1898.82 698.257 L1898.82 576.406 L1749.36 576.406 L1749.36 698.257  Z" fill="#0c4b00" fill-rule="evenodd" fill-opacity="0.8"/>
<polyline clip-path="url(#clip443)" style="stroke:#000000; stroke-linecap:round; stroke-linejoin:round; stroke-width:4; stroke-opacity:0.8; fill:none" points="1749.36,698.257 1898.82,698.257 1898.82,576.406 1749.36,576.406 1749.36,698.257 "/>
<path clip-path="url(#clip443)" d="M1599.9 576.406 L1749.36 576.406 L1749.36 454.555 L1599.9 454.555 L1599.9 576.406  Z" fill="#b4eeb4" fill-rule="evenodd" fill-opacity="1"/>
<polyline clip-path="url(#clip443)" style="stroke:#000000; stroke-linecap:round; stroke-linejoin:round; stroke-width:4; stroke-opacity:1; fill:none" points="1599.9,576.406 1749.36,576.406 1749.36,454.555 1599.9,454.555 1599.9,576.406 "/>
<path clip-path="url(#clip443)" d="M1599.9 698.257 L1749.36 698.257 L1749.36 576.406 L1599.9 576.406 L1599.9 698.257  Z" fill="#0c4b00" fill-rule="evenodd" fill-opacity="0.8"/>
<polyline clip-path="url(#clip443)" style="stroke:#000000; stroke-linecap:round; stroke-linejoin:round; stroke-width:4; stroke-opacity:0.8; fill:none" points="1599.9,698.257 1749.36,698.257 1749.36,576.406 1599.9,576.406 1599.9,698.257 "/>
<path clip-path="url(#clip443)" d="M1450.45 576.406 L1599.9 576.406 L1599.9 454.555 L1450.45 454.555 L1450.45 576.406  Z" fill="#eedd82" fill-rule="evenodd" fill-opacity="1"/>
<polyline clip-path="url(#clip443)" style="stroke:#000000; stroke-linecap:round; stroke-linejoin:round; stroke-width:4; stroke-opacity:1; fill:none" points="1450.45,576.406 1599.9,576.406 1599.9,454.555 1450.45,454.555 1450.45,576.406 "/>
<path clip-path="url(#clip443)" d="M1450.45 698.257 L1599.9 698.257 L1599.9 576.406 L1450.45 576.406 L1450.45 698.257  Z" fill="#f5f0f0" fill-rule="evenodd" fill-opacity="0.8"/>
<polyline clip-path="url(#clip443)" style="stroke:#000000; stroke-linecap:round; stroke-linejoin:round; stroke-width:4; stroke-opacity:0.8; fill:none" points="1450.45,698.257 1599.9,698.257 1599.9,576.406 1450.45,576.406 1450.45,698.257 "/>
<path clip-path="url(#clip443)" d="M1300.99 576.406 L1450.45 576.406 L1450.45 454.555 L1300.99 454.555 L1300.99 576.406  Z" fill="#fa8072" fill-rule="evenodd" fill-opacity="1"/>
<polyline clip-path="url(#clip443)" style="stroke:#000000; stroke-linecap:round; stroke-linejoin:round; stroke-width:4; stroke-opacity:1; fill:none" points="1300.99,576.406 1450.45,576.406 1450.45,454.555 1300.99,454.555 1300.99,576.406 "/>
<path clip-path="url(#clip443)" d="M1300.99 698.257 L1450.45 698.257 L1450.45 576.406 L1300.99 576.406 L1300.99 698.257  Z" fill="#ae4c95" fill-rule="evenodd" fill-opacity="0.8"/>
<polyline clip-path="url(#clip443)" style="stroke:#000000; stroke-linecap:round; stroke-linejoin:round; stroke-width:4; stroke-opacity:0.8; fill:none" points="1300.99,698.257 1450.45,698.257 1450.45,576.406 1300.99,576.406 1300.99,698.257 "/>
<path clip-path="url(#clip443)" d="M1151.53 576.406 L1300.99 576.406 L1300.99 454.555 L1151.53 454.555 L1151.53 576.406  Z" fill="#c0c0c0" fill-rule="evenodd" fill-opacity="1"/>
<polyline clip-path="url(#clip443)" style="stroke:#000000; stroke-linecap:round; stroke-linejoin:round; stroke-width:4; stroke-opacity:1; fill:none" points="1151.53,576.406 1300.99,576.406 1300.99,454.555 1151.53,454.555 1151.53,576.406 "/>
<path clip-path="url(#clip443)" d="M1151.53 698.257 L1300.99 698.257 L1300.99 576.406 L1151.53 576.406 L1151.53 698.257  Z" fill="#c0c0c0" fill-rule="evenodd" fill-opacity="0.8"/>
<polyline clip-path="url(#clip443)" style="stroke:#000000; stroke-linecap:round; stroke-linejoin:round; stroke-width:4; stroke-opacity:0.8; fill:none" points="1151.53,698.257 1300.99,698.257 1300.99,576.406 1151.53,576.406 1151.53,698.257 "/>
<path clip-path="url(#clip440)" d="M2967.32 485.241 L3018.48 485.241 L3018.48 492.127 L2997.01 492.127 L2997.01 545.721 L2988.79 545.721 L2988.79 492.127 L2967.32 492.127 L2967.32 485.241 Z" fill="#000000" fill-rule="nonzero" fill-opacity="1" /><path clip-path="url(#clip440)" d="M3026.38 485.241 L3037.4 485.241 L3064.22 535.836 L3064.22 485.241 L3072.16 485.241 L3072.16 545.721 L3061.14 545.721 L3034.32 495.125 L3034.32 545.721 L3026.38 545.721 L3026.38 485.241 Z" fill="#000000" fill-rule="nonzero" fill-opacity="1" /><path clip-path="url(#clip440)" d="M3019.74 615.153 L3008.64 645.251 L3030.88 645.251 L3019.74 615.153 M3015.12 607.091 L3024.4 607.091 L3047.45 667.571 L3038.94 667.571 L3033.43 652.056 L3006.17 652.056 L3000.66 667.571 L2992.03 667.571 L3015.12 607.091 Z" fill="#000000" fill-rule="nonzero" fill-opacity="1" /><path clip-path="url(#clip440)" d="M2827.22 485.241 L2835.4 485.241 L2835.4 538.834 L2864.85 538.834 L2864.85 545.721 L2827.22 545.721 L2827.22 485.241 Z" fill="#000000" fill-rule="nonzero" fill-opacity="1" /><path clip-path="url(#clip440)" d="M2909.7 487.226 L2909.7 495.206 Q2905.04 492.978 2900.91 491.884 Q2896.78 490.79 2892.93 490.79 Q2886.24 490.79 2882.6 493.383 Q2878.99 495.975 2878.99 500.756 Q2878.99 504.766 2881.38 506.832 Q2883.81 508.857 2890.54 510.113 L2895.48 511.126 Q2904.63 512.868 2908.97 517.283 Q2913.34 521.658 2913.34 529.031 Q2913.34 537.821 2907.43 542.358 Q2901.56 546.895 2890.17 546.895 Q2885.88 546.895 2881.02 545.923 Q2876.2 544.951 2871.01 543.047 L2871.01 534.621 Q2875.99 537.416 2880.78 538.834 Q2885.56 540.252 2890.17 540.252 Q2897.18 540.252 2900.99 537.497 Q2904.8 534.743 2904.8 529.638 Q2904.8 525.182 2902.04 522.671 Q2899.33 520.159 2893.09 518.904 L2888.11 517.931 Q2878.95 516.108 2874.86 512.22 Q2870.77 508.331 2870.77 501.404 Q2870.77 493.383 2876.4 488.765 Q2882.07 484.147 2892 484.147 Q2896.25 484.147 2900.66 484.916 Q2905.08 485.686 2909.7 487.226 Z" fill="#000000" fill-rule="nonzero" fill-opacity="1" /><path clip-path="url(#clip440)" d="M2894.67 611.75 L2894.67 620.378 Q2890.54 616.53 2885.84 614.626 Q2881.18 612.722 2875.91 612.722 Q2865.54 612.722 2860.03 619.082 Q2854.53 625.401 2854.53 637.392 Q2854.53 649.342 2860.03 655.702 Q2865.54 662.022 2875.91 662.022 Q2881.18 662.022 2885.84 660.118 Q2890.54 658.214 2894.67 654.365 L2894.67 662.913 Q2890.38 665.83 2885.56 667.288 Q2880.78 668.746 2875.43 668.746 Q2861.7 668.746 2853.8 660.361 Q2845.9 651.935 2845.9 637.392 Q2845.9 622.809 2853.8 614.424 Q2861.7 605.998 2875.43 605.998 Q2880.86 605.998 2885.64 607.456 Q2890.46 608.874 2894.67 611.75 Z" fill="#000000" fill-rule="nonzero" fill-opacity="1" /><path clip-path="url(#clip440)" d="M2706.24 537.092 L2706.24 520.848 L2692.88 520.848 L2692.88 514.124 L2714.35 514.124 L2714.35 540.09 Q2709.61 543.452 2703.89 545.194 Q2698.18 546.895 2691.7 546.895 Q2677.52 546.895 2669.5 538.631 Q2661.52 530.327 2661.52 515.541 Q2661.52 500.715 2669.5 492.451 Q2677.52 484.147 2691.7 484.147 Q2697.62 484.147 2702.92 485.605 Q2708.27 487.063 2712.77 489.899 L2712.77 498.609 Q2708.23 494.76 2703.12 492.816 Q2698.02 490.871 2692.39 490.871 Q2681.29 490.871 2675.7 497.069 Q2670.15 503.267 2670.15 515.541 Q2670.15 527.775 2675.7 533.973 Q2681.29 540.171 2692.39 540.171 Q2696.72 540.171 2700.13 539.442 Q2703.53 538.672 2706.24 537.092 Z" fill="#000000" fill-rule="nonzero" fill-opacity="1" /><path clip-path="url(#clip440)" d="M2737.48 491.965 L2737.48 538.996 L2747.36 538.996 Q2759.88 538.996 2765.67 533.325 Q2771.5 527.654 2771.5 515.42 Q2771.5 503.267 2765.67 497.636 Q2759.88 491.965 2747.36 491.965 L2737.48 491.965 M2729.29 485.241 L2746.1 485.241 Q2763.69 485.241 2771.91 492.573 Q2780.13 499.864 2780.13 515.42 Q2780.13 531.056 2771.87 538.388 Q2763.6 545.721 2746.1 545.721 L2729.29 545.721 L2729.29 485.241 Z" fill="#000000" fill-rule="nonzero" fill-opacity="1" /><path clip-path="url(#clip440)" d="M2739.14 658.943 L2739.14 642.699 L2725.77 642.699 L2725.77 635.974 L2747.24 635.974 L2747.24 661.941 Q2742.5 665.303 2736.79 667.045 Q2731.08 668.746 2724.59 668.746 Q2710.42 668.746 2702.4 660.482 Q2694.41 652.178 2694.41 637.392 Q2694.41 622.566 2702.4 614.302 Q2710.42 605.998 2724.59 605.998 Q2730.51 605.998 2735.82 607.456 Q2741.16 608.914 2745.66 611.75 L2745.66 620.459 Q2741.12 616.611 2736.02 614.667 Q2730.91 612.722 2725.28 612.722 Q2714.18 612.722 2708.59 618.92 Q2703.04 625.118 2703.04 637.392 Q2703.04 649.626 2708.59 655.824 Q2714.18 662.022 2725.28 662.022 Q2729.62 662.022 2733.02 661.293 Q2736.42 660.523 2739.14 658.943 Z" fill="#000000" fill-rule="nonzero" fill-opacity="1" /><path clip-path="url(#clip440)" d="M2518.95 485.241 L2570.11 485.241 L2570.11 492.127 L2548.64 492.127 L2548.64 545.721 L2540.42 545.721 L2540.42 492.127 L2518.95 492.127 L2518.95 485.241 Z" fill="#000000" fill-rule="nonzero" fill-opacity="1" /><path clip-path="url(#clip440)" d="M2578.01 485.241 L2589.03 485.241 L2615.85 535.836 L2615.85 485.241 L2623.79 485.241 L2623.79 545.721 L2612.77 545.721 L2585.95 495.125 L2585.95 545.721 L2578.01 545.721 L2578.01 485.241 Z" fill="#000000" fill-rule="nonzero" fill-opacity="1" /><path clip-path="url(#clip440)" d="M2571.37 615.153 L2560.27 645.251 L2582.51 645.251 L2571.37 615.153 M2566.75 607.091 L2576.03 607.091 L2599.08 667.571 L2590.57 667.571 L2585.06 652.056 L2557.8 652.056 L2552.29 667.571 L2543.66 667.571 L2566.75 607.091 Z" fill="#000000" fill-rule="nonzero" fill-opacity="1" /><path clip-path="url(#clip440)" d="M2392.08 493.302 L2380.98 523.4 L2403.22 523.4 L2392.08 493.302 M2387.46 485.241 L2396.74 485.241 L2419.79 545.721 L2411.28 545.721 L2405.77 530.206 L2378.51 530.206 L2373 545.721 L2364.37 545.721 L2387.46 485.241 Z" fill="#000000" fill-rule="nonzero" fill-opacity="1" /><path clip-path="url(#clip440)" d="M2436.8 491.965 L2436.8 538.996 L2446.69 538.996 Q2459.2 538.996 2465 533.325 Q2470.83 527.654 2470.83 515.42 Q2470.83 503.267 2465 497.636 Q2459.2 491.965 2446.69 491.965 L2436.8 491.965 M2428.62 485.241 L2445.43 485.241 Q2463.01 485.241 2471.23 492.573 Q2479.46 499.864 2479.46 515.42 Q2479.46 531.056 2471.19 538.388 Q2462.93 545.721 2445.43 545.721 L2428.62 545.721 L2428.62 485.241 Z" fill="#000000" fill-rule="nonzero" fill-opacity="1" /><path clip-path="url(#clip440)" d="M2398.76 607.091 L2406.99 607.091 L2406.99 643.833 Q2406.99 653.555 2410.51 657.849 Q2414.03 662.103 2421.93 662.103 Q2429.79 662.103 2433.32 657.849 Q2436.84 653.555 2436.84 643.833 L2436.84 607.091 L2445.06 607.091 L2445.06 644.846 Q2445.06 656.674 2439.19 662.71 Q2433.36 668.746 2421.93 668.746 Q2410.47 668.746 2404.6 662.71 Q2398.76 656.674 2398.76 644.846 L2398.76 607.091 Z" fill="#000000" fill-rule="nonzero" fill-opacity="1" /><path clip-path="url(#clip440)" d="M2258.3 487.226 L2258.3 495.206 Q2253.64 492.978 2249.51 491.884 Q2245.38 490.79 2241.53 490.79 Q2234.84 490.79 2231.2 493.383 Q2227.59 495.975 2227.59 500.756 Q2227.59 504.766 2229.98 506.832 Q2232.41 508.857 2239.14 510.113 L2244.08 511.126 Q2253.24 512.868 2257.57 517.283 Q2261.95 521.658 2261.95 529.031 Q2261.95 537.821 2256.03 542.358 Q2250.16 546.895 2238.77 546.895 Q2234.48 546.895 2229.62 545.923 Q2224.8 544.951 2219.61 543.047 L2219.61 534.621 Q2224.6 537.416 2229.38 538.834 Q2234.16 540.252 2238.77 540.252 Q2245.78 540.252 2249.59 537.497 Q2253.4 534.743 2253.4 529.638 Q2253.4 525.182 2250.64 522.671 Q2247.93 520.159 2241.69 518.904 L2236.71 517.931 Q2227.55 516.108 2223.46 512.22 Q2219.37 508.331 2219.37 501.404 Q2219.37 493.383 2225 488.765 Q2230.67 484.147 2240.6 484.147 Q2244.85 484.147 2249.27 484.916 Q2253.68 485.686 2258.3 487.226 Z" fill="#000000" fill-rule="nonzero" fill-opacity="1" /><path clip-path="url(#clip440)" d="M2282.89 491.965 L2282.89 538.996 L2292.77 538.996 Q2305.29 538.996 2311.08 533.325 Q2316.92 527.654 2316.92 515.42 Q2316.92 503.267 2311.08 497.636 Q2305.29 491.965 2292.77 491.965 L2282.89 491.965 M2274.71 485.241 L2291.52 485.241 Q2309.1 485.241 2317.32 492.573 Q2325.54 499.864 2325.54 515.42 Q2325.54 531.056 2317.28 538.388 Q2309.02 545.721 2291.52 545.721 L2274.71 545.721 L2274.71 485.241 Z" fill="#000000" fill-rule="nonzero" fill-opacity="1" /><path clip-path="url(#clip440)" d="M2290.77 658.943 L2290.77 642.699 L2277.4 642.699 L2277.4 635.974 L2298.87 635.974 L2298.87 661.941 Q2294.13 665.303 2288.42 667.045 Q2282.71 668.746 2276.22 668.746 Q2262.05 668.746 2254.03 660.482 Q2246.05 652.178 2246.05 637.392 Q2246.05 622.566 2254.03 614.302 Q2262.05 605.998 2276.22 605.998 Q2282.14 605.998 2287.45 607.456 Q2292.79 608.914 2297.29 611.75 L2297.29 620.459 Q2292.75 616.611 2287.65 614.667 Q2282.54 612.722 2276.91 612.722 Q2265.81 612.722 2260.22 618.92 Q2254.67 625.118 2254.67 637.392 Q2254.67 649.626 2260.22 655.824 Q2265.81 662.022 2276.91 662.022 Q2281.25 662.022 2284.65 661.293 Q2288.05 660.523 2290.77 658.943 Z" fill="#000000" fill-rule="nonzero" fill-opacity="1" /><path clip-path="url(#clip440)" d="M2066.55 485.241 L2077.57 485.241 L2104.39 535.836 L2104.39 485.241 L2112.33 485.241 L2112.33 545.721 L2101.31 545.721 L2074.49 495.125 L2074.49 545.721 L2066.55 545.721 L2066.55 485.241 Z" fill="#000000" fill-rule="nonzero" fill-opacity="1" /><path clip-path="url(#clip440)" d="M2136.79 491.965 L2136.79 538.996 L2146.68 538.996 Q2159.2 538.996 2164.99 533.325 Q2170.82 527.654 2170.82 515.42 Q2170.82 503.267 2164.99 497.636 Q2159.2 491.965 2146.68 491.965 L2136.79 491.965 M2128.61 485.241 L2145.42 485.241 Q2163 485.241 2171.23 492.573 Q2179.45 499.864 2179.45 515.42 Q2179.45 531.056 2171.19 538.388 Q2162.92 545.721 2145.42 545.721 L2128.61 545.721 L2128.61 485.241 Z" fill="#000000" fill-rule="nonzero" fill-opacity="1" /><path clip-path="url(#clip440)" d="M2099.85 607.091 L2108.07 607.091 L2108.07 643.833 Q2108.07 653.555 2111.6 657.849 Q2115.12 662.103 2123.02 662.103 Q2130.88 662.103 2134.4 657.849 Q2137.93 653.555 2137.93 643.833 L2137.93 607.091 L2146.15 607.091 L2146.15 644.846 Q2146.15 656.674 2140.28 662.71 Q2134.44 668.746 2123.02 668.746 Q2111.56 668.746 2105.68 662.71 Q2099.85 656.674 2099.85 644.846 L2099.85 607.091 Z" fill="#000000" fill-rule="nonzero" fill-opacity="1" /><path clip-path="url(#clip440)" d="M1966.19 489.899 L1966.19 498.528 Q1962.06 494.679 1957.36 492.775 Q1952.7 490.871 1947.44 490.871 Q1937.07 490.871 1931.56 497.231 Q1926.05 503.551 1926.05 515.541 Q1926.05 527.491 1931.56 533.851 Q1937.07 540.171 1947.44 540.171 Q1952.7 540.171 1957.36 538.267 Q1962.06 536.363 1966.19 532.515 L1966.19 541.062 Q1961.9 543.979 1957.08 545.437 Q1952.3 546.895 1946.95 546.895 Q1933.22 546.895 1925.32 538.51 Q1917.42 530.084 1917.42 515.541 Q1917.42 500.958 1925.32 492.573 Q1933.22 484.147 1946.95 484.147 Q1952.38 484.147 1957.16 485.605 Q1961.98 487.023 1966.19 489.899 Z" fill="#000000" fill-rule="nonzero" fill-opacity="1" /><path clip-path="url(#clip440)" d="M1987.01 491.965 L1987.01 538.996 L1996.9 538.996 Q2009.42 538.996 2015.21 533.325 Q2021.04 527.654 2021.04 515.42 Q2021.04 503.267 2015.21 497.636 Q2009.42 491.965 1996.9 491.965 L1987.01 491.965 M1978.83 485.241 L1995.64 485.241 Q2013.22 485.241 2021.45 492.573 Q2029.67 499.864 2029.67 515.42 Q2029.67 531.056 2021.41 538.388 Q2013.14 545.721 1995.64 545.721 L1978.83 545.721 L1978.83 485.241 Z" fill="#000000" fill-rule="nonzero" fill-opacity="1" /><path clip-path="url(#clip440)" d="M1950.39 607.091 L1958.62 607.091 L1958.62 643.833 Q1958.62 653.555 1962.14 657.849 Q1965.67 662.103 1973.56 662.103 Q1981.42 662.103 1984.95 657.849 Q1988.47 653.555 1988.47 643.833 L1988.47 607.091 L1996.7 607.091 L1996.7 644.846 Q1996.7 656.674 1990.82 662.71 Q1984.99 668.746 1973.56 668.746 Q1962.1 668.746 1956.23 662.71 Q1950.39 656.674 1950.39 644.846 L1950.39 607.091 Z" fill="#000000" fill-rule="nonzero" fill-opacity="1" /><path clip-path="url(#clip440)" d="M1767.64 485.241 L1778.66 485.241 L1805.47 535.836 L1805.47 485.241 L1813.41 485.241 L1813.41 545.721 L1802.4 545.721 L1775.58 495.125 L1775.58 545.721 L1767.64 545.721 L1767.64 485.241 Z" fill="#000000" fill-rule="nonzero" fill-opacity="1" /><path clip-path="url(#clip440)" d="M1837.88 491.965 L1837.88 538.996 L1847.77 538.996 Q1860.28 538.996 1866.08 533.325 Q1871.91 527.654 1871.91 515.42 Q1871.91 503.267 1866.08 497.636 Q1860.28 491.965 1847.77 491.965 L1837.88 491.965 M1829.7 485.241 L1846.51 485.241 Q1864.09 485.241 1872.31 492.573 Q1880.54 499.864 1880.54 515.42 Q1880.54 531.056 1872.27 538.388 Q1864.01 545.721 1846.51 545.721 L1829.7 545.721 L1829.7 485.241 Z" fill="#000000" fill-rule="nonzero" fill-opacity="1" /><path clip-path="url(#clip440)" d="M1800.94 607.091 L1809.16 607.091 L1809.16 643.833 Q1809.16 653.555 1812.68 657.849 Q1816.21 662.103 1824.11 662.103 Q1831.97 662.103 1835.49 657.849 Q1839.02 653.555 1839.02 643.833 L1839.02 607.091 L1847.24 607.091 L1847.24 644.846 Q1847.24 656.674 1841.37 662.71 Q1835.53 668.746 1824.11 668.746 Q1812.64 668.746 1806.77 662.71 Q1800.94 656.674 1800.94 644.846 L1800.94 607.091 Z" fill="#000000" fill-rule="nonzero" fill-opacity="1" /><path clip-path="url(#clip440)" d="M1618.18 485.241 L1629.2 485.241 L1656.02 535.836 L1656.02 485.241 L1663.96 485.241 L1663.96 545.721 L1652.94 545.721 L1626.12 495.125 L1626.12 545.721 L1618.18 545.721 L1618.18 485.241 Z" fill="#000000" fill-rule="nonzero" fill-opacity="1" /><path clip-path="url(#clip440)" d="M1688.42 491.965 L1688.42 538.996 L1698.31 538.996 Q1710.83 538.996 1716.62 533.325 Q1722.45 527.654 1722.45 515.42 Q1722.45 503.267 1716.62 497.636 Q1710.83 491.965 1698.31 491.965 L1688.42 491.965 M1680.24 485.241 L1697.05 485.241 Q1714.63 485.241 1722.86 492.573 Q1731.08 499.864 1731.08 515.42 Q1731.08 531.056 1722.82 538.388 Q1714.55 545.721 1697.05 545.721 L1680.24 545.721 L1680.24 485.241 Z" fill="#000000" fill-rule="nonzero" fill-opacity="1" /><path clip-path="url(#clip440)" d="M1651.48 607.091 L1659.7 607.091 L1659.7 643.833 Q1659.7 653.555 1663.23 657.849 Q1666.75 662.103 1674.65 662.103 Q1682.51 662.103 1686.03 657.849 Q1689.56 653.555 1689.56 643.833 L1689.56 607.091 L1697.78 607.091 L1697.78 644.846 Q1697.78 656.674 1691.91 662.71 Q1686.08 668.746 1674.65 668.746 Q1663.19 668.746 1657.31 662.71 Q1651.48 656.674 1651.48 644.846 L1651.48 607.091 Z" fill="#000000" fill-rule="nonzero" fill-opacity="1" /><path clip-path="url(#clip440)" d="M1493.09 545.721 L1470 485.241 L1478.55 485.241 L1497.71 536.16 L1516.91 485.241 L1525.42 485.241 L1502.37 545.721 L1493.09 545.721 Z" fill="#000000" fill-rule="nonzero" fill-opacity="1" /><path clip-path="url(#clip440)" d="M1534.25 485.241 L1542.43 485.241 L1542.43 510.032 L1572.17 510.032 L1572.17 485.241 L1580.35 485.241 L1580.35 545.721 L1572.17 545.721 L1572.17 516.919 L1542.43 516.919 L1542.43 545.721 L1534.25 545.721 L1534.25 485.241 Z" fill="#000000" fill-rule="nonzero" fill-opacity="1" /><path clip-path="url(#clip440)" d="M1525.18 615.153 L1514.08 645.251 L1536.32 645.251 L1525.18 615.153 M1520.56 607.091 L1529.83 607.091 L1552.88 667.571 L1544.38 667.571 L1538.87 652.056 L1511.6 652.056 L1506.1 667.571 L1497.47 667.571 L1520.56 607.091 Z" fill="#000000" fill-rule="nonzero" fill-opacity="1" /><path clip-path="url(#clip440)" d="M1321.8 485.241 L1332.82 485.241 L1359.64 535.836 L1359.64 485.241 L1367.58 485.241 L1367.58 545.721 L1356.56 545.721 L1329.74 495.125 L1329.74 545.721 L1321.8 545.721 L1321.8 485.241 Z" fill="#000000" fill-rule="nonzero" fill-opacity="1" /><path clip-path="url(#clip440)" d="M1383.86 485.241 L1394.88 485.241 L1421.7 535.836 L1421.7 485.241 L1429.64 485.241 L1429.64 545.721 L1418.62 545.721 L1391.8 495.125 L1391.8 545.721 L1383.86 545.721 L1383.86 485.241 Z" fill="#000000" fill-rule="nonzero" fill-opacity="1" /><path clip-path="url(#clip440)" d="M1375.72 615.153 L1364.62 645.251 L1386.86 645.251 L1375.72 615.153 M1371.1 607.091 L1380.38 607.091 L1403.43 667.571 L1394.92 667.571 L1389.41 652.056 L1362.15 652.056 L1356.64 667.571 L1348.01 667.571 L1371.1 607.091 Z" fill="#000000" fill-rule="nonzero" fill-opacity="1" /><path clip-path="url(#clip440)" d="M1250.65 611.75 L1250.65 620.378 Q1246.52 616.53 1241.82 614.626 Q1237.16 612.722 1231.89 612.722 Q1221.52 612.722 1216.01 619.082 Q1210.5 625.401 1210.5 637.392 Q1210.5 649.342 1216.01 655.702 Q1221.52 662.022 1231.89 662.022 Q1237.16 662.022 1241.82 660.118 Q1246.52 658.214 1250.65 654.365 L1250.65 662.913 Q1246.35 665.83 1241.53 667.288 Q1236.75 668.746 1231.41 668.746 Q1217.67 668.746 1209.78 660.361 Q1201.88 651.935 1201.88 637.392 Q1201.88 622.809 1209.78 614.424 Q1217.67 605.998 1231.41 605.998 Q1236.84 605.998 1241.62 607.456 Q1246.44 608.874 1250.65 611.75 Z" fill="#000000" fill-rule="nonzero" fill-opacity="1" /><g clip-path="url(#clip440)">
<text style="fill:#000000; fill-opacity:1; font-family:Arial,Helvetica Neue,Helvetica,sans-serif; font-size:82px; font-style:italic; text-anchor:end;" transform="rotate(0, 1039.44, 606.406)" x="1039.44" y="606.406">Phlegmariurus squarrosus</text>
</g>
<path clip-path="url(#clip440)" d="M1093.25 1105.57 L3152.76 1105.57 L3152.76 847.244 L1093.25 847.244  Z" fill="#ffffff" fill-rule="evenodd" fill-opacity="1"/>
<defs>
  <clipPath id="clip444">
    <rect x="1093" y="847" width="2061" height="259"/>
  </clipPath>
</defs>
<polyline clip-path="url(#clip444)" style="stroke:#000000; stroke-linecap:round; stroke-linejoin:round; stroke-width:2; stroke-opacity:0.1; fill:none" points="1450.45,1105.57 1450.45,847.244 "/>
<polyline clip-path="url(#clip444)" style="stroke:#000000; stroke-linecap:round; stroke-linejoin:round; stroke-width:2; stroke-opacity:0.1; fill:none" points="1824.09,1105.57 1824.09,847.244 "/>
<polyline clip-path="url(#clip444)" style="stroke:#000000; stroke-linecap:round; stroke-linejoin:round; stroke-width:2; stroke-opacity:0.1; fill:none" points="2197.73,1105.57 2197.73,847.244 "/>
<polyline clip-path="url(#clip444)" style="stroke:#000000; stroke-linecap:round; stroke-linejoin:round; stroke-width:2; stroke-opacity:0.1; fill:none" points="2571.37,1105.57 2571.37,847.244 "/>
<polyline clip-path="url(#clip444)" style="stroke:#000000; stroke-linecap:round; stroke-linejoin:round; stroke-width:2; stroke-opacity:0.1; fill:none" points="2945.01,1105.57 2945.01,847.244 "/>
<polyline clip-path="url(#clip444)" style="stroke:#000000; stroke-linecap:round; stroke-linejoin:round; stroke-width:2; stroke-opacity:0.1; fill:none" points="1093.25,1098.26 3152.76,1098.26 "/>
<polyline clip-path="url(#clip444)" style="stroke:#000000; stroke-linecap:round; stroke-linejoin:round; stroke-width:2; stroke-opacity:0.1; fill:none" points="1093.25,1037.33 3152.76,1037.33 "/>
<polyline clip-path="url(#clip444)" style="stroke:#000000; stroke-linecap:round; stroke-linejoin:round; stroke-width:2; stroke-opacity:0.1; fill:none" points="1093.25,976.406 3152.76,976.406 "/>
<polyline clip-path="url(#clip444)" style="stroke:#000000; stroke-linecap:round; stroke-linejoin:round; stroke-width:2; stroke-opacity:0.1; fill:none" points="1093.25,915.481 3152.76,915.481 "/>
<polyline clip-path="url(#clip444)" style="stroke:#000000; stroke-linecap:round; stroke-linejoin:round; stroke-width:2; stroke-opacity:0.1; fill:none" points="1093.25,854.555 3152.76,854.555 "/>
<path clip-path="url(#clip444)" d="M2945.01 976.406 L3094.47 976.406 L3094.47 854.555 L2945.01 854.555 L2945.01 976.406  Z" fill="#9fb6cd" fill-rule="evenodd" fill-opacity="1"/>
<polyline clip-path="url(#clip444)" style="stroke:#000000; stroke-linecap:round; stroke-linejoin:round; stroke-width:4; stroke-opacity:1; fill:none" points="2945.01,976.406 3094.47,976.406 3094.47,854.555 2945.01,854.555 2945.01,976.406 "/>
<path clip-path="url(#clip444)" d="M2945.01 1098.26 L3094.47 1098.26 L3094.47 976.406 L2945.01 976.406 L2945.01 1098.26  Z" fill="#f5f0f0" fill-rule="evenodd" fill-opacity="0.8"/>
<polyline clip-path="url(#clip444)" style="stroke:#000000; stroke-linecap:round; stroke-linejoin:round; stroke-width:4; stroke-opacity:0.8; fill:none" points="2945.01,1098.26 3094.47,1098.26 3094.47,976.406 2945.01,976.406 2945.01,1098.26 "/>
<path clip-path="url(#clip444)" d="M2795.55 976.406 L2945.01 976.406 L2945.01 854.555 L2795.55 854.555 L2795.55 976.406  Z" fill="#fffacd" fill-rule="evenodd" fill-opacity="1"/>
<polyline clip-path="url(#clip444)" style="stroke:#000000; stroke-linecap:round; stroke-linejoin:round; stroke-width:4; stroke-opacity:1; fill:none" points="2795.55,976.406 2945.01,976.406 2945.01,854.555 2795.55,854.555 2795.55,976.406 "/>
<path clip-path="url(#clip444)" d="M2795.55 1098.26 L2945.01 1098.26 L2945.01 976.406 L2795.55 976.406 L2795.55 1098.26  Z" fill="#b8d396" fill-rule="evenodd" fill-opacity="0.8"/>
<polyline clip-path="url(#clip444)" style="stroke:#000000; stroke-linecap:round; stroke-linejoin:round; stroke-width:4; stroke-opacity:0.8; fill:none" points="2795.55,1098.26 2945.01,1098.26 2945.01,976.406 2795.55,976.406 2795.55,1098.26 "/>
<path clip-path="url(#clip444)" d="M2646.1 976.406 L2795.55 976.406 L2795.55 854.555 L2646.1 854.555 L2646.1 976.406  Z" fill="#cd96cd" fill-rule="evenodd" fill-opacity="1"/>
<polyline clip-path="url(#clip444)" style="stroke:#000000; stroke-linecap:round; stroke-linejoin:round; stroke-width:4; stroke-opacity:1; fill:none" points="2646.1,976.406 2795.55,976.406 2795.55,854.555 2646.1,854.555 2646.1,976.406 "/>
<path clip-path="url(#clip444)" d="M2646.1 1098.26 L2795.55 1098.26 L2795.55 976.406 L2646.1 976.406 L2646.1 1098.26  Z" fill="#f5f0f0" fill-rule="evenodd" fill-opacity="0.8"/>
<polyline clip-path="url(#clip444)" style="stroke:#000000; stroke-linecap:round; stroke-linejoin:round; stroke-width:4; stroke-opacity:0.8; fill:none" points="2646.1,1098.26 2795.55,1098.26 2795.55,976.406 2646.1,976.406 2646.1,1098.26 "/>
<path clip-path="url(#clip444)" d="M2496.64 976.406 L2646.1 976.406 L2646.1 854.555 L2496.64 854.555 L2496.64 976.406  Z" fill="#b4eeb4" fill-rule="evenodd" fill-opacity="1"/>
<polyline clip-path="url(#clip444)" style="stroke:#000000; stroke-linecap:round; stroke-linejoin:round; stroke-width:4; stroke-opacity:1; fill:none" points="2496.64,976.406 2646.1,976.406 2646.1,854.555 2496.64,854.555 2496.64,976.406 "/>
<path clip-path="url(#clip444)" d="M2496.64 1098.26 L2646.1 1098.26 L2646.1 976.406 L2496.64 976.406 L2496.64 1098.26  Z" fill="#326a1b" fill-rule="evenodd" fill-opacity="0.8"/>
<polyline clip-path="url(#clip444)" style="stroke:#000000; stroke-linecap:round; stroke-linejoin:round; stroke-width:4; stroke-opacity:0.8; fill:none" points="2496.64,1098.26 2646.1,1098.26 2646.1,976.406 2496.64,976.406 2496.64,1098.26 "/>
<path clip-path="url(#clip444)" d="M2347.19 976.406 L2496.64 976.406 L2496.64 854.555 L2347.19 854.555 L2347.19 976.406  Z" fill="#eedd82" fill-rule="evenodd" fill-opacity="1"/>
<polyline clip-path="url(#clip444)" style="stroke:#000000; stroke-linecap:round; stroke-linejoin:round; stroke-width:4; stroke-opacity:1; fill:none" points="2347.19,976.406 2496.64,976.406 2496.64,854.555 2347.19,854.555 2347.19,976.406 "/>
<path clip-path="url(#clip444)" d="M2347.19 1098.26 L2496.64 1098.26 L2496.64 976.406 L2347.19 976.406 L2347.19 1098.26  Z" fill="#f4f2ee" fill-rule="evenodd" fill-opacity="0.8"/>
<polyline clip-path="url(#clip444)" style="stroke:#000000; stroke-linecap:round; stroke-linejoin:round; stroke-width:4; stroke-opacity:0.8; fill:none" points="2347.19,1098.26 2496.64,1098.26 2496.64,976.406 2347.19,976.406 2347.19,1098.26 "/>
<path clip-path="url(#clip444)" d="M2197.73 976.406 L2347.19 976.406 L2347.19 854.555 L2197.73 854.555 L2197.73 976.406  Z" fill="#fa8072" fill-rule="evenodd" fill-opacity="1"/>
<polyline clip-path="url(#clip444)" style="stroke:#000000; stroke-linecap:round; stroke-linejoin:round; stroke-width:4; stroke-opacity:1; fill:none" points="2197.73,976.406 2347.19,976.406 2347.19,854.555 2197.73,854.555 2197.73,976.406 "/>
<path clip-path="url(#clip444)" d="M2197.73 1098.26 L2347.19 1098.26 L2347.19 976.406 L2197.73 976.406 L2197.73 1098.26  Z" fill="#98bd70" fill-rule="evenodd" fill-opacity="0.8"/>
<polyline clip-path="url(#clip444)" style="stroke:#000000; stroke-linecap:round; stroke-linejoin:round; stroke-width:4; stroke-opacity:0.8; fill:none" points="2197.73,1098.26 2347.19,1098.26 2347.19,976.406 2197.73,976.406 2197.73,1098.26 "/>
<path clip-path="url(#clip444)" d="M2048.27 976.406 L2197.73 976.406 L2197.73 854.555 L2048.27 854.555 L2048.27 976.406  Z" fill="#b4eeb4" fill-rule="evenodd" fill-opacity="1"/>
<polyline clip-path="url(#clip444)" style="stroke:#000000; stroke-linecap:round; stroke-linejoin:round; stroke-width:4; stroke-opacity:1; fill:none" points="2048.27,976.406 2197.73,976.406 2197.73,854.555 2048.27,854.555 2048.27,976.406 "/>
<path clip-path="url(#clip444)" d="M2048.27 1098.26 L2197.73 1098.26 L2197.73 976.406 L2048.27 976.406 L2048.27 1098.26  Z" fill="#0c4b00" fill-rule="evenodd" fill-opacity="0.8"/>
<polyline clip-path="url(#clip444)" style="stroke:#000000; stroke-linecap:round; stroke-linejoin:round; stroke-width:4; stroke-opacity:0.8; fill:none" points="2048.27,1098.26 2197.73,1098.26 2197.73,976.406 2048.27,976.406 2048.27,1098.26 "/>
<path clip-path="url(#clip444)" d="M1898.82 976.406 L2048.27 976.406 L2048.27 854.555 L1898.82 854.555 L1898.82 976.406  Z" fill="#eedd82" fill-rule="evenodd" fill-opacity="1"/>
<polyline clip-path="url(#clip444)" style="stroke:#000000; stroke-linecap:round; stroke-linejoin:round; stroke-width:4; stroke-opacity:1; fill:none" points="1898.82,976.406 2048.27,976.406 2048.27,854.555 1898.82,854.555 1898.82,976.406 "/>
<path clip-path="url(#clip444)" d="M1898.82 1098.26 L2048.27 1098.26 L2048.27 976.406 L1898.82 976.406 L1898.82 1098.26  Z" fill="#f5e7f0" fill-rule="evenodd" fill-opacity="0.8"/>
<polyline clip-path="url(#clip444)" style="stroke:#000000; stroke-linecap:round; stroke-linejoin:round; stroke-width:4; stroke-opacity:0.8; fill:none" points="1898.82,1098.26 2048.27,1098.26 2048.27,976.406 1898.82,976.406 1898.82,1098.26 "/>
<path clip-path="url(#clip444)" d="M1749.36 976.406 L1898.82 976.406 L1898.82 854.555 L1749.36 854.555 L1749.36 976.406  Z" fill="#fa8072" fill-rule="evenodd" fill-opacity="1"/>
<polyline clip-path="url(#clip444)" style="stroke:#000000; stroke-linecap:round; stroke-linejoin:round; stroke-width:4; stroke-opacity:1; fill:none" points="1749.36,976.406 1898.82,976.406 1898.82,854.555 1749.36,854.555 1749.36,976.406 "/>
<path clip-path="url(#clip444)" d="M1749.36 1098.26 L1898.82 1098.26 L1898.82 976.406 L1749.36 976.406 L1749.36 1098.26  Z" fill="#0c4b00" fill-rule="evenodd" fill-opacity="0.8"/>
<polyline clip-path="url(#clip444)" style="stroke:#000000; stroke-linecap:round; stroke-linejoin:round; stroke-width:4; stroke-opacity:0.8; fill:none" points="1749.36,1098.26 1898.82,1098.26 1898.82,976.406 1749.36,976.406 1749.36,1098.26 "/>
<path clip-path="url(#clip444)" d="M1599.9 976.406 L1749.36 976.406 L1749.36 854.555 L1599.9 854.555 L1599.9 976.406  Z" fill="#b4eeb4" fill-rule="evenodd" fill-opacity="1"/>
<polyline clip-path="url(#clip444)" style="stroke:#000000; stroke-linecap:round; stroke-linejoin:round; stroke-width:4; stroke-opacity:1; fill:none" points="1599.9,976.406 1749.36,976.406 1749.36,854.555 1599.9,854.555 1599.9,976.406 "/>
<path clip-path="url(#clip444)" d="M1599.9 1098.26 L1749.36 1098.26 L1749.36 976.406 L1599.9 976.406 L1599.9 1098.26  Z" fill="#0c4b00" fill-rule="evenodd" fill-opacity="0.8"/>
<polyline clip-path="url(#clip444)" style="stroke:#000000; stroke-linecap:round; stroke-linejoin:round; stroke-width:4; stroke-opacity:0.8; fill:none" points="1599.9,1098.26 1749.36,1098.26 1749.36,976.406 1599.9,976.406 1599.9,1098.26 "/>
<path clip-path="url(#clip444)" d="M1450.45 976.406 L1599.9 976.406 L1599.9 854.555 L1450.45 854.555 L1450.45 976.406  Z" fill="#eedd82" fill-rule="evenodd" fill-opacity="1"/>
<polyline clip-path="url(#clip444)" style="stroke:#000000; stroke-linecap:round; stroke-linejoin:round; stroke-width:4; stroke-opacity:1; fill:none" points="1450.45,976.406 1599.9,976.406 1599.9,854.555 1450.45,854.555 1450.45,976.406 "/>
<path clip-path="url(#clip444)" d="M1450.45 1098.26 L1599.9 1098.26 L1599.9 976.406 L1450.45 976.406 L1450.45 1098.26  Z" fill="#f5f0f0" fill-rule="evenodd" fill-opacity="0.8"/>
<polyline clip-path="url(#clip444)" style="stroke:#000000; stroke-linecap:round; stroke-linejoin:round; stroke-width:4; stroke-opacity:0.8; fill:none" points="1450.45,1098.26 1599.9,1098.26 1599.9,976.406 1450.45,976.406 1450.45,1098.26 "/>
<path clip-path="url(#clip444)" d="M1300.99 976.406 L1450.45 976.406 L1450.45 854.555 L1300.99 854.555 L1300.99 976.406  Z" fill="#fa8072" fill-rule="evenodd" fill-opacity="1"/>
<polyline clip-path="url(#clip444)" style="stroke:#000000; stroke-linecap:round; stroke-linejoin:round; stroke-width:4; stroke-opacity:1; fill:none" points="1300.99,976.406 1450.45,976.406 1450.45,854.555 1300.99,854.555 1300.99,976.406 "/>
<path clip-path="url(#clip444)" d="M1300.99 1098.26 L1450.45 1098.26 L1450.45 976.406 L1300.99 976.406 L1300.99 1098.26  Z" fill="#ae4c95" fill-rule="evenodd" fill-opacity="0.8"/>
<polyline clip-path="url(#clip444)" style="stroke:#000000; stroke-linecap:round; stroke-linejoin:round; stroke-width:4; stroke-opacity:0.8; fill:none" points="1300.99,1098.26 1450.45,1098.26 1450.45,976.406 1300.99,976.406 1300.99,1098.26 "/>
<path clip-path="url(#clip444)" d="M1151.53 976.406 L1300.99 976.406 L1300.99 854.555 L1151.53 854.555 L1151.53 976.406  Z" fill="#c0c0c0" fill-rule="evenodd" fill-opacity="1"/>
<polyline clip-path="url(#clip444)" style="stroke:#000000; stroke-linecap:round; stroke-linejoin:round; stroke-width:4; stroke-opacity:1; fill:none" points="1151.53,976.406 1300.99,976.406 1300.99,854.555 1151.53,854.555 1151.53,976.406 "/>
<path clip-path="url(#clip444)" d="M1151.53 1098.26 L1300.99 1098.26 L1300.99 976.406 L1151.53 976.406 L1151.53 1098.26  Z" fill="#c0c0c0" fill-rule="evenodd" fill-opacity="0.8"/>
<polyline clip-path="url(#clip444)" style="stroke:#000000; stroke-linecap:round; stroke-linejoin:round; stroke-width:4; stroke-opacity:0.8; fill:none" points="1151.53,1098.26 1300.99,1098.26 1300.99,976.406 1151.53,976.406 1151.53,1098.26 "/>
<path clip-path="url(#clip440)" d="M2967.32 885.241 L3018.48 885.241 L3018.48 892.127 L2997.01 892.127 L2997.01 945.721 L2988.79 945.721 L2988.79 892.127 L2967.32 892.127 L2967.32 885.241 Z" fill="#000000" fill-rule="nonzero" fill-opacity="1" /><path clip-path="url(#clip440)" d="M3026.38 885.241 L3037.4 885.241 L3064.22 935.836 L3064.22 885.241 L3072.16 885.241 L3072.16 945.721 L3061.14 945.721 L3034.32 895.125 L3034.32 945.721 L3026.38 945.721 L3026.38 885.241 Z" fill="#000000" fill-rule="nonzero" fill-opacity="1" /><path clip-path="url(#clip440)" d="M3019.74 1015.15 L3008.64 1045.25 L3030.88 1045.25 L3019.74 1015.15 M3015.12 1007.09 L3024.4 1007.09 L3047.45 1067.57 L3038.94 1067.57 L3033.43 1052.06 L3006.17 1052.06 L3000.66 1067.57 L2992.03 1067.57 L3015.12 1007.09 Z" fill="#000000" fill-rule="nonzero" fill-opacity="1" /><path clip-path="url(#clip440)" d="M2827.22 885.241 L2835.4 885.241 L2835.4 938.834 L2864.85 938.834 L2864.85 945.721 L2827.22 945.721 L2827.22 885.241 Z" fill="#000000" fill-rule="nonzero" fill-opacity="1" /><path clip-path="url(#clip440)" d="M2909.7 887.226 L2909.7 895.206 Q2905.04 892.978 2900.91 891.884 Q2896.78 890.79 2892.93 890.79 Q2886.24 890.79 2882.6 893.383 Q2878.99 895.975 2878.99 900.756 Q2878.99 904.766 2881.38 906.832 Q2883.81 908.857 2890.54 910.113 L2895.48 911.126 Q2904.63 912.868 2908.97 917.283 Q2913.34 921.658 2913.34 929.031 Q2913.34 937.821 2907.43 942.358 Q2901.56 946.895 2890.17 946.895 Q2885.88 946.895 2881.02 945.923 Q2876.2 944.951 2871.01 943.047 L2871.01 934.621 Q2875.99 937.416 2880.78 938.834 Q2885.56 940.252 2890.17 940.252 Q2897.18 940.252 2900.99 937.497 Q2904.8 934.743 2904.8 929.638 Q2904.8 925.182 2902.04 922.671 Q2899.33 920.159 2893.09 918.904 L2888.11 917.931 Q2878.95 916.108 2874.86 912.22 Q2870.77 908.331 2870.77 901.404 Q2870.77 893.383 2876.4 888.765 Q2882.07 884.147 2892 884.147 Q2896.25 884.147 2900.66 884.916 Q2905.08 885.686 2909.7 887.226 Z" fill="#000000" fill-rule="nonzero" fill-opacity="1" /><path clip-path="url(#clip440)" d="M2894.67 1011.75 L2894.67 1020.38 Q2890.54 1016.53 2885.84 1014.63 Q2881.18 1012.72 2875.91 1012.72 Q2865.54 1012.72 2860.03 1019.08 Q2854.53 1025.4 2854.53 1037.39 Q2854.53 1049.34 2860.03 1055.7 Q2865.54 1062.02 2875.91 1062.02 Q2881.18 1062.02 2885.84 1060.12 Q2890.54 1058.21 2894.67 1054.37 L2894.67 1062.91 Q2890.38 1065.83 2885.56 1067.29 Q2880.78 1068.75 2875.43 1068.75 Q2861.7 1068.75 2853.8 1060.36 Q2845.9 1051.93 2845.9 1037.39 Q2845.9 1022.81 2853.8 1014.42 Q2861.7 1006 2875.43 1006 Q2880.86 1006 2885.64 1007.46 Q2890.46 1008.87 2894.67 1011.75 Z" fill="#000000" fill-rule="nonzero" fill-opacity="1" /><path clip-path="url(#clip440)" d="M2706.24 937.092 L2706.24 920.848 L2692.88 920.848 L2692.88 914.124 L2714.35 914.124 L2714.35 940.09 Q2709.61 943.452 2703.89 945.194 Q2698.18 946.895 2691.7 946.895 Q2677.52 946.895 2669.5 938.631 Q2661.52 930.327 2661.52 915.541 Q2661.52 900.715 2669.5 892.451 Q2677.52 884.147 2691.7 884.147 Q2697.62 884.147 2702.92 885.605 Q2708.27 887.063 2712.77 889.899 L2712.77 898.609 Q2708.23 894.76 2703.12 892.816 Q2698.02 890.871 2692.39 890.871 Q2681.29 890.871 2675.7 897.069 Q2670.15 903.267 2670.15 915.541 Q2670.15 927.775 2675.7 933.973 Q2681.29 940.171 2692.39 940.171 Q2696.72 940.171 2700.13 939.442 Q2703.53 938.672 2706.24 937.092 Z" fill="#000000" fill-rule="nonzero" fill-opacity="1" /><path clip-path="url(#clip440)" d="M2737.48 891.965 L2737.48 938.996 L2747.36 938.996 Q2759.88 938.996 2765.67 933.325 Q2771.5 927.654 2771.5 915.42 Q2771.5 903.267 2765.67 897.636 Q2759.88 891.965 2747.36 891.965 L2737.48 891.965 M2729.29 885.241 L2746.1 885.241 Q2763.69 885.241 2771.91 892.573 Q2780.13 899.864 2780.13 915.42 Q2780.13 931.056 2771.87 938.388 Q2763.6 945.721 2746.1 945.721 L2729.29 945.721 L2729.29 885.241 Z" fill="#000000" fill-rule="nonzero" fill-opacity="1" /><path clip-path="url(#clip440)" d="M2739.14 1058.94 L2739.14 1042.7 L2725.77 1042.7 L2725.77 1035.97 L2747.24 1035.97 L2747.24 1061.94 Q2742.5 1065.3 2736.79 1067.04 Q2731.08 1068.75 2724.59 1068.75 Q2710.42 1068.75 2702.4 1060.48 Q2694.41 1052.18 2694.41 1037.39 Q2694.41 1022.57 2702.4 1014.3 Q2710.42 1006 2724.59 1006 Q2730.51 1006 2735.82 1007.46 Q2741.16 1008.91 2745.66 1011.75 L2745.66 1020.46 Q2741.12 1016.61 2736.02 1014.67 Q2730.91 1012.72 2725.28 1012.72 Q2714.18 1012.72 2708.59 1018.92 Q2703.04 1025.12 2703.04 1037.39 Q2703.04 1049.63 2708.59 1055.82 Q2714.18 1062.02 2725.28 1062.02 Q2729.62 1062.02 2733.02 1061.29 Q2736.42 1060.52 2739.14 1058.94 Z" fill="#000000" fill-rule="nonzero" fill-opacity="1" /><path clip-path="url(#clip440)" d="M2518.95 885.241 L2570.11 885.241 L2570.11 892.127 L2548.64 892.127 L2548.64 945.721 L2540.42 945.721 L2540.42 892.127 L2518.95 892.127 L2518.95 885.241 Z" fill="#000000" fill-rule="nonzero" fill-opacity="1" /><path clip-path="url(#clip440)" d="M2578.01 885.241 L2589.03 885.241 L2615.85 935.836 L2615.85 885.241 L2623.79 885.241 L2623.79 945.721 L2612.77 945.721 L2585.95 895.125 L2585.95 945.721 L2578.01 945.721 L2578.01 885.241 Z" fill="#000000" fill-rule="nonzero" fill-opacity="1" /><path clip-path="url(#clip440)" d="M2571.37 1015.15 L2560.27 1045.25 L2582.51 1045.25 L2571.37 1015.15 M2566.75 1007.09 L2576.03 1007.09 L2599.08 1067.57 L2590.57 1067.57 L2585.06 1052.06 L2557.8 1052.06 L2552.29 1067.57 L2543.66 1067.57 L2566.75 1007.09 Z" fill="#000000" fill-rule="nonzero" fill-opacity="1" /><path clip-path="url(#clip440)" d="M2392.08 893.302 L2380.98 923.4 L2403.22 923.4 L2392.08 893.302 M2387.46 885.241 L2396.74 885.241 L2419.79 945.721 L2411.28 945.721 L2405.77 930.206 L2378.51 930.206 L2373 945.721 L2364.37 945.721 L2387.46 885.241 Z" fill="#000000" fill-rule="nonzero" fill-opacity="1" /><path clip-path="url(#clip440)" d="M2436.8 891.965 L2436.8 938.996 L2446.69 938.996 Q2459.2 938.996 2465 933.325 Q2470.83 927.654 2470.83 915.42 Q2470.83 903.267 2465 897.636 Q2459.2 891.965 2446.69 891.965 L2436.8 891.965 M2428.62 885.241 L2445.43 885.241 Q2463.01 885.241 2471.23 892.573 Q2479.46 899.864 2479.46 915.42 Q2479.46 931.056 2471.19 938.388 Q2462.93 945.721 2445.43 945.721 L2428.62 945.721 L2428.62 885.241 Z" fill="#000000" fill-rule="nonzero" fill-opacity="1" /><path clip-path="url(#clip440)" d="M2398.76 1007.09 L2406.99 1007.09 L2406.99 1043.83 Q2406.99 1053.56 2410.51 1057.85 Q2414.03 1062.1 2421.93 1062.1 Q2429.79 1062.1 2433.32 1057.85 Q2436.84 1053.56 2436.84 1043.83 L2436.84 1007.09 L2445.06 1007.09 L2445.06 1044.85 Q2445.06 1056.67 2439.19 1062.71 Q2433.36 1068.75 2421.93 1068.75 Q2410.47 1068.75 2404.6 1062.71 Q2398.76 1056.67 2398.76 1044.85 L2398.76 1007.09 Z" fill="#000000" fill-rule="nonzero" fill-opacity="1" /><path clip-path="url(#clip440)" d="M2258.3 887.226 L2258.3 895.206 Q2253.64 892.978 2249.51 891.884 Q2245.38 890.79 2241.53 890.79 Q2234.84 890.79 2231.2 893.383 Q2227.59 895.975 2227.59 900.756 Q2227.59 904.766 2229.98 906.832 Q2232.41 908.857 2239.14 910.113 L2244.08 911.126 Q2253.24 912.868 2257.57 917.283 Q2261.95 921.658 2261.95 929.031 Q2261.95 937.821 2256.03 942.358 Q2250.16 946.895 2238.77 946.895 Q2234.48 946.895 2229.62 945.923 Q2224.8 944.951 2219.61 943.047 L2219.61 934.621 Q2224.6 937.416 2229.38 938.834 Q2234.16 940.252 2238.77 940.252 Q2245.78 940.252 2249.59 937.497 Q2253.4 934.743 2253.4 929.638 Q2253.4 925.182 2250.64 922.671 Q2247.93 920.159 2241.69 918.904 L2236.71 917.931 Q2227.55 916.108 2223.46 912.22 Q2219.37 908.331 2219.37 901.404 Q2219.37 893.383 2225 888.765 Q2230.67 884.147 2240.6 884.147 Q2244.85 884.147 2249.27 884.916 Q2253.68 885.686 2258.3 887.226 Z" fill="#000000" fill-rule="nonzero" fill-opacity="1" /><path clip-path="url(#clip440)" d="M2282.89 891.965 L2282.89 938.996 L2292.77 938.996 Q2305.29 938.996 2311.08 933.325 Q2316.92 927.654 2316.92 915.42 Q2316.92 903.267 2311.08 897.636 Q2305.29 891.965 2292.77 891.965 L2282.89 891.965 M2274.71 885.241 L2291.52 885.241 Q2309.1 885.241 2317.32 892.573 Q2325.54 899.864 2325.54 915.42 Q2325.54 931.056 2317.28 938.388 Q2309.02 945.721 2291.52 945.721 L2274.71 945.721 L2274.71 885.241 Z" fill="#000000" fill-rule="nonzero" fill-opacity="1" /><path clip-path="url(#clip440)" d="M2290.77 1058.94 L2290.77 1042.7 L2277.4 1042.7 L2277.4 1035.97 L2298.87 1035.97 L2298.87 1061.94 Q2294.13 1065.3 2288.42 1067.04 Q2282.71 1068.75 2276.22 1068.75 Q2262.05 1068.75 2254.03 1060.48 Q2246.05 1052.18 2246.05 1037.39 Q2246.05 1022.57 2254.03 1014.3 Q2262.05 1006 2276.22 1006 Q2282.14 1006 2287.45 1007.46 Q2292.79 1008.91 2297.29 1011.75 L2297.29 1020.46 Q2292.75 1016.61 2287.65 1014.67 Q2282.54 1012.72 2276.91 1012.72 Q2265.81 1012.72 2260.22 1018.92 Q2254.67 1025.12 2254.67 1037.39 Q2254.67 1049.63 2260.22 1055.82 Q2265.81 1062.02 2276.91 1062.02 Q2281.25 1062.02 2284.65 1061.29 Q2288.05 1060.52 2290.77 1058.94 Z" fill="#000000" fill-rule="nonzero" fill-opacity="1" /><path clip-path="url(#clip440)" d="M2066.55 885.241 L2077.57 885.241 L2104.39 935.836 L2104.39 885.241 L2112.33 885.241 L2112.33 945.721 L2101.31 945.721 L2074.49 895.125 L2074.49 945.721 L2066.55 945.721 L2066.55 885.241 Z" fill="#000000" fill-rule="nonzero" fill-opacity="1" /><path clip-path="url(#clip440)" d="M2136.79 891.965 L2136.79 938.996 L2146.68 938.996 Q2159.2 938.996 2164.99 933.325 Q2170.82 927.654 2170.82 915.42 Q2170.82 903.267 2164.99 897.636 Q2159.2 891.965 2146.68 891.965 L2136.79 891.965 M2128.61 885.241 L2145.42 885.241 Q2163 885.241 2171.23 892.573 Q2179.45 899.864 2179.45 915.42 Q2179.45 931.056 2171.19 938.388 Q2162.92 945.721 2145.42 945.721 L2128.61 945.721 L2128.61 885.241 Z" fill="#000000" fill-rule="nonzero" fill-opacity="1" /><path clip-path="url(#clip440)" d="M2099.85 1007.09 L2108.07 1007.09 L2108.07 1043.83 Q2108.07 1053.56 2111.6 1057.85 Q2115.12 1062.1 2123.02 1062.1 Q2130.88 1062.1 2134.4 1057.85 Q2137.93 1053.56 2137.93 1043.83 L2137.93 1007.09 L2146.15 1007.09 L2146.15 1044.85 Q2146.15 1056.67 2140.28 1062.71 Q2134.44 1068.75 2123.02 1068.75 Q2111.56 1068.75 2105.68 1062.71 Q2099.85 1056.67 2099.85 1044.85 L2099.85 1007.09 Z" fill="#000000" fill-rule="nonzero" fill-opacity="1" /><path clip-path="url(#clip440)" d="M1966.19 889.899 L1966.19 898.528 Q1962.06 894.679 1957.36 892.775 Q1952.7 890.871 1947.44 890.871 Q1937.07 890.871 1931.56 897.231 Q1926.05 903.551 1926.05 915.541 Q1926.05 927.491 1931.56 933.851 Q1937.07 940.171 1947.44 940.171 Q1952.7 940.171 1957.36 938.267 Q1962.06 936.363 1966.19 932.515 L1966.19 941.062 Q1961.9 943.979 1957.08 945.437 Q1952.3 946.895 1946.95 946.895 Q1933.22 946.895 1925.32 938.51 Q1917.42 930.084 1917.42 915.541 Q1917.42 900.958 1925.32 892.573 Q1933.22 884.147 1946.95 884.147 Q1952.38 884.147 1957.16 885.605 Q1961.98 887.023 1966.19 889.899 Z" fill="#000000" fill-rule="nonzero" fill-opacity="1" /><path clip-path="url(#clip440)" d="M1987.01 891.965 L1987.01 938.996 L1996.9 938.996 Q2009.42 938.996 2015.21 933.325 Q2021.04 927.654 2021.04 915.42 Q2021.04 903.267 2015.21 897.636 Q2009.42 891.965 1996.9 891.965 L1987.01 891.965 M1978.83 885.241 L1995.64 885.241 Q2013.22 885.241 2021.45 892.573 Q2029.67 899.864 2029.67 915.42 Q2029.67 931.056 2021.41 938.388 Q2013.14 945.721 1995.64 945.721 L1978.83 945.721 L1978.83 885.241 Z" fill="#000000" fill-rule="nonzero" fill-opacity="1" /><path clip-path="url(#clip440)" d="M1950.39 1007.09 L1958.62 1007.09 L1958.62 1043.83 Q1958.62 1053.56 1962.14 1057.85 Q1965.67 1062.1 1973.56 1062.1 Q1981.42 1062.1 1984.95 1057.85 Q1988.47 1053.56 1988.47 1043.83 L1988.47 1007.09 L1996.7 1007.09 L1996.7 1044.85 Q1996.7 1056.67 1990.82 1062.71 Q1984.99 1068.75 1973.56 1068.75 Q1962.1 1068.75 1956.23 1062.71 Q1950.39 1056.67 1950.39 1044.85 L1950.39 1007.09 Z" fill="#000000" fill-rule="nonzero" fill-opacity="1" /><path clip-path="url(#clip440)" d="M1767.64 885.241 L1778.66 885.241 L1805.47 935.836 L1805.47 885.241 L1813.41 885.241 L1813.41 945.721 L1802.4 945.721 L1775.58 895.125 L1775.58 945.721 L1767.64 945.721 L1767.64 885.241 Z" fill="#000000" fill-rule="nonzero" fill-opacity="1" /><path clip-path="url(#clip440)" d="M1837.88 891.965 L1837.88 938.996 L1847.77 938.996 Q1860.28 938.996 1866.08 933.325 Q1871.91 927.654 1871.91 915.42 Q1871.91 903.267 1866.08 897.636 Q1860.28 891.965 1847.77 891.965 L1837.88 891.965 M1829.7 885.241 L1846.51 885.241 Q1864.09 885.241 1872.31 892.573 Q1880.54 899.864 1880.54 915.42 Q1880.54 931.056 1872.27 938.388 Q1864.01 945.721 1846.51 945.721 L1829.7 945.721 L1829.7 885.241 Z" fill="#000000" fill-rule="nonzero" fill-opacity="1" /><path clip-path="url(#clip440)" d="M1800.94 1007.09 L1809.16 1007.09 L1809.16 1043.83 Q1809.16 1053.56 1812.68 1057.85 Q1816.21 1062.1 1824.11 1062.1 Q1831.97 1062.1 1835.49 1057.85 Q1839.02 1053.56 1839.02 1043.83 L1839.02 1007.09 L1847.24 1007.09 L1847.24 1044.85 Q1847.24 1056.67 1841.37 1062.71 Q1835.53 1068.75 1824.11 1068.75 Q1812.64 1068.75 1806.77 1062.71 Q1800.94 1056.67 1800.94 1044.85 L1800.94 1007.09 Z" fill="#000000" fill-rule="nonzero" fill-opacity="1" /><path clip-path="url(#clip440)" d="M1618.18 885.241 L1629.2 885.241 L1656.02 935.836 L1656.02 885.241 L1663.96 885.241 L1663.96 945.721 L1652.94 945.721 L1626.12 895.125 L1626.12 945.721 L1618.18 945.721 L1618.18 885.241 Z" fill="#000000" fill-rule="nonzero" fill-opacity="1" /><path clip-path="url(#clip440)" d="M1688.42 891.965 L1688.42 938.996 L1698.31 938.996 Q1710.83 938.996 1716.62 933.325 Q1722.45 927.654 1722.45 915.42 Q1722.45 903.267 1716.62 897.636 Q1710.83 891.965 1698.31 891.965 L1688.42 891.965 M1680.24 885.241 L1697.05 885.241 Q1714.63 885.241 1722.86 892.573 Q1731.08 899.864 1731.08 915.42 Q1731.08 931.056 1722.82 938.388 Q1714.55 945.721 1697.05 945.721 L1680.24 945.721 L1680.24 885.241 Z" fill="#000000" fill-rule="nonzero" fill-opacity="1" /><path clip-path="url(#clip440)" d="M1651.48 1007.09 L1659.7 1007.09 L1659.7 1043.83 Q1659.7 1053.56 1663.23 1057.85 Q1666.75 1062.1 1674.65 1062.1 Q1682.51 1062.1 1686.03 1057.85 Q1689.56 1053.56 1689.56 1043.83 L1689.56 1007.09 L1697.78 1007.09 L1697.78 1044.85 Q1697.78 1056.67 1691.91 1062.71 Q1686.08 1068.75 1674.65 1068.75 Q1663.19 1068.75 1657.31 1062.71 Q1651.48 1056.67 1651.48 1044.85 L1651.48 1007.09 Z" fill="#000000" fill-rule="nonzero" fill-opacity="1" /><path clip-path="url(#clip440)" d="M1493.09 945.721 L1470 885.241 L1478.55 885.241 L1497.71 936.16 L1516.91 885.241 L1525.42 885.241 L1502.37 945.721 L1493.09 945.721 Z" fill="#000000" fill-rule="nonzero" fill-opacity="1" /><path clip-path="url(#clip440)" d="M1534.25 885.241 L1542.43 885.241 L1542.43 910.032 L1572.17 910.032 L1572.17 885.241 L1580.35 885.241 L1580.35 945.721 L1572.17 945.721 L1572.17 916.919 L1542.43 916.919 L1542.43 945.721 L1534.25 945.721 L1534.25 885.241 Z" fill="#000000" fill-rule="nonzero" fill-opacity="1" /><path clip-path="url(#clip440)" d="M1525.18 1015.15 L1514.08 1045.25 L1536.32 1045.25 L1525.18 1015.15 M1520.56 1007.09 L1529.83 1007.09 L1552.88 1067.57 L1544.38 1067.57 L1538.87 1052.06 L1511.6 1052.06 L1506.1 1067.57 L1497.47 1067.57 L1520.56 1007.09 Z" fill="#000000" fill-rule="nonzero" fill-opacity="1" /><path clip-path="url(#clip440)" d="M1321.8 885.241 L1332.82 885.241 L1359.64 935.836 L1359.64 885.241 L1367.58 885.241 L1367.58 945.721 L1356.56 945.721 L1329.74 895.125 L1329.74 945.721 L1321.8 945.721 L1321.8 885.241 Z" fill="#000000" fill-rule="nonzero" fill-opacity="1" /><path clip-path="url(#clip440)" d="M1383.86 885.241 L1394.88 885.241 L1421.7 935.836 L1421.7 885.241 L1429.64 885.241 L1429.64 945.721 L1418.62 945.721 L1391.8 895.125 L1391.8 945.721 L1383.86 945.721 L1383.86 885.241 Z" fill="#000000" fill-rule="nonzero" fill-opacity="1" /><path clip-path="url(#clip440)" d="M1375.72 1015.15 L1364.62 1045.25 L1386.86 1045.25 L1375.72 1015.15 M1371.1 1007.09 L1380.38 1007.09 L1403.43 1067.57 L1394.92 1067.57 L1389.41 1052.06 L1362.15 1052.06 L1356.64 1067.57 L1348.01 1067.57 L1371.1 1007.09 Z" fill="#000000" fill-rule="nonzero" fill-opacity="1" /><path clip-path="url(#clip440)" d="M1226.26 1015.15 L1215.16 1045.25 L1237.4 1045.25 L1226.26 1015.15 M1221.64 1007.09 L1230.92 1007.09 L1253.97 1067.57 L1245.46 1067.57 L1239.95 1052.06 L1212.69 1052.06 L1207.18 1067.57 L1198.55 1067.57 L1221.64 1007.09 Z" fill="#000000" fill-rule="nonzero" fill-opacity="1" /><g clip-path="url(#clip440)">
<text style="fill:#000000; fill-opacity:1; font-family:Arial,Helvetica Neue,Helvetica,sans-serif; font-size:82px; font-style:italic; text-anchor:end;" transform="rotate(0, 1039.44, 1006.41)" x="1039.44" y="1006.41">Huperzia serrata</text>
</g>
</svg>
